<svg width="114" height="120" viewBox="0 0 114 120" fill="none" xmlns="http://www.w3.org/2000/svg">
<g clip-path="url(#clip0_110_647)">
<path opacity="0.1" fill-rule="evenodd" clip-rule="evenodd" d="M63.8843 1.70902C63.9767 1.8612 76.3191 19.8181 115.565 19.8181C116.791 19.8181 117.967 20.3526 118.834 21.3039C119.7 22.2552 120.188 23.5454 120.188 24.8907V69.3266C120.188 116.197 87.3208 141.222 67.721 149.592L61.8503 152.128C61.297 152.396 60.6987 152.535 60.0938 152.535C59.4888 152.535 58.8905 152.396 58.3372 152.128L52.4665 149.592C32.8667 141.171 0 116.248 0 69.3266V24.8907C0 23.5454 0.487022 22.2552 1.35393 21.3039C2.22083 20.3526 3.39661 19.8181 4.6226 19.8181C43.8684 19.8181 56.3032 1.70902 56.3032 1.70902C56.7292 1.03929 57.2963 0.492342 57.9562 0.114676C58.6162 -0.262989 59.3495 -0.460205 60.0938 -0.460205C60.838 -0.460205 61.5713 -0.262989 62.2313 0.114676C62.8912 0.492342 63.4583 1.03929 63.8843 1.70902ZM51.2235 50.8003C53.7021 48.4897 56.842 47.2086 60.0942 47.1809C63.3464 47.2086 66.4863 48.4897 68.9649 50.8003C71.4436 53.1108 73.1034 56.3039 73.6541 59.8212C74.2049 63.3386 73.6115 64.9564 71.9779 68.0424C70.3442 71.1283 67.7741 73.486 64.7168 74.7033V90.8341C64.7168 92.1795 64.2298 93.4697 63.3629 94.421C62.496 95.3723 61.3202 95.9067 60.0942 95.9067C58.8682 95.9067 57.6924 95.3723 56.8255 94.421C55.9586 93.4697 55.4716 92.1795 55.4716 90.8341V74.7033C52.4144 73.486 49.8443 71.1283 48.2106 68.0424C46.5769 64.9564 45.9836 63.3386 46.5343 59.8212C47.085 56.3039 48.7448 53.1108 51.2235 50.8003Z" fill="#2063CC"/>
</g>
<defs>
<clipPath id="clip0_110_647">
<rect width="114" height="120" fill="white"/>
</clipPath>
</defs>
</svg>
