<svg width="109" height="98" viewBox="0 0 109 98" fill="none" xmlns="http://www.w3.org/2000/svg">
<g opacity="0.1" clip-path="url(#clip0_110_639)">
<path d="M53.2324 116.888V86.0842L58.9527 87.0407L64.673 86.0842V116.888H53.2324Z" fill="#2063CC"/>
<path d="M19.7044 11.674C19.7044 11.674 -0.0523599 1.59404 0.0197449 21.337C0.0197449 21.337 -0.172534 38.7746 10.9797 53.073C10.9797 53.073 19.6803 65.679 34.7502 70.486C34.7502 70.486 30.5682 63.9132 28.4771 58.91C28.4771 58.91 14.7772 50.9638 9.85003 34.5808C9.85003 34.5808 1.14939 12.0909 19.6803 20.0862V11.674H19.7044Z" fill="#2063CC"/>
<path d="M58.9527 87.0408C68.8791 87.0408 77.1231 77.8928 77.1231 77.8928C87.338 67.3714 92.9141 49.5169 92.9141 49.5169C100.197 30.0682 97.5288 0 97.5288 0H58.9527H20.3526C20.3526 0 17.7087 30.0682 24.9913 49.5169C24.9913 49.5169 30.5674 67.3959 40.7823 77.8928C40.7823 77.8928 49.0263 87.0408 58.9527 87.0408Z" fill="#2063CC"/>
<path d="M98.3232 11.674C98.3232 11.674 118.08 1.59404 118.008 21.337C118.008 21.337 118.2 38.7746 107.048 53.073C107.048 53.073 98.3473 65.679 83.2773 70.486C83.2773 70.486 87.4594 63.9132 89.5505 58.91C89.5505 58.91 103.25 50.9638 108.178 34.5808C108.178 34.5808 116.878 12.0909 98.3472 20.0862V11.674H98.3232Z" fill="#2063CC"/>
</g>
<defs>
<clipPath id="clip0_110_639">
<rect width="109" height="98" fill="white"/>
</clipPath>
</defs>
</svg>
