<svg width="126" height="110" viewBox="0 0 126 110" fill="none" xmlns="http://www.w3.org/2000/svg">
<g opacity="0.1" clip-path="url(#clip0_110_637)">
<path d="M8.99547 1.03465C7.07523 3.37782 6.57968 6.48178 7.47786 10.2552C8.0973 12.8114 10.3582 17.3152 12.5572 20.3887C12.9599 20.9669 12.0617 20.1453 10.575 18.5629C9.05742 16.9805 7.04426 14.9111 6.11511 13.9982L4.41166 12.3549L3.8232 13.6635C3.04891 15.4285 3.07988 18.5629 3.88514 20.8452C4.50458 22.5189 6.79648 25.8663 7.35397 25.8663C7.50883 25.8663 7.63272 26.0184 7.63272 26.201C7.63272 26.4445 7.50883 26.4445 7.26106 26.2619C6.51774 25.7141 3.35863 24.9229 2.30559 25.0142L1.28352 25.1055L1.37644 26.7488C1.5313 28.7876 2.30559 30.3092 4.41166 32.5611L6.05316 34.2956L4.44264 34.0218C3.54446 33.9 2.08879 33.8696 1.22158 33.9609C-0.0792332 34.1131 -0.419922 34.2652 -0.419922 34.7217C-0.419922 35.026 -0.296035 35.3303 -0.141177 35.452C0.0136819 35.5433 0.261456 36.0302 0.354371 36.5475C0.633116 37.7343 4.00903 41.173 5.4647 41.7512L6.54871 42.2077L4.62847 42.3903C3.57543 42.512 2.15073 42.8163 1.43838 43.0902C0.199512 43.5771 0.137569 43.6684 0.292427 44.6422C0.633116 46.681 3.42057 49.1459 6.39385 50.0893C7.07523 50.3327 7.26106 50.4545 6.85843 50.4849C5.80539 50.5458 3.1728 51.9151 2.24364 52.9194L1.31449 53.8627L2.46045 55.0191C3.79223 56.3581 5.15498 57.0884 6.82746 57.3623L8.03535 57.5449L6.95134 58.2752C5.83636 59.0056 4.22583 61.1661 4.22583 61.8965C4.22583 62.4747 6.05316 63.4789 7.50883 63.7223C8.19021 63.8136 9.49102 63.7832 10.4202 63.6311C11.721 63.4485 11.9997 63.4485 11.5352 63.7223C9.52199 64.8787 7.94244 67.3132 7.94244 69.2912C7.94244 70.1737 9.67685 71.0258 11.4113 70.9953C12.8979 70.9649 13.2386 70.8128 16.1499 68.7434C16.6765 68.3783 16.3048 68.7739 15.3447 69.6259C13.2696 71.4822 12.7431 72.5473 13.0218 74.3123C13.3315 76.2599 13.5483 76.4729 15.6544 76.6251C17.4507 76.7468 17.5437 76.7163 18.4728 75.7426C19.0303 75.1644 19.6807 74.3732 19.9595 73.9471C20.5479 73.0646 25.2866 66.8872 25.5344 66.6437C25.8131 66.3698 25.2246 67.3741 24.5123 68.3174C22.9637 70.4171 19.402 76.5033 19.402 77.1119C19.402 77.4467 19.6807 78.4205 19.9904 79.2725C20.5789 80.7941 20.5789 80.7941 22.0965 80.8854C24.2336 81.0071 24.884 80.3985 26.9281 76.2599C29.3749 71.3301 29.4987 71.604 27.3307 76.9598C26.2157 79.6681 26.2777 80.7941 27.5475 82.2852L28.5696 83.472L30.0562 83.046C32.3791 82.3765 32.5649 82.0113 34.6091 74.1601C34.7949 73.3689 35.0117 72.7603 35.0736 72.8212C35.1356 72.8516 34.9807 74.3123 34.7639 76.0469C34.5162 77.751 34.3923 79.4247 34.4852 79.729C34.5781 80.0637 35.2595 80.7941 36.0338 81.3723L37.3965 82.4069L38.6664 81.7679C40.5556 80.7637 40.7724 80.2463 40.9892 76.2599C41.1441 73.3994 41.268 72.7299 41.6087 72.8516C42.0732 73.0342 43.2192 72.4256 44.3961 71.4214L45.0775 70.8432L45.604 71.9996C45.9137 72.7299 46.1615 74.3427 46.2544 76.2295C46.4093 79.1813 46.2854 79.8507 45.2633 82.2852C45.0465 82.8025 45.1085 82.833 45.8208 82.6504C46.5951 82.4678 46.6261 82.4982 46.3164 83.1677C45.666 84.5675 42.8166 85.3587 41.3299 84.5675C40.7415 84.2632 40.7105 84.2936 40.8963 85.024C41.0822 85.7239 40.9583 85.8152 39.8433 86.1195C37.985 86.6064 36.2815 88.4323 35.6311 90.5624C35.1975 92.0535 35.1975 92.5709 35.5382 94.6402C35.8789 96.8008 35.8789 97.1051 35.3834 97.8354C34.9188 98.5353 34.671 98.6266 33.8038 98.5049C32.8747 98.3527 32.7817 98.4136 32.9676 98.9005C33.0915 99.2048 33.4941 99.8134 33.8657 100.239C34.7949 101.274 36.6842 101.335 38.0779 100.361L39.0071 99.6917L38.8212 101.365C38.7283 102.278 38.5734 103.252 38.4496 103.526C38.2947 103.922 38.3876 103.982 38.9761 103.861C39.3787 103.769 39.9981 103.404 40.3698 103.1C40.9583 102.552 41.0512 102.552 41.299 103.009C41.5777 103.465 41.6396 103.465 41.9803 103.039C42.6617 102.248 43.0024 102.491 42.9095 103.678C42.8166 104.743 42.8785 104.835 43.5289 104.743C44.489 104.652 45.1085 104.135 45.5731 103.07L45.9447 102.187L46.5641 103.435L47.2146 104.682L47.803 103.769C48.3295 102.948 48.4534 102.887 48.8251 103.283C49.0729 103.617 49.7542 103.769 50.8073 103.769C52.5107 103.769 53.2231 103.313 54.0593 101.731C54.6168 100.635 54.4619 100.513 52.7275 100.605C51.2409 100.665 50.9621 100.574 50.5595 99.9351C49.4755 98.3223 50.3737 95.2792 52.17 94.6097C52.6346 94.4271 53.6876 94.3358 54.4929 94.4271C57.1255 94.6706 59.0457 97.1659 59.0457 100.361V102.187L57.0636 103.891C55.7627 104.987 54.9265 105.991 54.7097 106.691C54.2451 108.06 54.4619 108.243 55.6079 107.452C56.1034 107.086 56.9706 106.721 57.5591 106.6C58.4883 106.417 58.5502 106.447 58.1476 106.904C57.9308 107.178 56.537 107.999 55.0504 108.699C52.4178 109.947 49.9401 111.59 47.9579 113.355C46.2544 114.907 44.3342 114.998 43.9625 113.568C43.8696 113.142 43.9316 112.564 44.1484 112.26C44.3342 111.955 44.489 111.621 44.489 111.529C44.489 111.286 42.8475 111.742 42.1971 112.168C40.4318 113.355 39.8743 116.337 41.1131 117.889L41.7635 118.681L41.1441 119.228C40.7724 119.502 40.2459 120.233 39.9052 120.811C39.1 122.241 39.4407 124.888 40.5556 126.349C41.0202 126.927 41.3919 127.871 41.4538 128.54L41.5467 129.727L42.5069 128.936C43.1882 128.358 43.5289 127.749 43.6838 126.836L43.9006 125.528L44.6129 127.11C46.1615 130.67 49.1658 132.101 51.6745 130.427L52.7585 129.727L53.5947 131.036C54.2142 131.979 54.9265 132.588 56.1654 133.166C57.7449 133.926 57.9927 133.987 59.1696 133.622C61.7093 132.892 61.6474 132.861 62.2668 134.048C62.6075 134.657 63.4128 135.57 64.0632 136.087L65.2401 137L66.417 136.087C67.0674 135.57 67.8727 134.657 68.2134 134.048C68.8328 132.861 68.7709 132.892 71.3105 133.622C72.4875 133.987 72.7352 133.926 74.3148 133.166C75.5537 132.588 76.266 131.979 76.8854 131.036L77.7217 129.727L78.8057 130.427C81.2834 132.101 84.3496 130.67 85.8672 127.171L86.5176 125.619L86.8583 126.988C87.1061 127.871 87.5397 128.631 88.0662 129.027L88.9334 129.697L89.0264 128.51C89.0883 127.871 89.46 126.927 89.8316 126.44C90.7917 125.193 91.0395 124.523 91.0705 123.093C91.1015 121.785 90.3581 120.05 89.3361 119.228L88.7166 118.681L89.367 117.889C90.6059 116.337 90.0484 113.355 88.283 112.168C87.6326 111.742 85.9911 111.286 85.9911 111.529C85.9911 111.621 86.146 111.955 86.3318 112.26C86.5486 112.564 86.6106 113.142 86.5176 113.568C86.146 114.998 84.2257 114.907 82.5223 113.355C80.5401 111.59 78.0624 109.947 75.4298 108.699C73.9431 107.999 72.5494 107.178 72.3326 106.904C71.93 106.447 71.9919 106.417 72.9211 106.6C73.5095 106.721 74.3767 107.086 74.8723 107.452C76.0182 108.243 76.235 108.06 75.7705 106.691C75.5537 105.991 74.7174 104.987 73.4166 103.891L71.4344 102.187V100.361C71.4344 97.1659 73.3547 94.6706 75.9873 94.4271C76.7925 94.3358 77.8456 94.4271 78.3101 94.6097C80.1065 95.2792 81.0047 98.3223 79.9207 99.9351C79.518 100.574 79.2393 100.665 77.7526 100.605C76.0182 100.513 75.8634 100.635 76.4209 101.731C77.2571 103.313 77.9695 103.769 79.6729 103.769C80.7259 103.769 81.4073 103.617 81.6551 103.283C82.0267 102.887 82.1506 102.948 82.6771 103.769L83.2656 104.682L83.916 103.435L84.5355 102.187L84.9071 103.07C85.3717 104.135 85.9911 104.652 86.9512 104.743C87.6017 104.835 87.6636 104.743 87.5707 103.709C87.4778 102.491 87.8185 102.248 88.4998 103.039C88.8405 103.465 88.9025 103.465 89.1812 103.009C89.429 102.552 89.5219 102.552 90.1104 103.1C90.482 103.404 91.1015 103.769 91.5041 103.861C92.0925 103.982 92.1855 103.922 92.0306 103.526C91.9067 103.252 91.7519 102.278 91.6589 101.365L91.4731 99.6917L92.4023 100.361C93.796 101.335 95.6853 101.274 96.6144 100.239C96.9861 99.8134 97.3887 99.2048 97.5126 98.9005C97.6984 98.4136 97.6055 98.3527 96.6764 98.5049C95.8092 98.6266 95.5614 98.5353 95.0968 97.8354C94.6013 97.1051 94.6013 96.8008 94.9419 94.6402C95.2826 92.5709 95.2826 92.0535 94.849 90.5624C94.1986 88.4323 92.4952 86.6064 90.6369 86.1195C89.5838 85.8456 89.398 85.6935 89.5529 85.2066C89.7387 84.6588 89.6458 84.6284 88.314 84.7805C86.5796 85.024 84.6903 84.2936 84.1638 83.1981C83.8541 82.4982 83.885 82.4678 84.6593 82.6504C85.3717 82.833 85.4336 82.8025 85.2168 82.2852C84.1948 79.8507 84.0709 79.1813 84.2257 76.0773C84.3186 73.8863 84.5355 72.5777 84.9071 71.8778C85.4336 70.8736 85.4336 70.8736 86.115 71.4214C87.261 72.4256 88.4069 73.0342 88.8715 72.8516C89.2122 72.7299 89.3361 73.3994 89.4909 76.2599C89.7077 80.2463 89.9245 80.7637 91.8138 81.7679L93.0836 82.4069L94.4464 81.3723C95.2207 80.7941 95.9021 80.0637 95.964 79.7899C96.0569 79.516 95.933 77.8423 95.7162 76.0773C95.4994 74.3123 95.3755 72.8516 95.4065 72.7908C95.4685 72.7603 95.6853 73.3689 95.8711 74.1601C96.3047 75.7426 96.8932 77.964 97.4197 79.9116C97.9152 81.707 98.7205 82.5591 100.424 83.046L101.911 83.472L102.933 82.2852C104.202 80.7941 104.264 79.6681 103.149 76.9598C100.981 71.604 101.105 71.3301 103.552 76.2599C105.596 80.3985 106.247 81.0071 108.384 80.8854C109.901 80.7941 109.901 80.7941 110.49 79.2725C110.799 78.4205 111.078 77.4467 111.078 77.1119C111.078 76.5033 107.516 70.4171 105.968 68.3174C105.256 67.3741 104.667 66.3698 104.946 66.6437C105.194 66.8872 109.932 73.0646 110.521 73.9471C110.799 74.3732 111.45 75.1644 112.007 75.7426C112.937 76.7163 113.029 76.7468 114.826 76.6251C116.932 76.4729 117.149 76.2599 117.458 74.3123C117.737 72.5473 117.211 71.4822 115.135 69.6259C114.175 68.7739 113.835 68.3783 114.33 68.7434C117.242 70.8128 117.582 70.9649 119.069 70.9953C120.803 71.0258 122.538 70.1737 122.538 69.2912C122.538 67.3132 120.958 64.8787 118.945 63.7223C118.48 63.4485 118.759 63.4485 120.06 63.6311C120.989 63.7832 122.29 63.8136 122.971 63.7223C124.427 63.4789 126.254 62.4747 126.254 61.8965C126.254 61.1661 124.644 59.0056 123.529 58.2752L122.445 57.5449L123.653 57.3623C125.325 57.0884 126.688 56.3581 128.02 55.0191L129.166 53.8627L128.237 52.9194C127.307 51.9151 124.675 50.5458 123.622 50.4849C123.219 50.4545 123.405 50.3327 124.086 50.0893C127.06 49.1459 129.847 46.681 130.188 44.6422C130.343 43.6684 130.281 43.5771 129.042 43.0902C128.329 42.8163 126.905 42.512 125.852 42.3903L123.931 42.2077L125.015 41.7512C126.471 41.173 129.847 37.7343 130.126 36.5475C130.219 36.0302 130.466 35.5433 130.621 35.452C130.776 35.3303 130.9 35.026 130.9 34.7217C130.9 34.2652 130.559 34.1131 129.29 33.9609C128.391 33.8696 126.905 33.9 126.007 34.0522L124.334 34.2956L125.728 32.8958C127.896 30.7352 128.98 28.7268 129.104 26.7792L129.197 25.1055L128.175 25.0142C127.122 24.9229 123.962 25.7141 123.25 26.2619C122.476 26.8096 122.847 26.2315 124.086 24.9229C125.294 23.6144 126.781 21.0278 127.06 19.6584C127.4 17.9847 127.214 14.9111 126.657 13.6635L126.069 12.3549L124.365 13.9982C123.436 14.9111 121.423 16.9805 119.936 18.5629C118.449 20.1453 117.365 21.1495 117.551 20.7843C117.737 20.4191 118.016 20.054 118.171 19.9627C118.542 19.7192 120.215 16.8283 121.516 14.2112C123.436 10.3161 123.962 6.29919 122.878 3.52998C122.321 2.03886 120.865 0 120.401 0C120.277 0 119.75 0.912918 119.286 2.03886C117.304 6.66437 110.428 18.928 109.096 20.2366C108.848 20.5104 108.539 20.5409 108.26 20.3583C107.609 19.9627 107.362 20.0235 107.362 20.6322C107.362 21.3929 104.636 25.9271 103.366 27.2661L102.313 28.392L101.787 27.753C101.26 27.1139 101.229 27.1139 100.3 28.5442C99.7735 29.3354 98.7205 30.6135 98.0081 31.3743C91.9687 37.7039 89.7077 40.8687 89.7077 42.9989C89.7077 44.0031 90.6369 45.8898 91.5351 46.681C93.0217 48.02 93.4553 49.8763 92.65 51.3978C91.1634 54.2583 87.0442 55.2626 84.7213 53.3454C83.6063 52.4325 83.6063 52.189 84.6593 51.6717C86.6106 50.7283 87.5087 47.6852 86.4557 45.6768L85.9292 44.6726L85.2788 45.2812C83.5753 46.8027 82.2126 46.8332 79.9826 45.3725L78.7437 44.5813L80.2614 44.3987C82.0577 44.2161 83.2037 43.0597 83.2037 41.4469C83.2037 40.4731 83.1727 40.4427 82.5223 40.8992C81.5622 41.5686 80.695 41.5078 79.4871 40.6861C77.7836 39.5906 77.1952 38.2212 77.1952 35.6042C77.1952 32.4394 78.5889 28.8789 80.9427 26.1706C81.5622 25.4402 81.779 25.349 82.2435 25.6228C82.6771 25.8967 83.1108 25.8358 84.1018 25.4707C85.7124 24.8316 87.2919 24.8012 88.6547 25.4402C90.2033 26.1706 90.544 26.7183 90.6059 28.5138C90.6369 29.4267 91.4421 29.1224 92.0616 27.9356C92.712 26.7183 92.1855 25.1968 90.8537 24.3752C90.2962 24.0404 89.9865 23.7361 90.1104 23.7361C90.5749 23.7361 91.7209 24.436 93.3624 25.775C94.7871 26.9009 95.2517 27.0835 96.4286 27.0835C97.4816 27.0835 98.132 26.8705 98.9373 26.2923C100.238 25.2881 101.353 23.0666 100.889 22.2754C100.672 21.9103 100.579 21.8798 100.548 22.1841C100.548 22.3972 100.207 22.9145 99.7426 23.3101C98.6585 24.3143 97.017 24.2534 94.1986 23.0971C92.9288 22.5797 91.2253 22.0624 90.4201 21.9407L88.9334 21.7277L90.1413 21.2104C90.7917 20.9365 91.7519 20.693 92.2784 20.693C93.3314 20.693 95.9021 21.7885 95.9021 22.245C95.9021 22.3972 96.1189 22.5189 96.3666 22.5189C97.2029 22.5189 98.0701 20.693 98.0701 18.9585C98.0701 16.1892 96.9861 14.6068 94.5393 13.8156C93.6721 13.5113 92.7739 13.0549 92.5571 12.7201C92.3403 12.4158 91.9687 12.1724 91.7519 12.1724C91.5041 12.1724 91.2563 11.9898 91.1634 11.7463C91.0085 11.4116 89.3051 11.2899 81.748 11.1986C75.0581 11.1377 72.3326 10.9856 71.8371 10.7117C71.2176 10.3769 71.1247 10.4074 71.1247 10.8334C71.1247 11.4725 72.8901 13.0549 74.5935 13.9678L75.9253 14.6373L74.5316 14.4851C73.7573 14.4243 72.7972 14.2417 72.3636 14.1504C71.7132 13.9982 71.868 14.2112 73.1379 15.3676L74.6555 16.7979L73.7573 17.5282C72.3326 18.6846 70.2575 19.4758 68.7709 19.4758C66.7267 19.4758 67.1913 20.5409 69.3903 20.906L70.4743 21.0886L69.731 22.3363C69.3283 23.0058 68.5541 24.6186 68.0275 25.8663C67.501 27.1139 66.9435 28.4225 66.7887 28.7572C66.6338 29.092 66.2621 30.3701 65.9834 31.5569C65.7047 32.7741 65.364 33.7783 65.2401 33.7783C65.1162 33.7783 64.7755 32.7741 64.4968 31.5569C64.218 30.3701 63.8464 29.092 63.6915 28.7572C63.5366 28.4225 62.9791 27.1139 62.4526 25.8663C61.9261 24.6186 61.1518 23.0058 60.7492 22.3363L60.0059 21.0886L61.0899 20.906C63.2889 20.5409 63.7534 19.4758 61.7093 19.4758C60.2227 19.4758 58.1476 18.6846 56.7229 17.5282L55.8247 16.7979L57.3423 15.3676C58.6121 14.2112 58.767 13.9982 58.1166 14.1504C57.683 14.2417 56.7229 14.4243 55.9486 14.4851L54.5548 14.6373L55.8866 13.9678C57.5901 13.0549 59.3555 11.4725 59.3555 10.8334C59.3555 10.4074 59.2625 10.3769 58.6741 10.7117C58.1476 10.9856 55.4221 11.1377 48.7322 11.1986C41.1751 11.2899 39.4716 11.4116 39.3168 11.7463C39.2239 11.9898 38.9761 12.1724 38.7283 12.1724C38.5115 12.1724 38.1398 12.4158 37.923 12.7201C37.7062 13.0549 36.8081 13.5113 35.9409 13.8156C33.4941 14.6068 32.4101 16.1892 32.4101 18.9585C32.4101 20.693 33.2773 22.5189 34.1135 22.5189C34.3613 22.5189 34.5781 22.3972 34.5781 22.245C34.5781 21.7885 37.1488 20.693 38.2018 20.693C38.7283 20.693 39.6884 20.9365 40.3388 21.2104L41.5467 21.7277L40.0601 21.9407C39.2548 22.0624 37.5514 22.5797 36.2815 23.0971C33.4631 24.2534 31.8216 24.3143 30.7376 23.3101C30.273 22.9145 29.9323 22.3972 29.9323 22.1841C29.9014 21.8798 29.8085 21.9103 29.5917 22.2754C29.1271 23.0666 30.2421 25.2881 31.5429 26.2923C32.3481 26.8705 32.9985 27.0835 34.0516 27.0835C35.2285 27.0835 35.6931 26.9009 37.1178 25.775C38.7593 24.436 39.9052 23.7361 40.3698 23.7361C40.4937 23.7361 40.184 24.01 39.6575 24.3447C37.8611 25.4707 37.6133 27.7226 39.1 28.9398C39.6575 29.3963 39.7504 29.305 39.9362 27.9052C40.122 26.5358 40.4627 26.0793 41.8255 25.4402C43.1882 24.8012 44.7678 24.8316 46.3783 25.4707C47.3694 25.8358 47.803 25.8967 48.2366 25.6228C48.7012 25.349 48.918 25.4402 49.5374 26.1706C51.8913 28.8789 53.285 32.4394 53.285 35.6042C53.285 38.2212 52.6965 39.5906 50.9931 40.6861C49.7852 41.5078 48.918 41.5686 47.9579 40.8992C47.3075 40.4427 47.2765 40.4731 47.2765 41.4469C47.2765 43.0597 48.4225 44.2161 50.2188 44.3987L51.7364 44.5813L50.4976 45.3725C48.2986 46.8027 46.4093 46.7419 45.1395 45.2203C44.52 44.49 44.3032 44.6117 43.8696 45.9203C43.0953 48.233 43.9625 50.7892 45.8208 51.6717C46.8739 52.189 46.8739 52.4325 45.7589 53.3454C43.436 55.2626 39.3168 54.2583 37.8301 51.3978C37.0249 49.8763 37.4585 48.02 38.9451 46.681C39.8433 45.8898 40.7724 44.0031 40.7724 42.9989C40.7724 40.8687 38.5115 37.7039 32.472 31.3743C31.7597 30.6135 30.7066 29.3354 30.1801 28.5442C29.251 27.1139 29.22 27.1139 28.6935 27.753L28.167 28.392L27.1139 27.2661C25.8441 25.9271 23.1186 21.3929 23.1186 20.6322C23.1186 20.0235 22.8708 19.9627 22.2204 20.3583C21.9416 20.5409 21.6319 20.5104 21.3842 20.2366C20.0524 18.928 13.1767 6.66437 11.1945 2.03886C10.7299 0.912918 10.2034 0 10.0795 0C9.92463 0 9.46005 0.456467 8.99547 1.03465ZM65.5498 34.9956C65.5498 35.3303 65.4259 35.6042 65.2401 35.6042C65.0852 35.6042 64.9304 35.3303 64.9304 34.9956C64.9304 34.6608 65.0852 34.3869 65.2401 34.3869C65.4259 34.3869 65.5498 34.6608 65.5498 34.9956ZM29.4678 71.4822C28.8174 72.7908 28.5696 72.669 29.22 71.3605C29.4987 70.7823 29.7775 70.3563 29.8704 70.4171C29.9323 70.478 29.7465 70.9649 29.4678 71.4822ZM101.291 71.4214C101.57 71.9691 101.725 72.4256 101.663 72.4256C101.477 72.4256 100.548 70.7519 100.548 70.4171C100.548 70.0824 100.703 70.3259 101.291 71.4214Z" fill="#2063CC"/>
</g>
<defs>
<clipPath id="clip0_110_637">
<rect width="126" height="110" fill="white"/>
</clipPath>
</defs>
</svg>
