<svg width="145" height="116" viewBox="0 0 145 116" fill="none" xmlns="http://www.w3.org/2000/svg">
<g opacity="0.1" clip-path="url(#clip0_110_652)">
<path d="M44.6058 104.278C45.1161 104.858 63.9635 126.284 90.7376 126.284C104.241 126.284 119.51 120.822 135.81 104.479L136.803 103.228V23.7183H43.3477V103.061L44.5986 104.27L44.6058 104.278Z" fill="#2063CC"/>
<path d="M90.0384 95.2642C89.4497 95.2642 88.8242 95.1392 88.2723 94.889L3.27939 57.7818C1.18216 56.8645 -0.179194 54.5714 -0.252781 51.7779C-0.326368 48.9845 0.92461 46.4828 2.94825 45.3988L87.9044 0.203053C89.1921 -0.464043 90.6639 -0.505736 91.9884 0.16136L171.536 39.5617C173.56 40.5624 174.811 42.8972 174.884 45.6073C174.921 48.359 173.707 50.7773 171.683 51.8613L92.1724 94.7222C91.5101 95.0558 90.7742 95.2642 90.0384 95.2642Z" fill="#2063CC"/>
<path d="M23.8838 59.5747H17.6289V86.2585H23.8838V59.5747Z" fill="#2063CC"/>
<path d="M20.461 96.7652C24.7283 96.7652 28.1876 92.8451 28.1876 88.0095C28.1876 83.1739 24.7283 79.2539 20.461 79.2539C16.1937 79.2539 12.7344 83.1739 12.7344 88.0095C12.7344 92.8451 16.1937 96.7652 20.461 96.7652Z" fill="#2063CC"/>
</g>
<defs>
<clipPath id="clip0_110_652">
<rect width="145" height="116" fill="white"/>
</clipPath>
</defs>
</svg>
