<svg width="25" height="34" viewBox="0 0 25 34" fill="none" xmlns="http://www.w3.org/2000/svg">
<path d="M13 12.8003C16.3137 12.8003 19 10.114 19 6.80029C19 3.48658 16.3137 0.800293 13 0.800293C9.68629 0.800293 7 3.48658 7 6.80029C7 10.114 9.68629 12.8003 13 12.8003Z" fill="#E8491F"/>
<path d="M0.400391 24.8922C0.400391 20.865 3.66507 17.6003 7.69227 17.6003H17.7085C21.7357 17.6003 25.0004 20.865 25.0004 24.8922V26.1336C25.0004 26.4219 24.8447 26.6877 24.5933 26.8287C17.2062 30.9727 8.1946 30.9727 0.807457 26.8287C0.556049 26.6877 0.400391 26.4219 0.400391 26.1336V24.8922Z" fill="#E8491F"/>
</svg>
