<svg width="104" height="107" viewBox="0 0 104 107" fill="none" xmlns="http://www.w3.org/2000/svg">
<path d="M86.6223 107H17.3781C9.64524 107 3.31836 100.649 3.31836 92.8872V39.6997C3.31836 31.9377 9.64524 25.5869 17.3781 25.5869H86.6223C94.3551 25.5869 100.682 31.9377 100.682 39.6997V92.8872C100.682 100.649 94.3551 107 86.6223 107Z" fill="#E8491F"/>
<path d="M4.19289 58.5025H99.8071C101.81 58.5025 103.5 56.8699 103.5 54.7459V39.6071C103.5 31.5948 97.0722 25.0244 89.1929 25.0244H14.8071C6.92779 25.0244 0.5 31.5948 0.5 39.6071V54.7459C0.5 56.773 2.1816 58.5025 4.19289 58.5025Z" fill="#E8491F" stroke="#F2F6FF"/>
<path d="M63.592 25.5869H40.4102V107H63.592V25.5869Z" fill="#FFB29D"/>
<path d="M72.155 0H63.5891C57.2067 0 52 5.74779 52 12.7935V25.587H63.5891C69.9716 25.587 75.1783 19.8392 75.1783 12.7935V3.43014C75.2623 1.57601 73.8346 0 72.155 0Z" fill="#FFB29D"/>
<path d="M30.5782 1.14429H39.6819C46.4651 1.14429 51.9988 6.63502 51.9988 13.3656V25.5869H39.6819C32.8987 25.5869 27.3651 20.0962 27.3651 13.3656V4.42102C27.2758 2.64981 28.7931 1.14429 30.5782 1.14429Z" fill="#FFB29D"/>
</svg>
