<svg width="102" height="106" viewBox="0 0 102 106" fill="none" xmlns="http://www.w3.org/2000/svg">
<path d="M31.6548 13.0566V9.27557C31.6548 4.43934 35.6117 0.482422 40.4479 0.482422H80.8085C83.1826 0.482422 85.3809 1.44967 87.0516 3.03244L99.45 15.4308C101.121 17.1015 102 19.2998 102 21.6739V84.0173C102 88.8536 98.0431 92.8105 93.2068 92.8105H71.4878" fill="#2063CC"/>
<path d="M61.5521 106H8.79315C3.95692 106 0 102.043 0 97.2068V22.465C0 17.6288 3.95692 13.6719 8.79315 13.6719H49.1537C51.5279 13.6719 53.7261 14.6391 55.3968 16.2219L67.7952 28.6202C69.4659 30.2909 70.3452 32.4892 70.3452 34.8634V97.2068C70.3452 102.043 66.3883 106 61.5521 106Z" fill="#CCE0FF"/>
<path d="M13.1891 89.7327H57.1548C57.8583 89.7327 58.4738 89.1172 58.4738 88.4137C58.4738 87.7102 57.8583 87.0947 57.1548 87.0947H13.1891C12.4856 87.0947 11.8701 87.7102 11.8701 88.4137C11.8701 89.1172 12.4856 89.7327 13.1891 89.7327Z" fill="white"/>
<path d="M13.1891 72.1467H57.1548C57.8583 72.1467 58.4738 71.5312 58.4738 70.8278C58.4738 70.1243 57.8583 69.5088 57.1548 69.5088H13.1891C12.4856 69.5088 11.8701 70.1243 11.8701 70.8278C11.8701 71.5312 12.4856 72.1467 13.1891 72.1467Z" fill="white"/>
</svg>
