<svg width="22" height="28" viewBox="0 0 22 28" fill="none" xmlns="http://www.w3.org/2000/svg">
<path fill-rule="evenodd" clip-rule="evenodd" d="M18.6407 27.1997H3.35772C1.95677 27.1997 0.810547 26.0426 0.810547 24.6283V2.77114C0.810547 1.35685 1.95677 0.199707 3.35772 0.199707H15.0492C15.737 0.199707 16.3738 0.482564 16.8577 0.945421L20.4492 4.57114C20.9332 5.05971 21.1879 5.70256 21.1879 6.39685V24.6283C21.1879 26.0426 20.0417 27.1997 18.6407 27.1997ZM4.25647 22.6146H17.2326C17.4402 22.6146 17.6219 22.3768 17.6219 22.1051C17.6219 21.8334 17.4402 21.5957 17.2326 21.5957H4.25647C4.04885 21.5957 3.86719 21.8334 3.86719 22.1051C3.86719 22.3768 4.04885 22.6146 4.25647 22.6146ZM17.2326 17.5203H4.25647C4.04885 17.5203 3.86719 17.2826 3.86719 17.0109C3.86719 16.7392 4.04885 16.5015 4.25647 16.5015H17.2326C17.4402 16.5015 17.6219 16.7392 17.6219 17.0109C17.6219 17.2826 17.4402 17.5203 17.2326 17.5203Z" fill="#E8491F"/>
</svg>
