<svg width="25" height="25" viewBox="0 0 25 25" fill="none" xmlns="http://www.w3.org/2000/svg">
<path d="M0 9.74707H24.6V21.5056C24.6 23.2145 23.2146 24.5999 21.5057 24.5999H3.09434C1.38539 24.5999 0 23.2145 0 21.5056V9.74707Z" fill="#E8491F"/>
<path d="M24.5996 8.81885H-0.000391006V6.80753C-0.000391006 5.09857 1.38499 3.71319 3.09395 3.71319H21.5053C23.2142 3.71319 24.5996 5.09857 24.5996 6.80753V8.81885Z" fill="#E8491F"/>
<rect x="4.64062" width="4.17736" height="6.49811" rx="2.08868" fill="#FEE2DB"/>
<rect x="15.7812" width="4.17736" height="6.49811" rx="2.08868" fill="#FEE2DB"/>
<rect x="5.57031" y="1.39258" width="2.32075" height="4.17736" rx="1.16038" fill="#E8491F"/>
<rect x="16.709" y="1.39258" width="2.32075" height="4.17736" rx="1.16038" fill="#E8491F"/>
<path d="M16 20.3392V21.6001H10.3316V20.3392H12.5737V14.192C12.4789 14.3181 12.3316 14.4547 12.1316 14.6018C11.9316 14.7385 11.7053 14.8698 11.4526 14.9959C11.2105 15.1115 10.9579 15.2113 10.6947 15.2954C10.4316 15.3794 10.2 15.4215 10 15.4215V14.0975C10.2316 14.0975 10.4895 14.0344 10.7737 13.9083C11.0579 13.7717 11.3263 13.6194 11.5789 13.4512C11.8421 13.2726 12.0632 13.1045 12.2421 12.9469C12.4316 12.7787 12.5421 12.6631 12.5737 12.6001H13.9947V20.3392H16Z" fill="#FEE2DB"/>
</svg>
