<svg width="38" height="25" viewBox="0 0 38 25" fill="none" xmlns="http://www.w3.org/2000/svg">
<path d="M0.576898 13.1171C0.576898 13.9047 2.55443 16.4646 3.5432 17.6461C4.73011 17.6461 4.13608 16.2677 4.72934 15.2831C5.3226 14.2986 5.71811 13.1171 5.71811 13.9047C5.71811 14.6924 6.90463 16.2677 7.69565 15.2831C8.48666 14.2986 8.28891 13.9047 13.2327 17.6461C14.2215 20.0091 13.2327 18.8276 13.826 20.2061C14.4193 21.5845 14.8148 21.1906 16.9901 21.9783C19.1654 22.766 18.1766 21.1906 19.9564 21.1906C21.7362 21.1906 20.9451 21.1906 23.1204 21.9783C25.2957 22.766 24.307 21.1906 25.098 20.2061C25.889 19.2215 25.6912 19.4184 29.2508 21.1906C30.0418 21.9783 29.2508 21.9783 29.6463 23.3567C30.0418 24.7351 30.0418 24.932 30.8328 24.7351C31.6238 24.5382 31.6238 22.766 32.4149 21.9783C33.2059 21.1906 33.0081 20.5999 33.6014 19.4184C34.1946 18.2369 33.0081 18.2369 31.6238 17.0554C30.2396 15.8739 31.6238 15.677 33.0081 13.9047C34.3924 12.1325 32.8104 12.1325 33.0081 10.7541C33.2059 9.37566 33.4036 11.5417 34.9856 13.1171C36.5677 14.6924 35.3812 14.4955 36.1722 16.2677C36.9632 18.04 36.1722 17.2523 37.1609 17.6461C38.1497 18.0399 37.1609 16.4646 37.1609 15.2831C37.1609 14.1017 36.5677 13.7078 37.1609 11.1479C37.7542 8.58796 36.5677 9.76948 36.5677 9.37566C36.5677 8.98185 36.5677 7.6034 34.9856 4.25591C33.4036 0.908414 35.7767 3.27124 36.1722 2.87749C36.5677 2.48374 36.9632 1.89291 35.3812 1.10516C33.7991 0.317412 34.3924 1.10516 31.6238 2.87749C31.0306 4.05899 31.4523 4.25591 28.4598 4.25591C27.0971 4.25591 27.0755 4.25591 26.2845 5.04357C25.4935 5.83124 25.889 5.83115 25.6912 6.6189C25.4935 7.40665 24.8624 6.78174 23.9331 5.04357C23.5592 4.3443 22.9227 4.64974 22.3294 4.25591L22.3293 4.25582C21.7362 3.86207 21.7361 3.86202 20.5496 4.25591C19.3631 4.64982 19.9564 5.04357 19.3631 5.04357C18.7698 5.04357 17.9788 4.84665 17.5833 6.6189C17.1878 8.39115 16.7923 6.6189 14.8148 6.6189C13.4305 6.81582 13.2327 5.83115 12.244 5.83115C11.2552 5.83115 13.035 3.86199 13.2327 2.87749C13.4305 1.893 11.8485 1.89283 10.662 1.10516C9.47543 0.317496 9.27767 3.27124 8.28891 3.86199C7.37874 4.40578 5.7736 4.32884 5.18223 5.20884C5.03253 5.43162 4.87945 5.64431 4.72934 5.83115C3.93833 6.81573 2.3563 6.81573 1.76304 7.6034C1.16978 8.39106 2.55405 8.7849 2.3563 9.76948C2.15854 10.7541 1.96117 11.1479 0.972405 11.1479C-0.0163629 11.1479 0.576898 12.1325 0.576898 13.1171Z" fill="#E8491F"/>
</svg>
