<svg width="13" height="13" viewBox="0 0 13 13" fill="none" xmlns="http://www.w3.org/2000/svg">
<path d="M12.528 0.624884L9.88737 0.0155089C9.60046 -0.0505067 9.30593 0.099298 9.18913 0.368439L7.97038 3.21219C7.86374 3.46102 7.93483 3.75301 8.14558 3.92313L9.68425 5.1825C8.77019 7.12996 7.17312 8.74988 5.18503 9.68172L3.92566 8.14305C3.753 7.93231 3.46355 7.86121 3.21472 7.96785L0.370968 9.1866C0.0992879 9.30594 -0.0505168 9.60047 0.0154988 9.88738L0.624874 12.528C0.68835 12.8022 0.9321 13.0003 1.21901 13.0003C7.72155 13.0003 13.0003 7.73172 13.0003 1.21902C13.0003 0.93465 12.8048 0.688361 12.528 0.624884Z"/>
</svg>
