<svg width="60" height="60" viewBox="0 0 60 60" fill="none" xmlns="http://www.w3.org/2000/svg">
<circle cx="30" cy="30" r="30" fill="#EC4015"/>
<path d="M27.6641 0.0110359C20.2959 0.67033 13.8354 3.64715 8.74305 8.72839C3.97108 13.49 1.0812 19.3837 0.153504 26.243C0.0200222 27.2553 0 27.6415 0 29.939C0 32.2366 0.0200222 32.6228 0.153504 33.6351C0.520578 36.3256 1.12125 38.6764 2.06897 41.0605C2.5228 42.1926 3.00334 43.2315 3.05006 43.1516C3.07008 43.1183 3.21023 42.6987 3.37041 42.2259C3.69744 41.227 3.87097 40.854 4.28476 40.2813C4.93882 39.3623 6 38.6964 7.14127 38.4966C7.91546 38.3567 8.98999 38.0504 12.6474 36.9316C13.5083 36.6652 14.396 36.3988 14.6162 36.3322C14.8365 36.2656 15.4705 36.0725 16.0178 35.8993C16.5717 35.7262 17.1524 35.5464 17.3192 35.4998C18.2136 35.24 18.9878 34.9803 19.2147 34.8605C19.5417 34.694 21.01 33.715 21.3237 33.4553C21.6774 33.1689 21.7508 33.2022 21.6974 33.6151C21.4572 35.4065 21.4705 38.683 21.7175 41.8263C21.7775 42.5855 21.8242 42.8386 22.0912 43.7576C22.5984 45.5224 24.0934 49.2184 25.7553 52.8079C25.8954 53.101 26.0623 53.4872 26.1424 53.6604C26.2158 53.8402 26.2959 53.9734 26.3092 53.9534C26.3426 53.9267 26.3826 53.5005 26.5628 51.4494C26.6162 50.8101 26.6763 50.1641 26.6963 50.0176C26.7164 49.8711 26.7631 49.3916 26.7964 48.9521C26.9766 46.7877 26.9366 46.9742 27.4505 45.9153C27.7108 45.3892 28.0512 44.7232 28.2047 44.4369L28.485 43.9174L27.604 43.045C26.9766 42.419 26.7297 42.1327 26.7297 42.0195C26.7297 41.873 27.2169 41.3069 28.9789 39.3889L29.1324 39.2158L28.2247 38.39C27.7241 37.9372 27.2169 37.471 27.0901 37.3578C26.97 37.2512 26.7564 37.0514 26.6162 36.9249C26.4761 36.7984 26.0022 36.3655 25.5617 35.9659C22.8454 33.5086 23.0256 33.695 22.9055 33.2955C22.8053 32.9492 22.8254 32.5762 23.0923 29.5062C23.3059 27.0288 23.3126 27.3152 23.0122 26.7092C22.4249 25.5437 21.9711 24.2984 21.5973 22.8133L21.4772 22.3139L21.2169 22.2939C20.7164 22.2473 20.4093 21.8743 20.1023 20.9154C19.5284 19.1373 19.2147 17.1394 19.3749 16.2737C19.4683 15.7742 19.6685 15.5278 19.9889 15.5411C20.1758 15.5478 20.1958 15.5278 20.1624 15.3946C20.1424 15.3147 20.0823 14.7353 20.0222 14.116C19.9689 13.4966 19.8754 12.511 19.822 11.925C19.5951 9.58081 19.5751 9.31443 19.6151 8.91485C19.7086 7.83601 20.2892 6.67059 21.03 6.06456C21.5039 5.67831 21.6107 5.5318 21.7842 5.08561C22.2113 3.98679 22.6185 3.40075 23.2925 2.90128C23.9466 2.41513 24.7608 2.0755 25.8888 1.80911L26.4828 1.66926L26.109 1.4162C25.7419 1.17646 25.6018 0.976669 25.8487 1.05658C26.5095 1.27635 27.1168 1.43618 27.2836 1.43618H27.4839L27.1702 1.16314C26.8699 0.896755 26.4761 0.270756 26.5628 0.184181C26.5829 0.164204 26.6696 0.184181 26.7497 0.237461C27.5039 0.710289 28.0578 0.823498 29.8999 0.863457C31.5284 0.903416 32.5161 1.00997 33.3771 1.23639C34.9188 1.64928 35.9132 2.16207 37.208 3.20762C37.9956 3.84694 38.3159 4.25983 38.4227 4.77261L38.5028 5.17884L38.9099 5.35865C39.6641 5.70495 40.1446 6.63063 40.3782 8.24224C40.4783 8.88155 40.4783 9.11464 40.4182 9.76062C40.3382 10.5398 40.2514 11.4988 40.1446 12.7574C40.1112 13.1437 40.0512 13.723 40.0178 14.056C39.9778 14.3823 39.931 14.8552 39.911 15.0949L39.8776 15.5344H40.0712C40.505 15.5344 40.6919 15.9207 40.6919 16.8197C40.6919 17.8719 40.3448 19.69 39.8843 21.0419C39.5573 21.9942 39.3103 22.2806 38.8231 22.2806H38.5562L38.4093 22.9265C38.1624 24.0254 37.6618 25.4106 37.0946 26.596L36.7875 27.2419L36.8343 27.9878C36.8743 28.727 37.0011 30.2454 37.1479 31.7171C37.2414 32.7294 37.2347 33.1223 37.1146 33.4087C37.0278 33.6085 36.1201 34.5341 35.3393 35.2001C35.2458 35.28 35.0389 35.4665 34.8721 35.6196C34.7052 35.7728 34.2447 36.199 33.8376 36.5653C33.4372 36.9316 33.03 37.3045 32.9299 37.3977C32.8365 37.491 32.3426 37.9372 31.842 38.39C30.941 39.2091 30.9344 39.2225 31.0545 39.3557C31.228 39.5554 32.5829 41.0405 32.8966 41.3735C33.2636 41.7731 33.3504 41.9063 33.3237 42.0594C33.3103 42.1327 32.9166 42.5855 32.4427 43.0584L31.5751 43.9241L31.7286 44.2038C32.8966 46.3682 33.1101 46.8809 33.1635 47.7533C33.1902 48.1196 33.2503 48.8988 33.3103 49.4848C33.4839 51.3428 33.5973 52.6015 33.6374 53.1143C33.6574 53.3873 33.6974 53.7003 33.7175 53.8069L33.7508 54L33.891 53.707C33.9644 53.5472 34.1179 53.2009 34.238 52.9478C35.3593 50.5504 36.5673 47.6934 37.3014 45.6889C38.3092 42.9585 38.356 42.6854 38.4894 38.996C38.5628 36.805 38.5161 34.6074 38.3626 33.5485C38.3159 33.2089 38.3893 33.1889 38.7364 33.4553C39.1902 33.8149 40.4583 34.654 40.7987 34.8338C41.099 34.987 41.673 35.1868 42.7475 35.4998C42.9143 35.5464 43.5017 35.7262 44.0489 35.8993C45.9711 36.4987 48.9544 37.4111 50.5228 37.8772C51.7976 38.2568 52.3448 38.3967 52.9321 38.4966C54.3604 38.743 55.6552 39.7619 56.2825 41.1271C56.4894 41.5733 56.5629 41.7797 56.8365 42.6721L56.9967 43.1916L57.2836 42.5722C58.5317 39.9151 59.4127 36.845 59.8465 33.6351C59.98 32.6228 60 32.2366 60 29.939C60 27.6415 59.98 27.2553 59.8465 26.243C58.9188 19.3837 56.0289 13.49 51.257 8.72839C46.4983 3.97346 40.5517 1.0699 33.7375 0.164204C32.8098 0.0443306 32.2692 0.0176926 30.3003 0.00437546C29.0189 -0.002285 27.8309 -0.002285 27.6641 0.0110359Z" fill="#FEE2DB"/>
<path d="M28.8335 8.6107C27.7401 8.84404 25.9668 9.58404 25.9668 9.8107C25.9668 9.8707 26.0068 10.0107 26.0601 10.124C26.3068 10.684 26.6335 11.4974 26.6335 11.5507C26.6335 11.5774 26.6601 11.644 26.6935 11.6974C26.7401 11.7707 26.7868 11.764 26.9401 11.6574C27.5401 11.2307 28.4135 10.924 29.1668 10.864C30.9468 10.724 32.0535 11.7907 31.7668 13.3707C31.6201 14.204 31.1668 15.004 30.1668 16.204C29.0735 17.524 28.6268 18.4374 28.3668 19.9307C28.2801 20.384 28.3068 21.7507 28.3935 21.8974C28.4268 21.944 28.8468 21.9707 29.6735 21.9707H30.9001L30.8535 21.684C30.7601 21.1907 30.8001 20.2307 30.9268 19.804C31.1868 18.9307 31.7335 17.984 32.4668 17.144C33.0868 16.4307 33.7935 15.4374 34.0201 14.9507C34.4001 14.1507 34.5201 13.6107 34.5268 12.7374C34.5335 11.864 34.4468 11.4574 34.0935 10.7507C33.5735 9.6907 32.6268 8.94404 31.4268 8.6307C30.8335 8.47737 29.5068 8.4707 28.8335 8.6107Z" fill="#FEE2DB"/>
<path d="M29.6658 23.5445C28.7724 23.7645 28.2324 24.4312 28.2324 25.3045C28.2324 26.9379 30.1524 27.7045 31.3124 26.5379C31.5591 26.2845 31.8324 25.6512 31.8324 25.3112C31.8324 24.7312 31.3391 23.9579 30.8058 23.6979C30.5324 23.5645 29.9191 23.4845 29.6658 23.5445Z" fill="#FEE2DB"/>
</svg>
