<svg width="29" height="29" viewBox="0 0 29 29" fill="none" xmlns="http://www.w3.org/2000/svg">
<path d="M29 13.6945C29.0055 15.8209 28.5087 17.9186 27.55 19.8167C26.4132 22.0912 24.6657 24.0042 22.5031 25.3416C20.3405 26.679 17.8482 27.3879 15.3055 27.3889C13.1791 27.3944 11.0814 26.8976 9.18332 25.9389L0 29L3.06111 19.8167C2.10239 17.9186 1.60556 15.8209 1.61111 13.6945C1.61209 11.1517 2.32098 8.65951 3.65837 6.49692C4.99577 4.33433 6.90884 2.58679 9.18332 1.45004C11.0814 0.491323 13.1791 -0.00549833 15.3055 4.58974e-05H16.1111C19.4692 0.18531 22.641 1.60271 25.0191 3.98087C27.3973 6.35902 28.8147 9.5308 29 12.8889V13.6945Z" fill="white"/>
<path d="M9.35449 10.2903H21.5158" stroke="#89B3F4" stroke-linecap="round"/>
<path d="M9.35449 14.0322H21.5158" stroke="#89B3F4" stroke-linecap="round"/>
<path d="M9.35449 17.7742H21.5158" stroke="#89B3F4" stroke-linecap="round"/>
</svg>
