<svg width="12" height="12" viewBox="0 0 12 12" fill="none" xmlns="http://www.w3.org/2000/svg">
<path d="M10.8262 1.2962L8.71201 0.808315C8.4823 0.755461 8.24649 0.875399 8.15297 1.09088L7.17721 3.36767C7.09183 3.56689 7.14875 3.80066 7.31747 3.93686L8.54938 4.94515C7.81755 6.50435 6.5389 7.8013 4.94718 8.54735L3.93889 7.31545C3.80065 7.14672 3.56891 7.0898 3.36969 7.17518L1.09291 8.15095C0.875391 8.24649 0.755453 8.4823 0.808307 8.71201L1.29619 10.8262C1.34701 11.0457 1.54216 11.2043 1.77188 11.2043C6.97799 11.2043 11.2043 6.98613 11.2043 1.77188C11.2043 1.54421 11.0477 1.34702 10.8262 1.2962Z" fill="#2063CC"/>
</svg>
