<svg width="75" height="77" viewBox="0 0 75 77" fill="none" xmlns="http://www.w3.org/2000/svg">
<path d="M23.0996 9.17583V6.41667C23.0996 2.8875 25.9871 0 29.5163 0H58.9688C60.7013 0 62.3054 0.705833 63.5246 1.86083L72.5721 10.9083C73.7913 12.1275 74.4329 13.7317 74.4329 15.4642V60.9583C74.4329 64.4875 71.5454 67.375 68.0163 67.375H52.1671" fill="#E8491F"/>
<path d="M44.9167 77H6.41667C2.8875 77 0 74.1125 0 70.5833V16.0417C0 12.5125 2.8875 9.625 6.41667 9.625H35.8692C37.6017 9.625 39.2058 10.3308 40.425 11.4858L49.4725 20.5333C50.6917 21.7525 51.3333 23.3567 51.3333 25.0892V70.5833C51.3333 74.1125 48.4458 77 44.9167 77Z" fill="#FFB29D"/>
<path d="M9.62461 65.1291H41.7079C42.2213 65.1291 42.6704 64.6799 42.6704 64.1666C42.6704 63.6533 42.2213 63.2041 41.7079 63.2041H9.62461C9.11128 63.2041 8.66211 63.6533 8.66211 64.1666C8.66211 64.6799 9.11128 65.1291 9.62461 65.1291Z" fill="white"/>
<path d="M9.62461 52.2961H41.7079C42.2213 52.2961 42.6704 51.8469 42.6704 51.3336C42.6704 50.8203 42.2213 50.3711 41.7079 50.3711H9.62461C9.11128 50.3711 8.66211 50.8203 8.66211 51.3336C8.66211 51.8469 9.11128 52.2961 9.62461 52.2961Z" fill="white"/>
</svg>
