<svg width="88" height="88" viewBox="0 0 88 88" fill="none" xmlns="http://www.w3.org/2000/svg">
<path d="M52.1455 10.5519C46.6807 7.18145 40.205 5.32812 33.5156 5.32812C15.3062 5.32812 0 18.8947 0 36.2656C0 42.356 1.892 48.1944 5.48591 53.2367L0.465438 68.9987C-0.0649687 70.6637 1.18216 72.3594 2.92239 72.3594C3.32832 72.3595 3.72852 72.2635 4.09028 72.0794L19.3583 64.3163C19.9765 64.5823 20.6023 64.8304 21.2348 65.0602C17.6999 59.5427 15.8125 53.2091 15.8125 46.5781C15.8125 26.8302 32.429 11.6483 52.1455 10.5519Z" fill="#FFB29D"/>
<path d="M82.5141 63.5492C86.108 58.5069 88 52.6685 88 46.5781C88 29.2009 72.6873 15.6406 54.4844 15.6406C36.2749 15.6406 20.9688 29.2072 20.9688 46.5781C20.9688 63.9554 36.2814 77.5156 54.4844 77.5156C59.3685 77.5156 64.2352 76.5203 68.6409 74.6285L83.9097 82.3919C84.3629 82.6222 84.8742 82.7135 85.3791 82.6541C85.884 82.5947 86.3601 82.3873 86.7475 82.0581C87.1349 81.7289 87.4163 81.2925 87.5564 80.8038C87.6965 80.3151 87.6889 79.7958 87.5347 79.3114L82.5141 63.5492ZM44 49.1562C42.5762 49.1562 41.4219 48.0019 41.4219 46.5781C41.4219 45.1543 42.5762 44 44 44C45.4238 44 46.5781 45.1543 46.5781 46.5781C46.5781 48.0019 45.4238 49.1562 44 49.1562ZM54.3125 49.1562C52.8887 49.1562 51.7344 48.0019 51.7344 46.5781C51.7344 45.1543 52.8887 44 54.3125 44C55.7363 44 56.8906 45.1543 56.8906 46.5781C56.8906 48.0019 55.7363 49.1562 54.3125 49.1562ZM64.625 49.1562C63.2012 49.1562 62.0469 48.0019 62.0469 46.5781C62.0469 45.1543 63.2012 44 64.625 44C66.0488 44 67.2031 45.1543 67.2031 46.5781C67.2031 48.0019 66.0488 49.1562 64.625 49.1562Z" fill="#E8491F"/>
</svg>
