<svg width="75" height="76" viewBox="0 0 75 76" fill="none" xmlns="http://www.w3.org/2000/svg">
<path d="M10.6078 9.79868V30.4959L73.959 21.2146C73.7546 20.6705 73.4304 20.1794 73.0104 19.7778C72.5903 19.3761 72.0853 19.0741 71.5326 18.8943L23.5353 0.557202H23.4159C22.2789 0.179192 21.0873 -0.00895078 19.8891 0.000327112C18.6996 -0.00128081 17.5215 0.23216 16.4225 0.687238C15.3234 1.14232 14.3252 1.81006 13.485 2.65211C12.5554 3.59296 11.8223 4.70935 11.3283 5.93628C10.8343 7.16322 10.5894 8.47617 10.6078 9.79868Z" fill="#2063CC"/>
<path d="M7.95536 21.2148H46.4063C46.5388 21.2148 46.6714 21.2148 46.804 21.2148H73.9583C74.0148 21.3624 74.0635 21.5129 74.1042 21.6656C74.1997 21.9476 74.2489 22.2431 74.25 22.5407V67.6211C74.25 69.731 73.4118 71.7545 71.9199 73.2464C70.428 74.7383 68.4045 75.5765 66.2946 75.5765H7.95536C5.84547 75.5765 3.82199 74.7383 2.33007 73.2464C0.83815 71.7545 0 69.731 0 67.6211V29.1702C0 27.0603 0.83815 25.0368 2.33007 23.5449C3.82199 22.053 5.84547 21.2148 7.95536 21.2148Z" fill="#89B3F4"/>
<path d="M-0.000278473 37.1255V60.9916H21.214C22.6206 60.9916 23.9696 60.4328 24.9642 59.4382C25.9588 58.4436 26.5176 57.0946 26.5176 55.688V42.4291C26.5176 41.0225 25.9588 39.6735 24.9642 38.6789C23.9696 37.6843 22.6206 37.1255 21.214 37.1255H-0.000278473Z" fill="#F2F6FF"/>
<path d="M15.911 53.0359C13.7142 53.0359 11.9333 51.2551 11.9333 49.0582C11.9333 46.8614 13.7142 45.0806 15.911 45.0806C18.1078 45.0806 19.8887 46.8614 19.8887 49.0582C19.8887 51.2551 18.1078 53.0359 15.911 53.0359Z" fill="#2063CC"/>
</svg>
