<svg width="128" height="26" viewBox="0 0 128 26" fill="none" xmlns="http://www.w3.org/2000/svg">
<path fill-rule="evenodd" clip-rule="evenodd" d="M25.5738 0H0V26L25.5738 0ZM15.3437 4.26221H4.26172V15.3442L15.3437 4.26221Z" fill="#202020"/>
<path fill-rule="evenodd" clip-rule="evenodd" d="M56.559 0H31.4844V26L56.559 0ZM46.5292 4.2623H35.6635V15.3443L46.5292 4.2623Z" fill="#202020"/>
<path d="M39.8426 11.5082L45.2754 11.082L59.4844 26H53.6336L39.8426 11.5082Z" fill="#202020"/>
<path fill-rule="evenodd" clip-rule="evenodd" d="M89.9351 0H64.3613V26H89.9351V0ZM85.6722 4.26221H68.623V21.7376H85.6722V4.26221Z" fill="#202020"/>
<path d="M121.511 0H127.484L101.458 26H95.4844L121.511 0Z" fill="#202020"/>
<path d="M101.458 0H95.4844L121.511 26H127.484L101.458 0Z" fill="#202020"/>
</svg>
