<svg width="112" height="66" viewBox="0 0 112 66" fill="none" xmlns="http://www.w3.org/2000/svg">
<path d="M28 16.4439C12.6198 25.513 0.0246841 32.9377 3.61851e-05 32.9626C-0.0246117 32.9875 12.5458 40.4371 27.9507 49.5062L55.9507 66L83.9754 49.4813L112 32.9875L110.842 32.3148C108.697 31.0691 57.4789 0.92186 56.7148 0.448471L55.9754 0L28 16.4439ZM80.574 18.4371C93.9085 26.2854 104.901 32.7633 105 32.863C105.197 33.0374 56.5916 61.8143 56 61.8641C55.8275 61.8641 44.662 55.3862 31.155 47.4383C8.60215 34.1835 6.63032 32.9626 7.14792 32.6886C7.4437 32.5142 18.5106 25.9864 31.7219 18.188C44.9331 10.3896 55.9014 4.03624 56.0493 4.08607C56.2218 4.16082 67.2641 10.6138 80.574 18.4371Z" fill="#0A3C33"/>
<path d="M35.2954 20.4055C24.1792 26.9582 14.8377 32.4893 14.5419 32.6637C14.0243 32.9876 15.306 33.7849 34.8025 45.2707C46.2637 52.0227 55.7285 57.5539 55.8271 57.6037C56.1722 57.7034 97.8271 33.0624 97.6053 32.863C97.0384 32.3398 56.4187 8.59578 55.9997 8.54594C55.7039 8.49612 47.2497 13.3296 35.2954 20.4055ZM57.8729 26.435C59.2778 28.7271 59.4504 29.1507 59.5243 30.5459C59.6229 31.8914 59.5243 32.2402 58.8588 33.5358C57.7743 35.529 56.2954 37.7215 55.9997 37.7215C55.7039 37.7215 54.225 35.529 53.1405 33.5358C52.4504 32.2402 52.3764 31.8914 52.475 30.5459C52.5736 29.1756 52.7461 28.7022 54.1264 26.435C54.9891 25.0397 55.8271 23.8936 55.9997 23.8936C56.1475 23.8936 56.9856 25.0397 57.8729 26.435ZM43.5032 29.1507C47.5208 30.1722 49.7145 32.0907 52.4257 36.8495C54.2743 40.0884 54.9152 40.8359 55.9257 40.8359C56.887 40.8359 57.4046 40.213 59.3271 36.8495C60.2144 35.3047 61.3729 33.5358 61.9151 32.9129C63.1722 31.4678 65.3412 30.0476 67.2884 29.3999C69.1123 28.777 72.8588 28.2538 73.1792 28.5777C73.4997 28.9016 68.7673 36.2266 67.0912 37.9706C64.232 40.9604 60.1898 42.2809 54.7673 42.0069C49.1722 41.7328 45.6968 39.8642 42.7637 35.5539C40.3729 32.0658 38.4011 28.8019 38.5243 28.5777C38.6968 28.2787 41.2602 28.5777 43.5032 29.1507Z" fill="#0A3C33"/>
</svg>
