<svg width="169" height="46" viewBox="0 0 169 46" fill="none" xmlns="http://www.w3.org/2000/svg">
<path d="M80.2231 44.4995C79.3005 45.1425 77.901 45.5765 76.3527 45.5765C72.7622 45.5765 70.127 43.4062 70.127 39.7562C70.127 36.3472 72.7294 33.9678 76.3695 33.9678C78.1154 33.9678 79.5149 34.5144 80.2231 34.9484V37.8588C79.4162 36.6854 78.1149 36.026 76.4683 36.026C74.2281 36.026 72.6798 37.537 72.6798 39.6917C72.6798 41.9747 74.2778 43.5183 76.583 43.5183C78.3125 43.5183 79.5149 42.8107 80.2231 41.9428V44.4995Z" fill="#333F48"/>
<path d="M88.3273 38.5345C91.0777 38.5345 92.5928 39.7086 92.5928 41.8627C92.5928 44.0168 90.9288 45.4 88.0142 45.4H82.8262V34.145H92.7417L90.1392 36.0104H85.3135V38.5345H88.3278H88.3273ZM87.8986 43.5189C89.4306 43.5189 90.2206 43.0205 90.2206 41.9591C90.2206 40.8978 89.4797 40.3993 87.8986 40.3993H85.313V43.5183H87.8986V43.5189Z" fill="#333F48"/>
<path d="M97.3853 36.0104V38.7599H102.705V40.641H97.3853V43.5189H103.628V45.4H94.8984V34.145H103.628L101.009 36.0104H97.3853Z" fill="#333F48"/>
<path d="M110.741 34.145C113.936 34.145 115.666 35.6886 115.666 38.1645C115.666 40.6404 113.772 42.2165 110.494 42.2165H108.485V45.4H105.998V34.145H110.741ZM110.692 40.3354C112.29 40.3354 113.163 39.5634 113.163 38.1808C113.163 36.7981 112.29 36.0104 110.692 36.0104H108.485V40.3354H110.692Z" fill="#333F48"/>
<path d="M131.766 44.4995C130.844 45.1425 129.444 45.5765 127.896 45.5765C124.306 45.5765 121.67 43.4062 121.67 39.7562C121.67 36.3472 124.272 33.9678 127.913 33.9678C129.658 33.9678 131.058 34.5144 131.767 34.9484V37.8588C130.96 36.6854 129.658 36.026 128.011 36.026C125.771 36.026 124.223 37.537 124.223 39.6917C124.223 41.9747 125.821 43.5183 128.126 43.5183C129.856 43.5183 131.058 42.8107 131.767 41.9428V44.4995H131.766Z" fill="#333F48"/>
<path d="M136.89 42.1357L142.622 34.145H145.125V45.4H142.704V37.2803L136.939 45.4H134.469V34.145H136.89V42.1357H136.89Z" fill="#333F48"/>
<path d="M156.57 36.0261H152.881V45.4H150.393V36.0261H146.803V34.145H156.57V36.0261Z" fill="#333F48"/>
<path d="M160.754 42.1357L166.486 34.145H168.99V45.4H166.569V37.2803L160.804 45.4H158.334V34.145H160.755V42.1357H160.754Z" fill="#333F48"/>
<path d="M92.5861 16.1809C93.6759 14.6657 95.3066 11.6962 94.5555 10.6065C93.6518 9.29557 89.6792 11.827 88.4132 12.5803C76.7152 19.5422 73.0721 23.1856 61.9691 30.5139C57.8751 33.2164 48.0878 38.871 43.7184 39.754C36.3893 41.2354 32.3688 36.2655 36.4746 30.8273C39.3195 27.0591 40.7426 24.6067 30.2957 22.2122C24.3828 20.8573 9.94687 17.9637 3.68773 14.025C-1.28663 10.8946 -1.23539 5.45453 3.88283 2.67484C9.22823 -0.227794 18.2459 -0.289269 24.3958 0.286918C46.306 2.33974 69.5683 13.564 73.2533 15.6439C86.6085 23.1813 87.0286 23.9064 92.5861 16.1803V16.1809ZM71.5845 17.9505C63.1831 14.4047 41.3267 6.03735 24.2026 4.78974C16.7407 4.2461 11.0279 3.87362 6.83583 5.85592C2.78756 7.77014 4.20943 10.5275 7.7755 12.9323C11.2243 15.2581 24.8249 19.1336 30.6889 20.6114C39.0065 22.707 43.2888 24.3018 38.7614 31.9911C37.1382 34.7485 38.0934 37.4685 42.8016 36.3372C47.7056 35.1589 57.6974 29.4808 61.7268 26.9573C72.4892 20.2154 85.6064 12.9516 87.8615 11.6425C94.438 7.82619 96.3371 8.57655 96.9619 9.33654C98.1331 10.7619 96.0475 14.6271 94.7642 16.768C88.4729 27.2665 81.1642 21.9934 71.5845 17.9505Z" fill="#333F48"/>
</svg>
