<svg width="220" height="55" viewBox="0 0 220 55" fill="none" xmlns="http://www.w3.org/2000/svg">
<path d="M66.5977 50.1752C66.9504 50.2254 67.53 50.2505 68.1221 50.2505C69.3695 50.2505 71.3853 50.0122 71.3853 48.3815C71.3853 47.6539 70.8562 47.0644 69.9364 46.9264V46.8887C70.5664 46.7382 71.1207 46.2615 71.1207 45.4838C71.1207 44.1165 69.4829 43.9409 68.3993 43.9409C67.7694 43.9409 67.1016 43.9911 66.5977 44.0664V50.1752ZM68.1977 45.0448C68.3111 45.0197 68.4497 45.0072 68.6135 45.0072C69.1931 45.0072 69.5836 45.2455 69.5836 45.7222C69.5836 46.2114 69.1175 46.4873 68.5631 46.4873H68.1977V45.0448ZM68.1851 47.541H68.5757C69.2183 47.541 69.7474 47.8044 69.7474 48.3689C69.7474 48.971 69.1805 49.1843 68.6009 49.1843C68.4623 49.1843 68.2985 49.1717 68.1851 49.1466V47.541ZM75.5458 48.7829C75.3695 48.8707 75.1679 48.9083 74.9285 48.9083C74.1599 48.9083 73.6938 48.2309 73.6938 47.1271C73.6938 46.0608 74.1599 45.3082 74.9537 45.3082C75.2309 45.3082 75.4324 45.3709 75.571 45.4211L75.7852 44.1291C75.6214 44.0538 75.2687 43.966 74.8781 43.966C73.1772 43.966 72.0559 45.2831 72.0559 47.1773C72.0559 49.1717 73.0764 50.2505 74.6387 50.2505C75.1049 50.2505 75.5206 50.1501 75.6844 50.0749L75.5458 48.7829ZM80.6389 47.6915C80.6641 47.5159 80.6893 47.2776 80.6893 46.8386C80.6893 44.9695 79.9207 43.9284 78.5978 43.9284C77.2119 43.9284 76.1284 45.1577 76.1284 47.2274C76.1284 49.1466 77.0481 50.2505 78.7364 50.2505C79.3538 50.2505 79.9963 50.1376 80.4121 49.9745L80.1979 48.7954C79.8955 48.8958 79.4924 48.9961 79.0262 48.9961C78.3081 48.9961 77.7411 48.6449 77.7285 47.6915H80.6389ZM77.7285 46.5375C77.7411 45.9229 77.9679 45.1326 78.497 45.1326C78.9884 45.1326 79.19 45.7472 79.19 46.5375H77.7285ZM86.9022 48.7829C86.7258 48.8707 86.5242 48.9083 86.2848 48.9083C85.5163 48.9083 85.0501 48.2309 85.0501 47.1271C85.0501 46.0608 85.5163 45.3082 86.31 45.3082C86.5872 45.3082 86.7888 45.3709 86.9274 45.4211L87.1416 44.1291C86.9778 44.0538 86.625 43.966 86.2344 43.966C84.5336 43.966 83.4122 45.2831 83.4122 47.1773C83.4122 49.1717 84.4328 50.2505 85.9951 50.2505C86.4612 50.2505 86.877 50.1501 87.0408 50.0749L86.9022 48.7829ZM87.6864 52.5837H89.3369V49.6735H89.3621C89.5385 49.962 89.8787 50.2756 90.3827 50.2756C91.4284 50.2756 92.3859 49.2846 92.3859 47.102C92.3859 45.396 91.8316 43.9284 90.4835 43.9284C89.9039 43.9284 89.4377 44.242 89.1857 44.7437H89.1605L89.0723 44.0413H87.6361C87.6613 44.6308 87.6864 45.2455 87.6864 45.9856V52.5837ZM89.3369 46.2866C89.3369 46.1361 89.3495 45.973 89.4125 45.8476C89.4755 45.5591 89.7149 45.3208 89.9669 45.3208C90.4583 45.3208 90.748 45.9479 90.748 47.1145C90.748 48.0804 90.5338 48.9334 89.9543 48.9334C89.7653 48.9334 89.5511 48.833 89.4251 48.4567C89.3621 48.3313 89.3369 48.1431 89.3369 47.9424V46.2866ZM97.4923 46.4999C97.4923 45.2455 97.19 43.9409 95.3122 43.9409C94.4429 43.9409 93.7373 44.2169 93.3845 44.4051L93.6869 45.5215C94.0649 45.2957 94.4555 45.1577 94.9468 45.1577C95.539 45.1577 95.8162 45.5089 95.8162 45.9981V46.1361C94.4177 46.1487 92.994 46.8009 92.994 48.4191C92.994 49.4979 93.6869 50.2756 94.6193 50.2756C95.161 50.2756 95.6524 50.0372 95.98 49.5731H96.0178L96.106 50.1752H97.5805C97.5175 49.7613 97.4923 49.2595 97.4923 48.7703V46.4999ZM95.8666 48.256C95.8666 48.3689 95.854 48.4567 95.8288 48.5445C95.7154 48.9083 95.4256 49.0714 95.1484 49.0714C94.8964 49.0714 94.5563 48.8456 94.5563 48.2435C94.5563 47.3905 95.3248 47.2023 95.8666 47.1898V48.256ZM102.933 41.3945C102.643 41.52 101.85 41.6329 101.447 41.7207C100.35 41.9088 99.6449 42.4231 99.1913 43.1632C98.6621 44.0162 98.4857 45.1702 98.4857 46.4999C98.4857 48.2058 98.9519 50.3132 100.98 50.3132C102.593 50.3132 103.412 48.8456 103.412 47.0644C103.412 45.0573 102.568 44.0413 101.409 44.0413C100.716 44.0413 100.149 44.4929 99.8968 45.0322H99.859C99.8968 44.6183 100.01 44.2294 100.187 43.9284C100.451 43.4768 100.854 43.1507 101.862 43.0127C102.215 42.95 102.568 42.8998 102.82 42.7869L102.933 41.3945ZM101.787 47.1396C101.787 47.7292 101.686 49.0212 100.943 49.0212C100.224 49.0212 100.073 47.7292 100.073 47.0142C100.073 46.7382 100.098 46.3117 100.224 45.9479C100.338 45.6093 100.577 45.3208 100.93 45.3208C101.636 45.3208 101.787 46.4246 101.787 47.1396ZM106.513 43.9284C105.291 43.9284 104.132 44.9194 104.132 47.1271C104.132 49.1215 105.014 50.2756 106.488 50.2756C107.42 50.2756 108.844 49.6484 108.844 47.0894C108.844 45.1451 107.975 43.9284 106.513 43.9284ZM106.501 45.1828C107.068 45.1828 107.206 46.249 107.206 47.0894C107.206 47.9926 107.068 49.0212 106.526 49.0212C105.934 49.0212 105.77 48.1431 105.77 47.0894C105.77 46.249 105.896 45.1828 106.501 45.1828ZM109.22 44.0413V45.3835H110.593V50.1752H112.244V45.3835H113.617V44.0413H109.22ZM118.323 46.4999C118.323 45.2455 118.02 43.9409 116.143 43.9409C115.274 43.9409 114.568 44.2169 114.215 44.4051L114.518 45.5215C114.896 45.2957 115.286 45.1577 115.778 45.1577C116.37 45.1577 116.647 45.5089 116.647 45.9981V46.1361C115.248 46.1487 113.825 46.8009 113.825 48.4191C113.825 49.4979 114.518 50.2756 115.45 50.2756C115.992 50.2756 116.483 50.0372 116.811 49.5731H116.848L116.937 50.1752H118.411C118.348 49.7613 118.323 49.2595 118.323 48.7703V46.4999ZM116.697 48.256C116.697 48.3689 116.685 48.4567 116.659 48.5445C116.546 48.9083 116.256 49.0714 115.979 49.0714C115.727 49.0714 115.387 48.8456 115.387 48.2435C115.387 47.3905 116.156 47.2023 116.697 47.1898V48.256ZM123.776 47.6915C123.801 47.5159 123.826 47.2776 123.826 46.8386C123.826 44.9695 123.058 43.9284 121.735 43.9284C120.349 43.9284 119.266 45.1577 119.266 47.2274C119.266 49.1466 120.185 50.2505 121.874 50.2505C122.491 50.2505 123.133 50.1376 123.549 49.9745L123.335 48.7954C123.033 48.8958 122.63 48.9961 122.163 48.9961C121.445 48.9961 120.878 48.6449 120.866 47.6915H123.776ZM120.866 46.5375C120.878 45.9229 121.105 45.1326 121.634 45.1326C122.126 45.1326 122.327 45.7472 122.327 46.5375H120.866ZM124.256 44.0413V45.3835H125.629V50.1752H127.28V45.3835H128.653V44.0413H124.256ZM131.353 50.1752C131.706 50.2254 132.285 50.2505 132.877 50.2505C134.125 50.2505 136.141 50.0122 136.141 48.3815C136.141 47.6539 135.611 47.0644 134.692 46.9264V46.8887C135.322 46.7382 135.876 46.2615 135.876 45.4838C135.876 44.1165 134.238 43.9409 133.155 43.9409C132.525 43.9409 131.857 43.9911 131.353 44.0664V50.1752ZM132.953 45.0448C133.066 45.0197 133.205 45.0072 133.369 45.0072C133.948 45.0072 134.339 45.2455 134.339 45.7222C134.339 46.2114 133.873 46.4873 133.318 46.4873H132.953V45.0448ZM132.94 47.541H133.331C133.974 47.541 134.503 47.8044 134.503 48.3689C134.503 48.971 133.936 49.1843 133.356 49.1843C133.218 49.1843 133.054 49.1717 132.94 49.1466V47.541ZM139.193 43.9284C137.97 43.9284 136.811 44.9194 136.811 47.1271C136.811 49.1215 137.693 50.2756 139.167 50.2756C140.1 50.2756 141.523 49.6484 141.523 47.0894C141.523 45.1451 140.654 43.9284 139.193 43.9284ZM139.18 45.1828C139.747 45.1828 139.885 46.249 139.885 47.0894C139.885 47.9926 139.747 49.0212 139.205 49.0212C138.613 49.0212 138.449 48.1431 138.449 47.0894C138.449 46.249 138.575 45.1828 139.18 45.1828ZM142.438 50.1752C142.791 50.2254 143.371 50.2505 143.963 50.2505C145.21 50.2505 147.226 50.0122 147.226 48.3815C147.226 47.6539 146.697 47.0644 145.777 46.9264V46.8887C146.407 46.7382 146.961 46.2615 146.961 45.4838C146.961 44.1165 145.323 43.9409 144.24 43.9409C143.61 43.9409 142.942 43.9911 142.438 44.0664V50.1752ZM144.038 45.0448C144.152 45.0197 144.29 45.0072 144.454 45.0072C145.034 45.0072 145.424 45.2455 145.424 45.7222C145.424 46.2114 144.958 46.4873 144.404 46.4873H144.038V45.0448ZM144.026 47.541H144.416C145.059 47.541 145.588 47.8044 145.588 48.3689C145.588 48.971 145.021 49.1843 144.441 49.1843C144.303 49.1843 144.139 49.1717 144.026 49.1466V47.541ZM148.135 52.5837H149.785V49.6735H149.811C149.987 49.962 150.327 50.2756 150.831 50.2756C151.877 50.2756 152.834 49.2846 152.834 47.102C152.834 45.396 152.28 43.9284 150.932 43.9284C150.352 43.9284 149.886 44.242 149.634 44.7437H149.609L149.521 44.0413H148.085C148.11 44.6308 148.135 45.2455 148.135 45.9856V52.5837ZM149.785 46.2866C149.785 46.1361 149.798 45.973 149.861 45.8476C149.924 45.5591 150.163 45.3208 150.415 45.3208C150.907 45.3208 151.197 45.9479 151.197 47.1145C151.197 48.0804 150.982 48.9334 150.403 48.9334C150.214 48.9334 150 48.833 149.874 48.4567C149.811 48.3313 149.785 48.1431 149.785 47.9424V46.2866ZM158.08 47.6915C158.105 47.5159 158.13 47.2776 158.13 46.8386C158.13 44.9695 157.361 43.9284 156.039 43.9284C154.653 43.9284 153.569 45.1577 153.569 47.2274C153.569 49.1466 154.489 50.2505 156.177 50.2505C156.794 50.2505 157.437 50.1376 157.853 49.9745L157.639 48.7954C157.336 48.8958 156.933 48.9961 156.467 48.9961C155.749 48.9961 155.182 48.6449 155.169 47.6915H158.08ZM155.169 46.5375C155.182 45.9229 155.409 45.1326 155.938 45.1326C156.429 45.1326 156.631 45.7472 156.631 46.5375H155.169ZM158.898 50.1752H160.384L160.447 48.0428C160.472 47.4532 160.485 46.7006 160.51 45.4337H160.535C160.661 46.0608 160.888 47.2651 161.039 47.9424L161.518 50.0749H162.854L163.345 47.9801C163.547 47.0267 163.761 45.9605 163.862 45.4462H163.887C163.899 46.7257 163.925 47.4532 163.95 48.0302L164.013 50.1752H165.55L165.147 44.0413H163.106L162.665 45.9981C162.551 46.5124 162.463 47.0267 162.299 47.8044H162.262C162.098 47.0016 161.984 46.525 161.858 45.9981L161.392 44.0413H159.351L158.898 50.1752ZM170.84 44.104C170.436 44.0413 169.806 44.0037 169.113 44.0037C168.269 44.0037 167.463 44.1542 167.047 44.4427C166.606 44.7563 166.329 45.1577 166.329 45.7598C166.329 46.6504 166.997 47.102 167.765 47.2651V47.2901C167.438 47.3905 167.186 47.541 167.022 47.7166C166.619 48.1557 166.442 48.9585 166.279 49.4979C166.203 49.7613 166.09 49.9871 165.976 50.1752H167.69C167.765 50.0372 167.816 49.8867 167.866 49.7237C168.055 48.9836 168.194 48.1557 168.66 47.8922C168.761 47.817 168.899 47.7668 169.101 47.7668H169.252V50.1752H170.84V44.104ZM169.265 46.7758C169.189 46.7884 169.139 46.7884 169.038 46.7884C168.433 46.7884 167.992 46.3995 167.992 45.8601C167.992 45.3208 168.345 45.0322 168.912 45.0322C169.038 45.0322 169.151 45.0448 169.265 45.0699V46.7758Z" fill="#3B4054"/>
<path d="M46.8241 6.57893C45.3384 6.57893 45.1292 7.64503 44.2429 8.7822C45.8202 11.9433 46.7074 15.5033 46.7074 19.2692C46.7074 32.339 36.0281 42.9386 22.8592 42.9386C16.8614 42.9386 11.3807 40.7391 7.18953 37.1095V45.917C7.18953 48.4205 9.25278 50.4685 11.7754 50.4685H46.8241C49.3468 50.4685 51.4099 48.4205 51.4099 45.917V11.1305C51.4099 8.62696 49.3468 6.57893 46.8241 6.57893ZM11.4798 29.1949C11.6949 30.1701 12.0303 31.1361 12.4944 32.0722C15.5881 38.3112 23.1946 40.8802 29.4804 37.8098C35.7663 34.7393 38.3552 27.1897 35.2613 20.9509C34.9006 20.2242 34.475 19.5429 33.9942 18.9122C33.0349 19.6421 32.0513 20.3456 31.0399 21.0163C31.4149 21.4944 31.7445 22.0142 32.0208 22.5717C34.2315 27.0295 32.3822 32.4241 27.8902 34.6182C23.3988 36.8121 17.9636 34.9765 15.7529 30.5182C15.3997 29.8059 15.1506 29.0699 14.9991 28.3269C13.8273 28.6538 12.6542 28.9456 11.4798 29.1949ZM1.65663 24.2945C0.705253 24.3314 -0.0356706 25.1272 0.00132746 26.0716C0.0385658 27.0159 0.840273 27.7513 1.7919 27.7146C4.12254 27.6177 6.43996 27.38 8.72688 27.0033C11.0246 26.6251 13.2966 26.1079 15.5247 25.4548C21.902 23.5854 27.8504 20.6321 33.1218 16.776C38.3984 12.9157 43.0025 8.15006 46.6867 2.65859C47.2129 1.86957 46.9949 0.806562 46.2002 0.284835C45.4057 -0.237367 44.3347 -0.0213325 43.8086 0.767456C40.3516 5.91985 36.0319 10.3917 31.0812 14.013C26.1247 17.6392 20.5372 20.4145 14.5519 22.1687C12.4532 22.7842 10.3209 23.2698 8.17286 23.6235C6.00968 23.9797 3.83208 24.2043 1.65663 24.2945Z" fill="#3B4054"/>
<path d="M17.4453 27.3575C17.5446 27.9802 17.7384 28.5993 18.0339 29.195C19.6133 32.3808 23.4969 33.6923 26.7062 32.1245C29.9161 30.5569 31.2375 26.7022 29.6578 23.5167C29.4187 23.0344 29.1232 22.5911 28.7824 22.1929C25.2742 24.289 21.4836 26.0302 17.4453 27.3575Z" fill="#5ED6CA"/>
<path d="M86.9014 28.0991C88.3113 29.1854 89.0163 30.5389 89.0163 32.1592C89.0163 33.7059 88.3484 35.0226 87.0126 36.109C85.5469 37.3058 83.5524 37.9044 81.0292 37.9044C76.252 37.9044 71.4746 37.9044 66.6973 37.9044C66.6973 31.2845 66.6973 24.6647 66.6973 18.0449C71.4746 18.0449 76.252 18.0449 81.0292 18.0449C83.5524 18.0449 85.5469 18.6618 87.0126 19.8955C88.3484 21.0004 89.0163 22.3536 89.0163 23.9558C89.0163 25.5947 88.3113 26.9758 86.9014 28.0991ZM70.1761 29.8867C70.1761 31.4083 70.1761 32.9298 70.1761 34.4516C73.9795 34.4516 77.7827 34.4516 81.5859 34.4516C82.8659 34.4516 83.8865 34.2124 84.6471 33.7336C85.315 33.3101 85.6492 32.7853 85.6492 32.1592C85.6492 31.5332 85.2972 31.0215 84.6192 30.5846C83.8687 30.1011 82.8657 29.839 81.5859 29.839C77.7366 29.839 73.9821 29.8867 70.1761 29.8867ZM181.295 37.932C180.895 37.932 180.497 37.932 180.098 37.932C176.721 37.932 174.179 37.2784 172.472 35.9708C170.581 34.5162 169.635 32.1868 169.635 28.9828C169.635 25.3459 169.635 21.7092 169.635 18.0725C170.794 18.0725 171.953 18.0725 173.113 18.0725C173.113 21.7092 173.113 25.3459 173.113 28.9828C173.113 31.082 173.762 32.5642 175.061 33.4296C176.137 34.1294 177.816 34.4792 180.098 34.4792C180.497 34.4792 180.895 34.4792 181.295 34.4792C183.577 34.4792 185.256 34.1294 186.331 33.4296C187.63 32.5642 188.279 31.082 188.279 28.9828C188.279 25.3459 188.279 21.7092 188.279 18.0725C189.426 18.0725 190.572 18.0725 191.718 18.0725C191.732 18.0725 191.745 18.0725 191.759 18.0725C191.759 21.7092 191.759 25.3459 191.759 28.9828C191.759 29.3633 191.745 29.7313 191.718 30.0872C191.718 32.6485 191.718 35.2098 191.718 37.7713C190.572 37.7713 189.426 37.7713 188.279 37.7713C188.279 37.312 188.279 36.8528 188.279 36.3938C186.613 37.4193 184.286 37.932 181.295 37.932ZM204.332 21.5251C202.327 21.5251 200.704 22.1786 199.462 23.4863C198.366 24.6464 197.782 26.0825 197.707 27.7951C197.652 29.5994 198.172 31.1279 199.267 32.3799C200.491 33.7798 202.179 34.4792 204.332 34.4792C206.195 34.4792 208.06 34.4792 209.925 34.4792C212.077 34.4792 213.766 33.7798 214.991 32.3799C216.085 31.1279 216.594 29.5994 216.521 27.7951C216.465 26.0825 215.881 24.6464 214.768 23.4863C213.543 22.1786 211.929 21.5251 209.925 21.5251C208.06 21.5251 206.195 21.5251 204.332 21.5251ZM204.332 37.932C201.215 37.932 198.71 36.8733 196.818 34.7554C195.111 32.8221 194.257 30.5016 194.257 27.7951C194.257 25.1252 195.073 22.8969 196.706 21.1106C198.561 19.0853 201.103 18.0725 204.332 18.0725C206.195 18.0725 208.06 18.0725 209.925 18.0725C213.153 18.0725 215.685 19.0853 217.523 21.1106C219.173 22.8969 219.999 25.1252 219.999 27.7951C219.999 30.5016 219.146 32.8221 217.439 34.7554C215.547 36.8733 213.042 37.932 209.925 37.932C208.06 37.932 206.195 37.932 204.332 37.932ZM155.061 37.932C153.901 37.932 152.742 37.932 151.582 37.932C151.582 35.0682 151.582 32.2047 151.582 29.341C150.891 29.341 150.2 29.341 149.509 29.341C147.227 29.341 145.543 29.6846 144.472 30.3906C143.17 31.249 142.523 32.7383 142.523 34.8374C142.523 35.8687 142.523 36.9002 142.523 37.9318C141.364 37.9318 140.205 37.9318 139.045 37.9318C139.045 36.9002 139.045 35.8687 139.045 34.8374C139.045 31.6334 139.99 29.3021 141.884 27.8494C142.403 27.4512 142.999 27.1138 143.673 26.8372C142.195 25.3731 141.456 23.223 141.456 20.392C141.456 19.6189 141.456 18.8456 141.456 18.0725C142.615 18.0725 143.775 18.0725 144.935 18.0725C144.935 18.8456 144.935 19.6189 144.935 20.392C144.935 22.4903 145.581 23.9806 146.883 24.8388C147.9 25.5088 149.471 25.8529 151.582 25.8858C151.582 23.2815 151.582 20.6769 151.582 18.0725C152.742 18.0725 153.901 18.0725 155.061 18.0725C155.061 20.6729 155.061 23.2731 155.061 25.8734C156.943 25.8007 158.361 25.4597 159.304 24.8388C160.607 23.9806 161.252 22.491 161.252 20.392C161.252 19.6189 161.252 18.8456 161.252 18.0725C162.412 18.0725 163.572 18.0725 164.731 18.0725C164.731 18.8456 164.731 19.6189 164.731 20.392C164.731 23.1422 164.021 25.2443 162.615 26.7087C163.426 27.0082 164.131 27.3885 164.732 27.8494C166.637 29.3111 167.598 31.6339 167.598 34.8374C167.598 35.8687 167.598 36.9002 167.598 37.9318C166.438 37.9318 165.279 37.9318 164.119 37.9318C164.119 36.9002 164.119 35.8687 164.119 34.8374C164.119 32.7381 163.475 31.249 162.171 30.3906C161.1 29.6846 159.416 29.341 157.133 29.341C156.443 29.341 155.752 29.341 155.061 29.341C155.061 32.2047 155.061 35.0682 155.061 37.932ZM119.896 21.5251C119.896 25.8433 119.896 30.1612 119.896 34.4792C122.503 34.4792 125.11 34.4792 127.717 34.4792C129.869 34.4792 131.557 33.7798 132.781 32.3799C133.876 31.1279 134.386 29.5994 134.312 27.7951C134.256 26.0825 133.672 24.6464 132.559 23.4863C131.334 22.1786 129.721 21.5251 127.717 21.5251C125.11 21.5251 122.503 21.5251 119.896 21.5251ZM116.418 37.932C116.418 31.3122 116.418 24.6924 116.418 18.0725C120.184 18.0725 123.95 18.0725 127.717 18.0725C130.926 18.0725 133.459 19.0853 135.314 21.1106C136.965 22.8969 137.791 25.1252 137.791 27.7951C137.791 30.5016 136.937 32.8221 135.23 34.7554C133.339 36.8733 130.833 37.932 127.717 37.932C123.95 37.932 120.184 37.932 116.418 37.932ZM102.833 37.932C102.434 37.932 102.036 37.932 101.636 37.932C98.2597 37.932 95.7183 37.2784 94.0113 35.9708C92.1191 34.5162 91.1727 32.1868 91.1727 28.9828C91.1727 25.3459 91.1727 21.7092 91.1727 18.0725C92.3324 18.0725 93.4918 18.0725 94.6513 18.0725C94.6513 21.7092 94.6513 25.3459 94.6513 28.9828C94.6513 31.082 95.3007 32.5642 96.5994 33.4296C97.6753 34.1294 99.3549 34.4792 101.636 34.4792C102.036 34.4792 102.434 34.4792 102.833 34.4792C105.116 34.4792 106.794 34.1294 107.87 33.4296C109.169 32.5642 109.818 31.082 109.818 28.9828C109.818 25.3459 109.818 21.7092 109.818 18.0725C110.964 18.0725 112.11 18.0725 113.257 18.0725C113.27 18.0725 113.284 18.0725 113.297 18.0725C113.297 21.7092 113.297 25.3459 113.297 28.9828C113.297 29.3633 113.284 29.7313 113.257 30.0872C113.257 32.6485 113.257 35.2098 113.257 37.7713C112.11 37.7713 110.964 37.7713 109.818 37.7713C109.818 37.312 109.818 36.8528 109.818 36.3938C108.152 37.4193 105.824 37.932 102.833 37.932ZM70.1761 26.4168C70.1761 26.4069 70.1761 26.3968 70.1761 26.3866C73.9795 26.3866 77.7827 26.3866 81.5859 26.3866C82.8659 26.3866 83.8733 26.1226 84.6192 25.613C85.3016 25.1471 85.6492 24.591 85.6492 23.9284C85.6492 23.265 85.315 22.7037 84.6471 22.2433C83.8865 21.7461 82.8659 21.4977 81.5859 21.4977C77.7827 21.4977 73.9795 21.4977 70.1761 21.4977C70.1761 23.1374 70.1761 24.7772 70.1761 26.4168Z" fill="#3B4054"/>
<path d="M66.2617 5.63281V11.4884H67.8423V6.92616H69.5313V5.63281H66.2617Z" fill="#3B4054"/>
<path d="M70.2201 13.7842H71.8006V11.0063H71.8248C71.9937 11.2817 72.3192 11.581 72.8019 11.581C73.8032 11.581 74.7203 10.635 74.7203 8.55146C74.7203 6.92309 74.1893 5.52197 72.8984 5.52197C72.3435 5.52197 71.8971 5.82146 71.6559 6.30026H71.6316L71.547 5.62974H70.1719C70.1959 6.19272 70.2201 6.77931 70.2201 7.48583V13.7842ZM71.8006 7.77316C71.8006 7.62938 71.8126 7.47391 71.873 7.35421C71.9331 7.07856 72.1625 6.85108 72.4038 6.85108C72.8744 6.85108 73.1517 7.44983 73.1517 8.56362C73.1517 9.48547 72.9468 10.2998 72.3917 10.2998C72.2109 10.2998 72.0057 10.2039 71.8851 9.84482C71.8248 9.72507 71.8006 9.54555 71.8006 9.35384V7.77316Z" fill="#3B4054"/>
<path d="M75.1172 5.63281L76.7459 11.0573C76.7701 11.1291 76.7941 11.2008 76.7941 11.2728C76.7941 11.3565 76.7581 11.4286 76.7098 11.5242C76.6012 11.7757 76.4323 12.027 76.2152 12.2307C75.9739 12.4463 75.6962 12.6139 75.431 12.7097L75.9134 14.063C76.1549 14.0029 76.7459 13.7275 77.2525 13.1408C77.8921 12.3983 78.2781 11.261 78.5676 10.1593L79.7742 5.63281H78.2178L77.7352 8.71023C77.6869 9.03357 77.6386 9.36883 77.5906 9.66828H77.5663C77.518 9.34498 77.4697 9.03357 77.3974 8.68638L76.8184 5.63281H75.1172Z" fill="#3B4054"/>
<path d="M80.3398 5.63281V11.4884H81.9204V6.91423H83.151V11.4884H84.7313V5.63281H80.3398Z" fill="#3B4054"/>
<path d="M85.8457 5.63281V11.4884H87.426V6.91423H88.6566V11.4884H90.2372V5.63281H85.8457Z" fill="#3B4054"/>
<path d="M95.3228 7.98002C95.3228 6.78253 95.0333 5.53711 93.2355 5.53711C92.4031 5.53711 91.7275 5.8006 91.3897 5.98039L91.6792 7.04601C92.0413 6.83046 92.4151 6.69883 92.8857 6.69883C93.4527 6.69883 93.7182 7.03409 93.7182 7.50098V7.6326C92.379 7.64476 91.0156 8.26735 91.0156 9.81198C91.0156 10.8419 91.6792 11.5841 92.572 11.5841C93.0909 11.5841 93.5613 11.3567 93.875 10.9136H93.9111L93.9957 11.4885H95.4071C95.3468 11.0935 95.3228 10.6144 95.3228 10.1473V7.98002ZM93.7665 9.65634C93.7665 9.76412 93.7545 9.84807 93.7301 9.93173C93.6216 10.2791 93.3441 10.4346 93.0787 10.4346C92.8375 10.4346 92.5116 10.2193 92.5116 9.64439C92.5116 8.83008 93.2475 8.65053 93.7665 8.63862V9.65634Z" fill="#3B4054"/>
<path d="M98.3555 5.63281V11.4884H99.9003V9.06957H100.009C100.407 9.06957 100.649 9.47661 100.781 10.0634C100.914 10.6621 101.034 11.1651 101.215 11.4884H102.784C102.602 11.0933 102.361 10.2668 102.265 9.82382C102.108 9.06957 101.807 8.35112 101.227 8.14749L102.735 5.63281H101.094L100.069 7.96794H99.9003V5.63281H98.3555Z" fill="#3B4054"/>
<path d="M105.436 5.52197C104.266 5.52197 103.156 6.4679 103.156 8.57554C103.156 10.4793 104 11.581 105.411 11.581C106.305 11.581 107.668 10.9822 107.668 8.53953C107.668 6.68346 106.835 5.52197 105.436 5.52197ZM105.424 6.71946C105.967 6.71946 106.1 7.73739 106.1 8.53953C106.1 9.40177 105.967 10.3837 105.448 10.3837C104.881 10.3837 104.724 9.54555 104.724 8.53953C104.724 7.73739 104.845 6.71946 105.424 6.71946Z" fill="#3B4054"/>
<path d="M108.402 11.4884H109.826L109.886 9.45275C109.91 8.88979 109.922 8.17157 109.946 6.96192H109.97C110.091 7.56067 110.308 8.71023 110.453 9.3569L110.912 11.3926H112.19L112.661 9.39291C112.854 8.48275 113.059 7.46481 113.155 6.97409H113.179C113.192 8.19542 113.216 8.88978 113.239 9.4406L113.3 11.4884H114.772L114.386 5.63281H112.431L112.01 7.50081C111.901 7.99178 111.817 8.48275 111.66 9.22505H111.623C111.466 8.45891 111.357 8.00371 111.237 7.50081L110.79 5.63281H108.837L108.402 11.4884Z" fill="#3B4054"/>
<path d="M115.715 5.63281V11.4884H117.296V6.91423H118.526V11.4884H120.107V5.63281H115.715Z" fill="#3B4054"/>
<path d="M125.197 7.98002C125.197 6.78253 124.907 5.53711 123.109 5.53711C122.277 5.53711 121.601 5.8006 121.263 5.98039L121.553 7.04601C121.915 6.83046 122.289 6.69883 122.759 6.69883C123.326 6.69883 123.592 7.03409 123.592 7.50098V7.6326C122.252 7.64476 120.889 8.26735 120.889 9.81198C120.889 10.8419 121.553 11.5841 122.445 11.5841C122.965 11.5841 123.435 11.3567 123.749 10.9136H123.785L123.869 11.4885H125.281C125.22 11.0935 125.197 10.6144 125.197 10.1473V7.98002ZM123.64 9.65634C123.64 9.76412 123.628 9.84807 123.603 9.93173C123.495 10.2791 123.218 10.4346 122.952 10.4346C122.711 10.4346 122.385 10.2193 122.385 9.64439C122.385 8.83008 123.121 8.65053 123.64 8.63862V9.65634Z" fill="#3B4054"/>
<path d="M126.305 5.63281V11.4884H127.885V9.17735H129.128V11.4884H130.709V5.63281H129.128V7.848H127.885V5.63281H126.305Z" fill="#3B4054"/>
<path d="M131.822 5.63281V11.4884H133.293C133.632 10.7819 134.102 9.63232 134.259 9.2372C134.488 8.67423 134.645 8.19542 134.838 7.57283H134.874C134.826 8.36305 134.766 9.02164 134.766 10.207V11.4884H136.201V5.63281H134.706L133.813 7.87208C133.619 8.33921 133.354 8.98564 133.161 9.59631H133.125C133.185 8.99756 133.245 7.96794 133.245 6.90208V5.63281H131.822Z" fill="#3B4054"/>
<path d="M137.297 5.6308V11.4864H138.769C139.106 10.7798 139.577 9.63029 139.734 9.23519C139.963 8.67221 140.12 8.1934 140.313 7.57081H140.35C140.301 8.36103 140.241 9.01963 140.241 10.2049V11.4864H141.677V5.6308H140.18L139.288 7.87007C139.095 8.33719 138.829 8.98362 138.636 9.59429H138.6C138.66 8.99555 138.721 7.96593 138.721 6.90006V5.6308H137.297ZM137.961 3.36768C137.997 4.30168 138.479 4.86442 139.433 4.86442C140.421 4.86442 140.953 4.30168 141.001 3.36768H140.036C140.024 3.7988 139.854 4.09805 139.469 4.09805C139.143 4.09805 138.938 3.84673 138.926 3.36768H137.961Z" fill="#3B4054"/>
</svg>
