<svg width="220" height="22" viewBox="0 0 220 22" fill="none" xmlns="http://www.w3.org/2000/svg">
<path d="M11.9996 21.6032V12.7312H4.3869V21.6023H0V0.397692H4.3869V9.08769H11.9996V0.396846H16.3865V21.6023L11.9996 21.6032ZM34.3121 21.6032V7.97077L25.5383 21.6023H21.6377V0.397692H26.0255V13.9945L34.7617 0.396H38.6615V21.6032H34.3121ZM56.6221 21.6032V7.97077L47.8849 21.6023H43.9852V0.397692H48.3721V13.9945L57.1092 0.396H61.009V21.6032H56.6221ZM78.2598 21.6032V4.07508H70.6471V21.6032H66.2602V0.397692H82.6467V21.6023L78.2598 21.6032ZM92.3572 4.07508V21.6032H87.9703V0.397692H102.107V4.07592L92.3572 4.07508ZM108.078 21.7758H109.99V0.172615H108.078V21.7758ZM120.782 5.73438V3.60631H118.494V5.73438H117.97V1.11777H118.494V3.17392H120.782V1.11692H121.307V5.73354L120.782 5.73438ZM125.508 5.73438L125.134 4.68854H123.033L122.659 5.73438H122.096L123.858 1.11777H124.309L126.07 5.73438H125.508ZM124.083 1.80315L123.183 4.25531H124.984L124.083 1.80315ZM128.019 5.01346C127.831 5.44585 127.569 5.73438 127.081 5.73438H126.669V5.302H126.969C127.307 5.302 127.457 5.15815 127.606 4.83238L127.794 4.4L126.219 1.11777H126.781L128.094 3.85931L129.256 1.11777H129.819L128.019 5.01346ZM132.97 5.73438V3.85931C132.67 3.93123 132.033 4.03954 131.62 4.03954C130.983 4.03954 130.346 3.751 130.346 2.88538V1.11692H130.87V2.77538C130.87 3.46077 131.32 3.56992 131.77 3.56992C132.107 3.56992 132.708 3.46162 133.007 3.38969V1.11692H133.533V5.73354L132.97 5.73438ZM137.693 5.73438V3.60631H135.406V5.73438H134.881V1.11777H135.406V3.17392H137.693V1.11692H138.218V5.73354L137.693 5.73438ZM142.757 3.42692C142.757 4.36362 142.757 4.86877 142.308 5.302C141.97 5.62608 141.557 5.77077 141.07 5.77077C140.611 5.76987 140.17 5.60263 139.833 5.302C139.382 4.86877 139.382 4.36362 139.382 3.42608V3.06562C139.382 2.52408 139.42 1.94785 139.833 1.551C140.17 1.22608 140.583 1.08223 141.07 1.08223C141.557 1.08223 141.97 1.26246 142.308 1.551C142.72 1.94785 142.757 2.52408 142.757 3.102V3.42608V3.42692ZM142.27 3.17308C142.27 2.63238 142.233 2.16362 141.932 1.83954C141.712 1.62989 141.416 1.51309 141.107 1.51462C140.807 1.51462 140.508 1.62292 140.282 1.83954C139.945 2.16362 139.945 2.63238 139.945 3.28223V3.751C139.945 4.25615 139.982 4.68854 140.282 5.01346C140.508 5.22923 140.807 5.33754 141.107 5.33754C141.408 5.33754 141.707 5.22923 141.932 5.01346C142.27 4.68854 142.27 4.18423 142.27 3.67908V3.17308ZM143.806 3.64269V3.20946H145.643V3.64269H143.806ZM149.806 5.73438V1.94785L147.369 5.73438H146.881V1.11777H147.406V4.86877L149.844 1.11777H150.332V5.73438H149.806ZM153.217 5.77077C152.759 5.76987 152.317 5.60263 151.98 5.302C151.529 4.86877 151.529 4.4 151.529 3.42608C151.529 2.453 151.529 1.98338 151.98 1.551C152.317 1.22608 152.73 1.08223 153.217 1.08223C154.079 1.08223 154.717 1.58654 154.867 2.453H154.342C154.23 1.87508 153.817 1.51462 153.217 1.51462C152.917 1.51462 152.58 1.62292 152.392 1.83954C152.092 2.12723 152.055 2.45215 152.055 3.42608C152.055 4.4 152.092 4.72492 152.392 5.01346C152.617 5.22923 152.917 5.33754 153.217 5.33754C153.817 5.33754 154.23 4.97708 154.38 4.4H154.904C154.717 5.26562 154.042 5.77077 153.217 5.77077ZM157.49 5.77077C157.002 5.77077 156.59 5.59054 156.252 5.302C155.803 4.86877 155.803 4.4 155.803 3.42608C155.803 2.453 155.803 1.98338 156.252 1.551C156.59 1.22608 157.002 1.08223 157.49 1.08223C158.353 1.08223 158.99 1.58654 159.14 2.453H158.615C158.502 1.87508 158.09 1.51462 157.49 1.51462C157.19 1.51462 156.852 1.62292 156.665 1.83954C156.365 2.12723 156.327 2.45215 156.327 3.42608C156.327 4.4 156.365 4.72492 156.665 5.01346C156.89 5.22923 157.19 5.33754 157.49 5.33754C158.09 5.33754 158.502 4.97708 158.652 4.4H159.178C159.028 5.26562 158.353 5.77077 157.49 5.77077ZM162.966 5.73438V1.551H161.317V3.13754C161.317 5.08538 160.829 5.73438 159.929 5.73438H159.704V5.302H159.816C160.417 5.302 160.829 4.90431 160.829 2.99369V1.11692H163.491V5.73354L162.966 5.73438ZM164.88 5.73438V1.11777H167.88V1.551H165.406V3.17308H167.506V3.60546H165.406V5.26477H167.88V5.698H164.88V5.73438ZM168.854 5.302C169.303 4.65215 169.453 3.82292 169.453 2.66877V1.11777H172.078V5.302H172.641V6.85215H172.116V5.73523H168.891V6.85215H168.365V5.302H168.854ZM171.553 5.302V1.551H169.94V2.95731C169.94 3.82292 169.791 4.61577 169.416 5.26562H171.553V5.302ZM176.805 3.42692C176.805 4.36362 176.805 4.86877 176.355 5.302C176.017 5.62608 175.605 5.77077 175.117 5.77077C174.659 5.76987 174.218 5.60263 173.88 5.302C173.43 4.86877 173.43 4.36362 173.43 3.42608V3.06562C173.43 2.52408 173.467 1.94785 173.88 1.551C174.217 1.22608 174.63 1.08223 175.117 1.08223C175.605 1.08223 176.017 1.26246 176.355 1.551C176.767 1.94785 176.805 2.52408 176.805 3.102V3.42608V3.42692ZM176.318 3.17308C176.318 2.63238 176.28 2.16362 175.98 1.83954C175.76 1.62989 175.463 1.51309 175.155 1.51462C174.855 1.51462 174.555 1.62292 174.33 1.83954C173.993 2.16362 173.993 2.63238 173.993 3.28223V3.751C173.993 4.25615 174.03 4.68854 174.33 5.01346C174.555 5.22923 174.855 5.33754 175.155 5.33754C175.455 5.33754 175.755 5.22923 175.98 5.01346C176.318 4.68854 176.318 4.18423 176.318 3.67908V3.17308ZM179.915 5.73438H178.041V1.11777H179.84C180.703 1.11777 181.265 1.62292 181.265 2.34469C181.265 2.66877 181.153 2.95731 180.928 3.17392C180.816 3.28223 180.74 3.31777 180.553 3.39054C180.778 3.498 180.853 3.53438 180.966 3.64269C181.19 3.85931 181.34 4.14785 181.34 4.50831C181.34 5.26562 180.778 5.73438 179.915 5.73438ZM179.803 1.551H178.566V3.13754H179.803C180.403 3.13754 180.74 2.84985 180.74 2.34385C180.74 1.83954 180.403 1.551 179.803 1.551ZM179.84 3.60715H178.528V5.302H179.84C180.44 5.302 180.816 4.97708 180.816 4.43638C180.816 3.89485 180.44 3.60715 179.84 3.60715ZM185.354 5.73438L184.979 4.68854H182.879L182.505 5.73438H181.942L183.704 1.11777H184.154L185.917 5.73438H185.354ZM183.93 1.80315L183.03 4.25615H184.83L183.93 1.80315ZM188.09 1.551V5.73438H187.565V1.551H186.178V1.11692H189.478V1.55015L188.09 1.551ZM190.379 5.73438V1.11777H193.378V1.551H190.904V3.17308H193.004V3.60546H190.904V5.26477H193.378V5.698H190.379V5.73438ZM197.089 5.73438V1.551H195.439V3.13754C195.439 5.08538 194.951 5.73438 194.051 5.73438H193.827V5.302H193.939C194.539 5.302 194.951 4.90431 194.951 2.99369V1.11692H197.614V5.73354L197.089 5.73438ZM200.803 5.73438H199.003V1.11777H199.529V3.03008H200.803C201.703 3.03008 202.303 3.57077 202.303 4.40085C202.303 5.19369 201.703 5.73438 200.803 5.73438ZM200.766 3.46246H199.529V5.302H200.766C201.403 5.302 201.778 4.97708 201.778 4.4C201.778 3.78738 201.403 3.46246 200.766 3.46246ZM204.776 5.77077C204.288 5.77077 203.876 5.59054 203.538 5.302C203.089 4.86877 203.089 4.4 203.089 3.42608C203.089 2.453 203.089 1.98338 203.538 1.551C203.876 1.22608 204.288 1.08223 204.776 1.08223C205.639 1.08223 206.276 1.58654 206.426 2.453H205.901C205.788 1.87508 205.376 1.51462 204.776 1.51462C204.476 1.51462 204.139 1.62292 203.951 1.83954C203.651 2.12723 203.613 2.45215 203.613 3.42608C203.613 4.4 203.651 4.72492 203.951 5.01346C204.177 5.22923 204.476 5.33754 204.776 5.33754C205.376 5.33754 205.788 4.97708 205.938 4.4H206.464C206.276 5.26562 205.639 5.77077 204.776 5.77077ZM207.59 5.73438V1.11777H208.115V3.31777L210.178 1.11777H210.815L208.715 3.31777L211.003 5.73438H210.328L208.115 3.31777V5.73438H207.59ZM214.638 5.73438V1.94785L212.2 5.73438H211.713V1.11777H212.238V4.86877L214.675 1.11777H215.163V5.73438H214.638ZM219.477 5.73438V1.94785L217.04 5.73438H216.552V1.11777H217.077V4.86877L219.515 1.11777H220.002V5.73438H219.477ZM218.278 0.829231C217.714 0.829231 217.34 0.577077 217.302 0H217.752C217.79 0.324923 217.977 0.468769 218.315 0.468769C218.652 0.468769 218.84 0.288538 218.877 0H219.327C219.214 0.577077 218.84 0.829231 218.278 0.829231ZM120.932 13.3083V9.52092L118.494 13.3083H118.007V8.69169H118.532V12.4427L120.969 8.69169H121.457V13.3083H120.932ZM125.617 13.3083V11.1802H123.33V13.3083H122.805V8.69169H123.33V10.7478H125.617V8.69169H126.143V13.3083H125.617ZM129.032 13.3438C128.573 13.343 128.132 13.1757 127.795 12.8751C127.344 12.4427 127.344 11.9739 127.344 11C127.344 10.0269 127.344 9.55731 127.795 9.12492C128.132 8.8 128.545 8.65531 129.032 8.65531C129.894 8.65531 130.532 9.16046 130.682 10.0261H130.157C130.044 9.449 129.632 9.08854 129.032 9.08854C128.731 9.08854 128.394 9.19685 128.207 9.41346C127.906 9.70115 127.87 10.0261 127.87 11C127.87 11.9731 127.906 12.298 128.207 12.5865C128.432 12.8032 128.731 12.9115 129.032 12.9115C129.632 12.9115 130.044 12.551 130.195 11.9739H130.719C130.532 12.8395 129.894 13.3438 129.032 13.3438ZM133.267 9.12492V13.3083H132.742V9.12492H131.355V8.69169H134.655V9.12492H133.267ZM138.481 13.3083V9.52092L136.044 13.3083H135.556V8.69169H136.081V12.4427L138.519 8.69169H139.006V13.3083H138.481ZM141.78 9.12492V13.3083H141.254V9.12492H139.867V8.69169H143.167V9.12492H141.78ZM145.268 12.5865C145.08 13.0198 144.818 13.3083 144.33 13.3083H143.918V12.8751H144.218C144.556 12.8751 144.705 12.7312 144.855 12.4063L145.043 11.9739L143.468 8.69169H144.03L145.343 11.4332L146.505 8.69169H147.067L145.268 12.5865ZM149.206 9.12492V13.3083H148.682V9.12492H147.294V8.69169H150.594V9.12492H149.206ZM155.955 13.3083V9.12492H153.667V13.3083H153.143V8.69169H156.443V13.3083H155.955ZM157.866 13.3083V8.69169H160.865V9.12492H158.39V10.7478H160.491V11.1802H158.39V12.8387H160.865V13.2719H157.866V13.3083ZM163.717 11.3968H162.442V13.3083H161.917V8.69169H163.717C164.617 8.69169 165.217 9.23323 165.217 10.0625C165.217 10.8562 164.617 11.3968 163.717 11.3968ZM163.679 9.12492H162.442V10.9636H163.679C164.317 10.9636 164.692 10.6032 164.692 10.0261C164.692 9.449 164.317 9.12492 163.679 9.12492ZM167.693 13.3438C167.235 13.343 166.794 13.1757 166.456 12.8751C166.006 12.4427 166.006 11.9739 166.006 11C166.006 10.0269 166.006 9.55731 166.456 9.12492C166.793 8.8 167.206 8.65531 167.693 8.65531C168.556 8.65531 169.193 9.16046 169.343 10.0261H168.819C168.706 9.449 168.293 9.08854 167.693 9.08854C167.394 9.08854 167.056 9.19685 166.868 9.41346C166.569 9.70115 166.531 10.0261 166.531 11C166.531 11.9731 166.569 12.298 166.868 12.5865C167.093 12.8032 167.394 12.9115 167.693 12.9115C168.293 12.9115 168.706 12.551 168.856 11.9739H169.381C169.193 12.8395 168.556 13.3438 167.693 13.3438ZM173.279 13.3083V9.12492H170.992V13.3083H170.467V8.69169H173.766V13.3083H173.279ZM175.193 13.3083V8.69169H178.193V9.12492H175.718V10.7478H177.818V11.1802H175.718V12.8387H178.193V13.2719H175.193V13.3083ZM179.278 13.3083V8.69169H179.804V10.8917L181.866 8.69169H182.503L180.403 10.8917L182.691 13.3083H182.016L179.804 10.8917V13.3083H179.278ZM184.792 9.12492V13.3083H184.267V9.12492H182.879V8.69169H186.179V9.12492H184.792ZM190.04 13.3083V9.52092L187.602 13.3083H187.115V8.69169H187.64V12.4427L190.077 8.69169H190.565V13.3083H190.04ZM193.792 13.3083H191.917V8.69169H193.717C194.58 8.69169 195.142 9.19685 195.142 9.91862C195.142 10.2427 195.029 10.5312 194.804 10.7478C194.691 10.8562 194.617 10.8917 194.429 10.9636C194.655 11.0719 194.729 11.1083 194.841 11.2166C195.067 11.4332 195.217 11.7209 195.217 12.0822C195.254 12.8395 194.691 13.3083 193.792 13.3083ZM193.717 9.12492H192.479V10.7115H193.717C194.317 10.7115 194.655 10.4238 194.655 9.91777C194.655 9.41346 194.317 9.12492 193.717 9.12492ZM193.755 11.1811H192.442V12.8751H193.755C194.354 12.8751 194.729 12.551 194.729 12.0103C194.729 11.4688 194.354 11.1811 193.755 11.1811ZM199.227 13.3083V11.1802H196.94V13.3083H196.415V8.69169H196.94V10.7478H199.227V8.69169H199.752V13.3083H199.227ZM204.328 11C204.328 11.9375 204.328 12.4427 203.879 12.8751C203.541 13.2 203.129 13.3447 202.641 13.3447C202.154 13.3447 201.742 13.1636 201.404 12.8751C200.954 12.4427 200.954 11.9375 200.954 11V10.6395C200.954 10.098 200.992 9.52092 201.404 9.12492C201.742 8.8 202.154 8.65531 202.641 8.65531C203.129 8.65531 203.541 8.83638 203.879 9.12492C204.291 9.52092 204.328 10.098 204.328 10.6751V11ZM203.804 10.7478C203.804 10.2063 203.766 9.73754 203.466 9.41346C203.246 9.20366 202.949 9.08683 202.641 9.08854C202.333 9.0872 202.036 9.20397 201.816 9.41346C201.479 9.73754 201.479 10.2063 201.479 10.8553V11.3249C201.479 11.8292 201.517 12.2625 201.816 12.5865C202.041 12.8032 202.342 12.9115 202.641 12.9115C202.941 12.9115 203.242 12.8032 203.466 12.5865C203.804 12.2625 203.804 11.7573 203.804 11.2522V10.7478ZM206.089 9.12492V13.3083H205.565V8.69169H208.452V9.12492H206.089ZM212.578 11C212.578 11.9375 212.578 12.4427 212.128 12.8751C211.791 13.2 211.378 13.3447 210.891 13.3447C210.403 13.3447 209.991 13.1636 209.653 12.8751C209.203 12.4427 209.203 11.9375 209.203 11V10.6395C209.203 10.098 209.241 9.52092 209.653 9.12492C209.991 8.8 210.403 8.65531 210.891 8.65531C211.349 8.65643 211.791 8.82398 212.128 9.12492C212.541 9.52092 212.578 10.098 212.578 10.6751V11ZM212.053 10.7478C212.053 10.2063 212.015 9.73754 211.716 9.41346C211.496 9.20397 211.199 9.0872 210.891 9.08854C210.591 9.08854 210.29 9.19685 210.066 9.41346C209.728 9.73754 209.728 10.2063 209.728 10.8553V11.3249C209.728 11.8292 209.766 12.2625 210.066 12.5865C210.29 12.8032 210.591 12.9115 210.891 12.9115C211.19 12.9115 211.491 12.8032 211.716 12.5865C212.053 12.2625 212.053 11.7573 212.053 11.2522V10.7478ZM118.57 16.698V20.8822H118.045V16.2656H120.932V16.698H118.57ZM123.633 18.9708H122.358V20.8822H121.834V16.2656H123.633C124.533 16.2656 125.134 16.8072 125.134 17.6364C125.134 18.4292 124.533 18.9708 123.633 18.9708ZM123.595 16.698H122.358V18.5375H123.595C124.234 18.5375 124.608 18.1771 124.608 17.6C124.608 17.0229 124.234 16.698 123.595 16.698ZM128.918 20.8822L128.544 19.8364H126.444L126.069 20.8822H125.507L127.268 16.2656H127.719L129.481 20.8822H128.918ZM127.493 16.951L126.593 19.4032H128.394L127.493 16.951ZM130.12 20.449C130.57 19.8 130.72 18.9708 130.72 17.8166V16.2656H133.345V20.449H133.908V22H133.382V20.8831H130.158V22H129.632V20.449H130.12ZM132.857 20.449V16.698H131.245V18.1052C131.245 18.9708 131.095 19.7636 130.72 20.4135H132.857V20.449ZM138.106 18.5731C138.106 19.5115 138.106 20.0166 137.655 20.449C137.318 20.7739 136.905 20.9178 136.418 20.9178C135.96 20.9169 135.519 20.7496 135.181 20.449C134.731 20.0166 134.731 19.5115 134.731 18.5739V18.2135C134.731 17.6719 134.768 17.0948 135.181 16.6988C135.518 16.3739 135.931 16.2292 136.418 16.2292C136.877 16.2301 137.318 16.3974 137.655 16.698C138.068 17.0957 138.106 17.6719 138.106 18.249V18.5731ZM137.58 18.3209C137.58 17.7802 137.544 17.3115 137.243 16.9865C137.023 16.7772 136.727 16.6607 136.418 16.6625C136.11 16.6609 135.814 16.7774 135.593 16.9865C135.255 17.3115 135.255 17.7802 135.255 18.4292V18.898C135.255 19.4032 135.293 19.8364 135.593 20.1605C135.819 20.3771 136.118 20.4854 136.418 20.4854C136.719 20.4854 137.018 20.3771 137.243 20.1605C137.58 19.8364 137.58 19.3312 137.58 18.8261V18.3209ZM140.803 20.9178C140.316 20.9178 139.904 20.7375 139.566 20.449C139.117 20.0166 139.117 19.5478 139.117 18.5739C139.117 17.6008 139.117 17.1312 139.566 16.6988C139.904 16.3739 140.316 16.2292 140.803 16.2292C141.666 16.2292 142.303 16.7344 142.453 17.6H141.929C141.816 17.0229 141.404 16.6625 140.803 16.6625C140.504 16.6625 140.166 16.7708 139.979 16.9874C139.679 17.2751 139.642 17.6 139.642 18.5739C139.642 19.547 139.679 19.8719 139.979 20.1605C140.204 20.3771 140.504 20.4854 140.803 20.4854C141.404 20.4854 141.816 20.1249 141.966 19.5478H142.491C142.341 20.4135 141.666 20.9178 140.803 20.9178ZM145.043 16.698V20.8822H144.517V16.698H143.13V16.2656H146.43V16.698H145.043ZM149.131 18.9708H147.857V20.8822H147.332V16.2656H149.131C150.031 16.2656 150.632 16.8072 150.632 17.6364C150.594 18.4292 149.994 18.9708 149.131 18.9708ZM149.057 16.698H147.819V18.5375H149.057C149.694 18.5375 150.069 18.1771 150.069 17.6C150.069 17.0229 149.694 16.698 149.057 16.698ZM154.754 18.5731C154.754 19.5123 154.754 20.0166 154.305 20.449C153.967 20.7739 153.555 20.9178 153.067 20.9178C152.608 20.9169 152.167 20.7496 151.83 20.449C151.379 20.0166 151.379 19.5115 151.379 18.5739V18.2135C151.379 17.6719 151.417 17.0948 151.83 16.6988C152.167 16.3739 152.58 16.2292 153.067 16.2292C153.555 16.2292 153.967 16.4095 154.305 16.6988C154.717 17.0948 154.754 17.6719 154.754 18.249V18.5731ZM154.267 18.3218C154.267 17.7802 154.23 17.3115 153.929 16.9874C153.709 16.7777 153.413 16.6609 153.104 16.6625C152.796 16.6611 152.499 16.7779 152.279 16.9874C151.942 17.3115 151.942 17.7802 151.942 18.4292V18.898C151.942 19.4032 151.98 19.8364 152.279 20.1605C152.505 20.3771 152.805 20.4854 153.104 20.4854C153.405 20.4854 153.704 20.3771 153.929 20.1605C154.267 19.8364 154.267 19.3312 154.267 18.8261V18.3218ZM158.919 20.8822V17.0948L156.481 20.8822H155.994V16.2656H156.519V20.0166L158.956 16.2656H159.443V20.8822H158.919ZM162.217 16.6988V20.8822H161.691V16.6988H160.304V16.2656H163.604V16.6988H162.217ZM164.543 20.8822V16.2656H167.543V16.698H165.068V18.3209H167.168V18.7542H165.068V20.4126H167.543V20.8458H164.543V20.8822ZM171.253 20.8822V16.6988H169.603V18.2854C169.603 20.2332 169.115 20.8822 168.215 20.8822H167.991V20.449H168.104C168.703 20.449 169.115 20.0522 169.115 18.1407V16.2656H171.778V20.8822H171.253ZM174.967 20.8822H173.167V16.2656H173.693V18.1771H174.967C175.867 18.1771 176.467 18.7186 176.467 19.5478C176.43 20.3407 175.867 20.8822 174.967 20.8822ZM174.93 18.6095H173.693V20.449H174.93C175.567 20.449 175.942 20.1249 175.942 19.5478C175.942 18.9344 175.567 18.6095 174.93 18.6095ZM178.903 20.9178C178.444 20.9169 178.003 20.7496 177.666 20.449C177.215 20.0166 177.215 19.5478 177.215 18.5739C177.215 17.6008 177.215 17.1312 177.666 16.6988C178.003 16.3739 178.416 16.2292 178.903 16.2292C179.765 16.2292 180.403 16.7344 180.553 17.6H180.028C179.915 17.0229 179.503 16.6625 178.903 16.6625C178.602 16.6625 178.265 16.7708 178.078 16.9874C177.777 17.2751 177.741 17.6 177.741 18.5739C177.741 19.547 177.777 19.8719 178.078 20.1605C178.303 20.3771 178.602 20.4854 178.903 20.4854C179.503 20.4854 179.915 20.1249 180.066 19.5478H180.59C180.44 20.4135 179.765 20.9178 178.903 20.9178ZM183.141 16.698V20.8822H182.617V16.698H181.229V16.2656H184.529V16.698H183.141ZM187.302 20.8822H185.427V16.2656H187.227C188.09 16.2656 188.652 16.7708 188.652 17.4925C188.652 17.8166 188.539 18.1052 188.315 18.3218C188.202 18.4292 188.127 18.4656 187.939 18.5375C188.165 18.6458 188.24 18.6814 188.352 18.7905C188.577 19.0063 188.727 19.2948 188.727 19.6562C188.727 20.4135 188.202 20.8822 187.302 20.8822ZM187.189 16.6988H185.952V18.2854H187.189C187.789 18.2854 188.127 17.9968 188.127 17.4917C188.127 16.9874 187.789 16.698 187.189 16.698V16.6988ZM187.265 18.7542H185.952V20.449H187.265C187.864 20.449 188.24 20.1249 188.24 19.5834C188.24 19.0427 187.827 18.7542 187.265 18.7542ZM192.741 20.8822L192.366 19.8364H190.266L189.891 20.8822H189.328L191.091 16.2656H191.541L193.303 20.8822H192.741ZM191.316 16.951L190.416 19.4032H192.215L191.316 16.951Z" fill="#202020"/>
</svg>
