<svg xmlns="http://www.w3.org/2000/svg" width="44" height="51" viewBox="0 0 44 51" fill="none"><path d="M22 51a4 4 0 1 1 0-8 4 4 0 0 1 0 8z" fill="#fff"></path><path fill-rule="evenodd" clip-rule="evenodd" d="M22 49a2 2 0 1 0 0-4 2 2 0 0 0 0 4z" fill="currentColor"></path><path d="M22.356 39.67a.348.348 0 0 1-.347.33.352.352 0 0 1-.365-.33c-.112-2.235-1.385-3.638-3.818-4.21C11.018 33.62 6 27.396 6 20c0-8.837 7.163-16 16-16s16 7.163 16 16c0 7.396-5.018 13.62-11.835 15.453-2.424.58-3.697 1.982-3.809 4.217z" class="red"></path><path d="M22.356 39.67a.348.348 0 0 1-.347.33.352.352 0 0 1-.365-.33c-.112-2.235-1.385-3.638-3.818-4.21C11.018 33.62 6 27.396 6 20c0-8.837 7.163-16 16-16s16 7.163 16 16c0 7.396-5.018 13.62-11.835 15.453-2.424.58-3.697 1.982-3.809 4.217z" filter="url(#aee7d2565d64e35c0fe9e3fdb4cf5987__a)" class="red"></path><path d="M22.356 39.67a.348.348 0 0 1-.347.33.352.352 0 0 1-.365-.33c-.112-2.235-1.385-3.638-3.818-4.21C11.018 33.62 6 27.396 6 20c0-8.837 7.163-16 16-16s16 7.163 16 16c0 7.396-5.018 13.62-11.835 15.453-2.424.58-3.697 1.982-3.809 4.217z" class="dark"></path><path d="M22.356 39.67a.348.348 0 0 1-.347.33.352.352 0 0 1-.365-.33c-.112-2.235-1.385-3.638-3.818-4.21C11.018 33.62 6 27.396 6 20c0-8.837 7.163-16 16-16s16 7.163 16 16c0 7.396-5.018 13.62-11.835 15.453-2.424.58-3.697 1.982-3.809 4.217z" filter="url(#aee7d2565d64e35c0fe9e3fdb4cf5987__b)" class="dark"></path></svg>