<?xml version="1.0" standalone="no"?>
<!DOCTYPE svg PUBLIC "-//W3C//DTD SVG 20010904//EN"
 "http://www.w3.org/TR/2001/REC-SVG-20010904/DTD/svg10.dtd">
<svg version="1.0" xmlns="http://www.w3.org/2000/svg"
 width="1024.000000pt" height="1024.000000pt" viewBox="0 0 1024.000000 1024.000000"
 preserveAspectRatio="xMidYMid meet">
<metadata>
Created by potrace 1.14, written by Peter Selinger 2001-2017
</metadata>
<g transform="translate(0.000000,1024.000000) scale(0.100000,-0.100000)"
fill="#000000" stroke="none">
<path d="M4704 10223 c6 -12 -11 -18 -36 -14 -5 0 -8 -3 -8 -9 0 -5 -19 -14
-42 -21 -24 -6 -45 -15 -48 -19 -3 -4 -16 -10 -30 -11 -14 -2 -31 -10 -38 -16
-12 -12 -35 -17 -47 -10 -2 1 -10 -7 -18 -17 -8 -10 -19 -16 -25 -12 -6 3 -13
2 -17 -4 -4 -6 -11 -8 -16 -5 -5 4 -9 1 -9 -4 0 -6 -9 -11 -19 -11 -11 0 -23
-5 -26 -11 -4 -6 -13 -8 -21 -5 -7 3 -17 -2 -22 -10 -5 -9 -13 -16 -18 -15
-22 1 -53 -12 -48 -20 3 -5 -1 -7 -8 -4 -7 3 -31 -4 -52 -15 -21 -10 -43 -17
-47 -14 -5 3 -9 0 -9 -6 0 -6 -4 -8 -10 -5 -5 3 -10 1 -10 -5 0 -7 -6 -10 -14
-7 -8 3 -17 -1 -20 -9 -3 -9 -10 -13 -14 -10 -5 3 -25 -4 -45 -14 -21 -11 -37
-18 -37 -15 0 3 -10 0 -22 -7 -13 -7 -26 -11 -30 -10 -5 1 -8 -3 -8 -9 0 -5
-4 -7 -10 -4 -5 3 -10 2 -10 -3 0 -5 -6 -9 -12 -9 -7 0 -35 -10 -63 -23 -27
-12 -54 -23 -60 -24 -16 -3 -51 -25 -39 -26 12 0 11 -41 -1 -59 -3 -6 -1 -11
6 -11 10 0 10 -3 2 -11 -7 -7 -8 -21 -3 -39 6 -20 4 -30 -3 -34 -8 -3 -7 -5 2
-5 11 -1 11 -4 1 -16 -10 -12 -10 -15 1 -15 9 0 10 -3 2 -11 -7 -7 -8 -21 -3
-39 6 -20 4 -30 -3 -34 -8 -3 -7 -5 2 -5 11 -1 11 -4 1 -16 -9 -11 -9 -15 -1
-15 7 0 9 -5 4 -12 -11 -19 -12 -38 -2 -38 6 0 5 -8 -1 -20 -8 -14 -8 -20 0
-20 8 0 8 -6 0 -20 -8 -14 -8 -20 0 -20 8 0 8 -6 0 -20 -6 -11 -7 -20 -2 -20
10 0 8 -42 -3 -59 -3 -6 -1 -11 6 -11 10 0 10 -3 2 -11 -7 -7 -8 -21 -3 -39 6
-20 4 -30 -3 -34 -8 -3 -7 -5 2 -5 11 -1 11 -4 1 -16 -10 -12 -10 -15 1 -15 9
0 10 -3 2 -11 -7 -7 -8 -21 -3 -39 6 -20 4 -30 -3 -34 -8 -3 -7 -5 2 -5 11 -1
11 -4 1 -16 -10 -12 -10 -15 0 -15 10 0 10 -3 1 -14 -8 -10 -9 -16 -1 -21 7
-4 7 -12 0 -26 -8 -14 -7 -19 2 -19 9 0 9 -3 1 -11 -7 -7 -8 -21 -3 -39 6 -20
4 -30 -3 -34 -8 -3 -7 -5 2 -5 11 -1 11 -4 1 -16 -9 -11 -9 -15 -1 -15 7 0 9
-5 4 -12 -11 -19 -12 -38 -2 -38 6 0 8 -4 4 -9 -8 -14 -45 -9 -45 7 0 7 -4 10
-10 7 -5 -3 -10 -1 -10 4 0 6 -7 11 -15 11 -8 0 -15 5 -15 11 0 5 -5 7 -10 4
-6 -3 -13 1 -16 9 -3 9 -10 13 -15 10 -5 -3 -12 2 -15 10 -3 9 -10 14 -14 11
-5 -3 -15 2 -23 10 -9 8 -21 15 -27 15 -6 0 -8 5 -4 12 4 7 3 8 -5 4 -6 -4
-18 0 -27 8 -8 9 -22 16 -30 16 -8 0 -12 5 -9 10 3 6 -3 10 -14 10 -12 0 -21
5 -21 10 0 6 -6 10 -14 10 -8 0 -16 4 -18 9 -4 13 -58 22 -58 11 0 -5 -13 -11
-30 -15 -16 -4 -30 -10 -30 -15 0 -4 -11 -11 -25 -14 -14 -4 -25 -12 -25 -19
0 -8 -4 -7 -10 3 -6 9 -10 10 -10 3 0 -10 -79 -53 -97 -52 -3 1 -9 -3 -12 -8
-8 -11 -84 -47 -94 -45 -4 1 -10 -5 -13 -13 -3 -8 -10 -13 -14 -10 -5 3 -11 1
-15 -5 -3 -5 -15 -10 -26 -10 -10 0 -19 -4 -19 -9 0 -8 -50 -32 -75 -35 -5 -1
-9 -8 -7 -15 1 -7 -1 -10 -6 -7 -11 7 -62 -16 -62 -27 0 -5 -4 -5 -10 -2 -5 3
-10 1 -10 -5 0 -6 -5 -8 -11 -4 -6 3 -14 3 -18 -2 -3 -5 -33 -22 -66 -39 -33
-16 -63 -34 -67 -40 -4 -5 -8 -6 -8 -1 0 5 -6 3 -13 -3 -8 -6 -17 -8 -20 -4
-4 3 -7 2 -7 -4 0 -5 -20 -18 -45 -28 -24 -11 -42 -21 -40 -23 2 -3 0 -13 -5
-23 -7 -12 -7 -20 0 -24 8 -5 7 -11 -1 -21 -9 -11 -9 -14 0 -14 8 0 9 -5 2
-18 -6 -11 -6 -24 -1 -32 5 -9 5 -19 -2 -27 -7 -9 -7 -13 2 -13 10 0 10 -3 0
-15 -9 -11 -9 -15 -1 -15 8 0 9 -6 4 -17 -10 -21 -9 -65 1 -82 4 -6 2 -11 -5
-11 -9 0 -9 -3 0 -14 9 -10 9 -16 1 -21 -8 -5 -8 -10 0 -20 6 -7 7 -16 2 -19
-9 -5 -8 -64 2 -73 3 -4 1 -12 -5 -20 -9 -10 -8 -13 1 -13 10 0 10 -3 0 -15
-9 -11 -9 -15 -1 -15 8 0 9 -6 4 -17 -10 -21 -9 -65 1 -82 4 -6 2 -11 -5 -11
-9 0 -9 -3 0 -14 9 -10 9 -16 1 -21 -8 -5 -8 -10 0 -20 6 -7 7 -16 2 -19 -9
-5 -8 -64 2 -73 3 -4 1 -12 -5 -20 -9 -10 -8 -13 1 -13 10 0 10 -3 0 -15 -9
-11 -9 -15 -1 -15 8 0 9 -5 2 -18 -6 -11 -6 -24 -1 -32 5 -9 5 -19 -2 -27 -7
-9 -7 -13 2 -13 10 0 10 -3 0 -15 -9 -11 -9 -15 -1 -15 8 0 9 -6 2 -18 -6 -11
-6 -24 0 -35 7 -12 6 -17 -1 -17 -6 0 -8 -5 -4 -12 11 -18 12 -48 2 -48 -5 0
-6 -6 -1 -12 10 -17 10 -40 -1 -55 -5 -8 -4 -13 3 -13 8 0 9 -5 1 -19 -7 -14
-7 -22 0 -26 8 -5 7 -11 -1 -21 -9 -11 -9 -14 0 -14 9 0 9 -5 0 -21 -8 -16 -8
-20 1 -14 9 6 9 2 1 -14 -8 -14 -8 -21 -1 -21 7 0 8 -6 1 -18 -6 -11 -6 -24 0
-35 7 -12 6 -17 -2 -17 -8 0 -9 -4 0 -13 8 -10 7 -17 -1 -25 -7 -7 -8 -12 -2
-12 12 0 12 -29 0 -48 -4 -7 -2 -12 5 -12 8 0 8 -4 -1 -15 -9 -11 -9 -15 -1
-15 8 0 9 -5 2 -19 -6 -10 -8 -21 -4 -24 10 -10 10 -51 0 -64 -6 -9 -5 -13 2
-13 8 0 9 -5 1 -19 -7 -14 -7 -22 0 -26 8 -5 7 -11 -1 -21 -9 -11 -9 -14 0
-14 9 0 9 -5 0 -21 -8 -16 -8 -20 1 -14 9 6 9 2 1 -14 -8 -14 -8 -21 -1 -21 7
0 8 -6 1 -18 -6 -11 -6 -24 -1 -32 5 -9 5 -19 -2 -27 -7 -9 -7 -13 2 -13 10 0
10 -3 0 -15 -9 -11 -9 -15 -1 -15 8 0 9 -6 2 -18 -6 -11 -6 -24 0 -35 7 -12 6
-17 -1 -17 -6 0 -8 -5 -4 -12 12 -19 12 -48 1 -48 -6 0 -6 -5 -1 -12 11 -16
11 -39 1 -55 -5 -8 -3 -13 3 -13 7 0 8 -6 0 -19 -7 -14 -7 -22 0 -26 8 -5 7
-11 -1 -21 -9 -11 -9 -14 0 -14 9 0 9 -5 0 -21 -8 -16 -8 -20 1 -14 9 6 9 2 1
-14 -8 -14 -8 -21 -1 -21 7 0 8 -6 1 -18 -6 -11 -6 -24 0 -35 7 -12 6 -17 -2
-17 -8 0 -8 -4 1 -15 10 -12 10 -15 0 -15 -9 0 -9 -4 -2 -12 6 -7 10 -17 10
-23 0 -5 5 -11 11 -13 6 -2 11 1 11 7 0 6 6 11 14 11 8 0 21 6 28 13 7 6 18
12 23 13 23 3 55 17 55 25 0 5 5 9 11 9 6 0 41 15 79 34 37 19 71 32 74 29 3
-4 6 1 6 11 0 9 4 15 9 12 9 -6 112 42 123 58 4 6 8 7 8 1 0 -5 5 -4 12 3 18
18 52 14 68 -7 7 -11 17 -18 22 -15 4 3 8 1 8 -5 0 -5 9 -13 20 -16 11 -3 26
-12 33 -18 40 -37 60 -51 53 -37 -5 9 -2 8 7 -2 8 -10 17 -15 20 -11 4 3 7 -2
7 -12 0 -10 3 -16 6 -12 3 3 15 -3 27 -14 11 -10 27 -19 34 -19 7 0 13 -4 13
-8 0 -5 12 -15 28 -23 15 -8 36 -22 46 -31 11 -10 26 -18 33 -18 7 0 13 -4 13
-10 0 -5 7 -10 16 -10 8 0 13 -4 10 -9 -4 -5 1 -8 9 -7 18 3 32 16 16 16 -9 0
-9 5 -1 20 8 14 8 20 0 20 -7 0 -8 6 0 19 7 14 7 22 0 26 -8 5 -8 11 0 20 8
10 7 14 -2 18 -10 4 -10 6 1 6 11 1 11 4 1 16 -10 12 -10 15 0 15 10 0 10 3 0
15 -10 12 -10 15 0 15 10 0 10 3 1 14 -9 11 -9 16 0 21 8 6 7 10 -2 16 -12 7
-12 9 0 9 11 0 11 3 1 15 -9 11 -9 15 -1 15 8 0 9 5 2 18 -7 13 -6 23 1 30 9
9 9 12 0 12 -8 0 -9 7 -2 25 7 17 6 25 -1 25 -8 0 -7 5 1 15 10 12 10 15 -1
15 -9 0 -10 3 -4 8 13 9 15 42 3 42 -6 0 -5 6 2 15 10 12 10 15 -1 15 -9 0
-10 3 -4 8 12 9 15 52 3 52 -5 0 -4 10 3 21 9 17 8 20 -3 13 -11 -6 -11 -5 1
9 10 13 10 17 1 17 -10 0 -10 3 0 15 10 12 10 15 0 15 -10 0 -10 3 0 15 9 11
9 15 1 15 -9 0 -9 5 0 21 9 17 8 20 -3 13 -11 -6 -11 -5 1 9 10 13 10 17 1 17
-10 0 -10 3 0 15 10 12 10 15 0 15 -10 0 -10 3 0 15 10 12 10 15 0 15 -10 0
-10 3 0 15 9 11 9 15 1 15 -9 0 -9 5 -1 20 8 15 8 20 -1 20 -8 0 -8 4 1 15 10
12 10 15 -1 15 -9 0 -10 3 -4 8 13 9 15 42 3 42 -6 0 -5 6 2 15 10 12 10 15
-1 15 -9 0 -10 3 -4 8 13 9 15 42 3 42 -6 0 -5 6 2 15 10 12 10 15 -1 15 -9 0
-10 3 -4 8 13 9 15 42 3 42 -6 0 -5 6 2 15 10 12 10 15 -1 15 -9 0 -10 3 -4 8
12 9 15 52 3 52 -5 0 -4 10 3 21 9 17 8 20 -3 13 -11 -6 -11 -5 1 9 10 13 10
17 1 17 -10 0 -10 3 0 15 10 12 10 15 0 15 -10 0 -10 3 0 15 9 11 9 15 1 15
-9 0 -9 5 0 21 9 17 8 20 -3 13 -11 -6 -11 -5 1 9 10 13 10 17 1 17 -10 0 -10
3 0 15 10 12 10 15 0 15 -10 0 -10 3 0 15 10 12 10 15 0 15 -10 0 -10 3 0 15
9 11 9 15 1 15 -9 0 -9 5 -1 20 8 15 8 20 -1 20 -8 0 -8 4 1 15 10 12 10 15
-1 15 -9 0 -10 3 -4 8 13 9 15 42 3 42 -6 0 -5 6 2 15 10 12 10 15 -1 15 -9 0
-10 3 -4 8 14 10 17 32 4 32 -8 0 -8 4 -1 13 7 8 7 18 2 27 -5 9 -5 19 2 27 7
9 7 13 -2 13 -10 0 -10 3 -1 14 9 11 9 15 -1 19 -10 4 -10 6 1 6 11 1 11 4 1
16 -10 12 -10 15 0 15 10 0 10 3 0 15 -10 12 -10 15 0 15 10 0 10 3 0 15 -10
12 -10 15 0 15 9 0 10 3 1 13 -8 10 -7 17 1 25 9 9 9 12 -1 12 -11 0 -11 3 -1
15 9 11 9 15 1 15 -9 0 -9 5 -1 20 8 15 8 20 -1 20 -8 0 -8 4 1 15 10 12 10
15 -1 15 -9 0 -10 3 -4 8 13 9 15 42 3 42 -6 0 -5 6 2 15 10 12 10 15 -1 15
-9 0 -10 3 -4 8 12 9 15 52 3 52 -5 0 -4 10 3 21 9 17 8 20 -3 13 -11 -6 -11
-5 1 9 10 13 10 17 1 17 -10 0 -10 3 0 15 10 12 10 15 0 15 -10 0 -10 3 0 15
9 11 9 15 1 15 -9 0 -9 5 0 21 9 17 8 20 -3 13 -11 -6 -11 -5 1 9 10 13 10 17
1 17 -10 0 -10 3 0 15 10 12 10 15 0 15 -10 0 -10 3 0 15 10 12 10 15 0 15
-10 0 -10 3 0 15 9 11 9 15 1 15 -9 0 -9 5 -1 20 8 15 8 20 -1 20 -8 0 -8 4 1
15 10 12 10 15 -1 15 -9 0 -10 3 -4 8 13 9 15 42 3 42 -6 0 -5 6 2 15 10 12
10 15 -1 15 -9 0 -10 3 -4 8 14 10 17 32 4 32 -8 0 -8 4 -1 13 15 18 15 29 0
38 -10 7 -9 9 5 9 11 0 28 -10 39 -22 11 -13 16 -16 12 -8 -4 8 3 5 15 -7 12
-13 25 -23 29 -23 4 0 20 -11 35 -25 15 -14 27 -23 27 -19 0 4 9 -3 20 -16 11
-13 20 -20 20 -16 0 7 15 -4 55 -42 14 -13 25 -20 25 -17 0 3 11 -2 24 -10 26
-17 50 -71 36 -80 -5 -3 -5 -18 0 -35 6 -20 5 -30 -3 -34 -8 -3 -7 -5 2 -5 11
-1 11 -4 1 -16 -10 -12 -10 -15 1 -15 9 0 10 -3 2 -11 -7 -7 -8 -21 -3 -39 6
-20 4 -30 -3 -34 -8 -3 -7 -5 2 -5 11 -1 11 -4 1 -16 -9 -11 -9 -15 -1 -15 7
0 9 -5 4 -12 -11 -19 -12 -38 -2 -38 6 0 5 -8 -1 -20 -8 -14 -8 -20 0 -20 8 0
8 -6 0 -20 -8 -14 -8 -20 0 -20 8 0 8 -6 0 -20 -6 -11 -7 -20 -2 -20 10 0 8
-42 -3 -59 -3 -6 -1 -11 6 -11 10 0 10 -3 2 -11 -7 -7 -8 -21 -3 -39 6 -20 4
-30 -3 -34 -8 -3 -7 -5 2 -5 11 -1 11 -4 1 -16 -10 -12 -10 -15 1 -15 9 0 10
-3 2 -11 -7 -7 -8 -21 -3 -39 6 -20 4 -30 -3 -34 -8 -3 -7 -5 2 -5 11 -1 11
-4 1 -16 -10 -12 -10 -15 1 -15 9 0 10 -3 2 -11 -7 -7 -8 -21 -3 -39 6 -20 4
-30 -3 -34 -8 -3 -7 -5 2 -5 11 -1 11 -4 1 -16 -10 -12 -10 -15 0 -15 9 0 10
-3 1 -13 -6 -8 -9 -16 -6 -19 10 -10 11 -88 1 -92 -6 -2 -5 -5 3 -5 11 -1 11
-4 1 -16 -10 -12 -10 -15 0 -15 9 0 10 -3 1 -13 -6 -8 -9 -16 -6 -19 10 -10
11 -88 1 -92 -6 -2 -5 -5 3 -5 11 -1 11 -4 1 -16 -10 -12 -10 -15 0 -15 9 0
10 -3 1 -13 -6 -8 -9 -16 -6 -19 10 -10 11 -88 1 -92 -6 -2 -5 -5 3 -5 11 -1
11 -4 1 -16 -10 -12 -10 -15 0 -15 9 0 10 -3 1 -13 -6 -8 -9 -16 -6 -19 10
-10 11 -88 1 -92 -6 -2 -5 -5 3 -5 11 -1 11 -4 1 -16 -10 -12 -10 -15 0 -15 9
0 10 -3 1 -13 -6 -8 -9 -16 -6 -19 10 -10 11 -88 1 -92 -6 -2 -5 -5 3 -5 11
-1 11 -4 1 -16 -10 -12 -10 -15 0 -15 9 0 10 -3 1 -13 -6 -8 -9 -16 -6 -19 10
-10 11 -88 1 -92 -6 -2 -5 -5 3 -5 11 -1 11 -4 1 -16 -10 -12 -10 -15 0 -15 9
0 10 -3 1 -13 -6 -8 -9 -16 -6 -19 10 -10 11 -88 1 -92 -6 -2 -5 -5 3 -5 11
-1 11 -4 1 -16 -10 -12 -10 -15 1 -15 9 0 10 -3 2 -11 -7 -7 -8 -21 -3 -39 6
-20 4 -30 -3 -34 -8 -3 -8 -5 1 -5 10 -1 10 -6 2 -21 -8 -14 -8 -20 0 -20 8 0
8 -6 0 -20 -8 -14 -8 -20 0 -20 8 0 8 -6 0 -20 -6 -11 -7 -20 -2 -20 10 0 8
-42 -3 -59 -3 -6 -1 -11 6 -11 10 0 10 -3 2 -11 -7 -7 -8 -21 -3 -39 6 -20 4
-30 -3 -34 -8 -3 -7 -5 2 -5 11 -1 11 -4 1 -16 -10 -12 -10 -15 1 -15 9 0 10
-3 2 -11 -7 -7 -8 -21 -3 -39 6 -20 4 -30 -3 -34 -8 -3 -7 -5 2 -5 11 -1 11
-4 1 -16 -9 -11 -9 -15 -1 -15 7 0 9 -5 4 -12 -11 -19 -12 -38 -2 -38 6 0 5
-8 -1 -20 -8 -14 -8 -20 0 -20 8 0 8 -6 0 -20 -8 -14 -8 -20 0 -20 8 0 8 -6 0
-20 -6 -11 -7 -20 -2 -20 10 0 8 -42 -3 -59 -3 -6 -1 -11 6 -11 10 0 10 -3 2
-11 -7 -7 -8 -21 -3 -40 6 -20 5 -29 -3 -29 -8 0 -7 -3 2 -9 9 -6 10 -10 2
-16 -9 -5 -9 -10 -1 -20 8 -9 8 -15 0 -20 -5 -3 -10 -1 -10 5 0 6 -4 9 -9 5
-5 -3 -12 -1 -16 5 -4 6 -10 8 -15 5 -4 -3 -11 2 -14 11 -3 8 -10 12 -16 9 -5
-3 -10 -2 -10 2 0 9 -55 45 -66 43 -4 -1 -11 5 -16 14 -5 9 -15 16 -23 16 -7
0 -15 4 -17 9 -1 5 -10 11 -18 13 -8 2 -22 10 -30 18 -8 8 -27 21 -42 29 -16
8 -28 18 -28 23 0 5 -5 6 -10 3 -6 -3 -13 1 -16 9 -3 9 -14 16 -24 16 -10 0
-20 7 -24 15 -3 8 -12 15 -21 15 -8 0 -15 5 -15 11 0 6 -7 8 -16 5 -8 -3 -12
-2 -9 4 3 6 1 10 -5 10 -6 0 -16 5 -23 10 -25 21 -88 60 -97 60 -6 0 -10 4
-10 9 0 10 -28 28 -92 58 -21 10 -38 24 -38 31 0 6 -9 12 -20 12 -11 0 -20 5
-20 10 0 6 -7 10 -15 10 -8 0 -15 4 -15 9 0 11 -33 9 -41 -2 -3 -4 -16 -10
-29 -12 -13 -2 -27 -10 -30 -16 -4 -6 -11 -11 -16 -11 -17 -1 -39 -10 -138
-59 -54 -27 -105 -49 -112 -49 -8 0 -14 -4 -14 -10 0 -5 -3 -10 -7 -9 -17 2
-53 -14 -53 -24 0 -6 -3 -8 -6 -4 -3 3 -27 -6 -54 -19 -26 -13 -53 -24 -59
-24 -6 0 -11 -4 -11 -10 0 -5 -7 -10 -15 -10 -9 0 -27 -7 -40 -16 -14 -9 -25
-12 -25 -8 0 5 -4 3 -9 -4 -4 -7 -14 -15 -22 -16 -25 -5 -74 -30 -87 -46 -8
-8 -11 -9 -7 -2 3 6 1 12 -4 12 -6 0 -11 -4 -11 -10 0 -5 -6 -10 -14 -10 -8 0
-22 -7 -30 -16 -9 -8 -16 -13 -16 -9 0 3 -13 -1 -30 -10 -24 -13 -29 -21 -28
-50 1 -19 5 -32 9 -29 5 2 2 -8 -6 -22 -8 -15 -11 -32 -8 -37 5 -9 8 -199 3
-222 -1 -5 -2 -14 0 -20 2 -14 3 -208 0 -220 -1 -5 -2 -14 0 -20 2 -14 3 -208
0 -220 -1 -5 -2 -14 0 -20 2 -14 3 -208 0 -220 -1 -5 -1 -12 0 -15 7 -19 3
-140 -5 -140 -7 0 -7 -3 0 -8 6 -4 10 -38 10 -77 0 -38 -4 -73 -10 -77 -7 -5
-7 -8 0 -8 6 0 10 -32 10 -75 0 -43 -4 -75 -10 -75 -7 0 -7 -3 0 -8 6 -4 10
-38 10 -77 0 -38 -4 -73 -10 -77 -7 -5 -7 -8 0 -8 9 0 10 -17 6 -76 -1 -8
-209 -12 -774 -12 -424 0 -781 -1 -793 -1 -19 -1 -20 -7 -20 -109 l0 -107 40
-6 c26 -4 44 -2 48 5 5 6 8 7 8 1 0 -5 24 -10 52 -10 29 0 56 5 60 10 5 7 8 7
8 0 0 -6 65 -10 175 -10 110 0 175 4 175 10 0 7 3 7 8 0 4 -5 30 -10 57 -10
28 0 53 5 57 10 5 7 8 7 8 0 0 -11 83 -11 100 0 5 3 10 1 10 -4 0 -6 -5 -11
-12 -11 -6 0 -8 -3 -5 -6 4 -4 13 -2 20 4 19 16 229 14 221 -2 -3 -6 2 -2 10
8 9 11 16 16 16 10 0 -5 25 -9 55 -9 30 0 55 5 55 10 0 7 3 7 8 0 4 -6 75 -10
177 -10 102 0 173 4 177 10 5 7 8 7 8 0 0 -6 41 -10 104 -10 62 0 102 -3 99
-9 -4 -5 -1 -6 8 0 24 15 62 16 70 2 6 -9 9 -9 9 -1 0 8 27 11 85 11 60 0 83
-3 79 -12 -3 -6 2 -2 10 8 9 11 16 16 16 10 0 -12 103 -12 112 1 5 6 8 6 8 -1
0 -6 7 -11 15 -11 8 0 15 5 15 11 0 7 3 7 8 1 4 -5 30 -10 57 -10 28 0 53 5
57 10 5 7 8 7 8 0 0 -11 83 -11 100 0 5 3 10 3 10 -2 0 -15 75 -8 87 8 7 9 11
42 10 78 -1 35 1 65 5 67 5 3 5 10 2 16 -12 19 -12 78 0 71 6 -4 5 1 -3 10
-11 14 -11 17 0 17 9 0 10 3 4 8 -14 10 -15 93 -1 85 6 -4 5 1 -3 10 -11 14
-11 17 0 17 9 0 10 3 4 8 -5 4 -10 44 -10 89 0 51 4 79 10 75 6 -3 4 2 -4 11
-11 14 -11 17 0 17 9 0 10 3 4 8 -14 10 -15 93 -1 85 6 -4 5 0 -2 9 -10 13
-10 17 0 21 7 3 9 6 3 6 -11 1 -13 220 -2 238 4 7 4 14 0 16 -10 6 -9 134 0
144 4 3 2 12 -4 20 -9 10 -8 13 2 13 9 0 10 3 4 8 -6 4 -10 52 -10 109 0 65 4
99 10 95 6 -3 4 2 -4 11 -11 14 -11 17 0 17 9 0 10 3 4 8 -6 4 -10 52 -10 109
0 65 4 99 10 95 6 -3 4 1 -3 10 -10 13 -10 17 0 21 7 3 9 6 3 6 -11 1 -13 266
-2 278 4 3 2 13 -5 20 -9 11 -9 17 3 24 11 7 11 9 0 9 -10 0 -11 3 -2 13 6 8
8 17 4 21 -12 12 -12 36 0 36 8 0 7 3 -2 9 -9 6 -10 10 -2 16 9 5 9 10 0 21
-9 11 -7 14 10 14 11 0 21 -5 21 -11 0 -6 7 -8 16 -5 8 3 13 2 10 -3 -3 -4 13
-18 34 -30 22 -12 44 -30 49 -39 8 -12 10 -13 11 -3 0 10 5 9 18 -5 23 -25 79
-64 92 -64 5 0 10 -4 10 -9 0 -5 9 -11 21 -14 14 -4 18 -10 13 -19 -4 -7 -4
-10 1 -6 4 4 14 3 22 -3 7 -6 13 -9 13 -5 0 3 9 -2 19 -11 33 -31 47 -40 77
-56 16 -8 39 -24 50 -36 12 -11 25 -17 28 -14 3 4 6 1 6 -5 0 -7 7 -12 15 -12
9 0 18 -7 21 -15 4 -8 10 -15 14 -15 14 0 90 -53 90 -62 0 -5 4 -7 9 -3 5 3
22 -6 36 -21 14 -14 29 -23 32 -20 4 3 12 -3 20 -14 8 -11 21 -20 28 -20 11 0
12 -6 5 -25 -6 -16 -6 -25 1 -25 6 0 6 -6 0 -18 -6 -11 -6 -24 0 -34 6 -10 6
-19 0 -22 -6 -4 -6 -18 -1 -36 6 -21 5 -30 -3 -30 -8 0 -7 -3 2 -9 9 -6 10
-11 2 -15 -6 -4 -8 -13 -4 -19 7 -12 9 -17 12 -36 1 -8 29 -8 39 -1 1 2 5 3
10 4 32 8 71 17 92 22 14 3 36 8 50 11 14 3 31 6 38 6 13 0 13 -7 14 345 0
211 2 233 18 242 9 5 20 6 24 3 3 -3 6 -1 6 7 0 10 3 10 15 0 11 -9 15 -9 15
-1 0 7 5 9 10 6 6 -3 10 -2 10 3 0 8 6 10 50 14 11 1 20 5 20 8 0 4 6 7 13 8
6 0 22 3 35 6 12 3 32 9 45 12 12 3 28 6 35 6 6 1 12 5 12 10 0 5 4 7 9 4 5
-3 21 1 37 9 15 7 31 12 36 9 5 -3 14 -1 21 4 7 5 20 8 30 7 9 -2 17 1 17 7 0
6 7 8 15 4 8 -3 15 -2 15 3 0 4 6 8 13 9 6 0 21 3 32 6 11 3 38 10 60 17 22 6
48 11 58 12 9 1 17 4 17 7 0 4 6 7 13 8 54 4 52 -2 52 153 0 79 4 150 9 158 6
9 5 12 0 8 -6 -3 -9 73 -9 196 1 131 -2 207 -9 216 -8 11 -8 13 0 8 7 -4 10
49 9 176 -1 117 2 187 9 196 7 9 7 12 1 9 -7 -4 -10 85 -9 275 0 187 -3 287
-10 296 -8 11 -8 13 0 8 8 -5 11 23 9 96 -1 60 3 108 9 116 7 10 7 13 1 9 -13
-8 -14 290 -1 311 6 9 5 12 0 8 -6 -3 -9 73 -9 196 1 131 -2 207 -9 216 -8 11
-8 13 0 8 8 -4 11 38 10 148 -2 103 2 155 8 155 8 0 8 3 1 8 -13 9 -13 42 -1
61 6 9 5 12 0 8 -6 -3 -9 105 -8 276 0 187 -3 287 -10 296 -8 11 -8 13 0 8 8
-5 11 23 9 96 -1 60 3 108 9 116 8 10 8 13 0 9 -7 -5 -10 41 -9 148 1 85 4
155 8 157 3 1 15 -6 26 -15 11 -9 22 -14 25 -11 3 4 6 0 6 -7 0 -7 3 -11 6 -7
6 6 17 -1 55 -35 10 -10 24 -18 29 -18 6 0 10 -5 10 -11 0 -5 5 -7 10 -4 6 3
13 -1 16 -9 3 -9 10 -13 15 -10 5 3 12 -2 15 -10 3 -9 9 -14 13 -11 4 2 19 -7
34 -21 15 -14 27 -22 27 -19 0 5 9 -1 43 -31 15 -13 50 -28 60 -25 5 1 6 -2 3
-7 -3 -5 10 -18 29 -28 19 -10 35 -22 35 -26 0 -5 7 -8 15 -8 7 0 18 -6 22
-13 8 -14 42 -31 56 -29 4 1 7 -4 7 -12 0 -8 11 -17 25 -20 14 -4 25 -11 25
-16 0 -6 7 -10 15 -10 8 0 15 -4 15 -10 0 -5 7 -10 15 -10 9 0 18 -7 21 -15 3
-8 15 -17 26 -21 11 -3 29 -13 39 -23 11 -9 21 -14 22 -12 1 3 15 -7 31 -22
16 -15 36 -27 44 -27 8 0 12 -3 9 -7 -4 -3 3 -11 14 -17 l21 -11 0 -802 c0
-786 0 -803 19 -803 10 0 19 5 19 12 0 6 3 9 6 5 4 -3 19 0 34 8 15 8 30 11
34 8 3 -4 6 -1 6 6 0 8 6 11 16 7 8 -3 12 -2 9 4 -3 6 1 11 9 11 29 3 34 4 42
12 4 4 15 7 25 7 10 0 21 5 25 11 11 19 11 209 -1 209 -7 0 -7 3 0 8 13 9 13
225 0 234 -7 5 -7 8 0 8 7 0 10 152 10 435 0 283 -3 435 -10 435 -7 0 -7 3 0
8 13 9 13 225 0 234 -7 5 -6 8 1 8 6 0 10 20 9 48 -1 35 -6 48 -18 50 -10 2
-17 8 -17 14 0 6 -3 9 -6 5 -3 -3 -15 3 -27 14 -11 10 -27 19 -36 19 -8 0 -11
3 -8 6 6 6 -81 63 -117 77 -10 4 -14 12 -10 18 4 7 3 9 -3 6 -5 -4 -20 3 -31
14 -12 11 -22 18 -22 15 0 -3 -35 19 -78 48 -42 29 -87 56 -99 60 -13 4 -22
12 -20 18 1 6 -6 12 -16 13 -10 2 -26 12 -35 22 -9 10 -23 19 -31 21 -7 1 -19
9 -27 17 -8 7 -23 17 -34 20 -11 3 -20 11 -20 16 0 5 -7 9 -15 9 -8 0 -15 5
-15 10 0 6 -7 10 -15 10 -8 0 -15 5 -15 10 0 6 -9 10 -21 10 -11 0 -17 5 -14
10 3 6 -1 10 -9 10 -9 0 -16 4 -16 9 0 5 -13 14 -30 21 -16 7 -30 17 -30 22 0
5 -4 6 -10 3 -5 -3 -10 -2 -10 2 0 5 -16 17 -35 27 -19 11 -35 23 -35 28 0 4
-8 8 -18 8 -10 0 -25 8 -34 18 -23 24 -38 35 -73 52 -16 8 -41 23 -54 35 -13
11 -21 14 -17 8z"/>
<path d="M4790 9430 l0 -119 73 -40 c39 -22 77 -43 82 -48 24 -21 38 -26 31
-12 -4 8 -1 6 7 -3 8 -10 22 -18 31 -18 10 0 14 -5 10 -11 -4 -7 -1 -10 7 -7
8 3 19 -1 24 -7 6 -7 46 -31 90 -55 44 -23 85 -46 91 -51 6 -5 14 -6 17 -2 4
3 7 1 7 -5 0 -7 7 -12 15 -12 8 0 15 -5 15 -11 0 -5 5 -7 10 -4 6 3 10 1 10
-5 0 -6 4 -9 9 -6 5 3 11 -1 15 -9 3 -8 15 -15 26 -15 11 0 20 -4 20 -10 0 -5
7 -10 15 -10 8 0 15 -5 15 -11 0 -5 4 -8 9 -5 5 4 12 0 14 -6 14 -34 24 22 22
120 -2 130 -1 122 -25 122 -11 0 -20 5 -20 10 0 6 -7 10 -15 10 -8 0 -15 5
-15 11 0 6 -5 9 -12 7 -6 -2 -22 6 -36 19 -13 12 -28 20 -33 18 -4 -3 -11 1
-16 9 -4 8 -10 14 -13 14 -7 -1 -94 43 -100 51 -10 12 -70 42 -70 35 0 -4 -8
3 -19 14 -10 12 -26 22 -35 22 -9 0 -16 3 -16 8 0 4 -23 18 -51 32 -27 13 -58
32 -68 42 -11 9 -22 14 -25 10 -4 -3 -10 -2 -14 4 -7 11 -65 44 -77 44 -3 0
-5 -54 -5 -120z"/>
<path d="M4795 9080 c3 -5 2 -10 -4 -10 -6 0 -6 -11 -1 -30 5 -19 5 -30 -1
-30 -6 0 -5 -8 1 -20 8 -15 8 -20 -2 -20 -9 0 -9 -3 2 -10 9 -6 10 -10 3 -10
-8 0 -9 -9 -3 -30 5 -16 5 -30 0 -30 -19 0 5 -40 31 -52 16 -7 29 -16 29 -20
0 -5 5 -8 11 -8 6 0 23 -9 39 -20 15 -11 30 -17 34 -13 3 3 6 1 6 -6 0 -7 5
-9 10 -6 6 3 10 1 10 -4 0 -6 7 -11 15 -11 8 0 15 -5 15 -11 0 -5 4 -8 9 -5 5
3 14 -1 21 -9 7 -8 19 -15 26 -15 8 0 14 -4 14 -10 0 -5 9 -10 20 -10 11 0 20
-4 20 -10 0 -5 6 -10 14 -10 7 0 19 -7 26 -15 7 -8 16 -12 21 -9 5 3 9 0 9 -6
0 -6 5 -8 10 -5 6 3 10 2 10 -4 0 -6 11 -13 25 -17 14 -3 25 -9 25 -13 0 -4
16 -13 35 -21 19 -8 35 -18 35 -22 0 -5 5 -6 10 -3 6 3 10 1 10 -5 0 -6 5 -8
10 -5 6 3 10 1 10 -4 0 -6 7 -11 15 -11 8 0 15 -4 15 -10 0 -5 9 -10 20 -10
11 0 20 -4 20 -9 0 -5 9 -11 20 -14 11 -3 18 -1 15 3 -3 5 1 11 7 13 10 4 10
6 0 6 -9 1 -10 6 -2 20 7 14 7 20 -2 23 -8 3 -8 9 1 25 7 14 8 24 1 28 -5 3
-10 11 -10 16 0 6 6 7 13 3 9 -6 9 -5 0 7 -10 12 -10 18 -1 27 9 9 9 12 0 12
-13 0 -12 21 1 31 4 3 -5 12 -20 20 -16 8 -30 16 -33 19 -10 10 -65 41 -82 47
-10 3 -18 10 -18 15 0 5 -4 6 -10 3 -5 -3 -10 -1 -10 5 0 6 -4 8 -10 5 -5 -3
-10 -2 -10 4 0 5 -18 17 -40 27 -22 10 -40 22 -40 28 0 5 -3 6 -6 3 -4 -4 -19
2 -34 13 -15 11 -30 17 -34 13 -3 -3 -6 1 -6 10 0 15 -11 20 -36 16 -4 0 -10
3 -13 9 -3 5 -28 22 -56 37 -27 16 -53 34 -57 39 -4 6 -10 8 -13 4 -6 -6 -27
8 -59 38 -6 6 -19 10 -28 8 -9 -1 -19 4 -22 12 -3 8 -13 14 -21 14 -9 0 -13
-4 -10 -10z"/>
<path d="M4799 8672 c-1 -4 -1 -10 0 -14 0 -5 -2 -8 -6 -8 -5 0 -7 -50 -5
-110 3 -103 5 -112 25 -119 12 -5 26 -8 30 -7 5 0 13 -7 18 -17 6 -9 14 -15
20 -12 5 4 9 1 9 -4 0 -6 7 -11 15 -11 8 0 15 -5 15 -12 0 -6 3 -9 6 -5 3 3
24 -5 45 -19 21 -13 43 -24 49 -24 5 0 10 -5 10 -11 0 -5 5 -7 10 -4 6 3 10 1
10 -5 0 -6 5 -8 10 -5 6 3 10 1 10 -4 0 -6 7 -11 15 -11 8 0 15 -4 15 -10 0
-5 7 -10 15 -10 8 0 31 -11 51 -25 20 -14 40 -23 44 -20 4 3 11 -2 14 -11 3
-8 10 -12 16 -9 5 3 10 2 10 -3 0 -8 30 -25 55 -32 6 -1 21 -11 34 -21 13 -11
30 -19 37 -19 8 0 14 -4 14 -10 0 -5 5 -10 12 -10 6 0 20 -7 30 -17 10 -9 19
-12 20 -7 5 30 4 224 -1 231 -7 10 -37 29 -71 45 -14 7 -28 17 -32 23 -5 6 -8
6 -8 0 0 -5 -4 -5 -8 2 -4 6 -14 13 -22 15 -8 2 -22 10 -30 18 -8 8 -22 16
-30 18 -8 2 -18 9 -22 15 -4 7 -8 8 -8 2 0 -7 -3 -7 -8 0 -4 6 -24 19 -44 30
-21 11 -38 23 -38 28 0 5 -6 7 -12 4 -7 -2 -21 5 -30 16 -10 11 -18 17 -18 13
0 -4 -13 2 -30 14 -16 12 -30 19 -30 15 0 -3 -10 3 -22 15 -12 11 -28 20 -36
20 -8 0 -23 9 -33 21 -9 11 -20 20 -24 19 -10 -2 -65 24 -65 31 0 10 -30 20
-31 11z"/>
<path d="M4795 8220 c3 -5 1 -10 -5 -10 -8 0 -8 -6 0 -20 8 -15 8 -20 -2 -20
-9 0 -9 -3 2 -10 9 -6 10 -10 3 -10 -8 0 -9 -9 -3 -30 5 -17 5 -30 0 -30 -5 0
-5 -13 0 -30 5 -16 5 -30 0 -30 -16 0 2 -39 21 -45 10 -4 19 -11 19 -16 0 -6
5 -7 10 -4 6 3 10 2 10 -3 0 -9 37 -25 53 -23 4 1 7 -4 7 -10 0 -5 14 -15 30
-20 17 -6 30 -15 30 -21 0 -5 4 -7 9 -3 5 3 17 -2 25 -11 9 -8 16 -12 16 -7 0
4 5 0 11 -9 5 -10 16 -15 24 -12 8 4 15 1 15 -5 0 -6 11 -16 25 -21 14 -5 37
-17 51 -27 15 -9 34 -18 42 -19 8 -2 18 -7 21 -12 7 -10 43 -26 54 -24 4 1 6
-3 5 -9 -2 -6 6 -13 16 -15 10 -1 23 -9 27 -16 5 -7 9 -9 9 -4 0 6 7 1 16 -10
8 -10 12 -12 8 -5 -4 9 6 6 24 -8 18 -12 32 -19 32 -14 0 4 5 0 11 -9 5 -10
17 -18 25 -18 9 0 12 -5 8 -12 -4 -7 -3 -8 5 -4 6 4 9 12 5 17 -3 5 0 16 6 24
9 11 9 15 1 15 -13 0 -10 22 4 32 6 5 5 8 -3 8 -9 0 -10 5 -2 19 7 14 7 20 -2
23 -8 3 -8 9 1 25 7 14 8 24 1 28 -5 3 -10 11 -10 16 0 6 5 7 10 4 6 -4 9 -1
8 7 -3 15 -69 64 -80 60 -5 -1 -8 2 -8 8 0 6 -6 10 -14 10 -7 0 -19 7 -26 15
-7 8 -16 12 -21 9 -5 -3 -9 0 -9 5 0 6 -7 11 -15 11 -9 0 -18 7 -21 15 -4 8
-10 13 -14 10 -4 -3 -24 6 -43 19 -19 13 -38 22 -41 18 -3 -3 -6 -1 -6 5 0 6
-13 16 -30 23 -16 7 -30 17 -30 22 0 5 -4 7 -9 3 -5 -3 -16 2 -24 10 -9 8 -20
15 -26 15 -6 0 -11 4 -11 10 0 6 -3 9 -7 8 -13 -3 -63 25 -63 34 0 5 -4 7 -9
4 -5 -3 -14 1 -21 9 -7 8 -19 15 -26 15 -8 0 -14 5 -14 10 0 6 -9 10 -19 10
-10 0 -22 7 -25 16 -4 9 -13 14 -21 10 -8 -3 -15 -1 -15 4 0 6 -7 10 -16 10
-8 0 -12 -4 -9 -10z"/>
<path d="M6020 7702 c0 -7 -4 -11 -8 -8 -5 3 -20 -2 -33 -12 -13 -9 -30 -17
-38 -19 -8 -1 -18 -8 -22 -15 -5 -7 -9 -10 -9 -5 0 4 -10 1 -23 -8 -13 -8 -27
-12 -30 -8 -4 3 -7 1 -7 -5 0 -7 -6 -12 -14 -12 -8 0 -22 -7 -30 -16 -9 -8
-16 -13 -16 -10 0 8 -203 -97 -212 -109 -4 -5 -8 -6 -8 -1 0 5 -7 3 -15 -4 -8
-7 -15 -9 -15 -4 0 5 -4 5 -8 -1 -14 -19 -72 -46 -84 -39 -6 4 -8 3 -5 -3 7
-11 -33 -33 -59 -33 -9 0 -12 -5 -8 -12 5 -7 2 -9 -9 -5 -9 3 -17 2 -19 -3 -2
-5 -10 -10 -18 -12 -8 -2 -20 -10 -27 -18 -7 -8 -13 -11 -13 -7 0 9 -61 -22
-71 -36 -3 -4 -16 -9 -27 -10 -12 -1 -22 -5 -22 -10 0 -4 -4 -5 -10 -2 -5 3
-10 2 -10 -4 0 -9 -29 -23 -40 -19 -3 1 -14 -6 -26 -16 -18 -15 -20 -28 -19
-97 0 -48 -3 -79 -10 -79 -7 0 -7 -3 0 -8 7 -4 11 -66 10 -164 0 -96 4 -160
10 -162 7 -3 7 -5 0 -5 -11 -1 -12 -241 -1 -260 4 -6 4 -11 -1 -11 -4 0 -8
-22 -8 -50 0 -27 2 -50 5 -50 3 0 6 -9 6 -20 0 -11 -4 -20 -9 -20 -4 0 -5 -5
-1 -12 11 -17 11 -58 1 -58 -4 0 -5 -6 0 -12 12 -21 12 -38 0 -38 -8 0 -8 -3
-2 -8 12 -9 14 -92 2 -92 -4 0 -5 -5 -1 -11 11 -18 11 -89 1 -82 -6 4 -7 1 -2
-7 5 -8 9 -30 9 -49 1 -30 4 -35 21 -33 11 2 27 4 35 6 9 1 21 5 28 10 7 4 12
2 12 -5 0 -7 3 -9 7 -6 3 4 12 2 20 -4 8 -8 13 -8 13 -1 0 6 12 5 30 -4 16 -9
34 -13 40 -9 5 3 10 2 10 -3 0 -5 10 -9 23 -8 12 1 24 -2 27 -6 5 -7 56 -18
93 -22 10 0 22 -8 27 -16 7 -11 10 -11 10 -2 0 8 5 10 13 5 16 -10 37 -15 65
-15 12 0 22 -4 22 -9 0 -5 14 -9 30 -9 17 0 30 -5 30 -12 0 -9 4 -8 10 2 6 10
10 11 10 3 0 -8 13 -13 30 -13 17 0 30 -4 30 -9 0 -6 9 -8 20 -6 11 2 20 0 20
-5 0 -4 8 -7 18 -5 9 1 23 -2 30 -8 6 -5 12 -6 12 -3 0 4 8 3 17 -2 19 -11 26
-52 9 -52 -6 0 -4 -5 4 -10 13 -9 13 -10 0 -10 -12 0 -12 -2 -1 -9 9 -6 10
-10 2 -16 -9 -5 -9 -10 0 -21 9 -11 8 -14 -2 -14 -11 0 -11 -2 0 -9 12 -8 12
-12 2 -24 -8 -11 -9 -17 -1 -22 6 -3 7 -12 3 -18 -10 -17 -10 -80 1 -94 5 -9
4 -13 -5 -13 -12 0 -12 -2 0 -9 9 -6 10 -11 2 -15 -8 -5 -8 -13 1 -29 12 -23
12 -25 -3 -44 -7 -7 -6 -14 1 -18 6 -3 7 -11 3 -18 -9 -15 -10 -88 -1 -94 5
-2 5 -10 1 -16 -19 -31 2 -89 33 -92 18 -2 34 -7 79 -24 11 -5 28 -7 38 -5 9
1 17 -2 17 -7 0 -5 10 -9 23 -8 12 0 16 3 9 6 -10 4 -10 8 -1 19 9 11 9 14 0
14 -9 0 -9 5 -1 20 8 14 8 20 0 20 -6 0 -8 5 -4 12 11 17 11 72 0 79 -5 4 -5
13 0 20 12 20 12 69 -1 69 -6 0 -7 3 0 8 6 4 10 16 10 27 0 11 -4 23 -10 27
-7 5 -6 8 0 8 13 0 14 72 1 81 -5 4 -5 13 0 20 12 20 12 69 -1 69 -6 0 -7 3 0
8 6 4 10 16 10 27 0 11 -4 23 -10 27 -7 5 -6 8 0 8 13 0 14 72 1 81 -5 4 -5
13 0 20 11 19 13 49 2 49 -5 0 -6 5 -2 12 11 17 11 72 0 79 -5 4 -5 13 0 20
12 20 12 69 -1 69 -6 0 -7 3 0 8 6 4 10 16 10 27 0 11 -4 23 -10 27 -7 5 -6 8
0 8 13 0 14 72 1 81 -5 4 -5 13 0 20 12 20 12 69 -1 69 -6 0 -7 3 0 8 6 4 10
16 10 27 0 11 -4 23 -10 27 -7 5 -6 8 0 8 13 0 14 72 1 81 -5 4 -5 13 0 20 10
17 12 57 3 71 -4 6 -3 22 2 35 6 16 5 23 -4 23 -7 0 -8 3 -2 8 12 9 13 75 1
83 -5 4 -5 13 0 20 12 20 12 69 -1 69 -6 0 -7 3 0 8 13 9 14 55 0 64 -6 5 -6
8 0 8 6 0 10 14 10 30 0 17 -4 30 -8 30 -5 0 -5 5 -1 12 11 17 11 72 0 79 -5
4 -5 13 0 20 12 19 11 62 -1 71 -7 5 -6 8 0 8 12 0 13 46 2 57 -4 3 -2 12 4
20 9 10 8 13 0 13 -7 0 -9 5 -5 11 11 18 12 79 1 79 -5 0 -4 6 2 14 9 10 9 16
1 21 -8 5 -8 11 1 21 9 11 9 14 0 14 -7 0 -9 5 -5 11 11 18 12 79 1 79 -6 0
-6 5 0 13 5 6 8 26 7 44 -2 24 1 30 12 26 8 -3 14 -9 14 -15 0 -5 4 -7 9 -3 5
3 15 -1 23 -8 7 -7 39 -28 71 -47 31 -19 57 -38 57 -42 0 -4 9 -8 20 -8 11 0
20 -4 20 -10 0 -5 7 -10 15 -10 8 0 15 -4 15 -10 0 -5 6 -10 13 -10 7 0 22 -8
33 -19 11 -10 30 -22 42 -25 12 -4 22 -12 22 -17 0 -6 5 -7 10 -4 6 3 10 1 10
-4 0 -6 7 -11 15 -11 8 0 15 -4 15 -10 0 -5 7 -10 15 -10 8 0 15 -4 15 -10 0
-5 9 -10 21 -10 11 0 17 -4 14 -10 -3 -5 1 -10 9 -10 9 0 24 -8 34 -17 10 -10
25 -19 33 -21 8 -2 16 -8 17 -13 2 -5 10 -9 18 -9 8 0 14 -4 14 -10 0 -5 7
-10 15 -10 9 0 18 -7 21 -15 4 -8 10 -13 14 -10 5 3 15 0 22 -7 7 -7 25 -22
38 -33 l25 -20 -15 20 -15 20 25 -20 c14 -11 27 -22 30 -25 3 -3 17 -11 33
-19 15 -8 27 -18 27 -23 0 -4 6 -8 13 -8 18 0 78 -46 70 -53 -3 -4 -2 -7 4 -7
5 0 10 -7 10 -15 0 -8 -5 -15 -10 -15 -5 0 -4 -6 2 -14 8 -10 9 -16 1 -21 -6
-3 -8 -11 -4 -16 10 -17 10 -89 -1 -89 -7 0 -7 -3 0 -8 9 -6 11 -22 5 -47 -1
-5 -1 -14 0 -20 7 -31 4 -85 -5 -85 -7 0 -7 -3 0 -8 11 -8 13 -32 3 -47 -4 -6
-3 -17 2 -25 5 -8 5 -22 -1 -32 -5 -10 -6 -18 -1 -18 5 0 9 -7 9 -15 0 -8 -5
-15 -10 -15 -5 0 -5 -6 2 -13 8 -10 7 -17 -1 -25 -9 -9 -9 -12 0 -12 9 0 10
-5 2 -19 -7 -13 -7 -22 0 -26 7 -4 7 -12 0 -25 -7 -13 -7 -21 0 -25 8 -5 7
-11 -1 -21 -6 -8 -8 -14 -3 -14 5 0 9 -13 9 -30 0 -16 -4 -30 -9 -30 -5 0 -5
-6 0 -12 11 -16 11 -39 1 -55 -5 -7 -4 -13 0 -13 5 0 9 -13 8 -30 0 -16 -4
-30 -10 -30 -7 0 -7 -3 0 -8 6 -4 10 -14 10 -22 0 -8 -4 -18 -10 -22 -7 -5 -7
-10 0 -15 14 -11 17 -33 4 -33 -8 0 -8 -4 0 -13 8 -10 7 -17 -1 -25 -9 -9 -9
-12 0 -12 9 0 10 -5 2 -19 -7 -14 -7 -22 0 -26 8 -5 7 -11 -1 -21 -6 -8 -7
-14 -2 -14 5 0 10 -7 10 -15 0 -8 -5 -15 -10 -15 -5 0 -5 -6 2 -13 8 -10 7
-17 -1 -25 -9 -9 -9 -12 0 -12 9 0 10 -5 2 -19 -5 -11 -6 -22 -2 -25 10 -6 9
-42 -1 -52 -3 -4 -2 -15 4 -25 6 -13 6 -19 0 -19 -7 0 -7 -9 -1 -25 7 -17 6
-25 -1 -25 -7 0 -8 -5 -3 -12 11 -16 11 -39 1 -55 -5 -7 -4 -13 0 -13 5 0 9
-13 8 -30 0 -16 -4 -30 -10 -30 -7 0 -7 -3 0 -8 6 -4 10 -14 10 -22 0 -8 -4
-18 -10 -22 -7 -5 -7 -10 0 -15 14 -11 17 -33 4 -33 -8 0 -8 -4 0 -13 8 -10 7
-17 -1 -25 -9 -9 -9 -12 0 -12 9 0 10 -5 2 -19 -7 -14 -7 -22 0 -26 8 -5 7
-11 -1 -21 -6 -8 -7 -14 -2 -14 5 0 10 -7 10 -15 0 -8 -5 -15 -10 -15 -5 0 -5
-6 2 -13 8 -10 7 -17 -1 -25 -9 -9 -9 -12 0 -12 9 0 10 -5 2 -19 -5 -11 -6
-22 -2 -25 10 -6 9 -42 -1 -52 -3 -4 -2 -15 4 -25 6 -13 6 -19 0 -19 -7 0 -7
-9 -1 -25 7 -17 6 -25 -1 -25 -7 0 -8 -5 -3 -12 11 -16 11 -39 1 -55 -5 -7 -4
-13 0 -13 5 0 9 -14 8 -30 0 -16 -4 -30 -10 -30 -7 0 -7 -3 0 -8 6 -4 10 -14
10 -22 0 -8 -4 -18 -10 -22 -7 -5 -7 -10 0 -15 14 -11 17 -33 4 -33 -8 0 -8
-4 0 -13 8 -10 7 -17 -1 -25 -9 -9 -9 -12 0 -12 9 0 10 -5 2 -19 -7 -14 -7
-22 0 -26 8 -5 7 -11 -1 -21 -6 -8 -7 -14 -2 -14 5 0 10 -7 10 -15 0 -8 -5
-15 -10 -15 -5 0 -5 -6 2 -13 8 -10 7 -17 -1 -25 -9 -9 -9 -12 0 -12 9 0 10
-5 2 -19 -5 -11 -6 -22 -2 -25 10 -6 9 -42 -1 -52 -3 -4 -2 -15 4 -25 6 -13 6
-19 0 -19 -7 0 -7 -9 -1 -25 7 -17 6 -25 -1 -25 -7 0 -8 -5 -3 -12 11 -16 11
-39 1 -55 -5 -7 -4 -13 0 -13 5 0 9 -13 8 -30 0 -16 -4 -30 -10 -30 -7 0 -7
-3 0 -8 6 -4 10 -14 10 -22 0 -8 -4 -18 -10 -22 -7 -6 -7 -11 0 -15 14 -11 17
-33 4 -33 -8 0 -8 -4 0 -13 8 -10 7 -17 -1 -25 -9 -9 -9 -12 0 -12 9 0 10 -5
3 -19 -6 -10 -7 -21 -4 -25 10 -10 9 -66 -2 -66 -7 0 -7 -3 0 -8 11 -8 13 -37
3 -48 -4 -3 -3 -14 2 -24 5 -10 7 -20 3 -23 -3 -3 -2 -18 1 -34 6 -21 9 -24
17 -12 5 7 9 10 9 4 0 -6 41 -9 105 -8 79 1 104 -1 99 -10 -3 -7 2 -3 10 7 9
11 16 16 16 10 0 -12 103 -12 112 1 5 7 8 7 8 0 0 -10 389 -12 416 -1 8 3 14
1 14 -4 0 -6 -5 -10 -12 -10 -6 0 -8 -3 -5 -6 4 -4 13 -2 20 4 8 7 64 11 154
10 77 0 146 3 152 6 6 4 11 2 11 -3 0 -6 -5 -11 -12 -11 -6 0 -8 -3 -5 -6 4
-4 13 -2 20 4 8 7 64 11 154 10 77 0 146 3 152 6 6 4 11 2 11 -3 0 -6 -5 -11
-12 -11 -6 0 -8 -3 -5 -6 4 -4 13 -2 20 4 8 7 64 11 154 10 77 0 146 3 152 6
6 4 11 2 11 -3 0 -6 -5 -11 -12 -11 -6 0 -8 -3 -5 -6 4 -4 13 -2 20 4 19 16
229 14 221 -2 -3 -6 2 -2 10 8 9 11 16 16 16 10 0 -12 103 -12 112 1 5 6 8 5
8 -2 0 -9 7 -10 24 -3 13 5 26 7 29 4 3 -3 3 18 1 46 -2 35 1 48 8 44 8 -5 8
-2 2 7 -12 19 -12 62 1 71 6 5 6 8 -2 8 -6 0 -10 10 -9 23 l3 22 -996 0 -996
0 -1 1537 0 1538 -22 20 c-11 11 -26 20 -31 20 -6 0 -14 7 -19 16 -5 9 -12 15
-16 14 -11 -2 -66 34 -66 43 0 4 -4 5 -10 2 -5 -3 -10 -2 -10 4 0 6 -19 19
-42 30 -24 11 -38 21 -33 21 6 0 -9 9 -32 20 -24 10 -43 24 -43 30 0 5 -7 10
-15 10 -8 0 -15 5 -15 11 0 5 -4 7 -10 4 -5 -3 -10 -2 -10 3 0 5 -12 15 -27
23 -16 8 -37 22 -47 32 -11 9 -26 17 -33 17 -7 0 -13 4 -13 9 0 5 -9 13 -20
16 -11 4 -32 18 -45 31 -14 14 -25 20 -25 14 0 -7 -5 -6 -14 2 -8 7 -11 17 -8
22 3 5 0 6 -6 2 -6 -3 -13 -2 -17 4 -4 6 -11 8 -16 5 -5 -4 -9 1 -9 10 0 9 -4
14 -8 11 -5 -3 -19 4 -31 15 -12 11 -26 17 -31 14 -6 -4 -9 -2 -8 3 2 6 -1 10
-5 10 -5 1 -15 9 -24 19 -9 11 -12 12 -8 3 4 -8 -3 -4 -14 9 -12 13 -21 20
-21 16 0 -3 -7 0 -15 7 -34 31 -43 36 -49 31 -3 -4 -6 0 -6 7 0 7 -3 11 -6 7
-6 -6 -17 1 -53 34 -9 8 -23 13 -29 11 -7 -2 -12 4 -12 13 0 9 -4 13 -10 10
-5 -3 -10 -1 -10 5 0 6 -4 8 -10 5 -5 -3 -10 -1 -10 4 0 6 -6 11 -13 11 -7 0
-26 12 -43 28 -18 15 -38 28 -45 30 -8 2 -17 9 -21 15 -6 9 -8 8 -8 -1z"/>
<path d="M6194 7082 c-6 -4 -10 -52 -9 -125 l1 -119 34 -17 c19 -9 50 -26 69
-38 19 -12 38 -20 42 -18 4 3 10 -2 13 -11 4 -10 12 -14 23 -10 10 4 14 4 10
0 -6 -7 60 -49 96 -61 9 -3 17 -10 17 -15 0 -5 5 -6 10 -3 6 3 10 2 10 -3 0
-4 16 -14 35 -22 19 -7 32 -17 29 -22 -3 -5 -2 -8 3 -7 22 4 41 -3 61 -21 12
-12 22 -18 22 -14 0 4 8 0 18 -8 9 -8 32 -21 50 -29 17 -8 32 -17 32 -21 0 -5
7 -8 15 -8 8 0 15 -5 15 -11 0 -5 4 -8 9 -5 5 3 14 -1 21 -9 6 -7 17 -12 23
-9 15 5 16 54 2 54 -5 0 -3 5 5 10 13 9 13 11 0 20 -8 5 -10 10 -5 10 6 0 10
29 10 69 0 38 -3 67 -6 65 -4 -2 -19 7 -35 21 -15 13 -31 22 -36 19 -4 -3 -8
0 -8 6 0 6 -4 8 -10 5 -5 -3 -10 -2 -10 3 0 5 -13 15 -30 22 -16 7 -30 16 -30
21 0 5 -7 9 -16 9 -8 0 -22 7 -31 15 -8 8 -19 13 -24 10 -5 -4 -9 2 -9 12 0
15 -2 16 -10 3 -8 -13 -10 -12 -10 3 0 10 -8 17 -20 17 -11 0 -20 5 -20 11 0
5 -4 7 -10 4 -5 -3 -10 -2 -10 3 0 6 -12 15 -27 21 -46 19 -107 55 -116 69 -4
6 -17 12 -27 12 -11 0 -20 5 -20 10 0 6 -9 10 -21 10 -11 0 -17 5 -14 10 6 9
-8 14 -27 11 -5 0 -8 3 -8 8 0 5 -16 15 -34 22 -19 7 -33 16 -30 21 6 10 2 10
-12 0z"/>
<path d="M6187 6632 c-2 -4 -3 -58 -3 -119 1 -100 4 -114 21 -127 11 -9 26
-16 33 -16 6 0 12 -5 12 -11 0 -6 7 -8 17 -5 10 4 14 4 10 0 -3 -4 19 -20 50
-37 32 -16 64 -36 71 -44 7 -7 18 -11 23 -8 5 4 9 1 9 -6 0 -7 3 -9 6 -6 4 3
18 -3 32 -13 13 -11 30 -20 37 -20 7 0 15 -7 19 -15 3 -8 12 -15 20 -15 22 0
77 -35 69 -44 -4 -4 1 -4 11 0 14 5 17 4 12 -5 -4 -6 -4 -10 1 -9 12 4 93 -35
93 -45 0 -4 5 -5 10 -2 6 3 10 1 10 -5 0 -6 4 -9 9 -6 5 3 14 -1 21 -9 7 -8
21 -15 32 -15 11 0 16 -4 12 -11 -4 -7 1 -10 12 -7 21 4 26 26 11 46 -6 7 -6
12 0 12 5 0 8 39 7 88 -2 55 -7 86 -13 84 -6 -1 -11 3 -11 9 0 5 -4 8 -9 5 -5
-3 -12 1 -15 10 -3 8 -10 12 -16 9 -5 -3 -10 -1 -10 4 0 6 -7 11 -15 11 -8 0
-15 5 -15 11 0 5 -4 8 -9 5 -5 -4 -11 -3 -13 1 -4 10 -76 52 -100 60 -10 3
-18 10 -18 15 0 5 -4 6 -10 3 -5 -3 -10 -2 -10 3 0 5 -8 12 -17 16 -17 5 -29
12 -84 48 -14 10 -29 15 -33 11 -3 -3 -6 -2 -6 4 0 5 -18 18 -40 28 -22 10
-40 22 -40 27 0 4 -5 8 -12 8 -6 0 -23 10 -36 23 -14 12 -22 16 -18 10 11 -19
-2 -16 -26 7 -12 11 -28 20 -35 20 -7 0 -13 4 -13 9 0 11 -39 22 -43 13z"/>
<path d="M5269 5673 c-5 -66 -2 -423 5 -423 5 0 3 -7 -4 -15 -10 -12 -10 -15
1 -15 11 0 11 -2 -1 -10 -13 -9 -11 -13 10 -30 14 -10 26 -15 28 -10 2 6 19 3
38 -5 25 -10 34 -11 34 -2 0 8 3 8 8 2 4 -5 16 -11 27 -13 11 -2 27 -5 35 -9
13 -4 68 -12 123 -16 9 -1 17 -4 17 -7 0 -4 6 -7 13 -8 6 0 29 -2 50 -3 20 -1
37 -7 37 -12 0 -6 3 -7 8 -3 4 4 7 109 8 232 1 218 0 225 -20 236 -12 6 -22
11 -23 10 -3 -2 -6 -1 -20 3 -5 1 -27 5 -50 10 -24 4 -43 11 -43 15 0 5 -11 7
-25 6 -14 -2 -22 1 -18 7 3 5 0 7 -8 5 -8 -3 -28 1 -45 8 -17 7 -34 10 -38 7
-3 -4 -6 -1 -6 4 0 6 -8 10 -17 8 -10 -1 -27 5 -37 14 -11 9 -16 10 -12 4 4
-7 2 -13 -3 -13 -6 0 -11 4 -11 10 0 5 -6 7 -14 4 -8 -3 -17 -1 -21 5 -7 13
-25 15 -26 4z"/>
<path d="M5003 5663 c-13 -2 -23 -9 -23 -14 0 -6 -5 -7 -10 -4 -6 4 -17 1 -25
-5 -10 -9 -15 -9 -15 -1 0 6 -15 2 -36 -10 -20 -11 -39 -18 -41 -15 -3 3 -21
-1 -39 -9 -24 -10 -34 -11 -34 -3 0 7 -6 4 -13 -7 -10 -12 -16 -15 -21 -6 -5
8 -11 7 -22 -4 -9 -8 -23 -15 -32 -16 -9 0 -26 -3 -37 -5 -11 -3 -26 -6 -32
-6 -7 -1 -13 -5 -13 -9 0 -5 -7 -6 -15 -3 -8 4 -15 2 -15 -3 0 -8 -15 -12 -57
-15 -7 -1 -13 -5 -13 -9 0 -5 -7 -6 -15 -3 -8 4 -15 1 -15 -6 0 -6 -4 -9 -10
-5 -12 7 -61 -5 -56 -14 3 -4 -8 -6 -25 -5 -16 1 -29 -3 -29 -8 0 -6 -9 -8
-20 -5 -10 3 -21 0 -23 -6 -2 -6 -19 -12 -38 -14 -19 -2 -42 -4 -51 -5 -10 -1
-18 -5 -18 -8 0 -4 -7 -7 -15 -8 -8 -1 -22 -3 -30 -4 -8 -1 -15 -5 -15 -10 0
-4 -3 -7 -7 -7 -27 4 -45 -3 -40 -15 3 -7 0 -19 -6 -25 -8 -8 -8 -11 0 -11 8
0 9 -9 3 -30 -6 -20 -5 -30 2 -30 7 0 6 -5 -1 -14 -8 -9 -8 -16 -2 -20 7 -5 7
-15 1 -31 -5 -14 -6 -25 -2 -25 4 0 7 -13 8 -30 1 -16 -3 -27 -7 -24 -5 3 -5
-5 0 -18 4 -13 5 -35 0 -50 -4 -16 -4 -28 1 -28 6 0 6 -10 0 -25 -14 -37 3
-37 190 -2 8 1 20 5 25 8 6 3 31 5 57 5 25 -1 46 3 45 9 -1 5 11 8 27 7 15 -2
26 0 23 5 -3 5 9 8 26 7 18 -1 35 3 39 9 6 9 8 8 8 -2 0 -10 3 -11 13 -3 7 6
28 13 47 16 74 9 155 23 155 26 0 3 42 11 81 14 23 2 45 5 50 8 5 3 22 8 37
12 22 5 27 4 22 -6 -4 -7 0 -6 7 4 11 12 18 14 32 6 15 -8 17 -8 11 2 -6 10
-4 12 8 7 10 -3 17 -3 17 2 0 5 10 8 23 7 19 -1 22 4 22 34 -1 19 4 38 10 42
7 5 7 8 0 8 -6 0 -11 9 -11 20 0 11 5 20 11 20 5 0 3 5 -5 10 -13 9 -13 10 0
10 13 0 13 1 0 10 -12 8 -13 11 -1 19 9 6 10 11 2 15 -6 4 -11 12 -11 17 0 6
4 8 8 5 5 -3 9 1 9 9 0 8 -4 12 -8 10 -4 -3 -6 6 -5 20 0 14 5 25 11 25 5 0 4
5 -3 12 -15 15 -16 31 0 22 7 -5 8 -3 3 7 -13 20 -13 49 -1 49 6 0 4 5 -4 10
-13 9 -13 10 0 10 13 0 13 1 0 10 -12 8 -13 11 -1 19 9 6 10 11 2 15 -6 4 -11
12 -11 17 0 6 5 7 11 3 8 -5 8 -1 0 14 -8 15 -8 22 2 25 14 6 -39 6 -70 0z"/>
<path d="M5056 4993 c-7 -7 -31 -11 -83 -15 -13 -1 -23 -6 -23 -11 0 -4 -4 -6
-9 -3 -5 4 -12 0 -14 -6 -4 -10 -6 -10 -6 -1 -1 9 -8 10 -27 3 -14 -6 -30 -8
-35 -4 -5 3 -9 1 -9 -4 0 -5 -16 -8 -34 -7 -19 1 -33 -2 -30 -7 4 -7 -32 -12
-73 -11 -7 1 -13 -4 -13 -9 0 -6 -9 -8 -19 -5 -15 4 -20 -2 -23 -24 -3 -16 -1
-29 4 -29 5 0 6 -5 2 -12 -10 -16 -12 -58 -2 -58 4 0 3 -12 -3 -27 -7 -19 -6
-28 2 -34 7 -4 8 -12 3 -20 -11 -19 -13 -49 -2 -49 5 0 4 -9 -2 -20 -8 -15 -8
-20 1 -20 8 0 8 -4 -1 -15 -10 -12 -10 -15 0 -15 10 0 10 -3 0 -15 -9 -11 -9
-15 -1 -15 7 0 9 -5 5 -12 -11 -18 -12 -48 -2 -48 5 0 6 -5 3 -11 -9 -14 -12
-88 -3 -83 3 2 9 -2 12 -8 5 -10 7 -10 12 -1 4 9 11 10 23 3 10 -5 21 -6 25
-3 5 6 76 14 144 16 12 1 22 6 22 12 0 5 4 4 9 -4 7 -10 13 -11 30 -2 16 9 21
9 21 -1 0 -10 2 -10 8 -1 4 6 29 13 54 14 l47 3 -3 48 c-2 29 2 48 8 48 7 0 7
3 1 8 -14 10 -15 42 -1 42 6 0 4 5 -4 10 -13 9 -13 10 0 10 13 0 13 1 0 10
-12 8 -13 11 -1 19 9 6 10 11 2 15 -6 4 -11 12 -11 17 0 6 4 8 8 5 5 -3 9 1 9
9 0 8 -4 12 -8 10 -4 -3 -6 6 -5 20 0 14 5 25 11 25 5 0 4 5 -3 12 -15 15 -16
31 0 22 7 -5 8 -3 3 7 -13 20 -13 49 -1 49 6 0 4 5 -4 10 -13 9 -13 10 0 10
13 0 13 1 0 10 -12 8 -13 11 -1 19 9 6 10 11 2 15 -6 4 -11 12 -11 17 0 6 4 8
8 5 5 -3 9 1 9 9 0 8 -4 12 -9 9 -10 -7 -10 -1 2 31 7 19 7 24 -2 19 -8 -5 -9
-2 -5 9 7 18 5 21 -7 10z"/>
<path d="M5273 4977 c-5 -8 -8 -394 -4 -523 1 -21 4 -22 66 -25 20 0 32 -5 29
-11 -4 -6 1 -6 13 1 11 6 23 8 26 5 5 -5 70 -13 152 -17 17 -1 33 -6 37 -12 5
-6 8 -5 8 3 0 8 5 10 13 5 6 -4 23 -8 37 -9 14 -1 47 -3 73 -5 27 -1 50 -6 53
-11 3 -4 13 -4 23 2 10 5 21 6 25 3 7 -7 43 -12 118 -16 27 -1 48 -6 48 -12 0
-5 5 -3 10 5 5 8 10 11 10 5 0 -5 19 -10 43 -9 23 0 46 -2 51 -4 5 -3 33 -6
63 -8 29 -3 59 -5 65 -7 7 -1 12 16 13 46 2 29 -2 47 -9 47 -8 0 -8 2 0 8 15
10 14 343 -1 358 -5 6 -17 11 -25 12 -23 1 -59 10 -72 18 -7 5 -8 3 -3 -5 6
-10 3 -11 -13 -2 -11 6 -32 11 -47 11 -14 0 -24 3 -22 8 3 4 -7 8 -21 8 -35 2
-79 11 -93 20 -8 5 -9 3 -4 -5 6 -10 3 -11 -14 -1 -12 6 -35 12 -51 12 -16 1
-27 4 -25 9 3 4 -3 6 -12 4 -10 -1 -24 2 -30 8 -9 6 -13 6 -13 -3 0 -9 -4 -9
-12 -3 -7 6 -21 11 -30 12 -10 1 -27 2 -38 3 -11 1 -20 5 -20 9 0 3 -11 5 -25
4 -14 -2 -25 2 -25 8 0 7 -5 5 -10 -3 -6 -10 -10 -11 -10 -2 0 7 -14 12 -36
12 -19 0 -33 3 -31 8 3 4 -7 8 -21 8 -58 3 -102 9 -102 14 0 3 -12 7 -26 8
-14 1 -31 5 -36 8 -19 12 -88 12 -95 1z"/>
<path d="M4409 4866 c-6 -6 -58 -18 -86 -20 -13 0 -23 -3 -23 -6 0 -6 -36 -12
-87 -14 -17 0 -29 -4 -26 -8 3 -7 -45 -13 -69 -9 -5 0 -8 -3 -8 -8 0 -4 -11
-7 -25 -6 -14 2 -27 -1 -31 -6 -3 -5 -10 -9 -15 -9 -6 0 -7 6 -3 13 6 9 5 9
-7 0 -15 -12 -67 -25 -106 -26 -13 -1 -23 -4 -23 -7 0 -6 -33 -11 -77 -13 -13
-1 -23 -4 -23 -9 0 -4 -7 -5 -15 -2 -8 4 -15 2 -15 -3 0 -4 -17 -8 -37 -8 -21
1 -43 -3 -50 -8 -6 -4 -28 -9 -47 -10 -24 -1 -35 -6 -31 -14 2 -7 1 -13 -3
-13 -4 0 -7 -16 -7 -35 0 -19 3 -35 8 -35 4 0 5 -5 1 -12 -11 -18 -12 -68 -2
-68 5 0 6 -5 2 -12 -10 -16 -11 -108 -1 -108 4 0 5 -5 1 -11 -11 -18 -12 -69
-2 -69 6 0 6 -5 -1 -14 -8 -10 -8 -16 2 -25 8 -6 16 -8 19 -5 6 5 97 15 156
16 17 0 32 5 32 12 0 6 5 4 10 -4 5 -8 10 -10 10 -5 0 6 15 9 32 9 18 -1 38 3
45 8 7 6 14 5 18 -2 5 -8 10 -8 20 0 10 8 15 8 20 0 4 -7 11 -8 18 -2 7 5 19
9 27 10 8 0 42 3 75 7 33 3 79 7 103 7 23 1 42 7 42 12 0 6 5 4 10 -4 5 -8 10
-10 10 -4 0 6 25 10 64 10 35 -1 62 2 60 6 -2 3 10 6 28 6 53 0 55 1 54 30 -1
15 2 37 6 50 4 13 3 22 -3 22 -6 0 -6 7 1 20 6 11 7 20 2 20 -10 0 -9 30 2 48
4 6 3 12 -3 12 -6 0 -6 11 -1 29 5 19 5 31 -1 33 -7 2 -7 13 0 31 6 15 7 27 1
27 -5 0 -5 12 0 30 5 17 5 30 1 30 -9 0 -8 31 3 48 4 6 3 12 -2 12 -5 0 -7 14
-4 30 3 23 0 30 -12 30 -9 0 -16 -6 -16 -12 0 -10 -2 -10 -8 0 -5 7 -10 10
-13 8z"/>
<path d="M5060 4233 c0 -5 -27 -8 -61 -8 -33 0 -63 -3 -65 -7 -3 -4 -10 -8
-15 -8 -6 0 -7 5 -3 11 5 8 1 8 -14 0 -11 -6 -28 -8 -36 -5 -9 3 -16 2 -16 -2
0 -5 -20 -8 -45 -7 -25 0 -48 -3 -51 -8 -3 -6 -12 -5 -21 2 -9 8 -17 9 -21 3
-4 -5 -29 -10 -57 -11 -27 -1 -83 -4 -122 -5 -40 -2 -73 -6 -73 -9 0 -3 -18
-5 -40 -4 -22 1 -40 -3 -40 -8 0 -5 -7 -4 -15 3 -8 7 -15 8 -15 3 0 -6 -12 -9
-27 -7 -15 1 -35 -2 -44 -7 -12 -6 -20 -5 -24 1 -5 8 -11 7 -21 -1 -11 -9 -14
-8 -14 2 0 9 -3 10 -8 4 -4 -6 -29 -12 -57 -14 -108 -7 -100 -4 -100 -44 0
-20 -3 -37 -7 -37 -3 0 -4 -8 -2 -17 9 -32 9 -433 1 -433 -4 0 -2 -6 5 -14 9
-10 15 -11 20 -2 5 7 8 7 8 1 0 -13 89 -13 109 -1 9 6 12 5 8 -1 -9 -14 45
-12 55 2 5 7 8 6 8 -1 0 -12 69 -12 89 1 9 5 12 4 8 -2 -4 -5 7 -10 23 -10 17
0 30 5 30 11 0 7 3 8 8 1 4 -6 34 -10 67 -10 33 0 63 4 67 10 5 7 8 7 8 0 0
-13 109 -13 129 -1 9 6 12 5 8 -1 -4 -5 7 -10 23 -10 17 0 30 5 30 10 0 6 5 6
13 0 15 -13 47 -13 47 0 0 6 5 6 13 0 15 -12 86 -11 106 1 9 6 12 5 8 0 -7
-12 83 -12 102 0 10 6 12 5 7 -2 -5 -8 -2 -10 8 -6 12 5 15 18 13 60 -2 29 -1
51 3 49 4 -2 7 2 7 10 0 8 -4 12 -8 10 -4 -3 -6 6 -5 20 0 14 5 25 11 25 5 0
4 5 -3 12 -15 15 -16 31 0 22 7 -5 8 -3 3 7 -13 20 -13 49 -1 49 6 0 4 5 -4
10 -13 9 -13 10 0 10 13 0 13 1 0 10 -12 8 -13 11 -1 19 9 6 10 11 2 15 -6 4
-11 12 -11 17 0 6 4 8 8 5 5 -3 9 1 9 9 0 8 -4 12 -8 10 -4 -3 -6 6 -5 20 0
14 5 25 11 25 5 0 4 5 -3 12 -15 15 -16 31 0 22 7 -5 8 -3 3 7 -13 20 -13 49
-1 49 6 0 4 5 -4 10 -13 9 -13 10 0 10 13 0 13 1 0 10 -12 8 -13 11 -1 19 9 6
10 11 2 15 -6 4 -11 12 -11 17 0 6 5 7 11 3 8 -4 8 -1 1 12 -5 11 -7 25 -5 32
3 6 2 12 -1 12 -3 0 -6 -3 -6 -7z"/>
<path d="M5295 4229 c-4 -5 -11 -7 -16 -4 -11 7 -10 27 -12 -238 -1 -119 0
-217 3 -217 10 0 5 -115 -5 -122 -6 -5 -6 -8 2 -8 6 0 9 -9 5 -22 -3 -13 -1
-19 6 -15 5 4 12 1 15 -5 3 -10 7 -10 17 -1 10 9 18 9 33 1 15 -7 22 -7 28 3
5 8 9 9 9 4 0 -13 123 -13 132 0 5 7 8 6 8 0 0 -13 109 -13 129 -1 9 6 12 5 8
-1 -4 -5 7 -10 23 -10 17 0 30 5 30 10 0 5 6 4 14 -2 11 -9 15 -7 19 9 3 11 1
20 -4 20 -6 0 -5 8 1 20 8 14 8 20 0 20 -8 0 -8 6 0 20 8 14 8 20 0 20 -8 0
-8 6 0 20 8 14 8 20 0 20 -8 0 -8 6 0 20 8 14 8 20 0 20 -8 0 -8 6 0 20 6 12
7 20 1 20 -10 0 -9 25 2 36 3 4 2 15 -4 25 -6 13 -6 19 0 19 7 0 7 9 1 25 -6
16 -6 25 1 25 6 0 6 8 -2 21 -8 16 -8 20 1 14 9 -6 9 -2 1 14 -8 13 -8 21 -2
21 7 0 7 9 1 25 -6 16 -6 25 1 25 6 0 6 8 -2 21 -8 15 -8 19 0 15 6 -4 11 -3
11 3 0 5 -5 11 -11 13 -9 3 -9 9 -1 25 11 19 8 22 -32 36 -25 8 -47 13 -50 9
-11 -11 -36 -11 -36 0 0 7 -5 6 -14 -1 -8 -7 -17 -8 -20 -3 -3 5 -20 9 -38 10
-18 1 -43 4 -55 6 -14 3 -23 0 -23 -7 0 -8 -3 -7 -9 2 -5 8 -16 11 -25 8 -8
-3 -18 -2 -22 4 -4 6 -11 6 -20 -2 -10 -8 -14 -8 -14 -1 0 6 -6 9 -13 6 -8 -3
-25 0 -40 5 -17 7 -28 7 -32 0z"/>
<path d="M5942 4157 c-1 -7 -3 -23 -5 -37 -1 -14 1 -28 6 -31 5 -4 4 -16 -2
-28 -8 -15 -9 -21 -1 -21 6 0 8 -5 4 -12 -11 -17 -11 -58 -1 -58 4 0 3 -9 -3
-19 -7 -14 -6 -21 3 -24 9 -4 8 -6 -2 -6 -10 -1 -11 -4 -2 -15 8 -9 8 -16 2
-20 -6 -4 -7 -15 -2 -29 5 -14 5 -30 0 -40 -7 -11 -6 -17 1 -17 6 0 8 -5 3
-12 -10 -17 -10 -52 1 -59 4 -4 3 -16 -3 -28 -8 -15 -8 -21 -1 -21 7 0 8 -6 1
-17 -5 -10 -5 -26 -1 -39 5 -12 7 -24 4 -27 -3 -2 6 -4 18 -3 13 0 26 6 30 11
5 7 8 6 8 0 0 -13 89 -13 109 -1 9 6 12 5 8 -1 -9 -14 45 -12 55 2 5 7 8 6 8
-1 0 -12 69 -12 89 1 9 5 12 4 8 -2 -9 -14 45 -12 55 2 5 7 8 6 8 -1 0 -12 69
-12 89 1 9 5 12 4 8 -2 -9 -14 45 -12 55 2 5 7 8 6 8 -1 0 -12 69 -12 89 1 9
5 12 4 8 -2 -9 -14 45 -12 55 2 5 7 8 6 8 -1 0 -8 51 -11 102 -5 3 1 6 115 6
254 l0 253 -62 2 c-70 2 -86 5 -102 15 -6 3 -14 4 -18 0 -9 -9 -56 -10 -56 -1
0 4 -18 6 -40 4 -22 -2 -40 0 -40 3 0 3 -24 6 -53 5 -28 0 -62 4 -75 8 -16 5
-21 5 -16 -3 4 -8 1 -8 -12 -2 -11 5 -30 9 -44 9 -14 -1 -28 4 -32 9 -5 6 -8
6 -8 -1 0 -8 -11 -9 -34 -4 -19 4 -37 5 -40 3 -2 -3 -11 -1 -18 3 -17 11 -40
11 -55 0 -7 -5 -13 -5 -13 0 0 14 -106 15 -108 1z"/>
<path d="M3713 4119 c-5 -5 -35 -10 -66 -12 -31 -1 -57 -6 -57 -10 0 -4 -8 -3
-19 2 -10 6 -21 8 -24 5 -7 -7 -75 -14 -154 -17 -29 -1 -53 -4 -53 -8 0 -3
-20 -4 -45 -4 -25 1 -45 -2 -45 -7 0 -5 -9 -4 -20 2 -14 7 -20 7 -20 0 0 -5
-5 -10 -11 -10 -5 0 -7 6 -3 13 6 9 4 9 -7 1 -8 -6 -27 -11 -43 -10 -15 1 -30
-4 -33 -11 -3 -7 -9 -11 -13 -8 -10 6 -7 -21 3 -31 3 -4 2 -15 -3 -25 -7 -12
-6 -19 3 -22 9 -3 9 -7 -1 -19 -10 -12 -10 -17 -1 -20 9 -3 9 -9 -1 -27 -10
-19 -10 -22 2 -15 11 6 11 5 0 -8 -7 -9 -9 -19 -4 -21 9 -6 7 -101 -2 -116 -4
-5 0 -11 6 -14 10 -3 10 -7 -1 -20 -8 -10 -9 -17 -3 -17 11 0 11 -38 -1 -56
-18 -29 93 -54 132 -30 9 6 12 5 8 -1 -9 -14 45 -12 55 2 5 7 8 6 8 -1 0 -12
69 -12 89 1 9 5 12 4 8 -2 -4 -5 7 -10 23 -10 17 0 30 5 30 11 0 7 3 8 8 1 4
-6 34 -10 67 -10 33 0 63 4 67 10 5 7 8 7 8 0 0 -13 109 -13 129 -1 9 6 12 5
8 -1 -4 -5 7 -10 23 -10 17 0 30 5 30 10 0 5 6 4 14 -2 7 -6 21 -9 30 -5 14 5
16 35 16 264 l0 258 -30 4 c-16 3 -30 2 -30 -2 0 -8 -42 -7 -56 2 -6 4 -15 3
-21 -3z"/>
<path d="M1300 3254 c0 -7 -14 -10 -35 -7 -19 2 -35 0 -35 -5 0 -4 -13 -7 -30
-6 -16 1 -30 -1 -30 -6 0 -4 -11 -6 -25 -5 -14 2 -27 -1 -30 -5 -3 -5 -12 -7
-20 -3 -8 3 -15 0 -15 -7 0 -6 -5 -8 -10 -5 -6 4 -16 2 -23 -3 -7 -5 -20 -8
-29 -7 -10 2 -18 -1 -18 -7 0 -6 -7 -8 -15 -4 -8 3 -15 2 -15 -2 0 -5 -22 -16
-50 -26 -27 -10 -50 -22 -50 -28 0 -5 -4 -7 -9 -3 -5 3 -12 1 -16 -5 -4 -6
-11 -8 -16 -5 -5 4 -9 1 -9 -4 0 -6 -7 -11 -15 -11 -8 0 -15 -4 -15 -10 0 -5
-7 -10 -15 -10 -8 0 -15 -5 -15 -11 0 -5 -5 -7 -10 -4 -6 3 -13 -1 -16 -9 -3
-9 -11 -16 -18 -16 -6 0 -17 -9 -24 -20 -7 -12 -16 -19 -20 -17 -4 2 -31 -21
-60 -50 -29 -29 -50 -53 -48 -53 3 0 -5 -11 -17 -24 -35 -38 -48 -56 -42 -56
4 0 -1 -7 -9 -16 -9 -8 -14 -20 -10 -25 3 -5 -2 -12 -10 -15 -9 -3 -16 -14
-16 -23 0 -9 -7 -27 -16 -39 -8 -12 -12 -22 -8 -22 3 0 2 -6 -3 -12 -6 -7 -9
-21 -8 -30 2 -10 -1 -18 -7 -18 -6 0 -8 -11 -6 -25 3 -14 2 -25 -2 -25 -3 0
-6 -242 -6 -537 1 -478 3 -542 18 -570 10 -20 12 -33 6 -35 -6 -2 -3 -11 6
-21 10 -9 14 -21 11 -27 -3 -5 -1 -10 5 -10 7 0 10 -6 7 -14 -3 -8 1 -17 9
-20 9 -3 12 -10 9 -16 -3 -5 -2 -10 3 -10 10 0 25 -37 23 -53 -1 -5 3 -6 9 -2
5 3 13 -2 17 -11 8 -20 30 -50 55 -72 9 -9 14 -20 11 -26 -3 -6 -3 -8 2 -4 4
4 20 -6 35 -22 16 -17 31 -30 34 -30 3 0 18 -12 33 -26 60 -55 67 -60 57 -44
-4 8 7 3 25 -13 18 -15 43 -30 57 -33 13 -3 24 -10 24 -15 0 -5 9 -9 20 -9 11
0 20 -5 20 -11 0 -5 5 -7 11 -4 6 4 17 -1 25 -11 9 -11 12 -12 8 -4 -6 12 -5
13 7 3 8 -6 23 -13 34 -15 11 -1 22 -6 25 -10 3 -3 19 -8 35 -11 17 -3 45 -10
63 -16 17 -5 32 -8 32 -5 0 3 8 1 18 -5 9 -5 42 -10 72 -12 30 -2 58 -8 62
-14 5 -6 8 -6 8 1 0 6 10 10 23 8 12 -1 22 -3 22 -4 0 -2 17 -3 38 -4 20 -1
37 3 37 9 0 5 4 4 9 -4 8 -12 12 -12 24 -2 12 9 16 9 20 -1 4 -10 8 -10 16 2
10 13 11 13 11 0 0 -9 3 -11 8 -5 4 6 21 11 37 12 17 2 43 3 58 4 15 1 30 6
33 10 2 4 16 6 29 3 14 -2 25 0 25 4 0 5 10 9 23 8 12 -1 33 4 46 11 14 6 29
9 34 6 6 -3 7 -1 4 4 -4 6 10 13 33 17 22 3 40 11 40 17 0 5 4 8 9 4 5 -3 12
-1 15 4 7 11 24 9 52 -7 12 -6 24 -8 28 -5 3 3 6 1 6 -5 0 -7 11 -12 25 -12
14 0 25 -4 25 -10 0 -5 13 -10 28 -10 16 0 32 -3 36 -7 4 -5 11 -8 14 -9 56
-6 102 -18 92 -24 -8 -5 -8 -10 -2 -14 8 -5 10 -50 2 -81 -1 -5 -1 -12 0 -15
7 -17 6 -67 -2 -77 -5 -7 -5 -14 1 -17 10 -6 8 -37 -4 -55 -3 -5 -1 -12 4 -15
10 -6 8 -72 -2 -83 -4 -3 -2 -12 4 -20 9 -9 8 -13 0 -13 -8 0 -9 -6 -3 -17 10
-20 9 -73 -1 -90 -4 -7 -3 -14 2 -17 10 -6 8 -72 -2 -83 -4 -3 -2 -12 4 -20 9
-9 8 -13 0 -13 -8 0 -9 -6 -3 -17 10 -20 9 -73 -1 -90 -4 -7 -3 -14 2 -18 5
-3 8 -15 6 -27 -6 -27 2 -39 20 -32 8 4 13 10 10 15 -3 4 4 6 15 4 11 -2 20 0
20 4 0 9 48 26 63 22 5 -1 6 2 3 7 -3 5 21 20 54 33 33 13 60 28 60 32 0 5 7
7 15 3 9 -3 15 0 15 8 0 8 9 12 25 11 14 -2 23 0 20 5 -2 4 16 15 40 25 25 9
45 21 45 26 0 6 4 8 9 4 5 -3 12 -1 16 5 4 6 11 8 16 5 5 -4 9 -1 9 6 0 7 3 9
7 6 3 -4 12 1 20 11 8 9 12 11 8 5 -9 -19 6 -16 22 5 10 11 12 12 8 2 -4 -8 1
-6 10 5 9 11 17 18 18 17 3 -6 61 22 69 33 5 6 8 6 8 0 0 -5 5 -3 10 5 7 11
10 11 10 2 0 -8 8 -6 22 7 11 11 25 18 30 15 4 -3 8 0 8 6 0 6 4 9 9 5 6 -3
14 3 20 12 6 10 11 12 11 5 0 -6 3 -11 8 -10 14 3 62 -14 62 -23 0 -5 12 -9
26 -9 14 0 23 -4 19 -10 -3 -5 2 -10 13 -10 10 0 22 -3 26 -7 4 -5 11 -8 14
-9 7 0 62 -25 146 -65 22 -11 46 -19 53 -19 7 0 13 -5 13 -11 0 -5 5 -7 10 -4
5 3 10 1 10 -6 0 -7 3 -10 6 -6 3 3 21 -3 40 -14 19 -10 41 -19 49 -19 8 0 15
-5 15 -11 0 -5 4 -8 9 -4 5 3 12 1 16 -5 4 -6 11 -8 16 -5 5 4 9 2 9 -3 0 -5
10 -13 23 -17 12 -4 24 -8 27 -9 3 -2 19 -9 35 -16 17 -7 32 -14 35 -15 31
-11 89 -43 84 -48 -3 -3 3 -3 13 -1 19 5 20 18 19 396 -1 300 2 392 12 400 6
6 12 7 12 2 0 -5 5 -2 10 6 5 8 10 10 10 5 0 -12 108 -14 126 -2 6 3 14 3 18
-1 11 -11 86 -9 86 3 0 6 3 6 8 -1 9 -13 104 -13 114 1 5 7 8 6 8 0 0 -6 18
-11 39 -11 22 0 37 4 34 9 -3 5 4 4 16 -2 16 -9 21 -9 21 1 0 8 3 9 8 3 8 -12
111 -13 129 -2 6 4 14 4 16 -1 6 -9 128 -9 143 1 6 3 14 3 18 -1 11 -11 86 -9
86 3 0 6 3 6 8 -1 9 -13 104 -13 114 1 5 7 8 6 8 0 0 -6 18 -11 39 -11 22 0
37 4 34 9 -3 5 4 4 16 -2 16 -9 21 -9 21 1 0 8 3 9 8 3 8 -12 111 -14 128 -3
6 4 14 4 18 0 11 -11 86 -9 86 3 0 6 3 6 8 -1 9 -13 104 -13 114 1 5 7 8 6 8
0 0 -6 18 -11 39 -11 22 0 37 4 34 9 -3 5 4 4 16 -2 16 -9 21 -9 21 1 0 9 3 9
8 2 9 -13 64 -13 74 1 5 6 8 6 8 -1 0 -14 102 -13 112 1 5 7 8 6 8 0 0 -6 18
-11 39 -11 22 0 37 4 34 9 -3 5 4 4 16 -2 16 -9 21 -9 21 1 0 9 3 9 8 2 9 -13
104 -13 114 1 5 6 8 6 8 -1 0 -14 70 -13 70 1 0 6 3 6 8 -1 9 -13 64 -13 74 1
5 7 8 6 8 0 0 -6 18 -11 39 -11 24 0 37 4 34 9 -3 6 -1 7 5 3 19 -11 82 -15
88 -5 3 5 11 6 17 2 18 -11 87 -10 87 2 0 6 3 6 8 -1 9 -13 104 -13 114 1 5 7
8 6 8 0 0 -6 18 -11 39 -11 22 0 37 4 34 9 -3 5 4 4 16 -2 16 -9 21 -9 21 1 0
8 3 9 8 3 8 -12 111 -14 128 -3 6 4 14 4 18 0 11 -11 126 -9 126 3 0 7 3 7 8
0 9 -14 72 -14 72 0 0 7 3 6 8 -1 9 -13 64 -13 74 1 5 7 8 6 8 0 0 -6 18 -11
39 -11 22 0 37 4 34 9 -3 5 4 4 16 -2 16 -9 21 -9 21 1 0 9 3 9 8 2 9 -13 104
-13 114 1 5 7 8 6 8 0 0 -6 18 -11 39 -11 22 0 37 4 34 9 -3 5 4 4 16 -2 16
-9 21 -9 21 1 0 9 3 9 8 2 9 -13 64 -13 74 1 5 6 8 6 8 -1 0 -14 102 -13 112
1 5 7 8 6 8 0 0 -6 18 -11 39 -11 22 0 37 4 34 9 -3 5 4 4 16 -2 16 -9 21 -9
21 1 0 8 3 9 8 3 8 -12 111 -14 128 -3 6 4 14 4 18 0 11 -11 86 -9 86 3 0 6 3
6 8 -1 9 -13 104 -13 114 1 5 7 8 6 8 0 0 -6 18 -11 39 -11 22 0 37 4 34 9 -3
5 4 4 16 -2 16 -9 21 -9 21 1 0 8 3 9 8 3 8 -12 111 -13 129 -2 6 4 14 4 16
-1 6 -9 128 -9 143 1 6 3 14 3 18 -1 11 -11 86 -9 86 3 0 6 3 6 8 -1 9 -13
104 -13 114 1 5 7 8 6 8 -1 0 -6 18 -10 39 -10 22 0 38 3 36 6 -2 3 5 6 16 6
10 0 19 -4 19 -9 0 -5 6 -4 14 2 8 6 18 11 22 10 17 -4 84 13 84 22 0 5 6 6
14 3 8 -3 17 0 21 5 3 6 11 9 16 6 5 -4 9 -2 9 3 0 4 16 14 35 22 19 8 35 17
35 22 0 4 6 8 13 8 16 0 57 44 57 61 0 7 3 10 6 6 8 -8 33 16 27 26 -2 4 3 10
11 13 9 3 13 10 10 15 -3 5 2 12 11 15 12 5 13 10 4 20 -9 11 -8 15 3 19 15 6
16 8 20 60 1 17 7 33 13 37 6 5 6 8 -2 8 -6 0 -12 12 -12 28 0 15 -3 38 -6 52
-4 14 -8 33 -8 42 -1 9 -4 15 -7 13 -4 -2 -14 11 -23 30 -9 19 -22 35 -27 35
-6 0 -9 4 -5 9 3 6 -4 15 -15 21 -11 6 -17 16 -14 22 5 7 1 9 -9 5 -10 -3 -17
-2 -17 3 0 6 -7 10 -16 10 -8 0 -12 4 -9 10 3 5 -1 10 -9 10 -9 0 -16 5 -16
11 0 5 -4 7 -10 4 -5 -3 -10 -1 -10 5 0 6 -4 8 -10 5 -5 -3 -10 -1 -10 4 0 6
-9 11 -20 11 -11 0 -20 5 -20 10 0 6 -12 10 -26 10 -14 0 -22 4 -19 10 3 6 -1
7 -9 4 -9 -3 -24 -3 -33 1 -10 5 -31 8 -48 9 -16 1 -34 4 -40 7 -5 3 -20 4
-32 3 -12 0 -30 8 -40 19 -10 11 -13 17 -7 14 15 -9 14 65 -1 75 -6 5 -6 8 1
8 6 0 11 16 11 35 0 19 -5 35 -11 35 -8 0 -8 3 -1 8 15 10 15 72 1 72 -6 0 -4
5 4 10 8 5 12 10 8 10 -4 0 -3 12 2 26 6 14 6 23 1 20 -10 -7 -23 19 -13 28 3
4 7 16 9 27 2 14 -1 18 -9 13 -9 -5 -9 -2 1 9 7 9 10 17 6 17 -4 0 -1 8 6 17
8 10 9 14 2 10 -6 -4 -14 -3 -18 3 -3 5 -2 10 2 10 5 0 9 13 9 30 1 20 -2 27
-10 23 -6 -4 -5 1 3 10 7 9 10 17 6 17 -4 0 -1 8 6 17 8 10 9 14 2 10 -6 -4
-14 -3 -18 3 -3 5 -2 10 3 10 12 0 10 43 -3 52 -7 5 -6 8 1 8 12 0 13 54 2 66
-4 4 -3 13 3 20 7 9 7 19 -1 35 -7 12 -8 19 -2 15 5 -3 10 6 10 19 0 14 -4 28
-8 30 -17 10 14 52 40 54 59 4 105 9 105 11 0 1 9 4 20 6 38 6 50 10 83 26 19
10 30 12 25 5 -3 -7 3 -4 14 5 11 10 23 18 28 18 4 0 14 8 22 18 9 11 12 11 8
2 -4 -8 3 -3 16 11 13 15 28 27 32 27 10 2 41 32 32 32 -3 0 6 11 21 25 15 14
24 25 20 25 -4 0 0 7 8 16 9 8 16 24 16 34 0 10 7 26 16 34 10 10 11 16 3 16
-7 0 -8 4 -2 13 5 6 9 19 8 27 0 8 4 18 10 22 6 5 6 8 -2 8 -6 0 -9 9 -6 20 3
11 1 20 -4 20 -5 0 -8 14 -7 30 1 17 -2 30 -8 30 -5 0 -7 4 -3 9 3 5 -3 17
-12 27 -10 10 -17 19 -16 21 6 11 -12 43 -25 43 -8 0 -13 3 -9 6 10 10 -85 93
-120 106 -18 7 -33 15 -33 19 0 7 -56 23 -77 22 -7 0 -13 2 -13 6 0 4 -6 8
-12 8 -22 1 -67 11 -78 18 -5 3 -10 1 -10 -5 0 -6 -5 -8 -12 -4 -14 9 -6361 7
-6433 -1 -27 -4 -60 -7 -72 -8 -13 0 -23 -4 -23 -8 0 -4 -6 -6 -12 -6 -26 2
-108 -16 -114 -24 -3 -5 -10 -7 -15 -4 -5 4 -9 1 -9 -5 0 -6 -5 -8 -10 -5 -6
4 -27 -3 -46 -14 -19 -12 -32 -16 -28 -10 3 6 -6 3 -21 -7 -26 -17 -28 -17
-40 0 -10 13 -14 14 -18 4 -4 -10 -6 -10 -6 0 -1 6 -9 12 -19 12 -10 0 -23 5
-30 12 -7 7 -12 9 -12 5 0 -4 -21 2 -47 12 -27 10 -54 16 -60 14 -7 -3 -13 0
-13 5 0 6 -8 9 -17 7 -10 -1 -29 2 -42 7 -46 17 -219 27 -241 13 -8 -5 -11 -4
-7 2 3 5 -8 9 -28 9 -19 -1 -35 -5 -35 -11 0 -5 -5 -3 -10 5 -5 8 -10 10 -10
4z m110 -381 c0 8 3 8 12 -1 15 -15 32 -16 22 -1 -4 8 -1 8 14 0 12 -6 25 -11
29 -10 26 4 43 -2 37 -13 -5 -9 -2 -9 9 1 12 9 17 10 17 2 0 -7 4 -9 10 -6 11
7 110 -33 125 -50 6 -7 18 -11 28 -9 9 1 15 -1 12 -6 -3 -4 5 -10 16 -13 13
-4 18 -10 13 -18 -4 -8 -3 -10 5 -5 6 4 22 -6 38 -24 15 -18 33 -38 40 -45 7
-8 13 -18 13 -24 0 -6 3 -11 8 -11 8 0 35 -56 37 -80 3 -23 16 -50 25 -50 4 0
6 11 5 25 -2 14 2 25 8 25 5 0 7 3 4 7 -4 3 -1 13 6 21 10 13 9 15 -3 8 -8 -4
-7 -1 3 7 10 9 18 19 18 24 -1 4 9 22 21 38 13 17 22 34 20 38 -1 5 2 6 7 2 6
-3 15 4 21 15 6 11 17 20 25 20 8 0 19 8 24 19 6 10 22 22 36 25 14 4 25 11
25 17 0 6 5 7 10 4 6 -3 10 -1 10 4 0 6 9 11 20 11 11 0 20 5 20 11 0 5 4 8 8
5 15 -9 82 16 75 28 -4 7 -1 6 8 -1 9 -7 20 -8 28 -3 8 4 25 6 38 4 18 -4 23
-1 17 8 -6 10 -3 9 9 -1 12 -9 17 -10 17 -2 0 9 5 9 20 1 15 -8 20 -8 20 2 0
9 3 9 10 -2 8 -12 10 -12 10 -1 0 11 3 11 15 1 8 -7 15 -8 15 -4 0 5 32 7 70
4 44 -3 70 -1 70 5 0 5 5 3 10 -5 5 -8 10 -10 10 -4 0 7 17 8 50 4 33 -4 50
-3 50 4 0 6 5 4 10 -4 5 -8 10 -10 10 -4 0 7 17 8 50 4 33 -4 50 -3 50 4 0 6
5 4 10 -4 5 -8 10 -10 10 -4 0 7 17 8 50 4 33 -4 50 -3 50 4 0 6 5 4 10 -4 5
-8 10 -10 10 -4 0 7 17 8 50 4 33 -4 50 -3 50 4 0 6 5 4 10 -4 5 -8 10 -10 10
-5 0 7 80 8 230 5 150 -3 230 -2 230 5 0 6 5 3 10 -5 5 -8 10 -10 10 -4 0 7
17 8 50 4 33 -4 50 -3 50 4 0 6 5 4 10 -4 5 -8 10 -10 10 -4 0 7 17 8 50 4 33
-4 50 -3 50 4 0 6 5 4 10 -4 5 -8 10 -10 10 -4 0 7 17 8 50 4 33 -4 50 -3 50
4 0 6 5 4 10 -4 5 -8 10 -10 10 -4 0 7 17 8 50 4 33 -4 50 -3 50 4 0 6 5 4 10
-4 5 -8 10 -10 10 -5 0 7 80 8 230 5 150 -3 230 -2 230 5 0 6 5 3 10 -5 5 -8
10 -10 10 -4 0 7 17 8 50 4 33 -4 50 -3 50 4 0 6 5 4 10 -4 5 -8 10 -10 10 -4
0 7 17 8 50 4 33 -4 50 -3 50 4 0 6 5 4 10 -4 5 -8 10 -10 10 -4 0 7 17 8 50
4 33 -4 50 -3 50 4 0 6 5 4 10 -4 5 -8 10 -10 10 -4 0 7 17 8 50 4 33 -4 50
-3 50 4 0 6 5 4 10 -4 5 -8 10 -10 10 -4 0 7 17 8 50 4 33 -4 50 -3 50 4 0 6
5 4 10 -4 5 -8 10 -10 10 -4 0 7 17 8 50 4 33 -4 50 -3 50 4 0 6 5 4 10 -4 5
-8 10 -10 10 -4 0 7 17 8 50 4 33 -4 50 -3 50 4 0 6 5 4 10 -4 6 -9 10 -10 10
-3 0 8 9 9 30 3 21 -6 30 -5 30 3 0 7 4 6 10 -3 5 -8 10 -10 10 -4 0 7 17 8
50 4 33 -4 50 -3 50 4 0 6 5 4 10 -4 5 -8 10 -10 10 -4 0 7 17 8 50 4 33 -4
50 -3 50 4 0 6 5 4 10 -4 6 -9 10 -10 10 -3 0 8 9 9 30 3 21 -6 30 -5 30 3 0
7 4 6 10 -3 5 -8 10 -10 10 -4 0 7 17 8 50 4 33 -4 50 -3 50 4 0 6 5 4 10 -4
5 -8 10 -10 10 -4 0 7 17 8 50 4 33 -4 50 -3 50 4 0 6 5 4 10 -4 6 -9 10 -10
10 -3 0 8 9 9 30 3 21 -6 30 -5 30 3 0 7 4 6 10 -3 5 -8 10 -10 10 -4 0 7 17
8 50 4 33 -4 50 -3 50 4 0 6 5 4 10 -4 5 -8 10 -10 10 -4 0 7 17 8 50 4 33 -4
50 -3 50 4 0 6 5 4 10 -4 6 -9 10 -10 10 -3 0 8 9 9 30 3 21 -6 30 -5 30 3 0
7 4 6 10 -3 5 -8 10 -10 10 -4 0 7 17 8 50 4 33 -4 50 -3 50 4 0 6 5 4 10 -4
5 -8 10 -10 10 -4 0 7 17 8 50 4 33 -4 50 -3 50 4 0 6 5 4 10 -4 6 -9 10 -10
10 -3 0 8 9 9 30 3 21 -6 30 -5 30 3 0 7 4 6 10 -3 5 -8 10 -10 10 -4 0 7 17
8 50 4 33 -4 50 -3 50 4 0 6 5 4 10 -4 5 -8 10 -10 10 -4 0 7 17 8 50 4 33 -4
50 -3 50 4 0 6 5 4 10 -4 6 -9 10 -10 10 -3 0 8 9 9 30 3 21 -6 30 -5 30 3 0
7 4 6 10 -3 5 -8 10 -10 10 -4 0 7 17 8 50 4 33 -4 50 -3 50 4 0 6 5 4 10 -4
5 -8 10 -10 10 -4 0 7 17 8 50 4 33 -4 50 -3 50 4 0 6 5 4 10 -4 6 -9 10 -10
10 -3 0 8 9 9 30 3 21 -6 30 -5 30 3 0 7 4 6 10 -3 5 -8 10 -10 10 -4 0 7 17
8 50 4 33 -4 50 -3 50 4 0 6 5 4 10 -4 5 -8 10 -10 10 -4 0 7 17 8 50 4 33 -4
50 -3 50 4 0 6 5 4 10 -4 5 -8 10 -10 10 -5 0 7 73 8 210 5 137 -3 210 -2 210
5 0 6 5 3 10 -5 5 -8 10 -10 10 -4 0 7 17 8 50 4 33 -4 50 -3 50 4 0 6 5 4 10
-4 5 -8 10 -10 10 -4 0 7 17 8 50 4 32 -4 50 -3 50 4 0 6 4 6 11 -1 8 -8 20
-8 35 -3 14 6 26 6 29 0 3 -6 15 -6 30 0 18 7 25 6 26 -3 0 -6 2 -7 5 -2 6 14
88 10 90 -4 2 -6 0 -7 -2 -2 -3 6 -19 2 -37 -8 -18 -10 -38 -16 -44 -14 -7 3
-13 -1 -13 -7 0 -7 -7 -10 -15 -6 -9 3 -18 -1 -21 -9 -4 -8 -10 -13 -14 -10
-5 3 -15 -1 -23 -9 -8 -8 -17 -12 -21 -9 -3 3 -8 -2 -12 -11 -3 -9 -9 -16 -13
-16 -12 0 -91 -76 -91 -87 0 -14 -40 -30 -72 -29 -16 1 -28 -2 -28 -7 0 -4 -6
-5 -12 0 -18 11 -51 11 -65 0 -8 -6 -13 -6 -13 0 0 10 -65 11 -76 1 -4 -4 -12
-5 -17 -1 -18 11 -57 10 -57 -2 0 -5 -4 -4 -9 3 -11 17 -12 18 -37 4 -12 -6
-24 -8 -28 -5 -10 10 -86 11 -92 1 -3 -5 -10 -5 -17 -1 -15 9 -88 10 -94 0 -3
-4 -10 -4 -16 0 -14 10 -128 10 -144 0 -6 -4 -14 -4 -16 0 -6 10 -129 9 -144
0 -7 -4 -14 -4 -16 0 -6 10 -129 9 -144 0 -7 -4 -14 -4 -16 0 -6 10 -129 9
-144 0 -7 -4 -14 -4 -16 0 -6 10 -129 9 -144 0 -7 -4 -14 -4 -16 0 -6 10 -129
9 -144 0 -7 -4 -14 -4 -16 0 -6 10 -129 9 -144 0 -7 -4 -14 -4 -16 0 -6 10
-129 9 -144 0 -7 -4 -14 -4 -16 0 -6 10 -129 9 -144 0 -7 -4 -14 -4 -16 0 -6
10 -129 9 -144 0 -7 -4 -14 -4 -16 0 -6 10 -129 9 -144 0 -7 -4 -14 -4 -16 0
-6 10 -129 9 -144 0 -7 -4 -14 -4 -16 0 -6 10 -129 9 -144 0 -7 -4 -14 -4 -16
0 -6 10 -129 9 -144 0 -7 -4 -14 -4 -16 0 -6 10 -134 9 -143 0 -4 -4 -12 -3
-18 0 -16 10 -106 10 -106 0 0 -5 -6 -5 -12 0 -18 11 -51 11 -65 0 -8 -6 -13
-6 -13 0 0 10 -65 11 -76 1 -4 -4 -12 -5 -17 -1 -18 11 -57 10 -57 -2 0 -5 -4
-4 -9 3 -9 15 -17 15 -42 1 -9 -4 -19 -5 -23 -2 -10 10 -86 11 -92 1 -3 -5
-10 -5 -17 -1 -16 10 -57 10 -57 0 0 -4 -6 -5 -12 0 -18 11 -51 11 -65 0 -8
-6 -13 -6 -13 0 0 10 -65 11 -76 1 -4 -4 -12 -5 -17 -1 -18 11 -57 10 -57 -2
0 -5 -4 -4 -9 3 -11 17 -12 18 -37 4 -12 -6 -24 -8 -28 -5 -10 10 -86 11 -92
1 -3 -5 -10 -5 -17 -1 -16 10 -57 10 -57 0 0 -4 -6 -5 -12 0 -18 11 -51 11
-65 0 -8 -6 -13 -6 -13 0 0 10 -65 11 -76 1 -4 -4 -12 -5 -17 -1 -18 11 -57
10 -57 -2 0 -5 -4 -4 -9 3 -9 15 -17 15 -42 1 -9 -4 -19 -5 -23 -2 -10 10 -86
11 -92 1 -3 -5 -10 -5 -17 -1 -16 10 -57 10 -57 0 0 -4 -6 -5 -12 0 -18 11
-51 11 -65 0 -8 -6 -13 -6 -13 0 0 10 -65 11 -76 1 -4 -4 -12 -5 -17 -1 -18
11 -57 10 -57 -2 0 -5 -4 -4 -9 3 -9 15 -17 15 -42 1 -9 -4 -19 -5 -23 -2 -10
10 -86 11 -92 1 -3 -5 -10 -5 -17 -1 -16 10 -57 10 -57 0 0 -4 -6 -5 -12 0
-18 11 -51 11 -65 0 -8 -6 -13 -6 -13 0 0 10 -65 11 -76 1 -4 -4 -12 -5 -17
-1 -18 11 -57 10 -57 -2 0 -5 -4 -4 -9 3 -9 15 -17 15 -42 1 -9 -4 -19 -5 -23
-2 -10 10 -86 11 -92 1 -3 -5 -10 -5 -17 -1 -16 10 -57 10 -57 0 0 -4 -6 -5
-12 0 -18 11 -51 11 -65 0 -7 -5 -13 -6 -13 -1 0 5 -16 9 -35 9 -19 0 -35 -4
-35 -8 0 -5 -6 -5 -12 0 -18 11 -51 11 -65 0 -8 -6 -13 -6 -13 0 0 11 -60 11
-77 0 -6 -4 -14 -3 -17 1 -7 12 -56 3 -56 -10 0 -5 -4 -7 -10 -3 -24 15 -73
-65 -65 -106 5 -27 43 -69 62 -69 9 0 11 -5 7 -12 -4 -7 -4 -10 0 -6 4 3 21 2
37 -2 18 -5 29 -5 29 1 0 6 5 7 11 4 17 -11 99 -11 99 0 0 7 3 7 8 0 4 -5 30
-10 57 -10 28 0 53 5 57 10 5 7 8 7 8 0 0 -5 23 -10 50 -10 28 0 50 3 50 7 0
4 14 3 30 -2 19 -5 30 -5 30 1 0 6 6 6 18 0 10 -6 24 -6 32 -1 8 5 18 6 23 3
16 -10 117 -8 117 2 0 7 3 7 8 0 4 -5 30 -10 57 -10 28 0 53 5 57 10 5 7 8 7
8 0 0 -5 23 -10 50 -10 28 0 50 3 50 7 0 4 14 3 30 -2 19 -5 30 -5 30 1 0 6 6
6 18 0 10 -6 24 -6 32 -1 8 5 18 6 23 3 16 -10 117 -8 117 2 0 7 3 7 8 0 4 -5
30 -10 57 -10 28 0 53 5 57 10 5 7 8 7 8 0 0 -5 23 -10 50 -10 28 0 50 3 50 7
0 4 14 3 30 -2 19 -5 30 -5 30 1 0 6 6 6 18 0 10 -6 24 -6 32 -1 8 5 18 6 23
3 16 -10 117 -8 117 2 0 7 3 7 8 0 4 -5 30 -10 57 -10 28 0 53 5 57 10 5 7 8
7 8 0 0 -5 23 -10 50 -10 28 0 50 3 50 7 0 4 14 3 30 -2 19 -5 30 -5 30 1 0 6
6 6 18 0 10 -6 24 -6 32 -1 8 5 18 6 23 3 16 -10 117 -8 117 2 0 7 3 7 8 0 4
-5 30 -10 57 -10 28 0 53 5 57 10 5 7 8 7 8 0 0 -5 23 -10 50 -10 28 0 50 3
50 7 0 4 14 3 30 -2 19 -5 30 -5 30 1 0 6 6 6 18 0 10 -6 24 -6 32 -1 8 5 18
6 23 3 16 -10 117 -8 117 2 0 7 3 7 8 0 4 -5 30 -10 57 -10 28 0 53 5 57 10 5
7 8 7 8 0 0 -5 23 -10 50 -10 28 0 50 2 50 5 0 3 29 3 65 0 36 -3 72 -2 80 3
10 5 15 3 15 -5 0 -9 3 -9 10 2 5 8 10 11 10 5 0 -9 96 -12 105 -4 2 2 40 2
85 -1 45 -3 88 -1 96 3 9 5 14 3 14 -5 0 -9 3 -9 10 2 5 8 10 11 10 5 0 -9 96
-12 105 -4 2 2 40 2 85 -1 45 -3 88 -1 96 3 9 5 14 3 14 -5 0 -9 3 -9 10 2 5
8 10 11 10 5 0 -9 96 -12 105 -4 2 2 40 2 85 -1 45 -3 88 -1 96 3 9 5 14 3 14
-5 0 -9 3 -9 10 2 5 8 10 11 10 5 0 -9 96 -12 105 -4 2 2 40 2 85 -1 45 -3 88
-1 96 3 9 5 14 3 14 -5 0 -9 3 -9 10 2 5 8 10 11 10 5 0 -9 96 -12 105 -4 2 2
40 2 85 -1 45 -3 88 -1 96 3 9 5 14 3 14 -5 0 -9 3 -9 10 2 5 8 10 11 10 5 0
-9 96 -12 105 -4 2 2 40 2 85 -1 45 -3 88 -1 96 3 9 5 14 3 14 -5 0 -9 3 -9
10 2 5 8 10 11 10 5 0 -9 96 -12 105 -4 2 2 40 2 85 -1 45 -3 88 -1 96 3 9 5
14 3 14 -5 0 -9 3 -9 10 2 5 8 10 11 10 5 0 -9 96 -12 105 -3 2 2 31 1 65 -2
38 -4 60 -2 60 5 0 6 3 7 8 0 4 -5 30 -10 57 -10 28 0 53 5 57 10 5 7 8 7 8 0
0 -5 23 -10 50 -10 28 0 50 3 50 7 0 4 13 3 30 -2 19 -5 30 -5 30 1 0 6 6 6
18 0 10 -6 24 -6 32 -1 8 5 19 6 25 2 5 -3 19 -6 30 -7 19 0 20 -7 20 -135 l0
-135 -65 -2 c-36 -1 -74 -3 -85 -3 -11 0 -50 0 -88 2 -37 2 -67 0 -67 -4 0 -5
-5 -8 -11 -8 -5 0 -8 3 -6 8 3 4 -28 7 -69 7 -41 0 -74 -4 -74 -8 0 -5 -5 -5
-11 -1 -6 3 -61 6 -123 4 -61 -1 -115 -1 -121 -1 -119 5 -145 5 -145 -2 0 -5
-5 -5 -10 -2 -6 3 -113 6 -238 5 -272 -1 -242 -1 -325 2 -37 2 -67 -1 -67 -5
0 -5 -5 -5 -10 -2 -6 3 -113 6 -238 5 -272 -1 -242 -1 -325 2 -37 2 -67 -1
-67 -5 0 -5 -5 -5 -10 -2 -6 3 -113 6 -238 5 -272 -1 -242 -1 -325 2 -37 2
-67 -1 -67 -5 0 -5 -4 -6 -9 -3 -7 5 -127 7 -241 6 -8 -1 -45 1 -83 2 -37 2
-67 0 -67 -4 0 -5 -5 -8 -11 -8 -5 0 -8 3 -6 8 3 4 -28 7 -69 7 -41 0 -74 -4
-74 -8 0 -5 -5 -5 -11 -1 -6 3 -61 6 -123 4 -61 -1 -115 -1 -121 -1 -119 5
-145 5 -145 -2 0 -5 -4 -6 -9 -3 -7 5 -127 7 -241 6 -8 -1 -45 1 -83 2 -37 2
-67 0 -67 -4 0 -5 -5 -8 -11 -8 -5 0 -8 3 -6 8 3 4 -28 7 -69 7 -41 0 -74 -4
-74 -8 0 -5 -5 -5 -12 -1 -15 9 -1556 12 -1584 3 -11 -4 -27 -3 -36 2 -13 7
-15 1 -13 -44 1 -28 -2 -59 -6 -68 -5 -9 -5 -19 -2 -23 11 -11 12 -60 1 -73
-5 -7 -5 -14 1 -17 10 -6 8 -37 -4 -55 -3 -5 -1 -12 4 -15 10 -6 8 -72 -2 -83
-4 -3 -2 -12 4 -20 9 -10 8 -13 0 -13 -7 0 -9 -5 -5 -12 11 -18 13 -70 3 -90
-5 -10 -5 -19 0 -22 10 -6 8 -72 -2 -83 -4 -3 -2 -12 4 -20 9 -9 8 -13 0 -13
-8 0 -9 -6 -3 -17 8 -16 9 -61 2 -88 -1 -5 -1 -12 0 -15 8 -18 6 -67 -4 -79
-7 -10 -7 -13 0 -8 6 3 11 0 11 -8 0 -19 -24 -27 -39 -12 -7 7 -26 19 -43 27
-16 8 -38 23 -47 34 -10 10 -18 15 -18 10 0 -5 -20 13 -45 40 -25 27 -45 55
-45 63 0 7 -4 13 -10 13 -5 0 -10 7 -10 15 0 8 -4 15 -10 15 -5 0 -9 3 -9 8 1
4 1 17 0 29 -1 29 -33 24 -38 -7 -2 -13 -8 -29 -14 -37 -6 -7 -8 -13 -3 -13 5
0 1 -5 -8 -11 -10 -5 -18 -14 -18 -19 0 -6 -8 -19 -17 -31 -46 -55 -53 -62
-53 -54 0 4 -8 -1 -18 -13 -10 -11 -24 -22 -31 -24 -8 -2 -25 -13 -39 -26 -19
-17 -27 -20 -34 -10 -5 9 -8 10 -8 1 0 -11 -37 -29 -52 -25 -5 1 -8 -3 -8 -9
0 -6 -9 -8 -20 -4 -12 4 -20 2 -20 -5 0 -6 -6 -10 -12 -9 -37 4 -69 -2 -62
-13 5 -7 3 -8 -7 -3 -19 12 -70 13 -93 2 -10 -5 -16 -5 -13 0 3 4 -13 9 -36
10 -38 2 -78 8 -84 13 -2 2 -7 4 -13 5 -5 1 -13 4 -17 5 -5 2 -12 4 -18 4 -17
3 -125 58 -125 65 0 3 -14 12 -30 19 -17 8 -28 17 -25 21 2 5 -6 14 -19 20
-21 12 -64 71 -57 80 1 2 -1 7 -6 10 -15 11 -35 65 -39 111 -3 25 -7 51 -9 58
-3 6 -1 12 4 12 5 0 5 18 1 40 -4 22 -4 40 0 40 4 0 4 18 0 40 -4 22 -4 40 0
40 4 0 4 18 0 40 -4 22 -4 40 -1 40 3 0 4 32 1 70 -3 39 -2 70 2 70 3 0 3 14
-2 30 -5 17 -6 30 -2 30 4 0 5 58 2 130 -3 72 -2 130 2 130 4 0 3 14 -2 30 -5
17 -6 30 -2 30 4 0 8 33 9 73 2 87 4 97 15 97 5 0 7 4 4 9 -3 5 3 20 14 33 11
14 16 28 13 32 -3 3 -1 6 6 6 7 0 10 4 6 9 -3 5 4 12 15 16 11 4 18 10 16 14
-3 4 4 14 16 22 11 8 31 24 43 36 13 12 26 19 29 16 3 -4 6 -1 6 6 0 7 5 9 10
6 6 -3 10 -1 10 5 0 6 5 8 10 5 6 -3 10 -1 10 5 0 6 5 8 10 5 6 -3 10 -2 10 4
0 6 16 13 35 17 19 3 35 10 35 14 0 5 8 9 18 10 52 2 72 6 72 12 0 3 14 5 30
3 17 -2 28 0 25 5 -3 5 7 5 25 0 21 -6 30 -5 30 3z m2484 -941 c10 -2 16 1 12
6 -3 5 1 9 9 9 8 0 15 -3 15 -7 0 -10 33 -8 48 3 6 5 12 5 12 0 0 -5 9 -9 20
-10 11 -1 18 2 16 6 -3 4 1 8 9 8 8 0 15 -3 15 -7 0 -10 33 -8 48 3 6 5 12 5
12 0 0 -5 9 -9 20 -10 11 -1 18 2 16 6 -3 4 1 8 9 8 8 0 15 -3 15 -7 0 -10 33
-8 48 3 6 5 12 5 12 0 0 -5 9 -9 20 -10 11 -1 18 2 16 6 -3 4 1 8 9 8 8 0 15
-3 15 -7 0 -10 33 -8 48 3 6 5 12 5 12 0 0 -5 9 -9 20 -10 11 -1 18 2 16 6 -3
4 1 8 9 8 8 0 15 -3 15 -7 0 -10 33 -8 48 3 6 5 12 5 12 0 0 -5 9 -9 20 -10
11 -1 18 2 16 6 -3 4 1 8 9 8 8 0 15 -3 15 -7 0 -10 33 -8 48 3 6 5 12 5 12 0
0 -5 9 -9 20 -10 11 -1 18 2 16 6 -3 4 1 8 9 8 8 0 15 -3 15 -7 0 -10 33 -8
48 3 6 5 12 5 12 0 0 -5 9 -9 20 -10 11 -1 18 2 16 6 -3 4 1 8 9 8 8 0 15 -3
15 -7 0 -10 33 -8 48 3 6 5 12 5 12 0 0 -5 9 -9 20 -10 11 -1 18 2 16 6 -3 4
1 8 9 8 8 0 15 -3 15 -7 0 -10 33 -8 48 3 6 5 12 5 12 0 0 -5 9 -9 20 -10 11
-1 18 2 16 6 -3 4 1 8 9 8 8 0 15 -3 15 -7 0 -10 33 -8 48 3 6 5 12 5 12 0 0
-5 9 -9 20 -10 11 -1 18 2 16 6 -3 4 1 8 9 8 8 0 15 -3 15 -7 0 -10 33 -8 48
3 6 5 12 5 12 0 0 -5 9 -9 20 -10 11 -1 18 2 16 6 -3 4 1 8 9 8 8 0 15 -3 15
-7 0 -10 33 -8 48 3 6 5 12 5 12 0 0 -5 9 -9 20 -10 11 -1 18 2 16 6 -3 4 1 8
9 8 8 0 15 -3 15 -7 0 -10 33 -8 48 3 6 5 12 5 12 0 0 -5 9 -9 20 -10 11 -1
18 2 16 6 -3 4 1 8 9 8 8 0 15 -3 15 -7 0 -10 33 -8 48 3 6 5 12 5 12 0 0 -5
9 -9 20 -10 11 -1 18 2 16 6 -3 4 1 8 9 8 8 0 15 -3 15 -7 0 -10 33 -8 48 3 6
5 12 5 12 0 0 -5 9 -9 20 -10 11 -1 18 2 16 6 -3 4 1 8 9 8 8 0 15 -4 15 -9 0
-11 23 -6 32 7 5 6 8 6 8 -1 0 -13 31 -14 48 -1 6 5 12 5 12 0 0 -5 9 -9 20
-10 11 -1 18 2 16 6 -3 4 1 8 9 8 8 0 15 -3 15 -7 0 -10 33 -8 48 3 6 5 12 5
12 0 0 -5 9 -9 20 -10 11 -1 18 2 16 6 -3 4 1 8 9 8 8 0 15 -3 15 -7 0 -10 33
-8 48 3 6 5 12 5 12 0 0 -5 9 -9 20 -10 11 -1 18 2 16 6 -3 4 1 8 9 8 8 0 15
-3 15 -7 0 -10 33 -8 48 3 6 5 12 5 12 0 0 -5 9 -9 20 -10 11 -1 18 2 16 6 -3
4 1 8 9 8 8 0 15 -3 15 -7 0 -10 33 -8 48 3 6 5 12 5 12 0 0 -5 9 -9 20 -10
11 -1 18 2 16 6 -3 4 1 8 9 8 8 0 15 -4 15 -9 0 -11 23 -6 32 7 5 6 8 6 8 -1
0 -13 31 -14 48 -1 6 5 12 5 12 0 0 -5 9 -9 20 -10 11 -1 18 2 16 6 -3 4 1 8
9 8 8 0 15 -3 15 -7 0 -10 33 -8 48 3 6 5 12 5 12 0 0 -5 9 -9 20 -10 11 -1
18 2 16 6 -3 4 1 8 9 8 8 0 15 -3 15 -7 0 -10 33 -8 48 3 6 5 12 5 12 0 0 -5
9 -9 20 -10 11 -1 18 2 16 6 -3 4 1 8 9 8 8 0 15 -3 15 -7 0 -10 33 -8 48 3 6
5 12 5 12 0 0 -5 9 -9 20 -10 11 -1 18 2 16 6 -3 4 1 8 9 8 8 0 15 -3 15 -7 0
-10 33 -8 48 3 6 5 12 5 12 0 0 -5 9 -9 20 -10 11 -1 18 2 16 6 -3 4 1 8 9 8
8 0 15 -4 15 -9 0 -11 23 -6 32 7 5 6 8 6 8 -1 0 -13 31 -14 48 -1 6 5 12 5
12 0 0 -5 9 -9 20 -10 11 -1 18 2 16 6 -3 4 1 8 9 8 8 0 15 -3 15 -7 0 -10 33
-8 48 3 6 5 12 5 12 0 0 -5 9 -9 20 -10 11 -1 18 2 16 6 -3 4 1 8 9 8 8 0 15
-3 15 -7 0 -10 33 -8 48 3 6 5 12 5 12 0 0 -5 9 -9 20 -10 11 -1 18 2 16 6 -3
4 1 8 9 8 8 0 15 -3 15 -7 0 -10 33 -8 48 3 6 5 12 5 12 0 0 -5 9 -9 20 -10
11 -1 18 2 16 6 -3 4 1 8 9 8 8 0 15 -3 15 -7 0 -10 33 -8 48 3 6 5 12 5 12 0
0 -5 9 -9 20 -10 11 -1 18 2 16 6 -3 4 1 8 9 8 8 0 15 -3 15 -7 0 -10 33 -8
48 3 6 5 12 5 12 0 0 -5 9 -9 20 -10 11 -1 18 2 16 6 -3 4 1 8 9 8 8 0 15 -3
15 -7 0 -10 33 -8 48 3 6 5 12 5 12 0 0 -5 9 -9 20 -10 11 -1 18 2 16 6 -3 4
1 8 9 8 8 0 15 -3 15 -7 0 -10 33 -8 48 3 6 5 12 5 12 0 0 -5 9 -9 20 -10 11
-1 18 2 16 6 -3 4 1 8 9 8 8 0 15 -3 15 -7 0 -10 33 -8 48 3 7 6 12 6 12 0 0
-13 33 -12 43 1 5 8 10 6 17 -4 5 -8 10 -10 10 -5 0 6 4 5 8 -2 4 -6 7 -69 7
-140 l0 -128 -25 0 c-14 0 -28 -4 -32 -10 -5 -6 -8 -5 -8 3 0 6 -5 12 -11 12
-5 0 -7 -5 -3 -12 5 -7 3 -8 -7 -3 -20 13 -49 13 -49 1 0 -8 -3 -8 -8 0 -8 12
-53 14 -46 2 3 -4 0 -8 -5 -8 -6 0 -11 4 -11 9 0 5 -11 8 -25 7 -14 0 -25 -5
-25 -11 0 -5 -4 -4 -9 3 -11 17 -21 17 -32 0 -7 -10 -9 -10 -9 0 0 6 -5 12
-11 12 -5 0 -7 -5 -3 -12 5 -7 3 -8 -7 -3 -20 13 -49 13 -49 1 0 -8 -3 -8 -8
0 -8 12 -53 14 -46 2 3 -4 0 -8 -5 -8 -6 0 -11 5 -11 10 0 11 -41 7 -61 -6 -7
-4 -9 -3 -6 3 9 14 -55 12 -65 -2 -5 -6 -8 -5 -8 3 0 15 -31 12 -42 -3 -5 -6
-8 -5 -8 3 0 10 -5 10 -21 1 -12 -6 -19 -7 -15 -1 8 13 -57 10 -66 -3 -5 -6
-8 -5 -8 3 0 14 -31 13 -41 -2 -4 -5 -13 -5 -20 0 -20 12 -49 12 -49 0 0 -8
-3 -8 -8 0 -8 12 -53 14 -46 2 3 -4 0 -8 -5 -8 -6 0 -11 4 -11 9 0 5 -11 8
-25 7 -14 0 -25 -5 -25 -11 0 -5 -4 -4 -9 3 -11 17 -21 17 -32 0 -7 -10 -9
-10 -9 0 0 6 -5 12 -11 12 -5 0 -7 -5 -3 -12 5 -7 3 -8 -7 -3 -20 13 -49 13
-49 1 0 -8 -3 -8 -8 0 -8 12 -53 14 -46 2 3 -4 0 -8 -5 -8 -6 0 -11 4 -11 9 0
5 -11 8 -25 7 -14 0 -25 -5 -25 -11 0 -5 -4 -4 -9 3 -11 17 -21 17 -32 0 -7
-10 -9 -10 -9 0 0 6 -5 12 -11 12 -5 0 -7 -5 -3 -12 5 -7 3 -8 -7 -3 -20 13
-49 13 -49 1 0 -8 -3 -8 -8 0 -8 12 -53 14 -46 2 3 -4 0 -8 -5 -8 -6 0 -11 5
-11 10 0 11 -41 7 -61 -6 -7 -4 -9 -3 -6 3 9 14 -55 12 -65 -2 -5 -6 -8 -5 -8
3 0 15 -31 12 -42 -3 -5 -6 -8 -5 -8 3 0 10 -5 10 -21 1 -12 -6 -19 -7 -15 -1
8 13 -57 10 -66 -3 -5 -6 -8 -5 -8 3 0 15 -31 12 -42 -3 -5 -6 -8 -5 -8 3 0
10 -5 10 -21 1 -12 -6 -19 -7 -15 -1 8 13 -57 10 -66 -3 -5 -6 -8 -5 -8 3 0
15 -31 12 -42 -3 -5 -6 -8 -5 -8 3 0 10 -5 10 -21 1 -12 -6 -19 -7 -15 -1 8
13 -57 10 -66 -3 -5 -6 -8 -5 -8 3 0 14 -31 13 -41 -2 -4 -5 -13 -5 -20 0 -20
12 -49 12 -49 0 0 -8 -3 -8 -8 0 -8 12 -53 14 -46 2 3 -4 0 -8 -5 -8 -6 0 -11
4 -11 9 0 5 -11 8 -25 7 -14 0 -25 -5 -25 -11 0 -5 -4 -4 -9 3 -11 17 -21 17
-32 0 -7 -10 -9 -10 -9 0 0 6 -5 12 -11 12 -5 0 -7 -5 -3 -12 5 -7 3 -8 -7 -3
-20 13 -49 13 -49 1 0 -8 -3 -8 -8 0 -8 12 -53 14 -46 2 3 -4 0 -8 -5 -8 -6 0
-11 4 -11 9 0 5 -11 8 -25 7 -14 0 -25 -5 -25 -11 0 -5 -4 -4 -9 3 -11 17 -21
17 -32 0 -7 -10 -9 -10 -9 0 0 6 -5 12 -11 12 -5 0 -7 -5 -3 -12 5 -7 3 -8 -7
-3 -20 13 -49 13 -49 1 0 -8 -3 -8 -8 0 -8 12 -53 14 -46 2 3 -4 0 -8 -5 -8
-6 0 -11 5 -11 10 0 11 -41 7 -61 -6 -7 -4 -9 -3 -6 3 9 14 -55 12 -65 -2 -5
-6 -8 -5 -8 3 0 15 -31 12 -42 -3 -5 -6 -8 -5 -8 3 0 10 -5 10 -21 1 -12 -6
-19 -7 -15 -1 8 13 -57 10 -66 -3 -5 -6 -8 -5 -8 3 0 14 -31 13 -41 -2 -4 -5
-13 -5 -20 0 -20 12 -49 12 -49 0 0 -8 -3 -8 -8 0 -8 12 -53 14 -46 2 3 -4 0
-8 -5 -8 -6 0 -11 4 -11 9 0 5 -11 8 -25 7 -14 0 -25 -5 -25 -11 0 -5 -4 -4
-9 3 -4 8 -12 14 -16 14 -4 0 -12 -6 -16 -14 -7 -10 -9 -10 -9 0 0 6 -5 12
-11 12 -5 0 -7 -5 -3 -12 5 -7 3 -8 -7 -3 -20 13 -49 13 -49 1 0 -8 -3 -8 -8
0 -8 12 -53 14 -46 2 3 -4 0 -8 -5 -8 -6 0 -11 4 -11 9 0 5 -11 8 -25 7 -14 0
-25 -5 -25 -11 0 -5 -4 -4 -9 3 -11 17 -21 17 -32 0 -7 -10 -9 -10 -9 0 0 6
-5 12 -11 12 -5 0 -7 -5 -3 -12 5 -7 3 -8 -7 -3 -20 13 -49 13 -49 1 0 -8 -3
-8 -8 0 -8 12 -53 14 -46 2 3 -4 1 -8 -5 -8 -5 0 -11 6 -14 13 -3 9 -7 9 -19
0 -8 -7 -18 -10 -22 -6 -11 11 -46 10 -46 -1 0 -8 -3 -8 -8 0 -8 12 -53 14
-46 2 3 -4 0 -8 -5 -8 -6 0 -11 4 -11 9 0 5 -11 8 -25 7 -14 0 -25 -5 -25 -11
0 -5 -4 -4 -9 3 -4 8 -12 14 -16 14 -4 0 -12 -6 -16 -14 -7 -10 -9 -10 -9 0 0
6 -5 12 -11 12 -5 0 -7 -5 -3 -12 5 -7 3 -8 -7 -3 -20 13 -49 13 -49 1 0 -8
-3 -8 -8 0 -8 12 -53 14 -46 2 3 -4 0 -8 -5 -8 -6 0 -11 4 -11 9 0 5 -11 8
-25 7 -14 0 -25 -5 -25 -11 0 -5 -4 -4 -9 3 -4 8 -12 14 -16 14 -4 0 -12 -6
-16 -14 -7 -10 -9 -10 -9 0 0 6 -5 12 -11 12 -5 0 -7 -5 -3 -12 5 -7 3 -8 -7
-3 -20 13 -49 13 -49 1 0 -8 -3 -8 -8 0 -8 12 -53 14 -46 2 3 -4 0 -8 -5 -8
-6 0 -11 4 -11 9 0 5 -11 8 -25 7 -14 0 -25 -5 -25 -11 0 -5 -4 -4 -9 3 -4 8
-12 14 -16 14 -4 0 -12 -6 -16 -14 -7 -10 -9 -10 -9 0 0 7 -4 10 -10 7 -12 -7
-12 -9 -12 125 0 166 -6 150 52 146 28 -1 53 2 57 7 3 5 8 5 12 1 3 -5 14 -10
25 -12z m9 -495 c-4 -6 -1 -7 8 -1 20 13 90 14 82 1 -4 -6 -1 -7 8 -1 20 13
230 14 222 1 -4 -6 -1 -7 8 -1 20 13 90 14 82 1 -4 -6 -1 -7 8 -1 20 13 230
14 222 1 -4 -6 -1 -7 8 -1 20 13 90 14 82 1 -4 -6 -1 -7 8 -1 20 13 230 14
222 1 -4 -6 -1 -7 8 -1 20 13 90 14 82 1 -4 -6 -1 -7 8 -1 21 14 239 14 239 0
0 -8 2 -8 8 0 10 15 153 15 145 0 -5 -8 -3 -8 8 0 19 14 60 16 75 3 8 -6 14
-6 18 0 3 5 22 9 41 9 22 0 33 -4 28 -11 -4 -6 -1 -7 8 -1 20 13 170 13 162 1
-4 -6 -1 -7 8 -1 20 13 111 13 128 0 11 -8 13 -8 8 0 -8 13 60 14 80 1 6 -4
14 -3 17 2 3 5 22 9 41 9 24 0 33 -4 28 -11 -5 -9 -3 -9 8 -1 18 15 149 15
149 0 0 -8 2 -8 8 0 9 14 154 15 145 1 -4 -6 -1 -7 8 -1 21 13 159 13 159 0 0
-8 2 -8 8 0 10 15 153 15 145 0 -5 -8 -3 -8 8 0 19 14 60 16 75 3 8 -6 14 -6
18 0 3 5 22 9 41 9 22 0 33 -4 28 -11 -4 -6 -1 -7 8 -1 20 13 170 13 162 1 -4
-6 -1 -7 8 -1 20 13 111 13 128 0 11 -8 13 -8 8 0 -8 13 60 14 80 1 6 -4 14
-3 17 2 3 5 22 9 41 9 24 0 33 -4 28 -11 -5 -9 -3 -9 8 -1 18 15 149 15 149 0
0 -8 2 -8 8 0 9 14 154 15 145 1 -4 -6 -1 -7 8 -1 20 13 150 13 142 1 -4 -6
-1 -7 8 -1 20 13 90 14 82 1 -4 -6 -1 -7 8 -1 20 13 230 14 222 1 -4 -6 -1 -7
8 -1 22 14 90 14 82 0 -5 -8 -3 -8 8 0 17 14 49 14 49 1 0 -13 100 -111 123
-120 9 -3 17 -11 17 -17 0 -6 4 -9 9 -5 5 3 12 1 16 -5 4 -6 11 -8 16 -5 5 4
12 0 15 -8 3 -8 13 -14 22 -13 9 2 23 -3 31 -11 7 -8 20 -12 27 -9 8 3 14 1
14 -4 0 -6 5 -9 11 -7 6 1 14 -5 16 -13 3 -9 1 -11 -4 -4 -9 12 -53 11 -73 -1
-9 -5 -11 -4 -6 3 9 15 1 15 -26 1 -15 -8 -19 -8 -14 0 10 15 -7 14 -22 -1 -8
-8 -12 -9 -12 -1 0 12 -59 11 -78 -1 -6 -3 -13 -2 -17 4 -9 15 -28 12 -19 -3
5 -9 4 -9 -6 0 -9 8 -19 9 -31 3 -11 -7 -20 -7 -24 0 -9 15 -27 12 -19 -3 5
-9 4 -9 -6 0 -9 8 -19 9 -31 3 -11 -7 -20 -7 -24 0 -9 15 -27 12 -19 -3 5 -9
4 -9 -6 0 -9 8 -19 9 -31 3 -11 -7 -20 -7 -24 0 -9 15 -27 12 -19 -3 5 -9 4
-9 -6 0 -9 8 -19 9 -31 3 -11 -7 -20 -7 -24 0 -9 15 -27 12 -19 -2 5 -10 4
-10 -6 -1 -9 8 -19 9 -31 3 -11 -7 -20 -7 -24 0 -9 15 -27 12 -19 -2 5 -10 4
-10 -6 -1 -9 8 -19 9 -31 3 -11 -7 -20 -7 -24 0 -9 15 -27 12 -19 -3 5 -9 4
-9 -6 0 -9 8 -19 9 -31 3 -11 -7 -20 -7 -24 0 -3 5 -11 10 -16 10 -6 0 -7 -4
-4 -10 5 -8 -24 -2 -45 10 -3 2 -15 -2 -27 -8 -14 -8 -24 -9 -28 -2 -3 5 -11
10 -16 10 -6 0 -7 -4 -4 -10 4 -6 -2 -7 -18 -1 -13 5 -30 5 -37 1 -8 -5 -19
-5 -26 1 -8 7 -14 6 -19 -1 -3 -6 -12 -7 -18 -3 -17 10 -59 11 -79 1 -10 -5
-19 -4 -23 2 -3 5 -11 10 -16 10 -6 0 -7 -4 -4 -10 4 -6 -2 -7 -18 -1 -13 5
-30 5 -37 1 -8 -5 -19 -5 -26 1 -8 7 -14 6 -19 -1 -3 -6 -12 -7 -18 -3 -17 10
-59 11 -79 1 -10 -5 -19 -4 -23 2 -3 5 -11 10 -16 10 -6 0 -7 -4 -4 -10 4 -6
-2 -7 -18 -1 -13 5 -30 5 -37 1 -8 -5 -19 -5 -26 1 -8 7 -14 6 -19 -1 -3 -6
-12 -7 -18 -3 -17 10 -59 11 -79 1 -10 -5 -19 -4 -23 2 -3 5 -11 10 -16 10 -6
0 -7 -4 -4 -10 4 -6 -2 -7 -18 -1 -13 5 -30 5 -37 1 -8 -5 -19 -5 -26 1 -8 7
-14 6 -19 -1 -3 -6 -12 -7 -18 -3 -17 10 -59 11 -79 1 -10 -5 -19 -4 -23 2 -3
5 -11 10 -16 10 -6 0 -7 -4 -4 -10 4 -6 -2 -7 -18 -1 -13 5 -30 5 -37 1 -8 -5
-19 -5 -26 1 -8 7 -14 6 -19 -1 -3 -6 -12 -7 -18 -3 -17 10 -59 11 -79 1 -10
-5 -19 -4 -23 2 -3 5 -11 10 -16 10 -6 0 -7 -4 -4 -10 4 -6 -2 -7 -18 -1 -13
5 -30 5 -37 1 -8 -5 -19 -5 -26 1 -8 7 -14 6 -19 -1 -3 -6 -12 -7 -18 -3 -17
10 -59 11 -79 1 -10 -5 -19 -4 -23 2 -3 5 -11 10 -16 10 -6 0 -7 -4 -4 -10 4
-6 -2 -7 -18 -1 -13 5 -30 5 -37 1 -8 -5 -19 -5 -26 1 -8 7 -14 6 -19 -1 -3
-6 -12 -7 -18 -3 -17 10 -59 11 -79 1 -10 -5 -19 -4 -23 2 -3 5 -11 10 -16 10
-6 0 -7 -4 -4 -10 4 -6 -2 -7 -18 -1 -13 5 -30 5 -37 1 -8 -5 -19 -5 -26 1 -8
7 -14 6 -19 -1 -3 -6 -12 -7 -18 -3 -17 10 -59 11 -79 1 -10 -5 -19 -4 -23 2
-3 5 -11 10 -16 10 -6 0 -7 -4 -4 -10 4 -6 -2 -7 -18 -1 -13 5 -30 5 -37 1 -8
-5 -19 -5 -26 1 -8 7 -14 6 -19 -1 -3 -6 -12 -7 -18 -3 -17 10 -59 11 -79 1
-10 -5 -19 -4 -23 2 -3 5 -11 10 -16 10 -6 0 -7 -4 -4 -10 4 -6 -2 -7 -18 -1
-13 5 -30 5 -37 1 -8 -5 -19 -5 -26 1 -8 7 -14 6 -19 -1 -3 -6 -12 -7 -18 -3
-17 10 -59 11 -79 1 -10 -5 -19 -4 -23 2 -3 5 -11 10 -16 10 -6 0 -7 -4 -4
-10 4 -6 -4 -6 -22 1 -15 6 -28 11 -28 11 0 1 -10 -4 -22 -10 -14 -8 -24 -9
-28 -2 -9 15 -27 12 -19 -2 5 -10 4 -10 -6 -1 -9 8 -19 9 -31 3 -11 -7 -20 -7
-24 0 -9 15 -27 12 -19 -2 5 -10 4 -10 -6 -1 -9 8 -19 9 -31 3 -11 -7 -20 -7
-24 0 -9 15 -27 12 -19 -2 5 -10 4 -10 -6 -1 -9 8 -19 9 -31 3 -11 -7 -20 -7
-24 0 -9 15 -27 12 -19 -2 5 -10 4 -10 -6 -1 -9 8 -19 9 -31 3 -11 -7 -20 -7
-24 0 -9 15 -27 12 -19 -2 5 -10 4 -10 -6 -1 -9 8 -19 9 -31 3 -11 -7 -20 -7
-24 0 -9 15 -27 12 -19 -2 5 -10 4 -10 -6 -1 -9 8 -19 9 -31 3 -11 -7 -20 -7
-24 0 -9 15 -27 12 -19 -2 5 -10 4 -10 -6 -1 -9 8 -19 9 -31 3 -11 -7 -20 -7
-24 0 -9 15 -27 12 -19 -2 5 -10 4 -10 -6 -1 -9 8 -19 9 -31 3 -11 -7 -20 -7
-24 0 -9 15 -27 12 -19 -2 5 -10 4 -10 -6 -1 -9 8 -19 9 -31 3 -11 -7 -20 -7
-24 0 -9 15 -27 12 -19 -2 5 -10 4 -10 -6 -1 -9 8 -19 9 -31 3 -11 -7 -20 -7
-24 0 -9 15 -27 12 -19 -2 5 -10 4 -10 -6 -1 -9 8 -19 9 -31 3 -11 -7 -20 -7
-24 0 -9 15 -27 12 -19 -2 5 -10 4 -10 -6 -1 -9 8 -19 9 -31 3 -11 -7 -20 -7
-24 0 -9 15 -27 12 -19 -2 5 -10 4 -10 -6 -1 -9 8 -19 9 -31 3 -11 -7 -20 -7
-24 0 -9 15 -27 12 -19 -2 5 -10 4 -10 -6 -1 -9 8 -19 9 -31 3 -11 -7 -20 -7
-24 0 -9 15 -27 12 -19 -2 5 -10 4 -10 -6 -1 -9 8 -19 9 -31 3 -11 -7 -20 -7
-24 0 -3 5 -11 10 -16 10 -6 0 -7 -4 -4 -10 4 -6 -2 -7 -17 -1 -29 11 -39 11
-60 0 -25 -14 -30 2 -32 110 -1 90 0 99 19 108 27 12 146 12 138 0z"/>
<path d="M1905 1560 c4 -6 11 -8 16 -5 14 9 11 15 -7 15 -8 0 -12 -5 -9 -10z"/>
</g>
</svg>
