<svg width="215" height="200" viewBox="0 0 215 200" fill="none" xmlns="http://www.w3.org/2000/svg">
<g clip-path="url(#clip0_79_3483)">
<path d="M214.076 115.494C216.748 75.3963 196.494 37.0089 161.389 17.4475C154.817 13.7888 147.869 10.8512 140.666 8.68586C84.4755 -8.26034 63.5157 6.01015 48.7993 23.8483C34.0829 41.6864 47.9074 72.0111 30.9612 84.4978C14.015 96.9845 -6.49884 114.823 1.97427 141.134C10.4474 167.445 31.4071 184.837 51.0291 183.053C70.651 181.27 91.1648 158.08 104.989 173.242C118.814 188.405 162.963 203.121 191.95 177.702C207.441 164.117 212.616 137.415 214.076 115.494Z" fill="#D5E1F7"/>
<path d="M192.919 121.44C191.045 121.757 187.534 124.169 187.532 124.17C187.495 124.195 189.824 126.002 189.984 126.099C191.836 127.224 196.075 128.306 197.909 126.719C198.206 126.446 198.443 126.115 198.603 125.745C198.764 125.375 198.845 124.976 198.841 124.573C198.837 124.17 198.748 123.772 198.581 123.406C198.413 123.039 198.17 122.712 197.867 122.446C196.621 121.271 194.514 121.171 192.919 121.44Z" fill="#5AABE4"/>
<path d="M184.937 111.923C183.281 112.691 180.704 115.694 180.5 115.934C178.786 114.456 176.975 113.095 175.08 111.859C173.98 111.132 172.849 110.434 171.707 109.749C172.275 109.984 172.785 110.19 172.859 110.212C174.942 110.807 179.317 110.732 180.666 108.716C180.881 108.375 181.022 107.993 181.079 107.594C181.136 107.195 181.109 106.788 180.999 106.4C180.889 106.013 180.698 105.653 180.439 105.344C180.181 105.034 179.86 104.783 179.498 104.606C177.986 103.802 175.927 104.262 174.46 104.943C172.97 105.634 170.722 108.15 170.136 108.824C169.695 108.566 169.257 108.303 168.815 108.047C166.695 106.815 164.573 105.596 162.529 104.336C161.809 103.893 161.115 103.429 160.42 102.968C160.925 103.176 161.352 103.348 161.42 103.367C163.502 103.962 167.877 103.887 169.227 101.871C169.442 101.53 169.582 101.148 169.639 100.749C169.697 100.35 169.669 99.9434 169.559 99.5558C169.449 99.1681 169.258 98.808 169 98.4989C168.741 98.1897 168.421 97.9385 168.058 97.7615C166.546 96.9573 164.487 97.4171 163.02 98.0987C161.599 98.7582 159.502 101.062 158.802 101.859C158.104 101.365 157.404 100.872 156.75 100.362C156.312 100.004 155.864 99.69 155.444 99.3053C155.019 98.9337 154.599 98.5656 154.183 98.201C153.408 97.4699 152.603 96.7201 151.864 95.9876C151.347 95.4821 150.863 94.9908 150.374 94.4973C151.086 94.9473 152.499 95.7989 152.625 95.8567C154.593 96.7606 158.929 97.349 160.569 95.5607C160.833 95.2562 161.03 94.8995 161.147 94.5138C161.264 94.1282 161.298 93.7222 161.248 93.3224C161.198 92.9225 161.064 92.5377 160.855 92.193C160.646 91.8483 160.367 91.5514 160.036 91.3217C158.663 90.2977 156.559 90.4403 155.005 90.8913C153.294 91.3884 150.398 93.8515 150.038 94.1615C149.232 93.3423 148.456 92.5377 147.735 91.7666C146.141 90.0681 144.76 88.5143 143.613 87.1847L142.282 88.0553C143.5 89.4105 144.978 91.0074 146.698 92.761C147.513 93.5964 148.401 94.4726 149.321 95.3639C148.62 96.366 147.978 97.4084 147.399 98.4858C145.623 98.0402 142.099 98.4651 141.645 98.5232C141.424 97.395 141.221 96.2955 141.046 95.2552C140.673 93.0791 140.389 91.1189 140.17 89.4367L138.732 90.378C138.972 91.9036 139.266 93.6273 139.631 95.5121C139.85 96.6586 140.107 97.8796 140.383 99.1302C139.949 99.3003 136.409 100.71 135.168 101.991C134.042 103.154 132.932 104.947 133.194 106.64C133.243 107.04 133.375 107.426 133.582 107.771C133.789 108.117 134.066 108.415 134.396 108.647C134.726 108.878 135.101 109.037 135.497 109.114C135.893 109.191 136.3 109.184 136.693 109.093C139.04 108.481 140.548 104.373 140.669 102.21C140.677 102.082 140.6 100.689 140.537 99.8115C140.653 100.322 140.759 100.819 140.885 101.343C141.125 102.381 141.396 103.41 141.683 104.518C141.84 105.048 141.999 105.584 142.16 106.125C142.308 106.664 142.533 107.216 142.718 107.767C143.175 109.038 143.7 110.302 144.258 111.565C143.349 111.778 140.134 112.58 138.839 113.563C137.551 114.542 136.181 116.146 136.185 117.859C136.172 118.262 136.244 118.663 136.396 119.036C136.549 119.409 136.778 119.746 137.069 120.025C137.36 120.304 137.706 120.518 138.086 120.654C138.465 120.79 138.869 120.845 139.271 120.814C141.684 120.564 143.797 116.732 144.245 114.613C144.273 114.481 144.424 112.924 144.49 112.067C144.831 112.823 145.167 113.58 145.537 114.334C146.604 116.51 147.752 118.68 148.887 120.849C149.236 121.514 149.574 122.18 149.916 122.846C149.592 122.918 145.75 123.789 144.3 124.89C143.011 125.868 141.641 127.473 141.645 129.186C141.632 129.589 141.704 129.99 141.856 130.363C142.009 130.736 142.238 131.073 142.529 131.351C142.82 131.63 143.167 131.844 143.546 131.98C143.925 132.116 144.329 132.171 144.731 132.14C147.144 131.891 149.256 128.059 149.705 125.94C149.738 125.78 149.952 123.539 149.979 122.967C150.731 124.433 151.467 125.901 152.134 127.378C153.045 129.368 153.825 131.414 154.471 133.505C154.32 133.538 150.306 134.429 148.821 135.557C147.532 136.536 146.162 138.14 146.166 139.853C146.153 140.256 146.225 140.657 146.377 141.03C146.53 141.403 146.759 141.74 147.05 142.019C147.341 142.297 147.688 142.512 148.067 142.648C148.446 142.784 148.85 142.838 149.252 142.808C151.665 142.558 153.777 138.726 154.226 136.607C154.261 136.441 154.49 134.03 154.5 133.59C154.536 133.711 154.588 133.833 154.623 133.955C155.212 136.069 155.612 138.232 155.818 140.418C155.947 141.623 156.003 142.783 156.033 143.912C155.268 144.001 151.778 144.448 150.329 145.315C148.941 146.146 147.403 147.591 147.219 149.293C147.162 149.692 147.189 150.099 147.3 150.486C147.41 150.874 147.601 151.234 147.859 151.543C148.118 151.852 148.439 152.103 148.801 152.28C149.163 152.457 149.559 152.555 149.961 152.569C152.388 152.586 154.908 149.009 155.586 146.952C155.623 146.84 155.872 145.661 156.041 144.8C156.047 145.31 156.062 145.836 156.058 146.325C156.045 148.159 155.921 149.838 155.798 151.325C155.722 152.169 155.636 152.931 155.548 153.644C154.844 154.123 152.028 156.089 151.158 157.5C150.309 158.878 149.609 160.868 150.23 162.465C150.363 162.845 150.575 163.193 150.852 163.486C151.128 163.779 151.464 164.011 151.836 164.166C152.208 164.321 152.608 164.396 153.011 164.386C153.414 164.376 153.81 164.281 154.174 164.108C156.335 163.005 156.924 158.67 156.578 156.531C156.548 156.346 155.748 153.509 155.711 153.534C155.711 153.534 155.677 153.557 155.669 153.563C155.767 152.879 155.864 152.145 155.955 151.341C156.11 149.854 156.271 148.173 156.323 146.332C156.402 144.348 156.365 142.362 156.212 140.382C156.051 138.165 155.694 135.966 155.143 133.812C155.136 133.787 155.126 133.761 155.119 133.736C155.498 134.337 156.612 135.984 156.712 136.101C158.122 137.746 161.811 140.097 164.05 139.16C164.417 138.994 164.745 138.753 165.013 138.452C165.281 138.151 165.482 137.796 165.604 137.412C165.726 137.028 165.766 136.623 165.721 136.222C165.676 135.822 165.547 135.435 165.342 135.088C164.524 133.583 162.554 132.831 160.954 132.589C159.149 132.317 155.344 133.4 155.041 133.487C154.426 131.309 153.667 129.175 152.769 127.098C152.252 125.885 151.693 124.68 151.119 123.478C151.463 123.988 151.774 124.441 151.824 124.499C153.234 126.145 156.923 128.496 159.162 127.559C159.529 127.393 159.857 127.151 160.125 126.85C160.393 126.549 160.594 126.195 160.716 125.811C160.838 125.427 160.878 125.021 160.833 124.621C160.787 124.22 160.658 123.834 160.454 123.486C159.637 121.981 157.666 121.229 156.066 120.988C154.442 120.743 151.179 121.601 150.319 121.84C150.093 121.381 149.873 120.92 149.646 120.463C148.557 118.266 147.46 116.079 146.45 113.9C146.094 113.133 145.771 112.364 145.446 111.596C145.752 112.048 146.013 112.426 146.059 112.479C147.468 114.125 151.158 116.476 153.396 115.539C153.763 115.373 154.091 115.132 154.359 114.831C154.627 114.53 154.829 114.175 154.951 113.791C155.073 113.407 155.112 113.001 155.067 112.601C155.022 112.2 154.893 111.814 154.689 111.466C153.872 109.962 151.9 109.209 150.3 108.968C148.751 108.734 145.732 109.499 144.708 109.778C144.398 108.981 144.087 108.184 143.822 107.398C143.654 106.857 143.455 106.348 143.316 105.795C143.167 105.251 143.02 104.713 142.873 104.179C142.63 103.141 142.372 102.072 142.16 101.054C142.007 100.346 141.875 99.6695 141.739 98.9887C142.085 99.7566 142.794 101.246 142.867 101.364C143.932 102.944 145.385 104.225 147.087 105.084C147.197 105.265 147.325 105.436 147.468 105.593C147.729 105.9 148.051 106.149 148.415 106.323C148.778 106.497 149.174 106.593 149.577 106.604C149.98 106.615 150.381 106.541 150.753 106.387C151.126 106.233 151.461 106.002 151.739 105.709C153.359 103.904 152.35 99.646 151.259 97.7751C151.194 97.6646 150.362 96.545 149.825 95.8471C150.204 96.2091 150.566 96.5652 150.96 96.9331C151.733 97.6661 152.526 98.3747 153.377 99.1411C153.801 99.4965 154.229 99.8554 154.662 100.218C155.082 100.586 155.574 100.922 156.033 101.28C157.115 102.087 158.251 102.852 159.412 103.598C158.772 104.277 156.533 106.719 155.996 108.254C155.46 109.781 155.204 111.875 156.151 113.301C156.362 113.644 156.644 113.939 156.977 114.166C157.309 114.393 157.686 114.548 158.083 114.62C158.48 114.692 158.887 114.679 159.278 114.583C159.67 114.488 160.037 114.31 160.355 114.063C162.23 112.524 161.878 108.162 161.083 106.147C161.033 106.021 160.3 104.64 159.883 103.889C160.584 104.331 161.283 104.777 162.007 105.201C164.097 106.428 166.252 107.605 168.396 108.788C169.053 109.15 169.703 109.518 170.355 109.885C170.124 110.124 167.4 112.971 166.798 114.689C166.263 116.216 166.006 118.31 166.954 119.736C167.165 120.079 167.447 120.374 167.779 120.601C168.112 120.828 168.489 120.983 168.886 121.055C169.282 121.127 169.69 121.114 170.081 121.018C170.472 120.923 170.839 120.745 171.158 120.498C173.033 118.959 172.681 114.598 171.886 112.582C171.826 112.431 170.768 110.444 170.474 109.952C171.91 110.76 173.334 111.578 174.705 112.442C176.562 113.599 178.343 114.875 180.035 116.263C179.927 116.374 177.07 119.332 176.454 121.092C175.919 122.619 175.661 124.713 176.61 126.139C176.821 126.482 177.102 126.777 177.435 127.004C177.768 127.231 178.145 127.386 178.541 127.458C178.938 127.53 179.345 127.517 179.737 127.421C180.128 127.325 180.495 127.148 180.813 126.901C182.688 125.362 182.336 121 181.541 118.985C181.479 118.827 180.339 116.69 180.105 116.318C180.203 116.399 180.313 116.472 180.409 116.554C182.067 117.993 183.594 119.576 184.972 121.286C185.744 122.219 186.431 123.156 187.078 124.081C186.49 124.578 183.825 126.876 183.095 128.398C182.396 129.858 181.91 131.911 182.695 133.432C182.868 133.796 183.115 134.12 183.421 134.383C183.727 134.645 184.084 134.84 184.471 134.955C184.857 135.07 185.263 135.103 185.663 135.05C186.062 134.998 186.446 134.862 186.79 134.652C188.823 133.327 188.952 128.954 188.383 126.864C188.352 126.75 187.91 125.629 187.576 124.817C187.861 125.24 188.164 125.67 188.43 126.08C189.431 127.617 190.254 129.087 190.972 130.394C191.374 131.14 191.723 131.824 192.042 132.466C191.719 133.254 190.456 136.448 190.508 138.105C190.56 139.722 191.075 141.768 192.473 142.756C192.794 143 193.163 143.174 193.555 143.266C193.948 143.358 194.355 143.366 194.751 143.29C195.147 143.214 195.522 143.056 195.853 142.825C196.183 142.595 196.462 142.297 196.67 141.952C197.863 139.84 195.962 135.899 194.495 134.306C194.367 134.168 192.136 132.244 192.118 132.284C192.118 132.284 192.102 132.323 192.099 132.332C191.804 131.707 191.48 131.041 191.111 130.321C190.421 128.995 189.628 127.504 188.656 125.939C187.627 124.241 186.5 122.605 185.28 121.039C183.923 119.278 182.412 117.641 180.764 116.149C180.745 116.131 180.722 116.116 180.702 116.098C181.35 116.391 183.188 117.149 183.336 117.191C185.419 117.787 189.794 117.712 191.143 115.696C191.358 115.355 191.499 114.972 191.556 114.573C191.613 114.175 191.586 113.768 191.476 113.38C191.365 112.993 191.175 112.632 190.916 112.323C190.658 112.014 190.337 111.763 189.975 111.586C188.463 110.782 186.404 111.242 184.937 111.923Z" fill="#5AABE4"/>
<path d="M156.362 144.235C156.318 144.236 157.263 147.028 157.343 147.197C158.268 149.156 161.206 152.398 163.612 152.085C164.01 152.022 164.39 151.876 164.728 151.656C165.066 151.437 165.354 151.148 165.573 150.81C165.792 150.472 165.937 150.091 165.999 149.693C166.061 149.295 166.039 148.888 165.933 148.499C165.543 146.832 163.84 145.585 162.361 144.93C160.624 144.161 156.365 144.236 156.362 144.235Z" fill="#5AABE4"/>
<path d="M60.6635 48.3858C61.9854 47.6267 63.9578 44.8358 63.9594 44.8337C63.9797 44.8048 61.725 44.092 61.5777 44.0634C59.8713 43.7318 56.3793 44.0949 55.4402 45.7999C55.2922 46.0873 55.2063 46.4028 55.1882 46.7256C55.1701 47.0485 55.2201 47.3716 55.3351 47.6738C55.45 47.9761 55.6273 48.2507 55.8554 48.4799C56.0835 48.7091 56.3573 48.8878 56.659 49.0042C57.9236 49.5425 59.5373 49.032 60.6635 48.3858Z" fill="#5AABE4"/>
<path d="M69.3169 53.331C70.3494 52.2925 71.4545 49.3161 71.5414 49.0788C73.2423 49.7145 74.9836 50.236 76.7539 50.6397C77.7838 50.8811 78.8287 51.0919 79.879 51.2902C79.3861 51.2711 78.9452 51.2576 78.8832 51.2621C77.1497 51.3934 73.8778 52.6657 73.4226 54.558C73.3556 54.8743 73.356 55.2013 73.4237 55.5175C73.4915 55.8337 73.625 56.1321 73.8157 56.3933C74.0064 56.6544 74.25 56.8725 74.5305 57.0334C74.8111 57.1942 75.1224 57.2941 75.4441 57.3267C76.8054 57.5122 78.2278 56.5934 79.1428 55.6727C80.0718 54.7385 81.0648 52.22 81.3188 51.5497C81.7225 51.6216 82.1247 51.6978 82.5287 51.768C84.4671 52.1054 86.4026 52.4337 88.2914 52.8139C88.9571 52.9475 89.6077 53.1037 90.2595 53.2573C89.8215 53.2408 89.4526 53.2306 89.396 53.2347C87.6629 53.366 84.3908 54.638 83.9354 56.5306C83.8684 56.847 83.8688 57.1739 83.9366 57.4901C84.0043 57.8063 84.1379 58.1046 84.3286 58.3658C84.5193 58.627 84.7628 58.8451 85.0433 59.0059C85.3239 59.1667 85.6351 59.2667 85.9569 59.2993C87.3188 59.4842 88.7405 58.566 89.6557 57.6451C90.5422 56.7536 91.4797 54.4371 91.7851 53.6425C92.4478 53.82 93.1117 53.9968 93.7456 54.1988C94.1754 54.3465 94.5996 54.4586 95.0226 54.6314C95.4455 54.7931 95.8642 54.9533 96.2785 55.1122C97.0654 55.4469 97.8797 55.7876 98.6391 56.1337C99.1692 56.3703 99.6699 56.6056 100.175 56.8412C99.5141 56.7004 98.2141 56.4521 98.103 56.4436C96.3702 56.3102 92.9433 57.0724 92.2061 58.8742C92.092 59.1768 92.0429 59.5 92.062 59.8228C92.0812 60.1456 92.168 60.4607 92.317 60.7477C92.4659 61.0347 92.6736 61.2872 92.9266 61.4886C93.1795 61.69 93.4721 61.8359 93.7852 61.9168C95.1029 62.3061 96.6474 61.6138 97.6917 60.8425C98.8412 59.9928 100.336 57.334 100.521 57.0006C101.355 57.3932 102.163 57.7831 102.92 58.1633C104.592 58.9986 106.064 59.7842 107.297 60.4663L108.056 59.4411C106.763 58.7595 105.207 57.9683 103.425 57.1263C102.579 56.7241 101.667 56.3113 100.727 55.8962C100.976 54.947 101.17 53.984 101.306 53.0121C102.766 52.8542 105.301 51.5549 105.626 51.3849C106.106 52.1727 106.565 52.9438 106.986 53.6781C107.871 55.2125 108.629 56.6091 109.262 57.8144L110.083 56.706C109.479 55.6245 108.778 54.4089 107.979 53.0915C107.496 52.2895 106.963 51.4419 106.408 50.5772C106.687 50.3286 108.96 48.2837 109.538 46.9743C110.062 45.7866 110.4 44.1277 109.731 42.9267C109.584 42.6389 109.377 42.3854 109.125 42.1828C108.873 41.9801 108.582 41.8327 108.269 41.7503C107.956 41.6679 107.63 41.6522 107.31 41.7043C106.991 41.7564 106.687 41.8752 106.416 42.0528C104.82 43.1659 104.827 46.6766 105.336 48.3386C105.366 48.4368 105.811 49.464 106.102 50.1074C105.873 49.7553 105.655 49.4107 105.415 49.0512C104.946 48.3363 104.456 47.6373 103.932 46.8833C103.666 46.5279 103.398 46.1689 103.126 45.8064C102.865 45.4413 102.543 45.0888 102.25 44.7251C101.552 43.8959 100.806 43.09 100.035 42.2948C100.66 41.8819 102.857 40.3844 103.558 39.2847C104.256 38.1898 104.841 36.6016 104.362 35.3135C104.26 35.0067 104.094 34.7248 103.876 34.4863C103.658 34.2477 103.392 34.0578 103.095 33.9289C102.798 33.8 102.478 33.7349 102.155 33.738C101.831 33.7411 101.512 33.8122 101.218 33.9467C99.4713 34.8057 98.9462 38.2769 99.1978 39.9968C99.2133 40.104 99.5327 41.3179 99.721 41.9811C99.2542 41.5067 98.7907 41.0309 98.3027 40.5662C96.8949 39.2246 95.4277 37.9105 93.9703 36.5929C93.5234 36.1896 93.0832 35.7822 92.6409 35.3762C92.8649 35.2318 95.5148 33.5084 96.3002 32.2765C96.9984 31.1821 97.5833 29.5934 97.1044 28.3053C97.0022 27.9985 96.8365 27.7167 96.6182 27.4782C96.3999 27.2396 96.1338 27.0498 95.8372 26.9209C95.5406 26.792 95.2202 26.727 94.8969 26.7301C94.5736 26.7332 94.2545 26.8044 93.9605 26.939C92.2136 27.7976 91.6885 31.2687 91.9401 32.9885C91.9591 33.118 92.4209 34.8641 92.5601 35.3024C91.5863 34.4077 90.6243 33.5075 89.712 32.5811C88.4734 31.3367 87.3169 30.0132 86.2498 28.619C86.3542 28.5521 89.1281 26.7655 89.9326 25.5042C90.6307 24.4093 91.2157 22.8207 90.7368 21.5328C90.6346 21.226 90.469 20.9441 90.2506 20.7056C90.0323 20.467 89.7661 20.2771 89.4696 20.1483C89.173 20.0194 88.8526 19.9543 88.5292 19.9575C88.2058 19.9606 87.8867 20.0317 87.5927 20.1663C85.8457 21.0252 85.321 24.4961 85.5723 26.2162C85.5923 26.3509 86.0901 28.2292 86.2047 28.5633C86.1434 28.482 86.0708 28.4045 86.0106 28.3227C84.9793 26.8949 84.0772 25.3781 83.3148 23.7903C82.8824 22.9188 82.518 22.0616 82.1819 21.2198C82.7328 20.94 85.2357 19.6337 86.0851 18.5785C86.8991 17.5671 87.6551 16.0524 87.3206 14.7196C87.2527 14.4035 87.119 14.1051 86.9282 13.8441C86.7374 13.583 86.4938 13.365 86.2132 13.2043C85.9325 13.0436 85.6212 12.9438 85.2995 12.9113C84.9777 12.8789 84.6528 12.9145 84.3457 13.016C82.515 13.6779 81.612 17.0702 81.6731 18.8073C81.6765 18.9017 81.8167 19.8583 81.9287 20.5534C81.7827 20.1712 81.625 19.7795 81.4928 19.4106C80.9923 18.0262 80.6194 16.7277 80.2983 15.5749C80.1213 14.9181 79.9737 14.3206 79.842 13.7598C80.2393 13.2037 81.812 10.9409 82.0749 9.6368C82.3309 8.36422 82.3043 6.67143 81.3932 5.64258C81.1873 5.3933 80.9311 5.19017 80.6415 5.04642C80.3518 4.90266 80.0351 4.82149 79.712 4.80819C79.3889 4.79489 79.0667 4.84976 78.7662 4.96922C78.4657 5.08868 78.1937 5.27006 77.9679 5.50157C76.648 6.93232 77.4096 10.3594 78.2644 11.873C78.3386 12.0037 79.7289 13.9167 79.7498 13.8879L79.7739 13.8543C79.8898 14.3965 80.0207 14.976 80.1762 15.6065C80.4727 16.7687 80.8182 18.0787 81.2908 19.4791C81.7828 20.994 82.3629 22.4788 83.0281 23.9261C83.7653 25.5506 84.6457 27.1062 85.6589 28.5744C85.6708 28.5917 85.6859 28.608 85.6979 28.6253C85.2459 28.2777 83.9491 27.348 83.8415 27.2882C82.3235 26.4415 78.8927 25.697 77.4684 27.0244C77.2381 27.2514 77.0581 27.5244 76.9402 27.8255C76.8224 28.1266 76.7692 28.4492 76.7842 28.7722C76.7992 29.0952 76.882 29.4114 77.0272 29.7004C77.1725 29.9893 77.3769 30.2444 77.6273 30.4491C78.6611 31.3544 80.3534 31.3728 81.625 31.1098C83.0588 30.8133 85.6223 28.9404 85.8261 28.7908C86.8938 30.2592 88.0584 31.6547 89.312 32.968C90.0383 33.7375 90.7934 34.4897 91.5602 35.2345C91.1595 34.9465 90.7991 34.6918 90.7449 34.662C89.2267 33.8151 85.7963 33.071 84.3721 34.3984C84.1417 34.6253 83.9617 34.8982 83.8438 35.1993C83.7259 35.5004 83.6727 35.823 83.6877 36.146C83.7026 36.469 83.7855 36.7852 83.9308 37.0741C84.0761 37.363 84.2806 37.6181 84.531 37.8227C85.5644 38.7284 87.2569 38.7467 88.5283 38.4838C89.8184 38.2167 92.0363 36.6641 92.6175 36.2454C92.9146 36.5279 93.2083 36.8136 93.5066 37.095C94.937 38.4457 96.3705 39.7872 97.736 41.1463C98.2177 41.6248 98.6741 42.114 99.1325 42.6017C98.7766 42.3464 98.4745 42.1344 98.4253 42.1068C96.907 41.26 93.4764 40.5158 92.0525 41.8428C91.8221 42.0698 91.6421 42.3428 91.5242 42.6439C91.4062 42.9451 91.353 43.2677 91.368 43.5908C91.383 43.9139 91.4658 44.2302 91.6111 44.5191C91.7564 44.8081 91.9609 45.0632 92.2113 45.2679C93.2444 46.1733 94.9375 46.1915 96.2088 45.9283C97.4397 45.6741 99.4998 44.259 100.193 43.7646C100.648 44.2781 101.104 44.7919 101.521 45.3102C101.798 45.6707 102.09 45.9982 102.348 46.3756C102.611 46.7436 102.872 47.1081 103.13 47.4691C103.602 48.1828 104.093 48.9159 104.535 49.6234C104.847 50.1133 105.135 50.586 105.426 51.0608C104.952 50.5788 104.005 49.6545 103.917 49.5863C102.676 48.693 101.227 48.1328 99.7071 47.9593C99.5734 47.8535 99.4301 47.7605 99.2789 47.6816C98.9971 47.5229 98.6851 47.4255 98.3631 47.3954C98.0411 47.3654 97.7164 47.4034 97.4101 47.5072C97.1038 47.6109 96.8227 47.778 96.5852 47.9975C96.3478 48.217 96.1592 48.484 96.0317 48.7812C95.3141 50.5906 97.2566 53.5151 98.5982 54.6199C98.6773 54.6852 99.615 55.2966 100.213 55.6727C99.8276 55.5053 99.4559 55.3381 99.0574 55.1705C98.2716 54.8338 97.4774 54.5209 96.6241 54.1805C96.2064 54.0307 95.7844 53.8796 95.358 53.7271C94.9388 53.5667 94.4754 53.4506 94.0304 53.3089C92.9917 53.0023 91.9239 52.7418 90.8428 52.5035C91.1362 51.8144 92.1425 49.3534 92.1205 48.0493C92.099 46.7513 91.7102 45.1036 90.6007 44.2935C90.3462 44.0939 90.0526 43.9502 89.7389 43.8717C89.4252 43.7932 89.0984 43.7816 88.7799 43.8376C88.4615 43.8937 88.1584 44.0162 87.8904 44.1972C87.6224 44.3782 87.3955 44.6136 87.2244 44.888C86.2409 46.5679 87.7179 49.7529 88.8765 51.0488C88.9489 51.1296 89.8847 51.9658 90.4077 52.4153C89.7567 52.2771 89.1074 52.1359 88.4441 52.0175C86.5296 51.675 84.5812 51.388 82.6386 51.0935C82.0434 51.0035 81.4517 50.9068 80.8589 50.8123C80.9658 50.568 82.2252 47.6685 82.2009 46.2079C82.1792 44.91 81.7908 43.2623 80.6809 42.452C80.4264 42.2525 80.1328 42.1089 79.8191 42.0304C79.5054 41.9519 79.1787 41.9403 78.8602 41.9964C78.5418 42.0525 78.2387 42.175 77.9708 42.356C77.7028 42.537 77.4759 42.7723 77.3049 43.0468C76.3215 44.7268 77.7983 47.9115 78.9569 49.2074C79.0443 49.305 80.3926 50.5063 80.7505 50.7949C79.4451 50.5862 78.1458 50.3657 76.8737 50.0967C75.1543 49.742 73.4596 49.2761 71.8005 48.702C71.8506 48.5881 73.1785 45.5679 73.1536 44.0721C73.132 42.7739 72.7436 41.1264 71.6335 40.3162C71.3791 40.1167 71.0854 39.973 70.7717 39.8945C70.458 39.816 70.1313 39.8044 69.8129 39.8605C69.4944 39.9166 69.1913 40.0391 68.9234 40.2201C68.6554 40.4011 68.4286 40.6365 68.2576 40.911C67.2741 42.5908 68.7512 45.7757 69.9098 47.0713C70.0009 47.1732 71.4523 48.4649 71.7319 48.68C71.6359 48.6462 71.5327 48.6219 71.4374 48.5871C69.7896 47.9648 68.2003 47.1972 66.6884 46.2935C65.8472 45.8053 65.0705 45.2913 64.3258 44.7745C64.6308 44.2373 65.9979 41.7668 66.124 40.4182C66.245 39.1254 66.04 37.4452 65.0259 36.5181C64.7949 36.2918 64.5188 36.1168 64.2156 36.0043C63.9124 35.8918 63.589 35.8444 63.2663 35.8652C62.9436 35.8859 62.6289 35.9744 62.3426 36.1248C62.0564 36.2752 61.805 36.4842 61.6048 36.7381C60.4428 38.3 61.5612 41.6279 62.5704 43.0429C62.6253 43.1201 63.2697 43.8407 63.7468 44.3587C63.4143 44.1202 63.0666 43.8805 62.7526 43.6457C61.5717 42.7671 60.5441 41.8899 59.6405 41.1056C59.1301 40.6553 58.6778 40.2381 58.2589 39.8433C58.2828 39.16 58.3465 36.4052 57.8463 35.1726C57.3579 33.9695 56.4017 32.5731 55.0744 32.2174C54.7651 32.1231 54.4394 32.095 54.1185 32.1348C53.7976 32.1747 53.4887 32.2817 53.2119 32.4488C52.935 32.6159 52.6965 32.8394 52.5117 33.1048C52.327 33.3702 52.2002 33.6715 52.1396 33.9892C51.8281 35.9108 54.3542 38.3489 55.9019 39.14C56.0357 39.208 58.2505 40.0365 58.2525 40.0011C58.2525 40.0011 58.2537 39.9676 58.2538 39.9599C58.6494 40.3479 59.0785 40.7592 59.5561 41.1991C60.4443 42.0049 61.4553 42.907 62.6221 43.8145C63.8683 44.8065 65.1713 45.7249 66.5246 46.565C68.0356 47.5132 69.628 48.3249 71.283 48.9906C71.3026 48.9982 71.3241 49.0037 71.3437 49.0112C70.7748 48.9708 69.1804 48.9112 69.0574 48.9205C67.3242 49.0515 64.0522 50.3236 63.5965 52.216C63.5296 52.5324 63.5301 52.8593 63.5979 53.1756C63.6656 53.4918 63.7992 53.7902 63.99 54.0513C64.1807 54.3125 64.4243 54.5306 64.7048 54.6914C64.9854 54.8523 65.2967 54.9522 65.6184 54.9848C66.9801 55.1698 68.4017 54.2513 69.3169 53.331Z" fill="#5AABE4"/>
<path d="M81.8435 21.0673C81.8766 21.0544 80.389 19.216 80.282 19.1107C79.0415 17.8934 75.9287 16.2697 74.2047 17.1739C73.9226 17.332 73.6769 17.5477 73.4837 17.8069C73.2905 18.0662 73.1541 18.3633 73.0832 18.6788C73.0124 18.9943 73.0089 19.3212 73.0727 19.6382C73.1366 19.9551 73.2666 20.2551 73.4541 20.5186C74.2115 21.6648 75.8392 22.1296 77.135 22.2116C78.6562 22.3081 81.8409 21.0681 81.8435 21.0673Z" fill="#5AABE4"/>
<g opacity="0.1">
<path d="M29.5118 64.3099C29.5737 63.8347 29.0228 63.3122 29.0228 62.8201C29.0228 62.328 29.5737 61.8055 29.5118 61.3303C29.4483 60.8439 28.7806 60.4809 28.6564 60.0164C28.5301 59.544 28.9266 58.8963 28.7419 58.4509C28.5551 58.0004 27.8158 57.8235 27.5738 57.4051C27.3301 56.9839 27.5448 56.2552 27.2497 55.8713C26.9537 55.486 26.194 55.506 25.8511 55.1631C25.5081 54.8201 25.5281 54.0604 25.1428 53.7644C24.7589 53.4693 24.0302 53.6842 23.609 53.4405C23.1907 53.1985 23.0138 52.4592 22.5633 52.2725C22.118 52.0878 21.4703 52.4843 20.998 52.358C20.5335 52.2339 20.1705 51.5661 19.6842 51.5027C19.209 51.4407 18.6865 51.9916 18.1943 51.9916C17.7022 51.9916 17.1797 51.4407 16.7045 51.5027C16.2182 51.5661 15.8551 52.2339 15.3906 52.358C14.9182 52.4843 14.2705 52.0878 13.8251 52.2725C13.3746 52.4594 13.1977 53.1986 12.7793 53.4407C12.3581 53.6844 11.6294 53.4696 11.2455 53.7647C10.8603 54.0607 10.8803 54.8204 10.5373 55.1634C10.1943 55.5064 9.43461 55.4864 9.13863 55.8716C8.84359 56.2556 9.05845 56.9842 8.81473 57.4054C8.57271 57.8237 7.8335 58.0006 7.64669 58.4511C7.46202 58.8965 7.85852 59.5441 7.73227 60.0164C7.60812 60.4809 6.94035 60.8439 6.87693 61.3302C6.81495 61.8055 7.36588 62.328 7.36588 62.8201C7.36588 63.3122 6.81495 63.8347 6.87693 64.3099C6.94035 64.7963 7.60812 65.1593 7.73227 65.6238C7.85857 66.0962 7.46207 66.7439 7.64678 67.1893C7.83359 67.6399 8.57285 67.8168 8.81491 68.2351C9.05862 68.6564 8.84385 69.385 9.1389 69.769C9.43496 70.1542 10.1946 70.1342 10.5376 70.4771C10.8806 70.8201 10.8606 71.5798 11.2458 71.8758C11.6298 72.1709 12.3585 71.956 12.7797 72.1997C13.198 72.4417 13.3749 73.1809 13.8254 73.3678C14.2707 73.5524 14.9184 73.1559 15.3907 73.2822C15.8551 73.4063 16.2182 74.0741 16.7045 74.1375C17.1797 74.1995 17.7022 73.6486 18.1943 73.6486C18.6865 73.6486 19.209 74.1995 19.6842 74.1375C20.1705 74.0741 20.5336 73.4063 20.998 73.2822C21.4705 73.1559 22.1182 73.5524 22.5635 73.3677C23.0141 73.1808 23.191 72.4416 23.6093 72.1995C24.0306 71.9558 24.7592 72.1706 25.1432 71.8756C25.5284 71.5795 25.5084 70.8198 25.8514 70.4768C26.1944 70.1338 26.954 70.1538 27.2501 69.7686C27.5451 69.3846 27.3302 68.656 27.574 68.2348C27.816 67.8164 28.5552 67.6396 28.742 67.1891C28.9267 66.7438 28.5302 66.0961 28.6564 65.6238C28.7806 65.1593 29.4483 64.7963 29.5118 64.3099ZM18.1943 71.6C16.4578 71.6 14.7603 71.085 13.3165 70.1203C11.8727 69.1555 10.7473 67.7843 10.0828 66.18C9.41829 64.5757 9.24442 62.8103 9.5832 61.1072C9.92198 59.4041 10.7582 57.8397 11.9861 56.6118C13.214 55.3839 14.7784 54.5477 16.4815 54.209C18.1846 53.8702 19.95 54.0441 21.5543 54.7086C23.1586 55.3731 24.5298 56.4985 25.4945 57.9423C26.4593 59.3861 26.9742 61.0836 26.9742 62.8201C26.9742 63.9731 26.7471 65.1148 26.3059 66.18C25.8646 67.2452 25.2179 68.2131 24.4026 69.0284C23.5873 69.8437 22.6195 70.4904 21.5542 70.9316C20.489 71.3729 19.3473 71.6 18.1943 71.6Z" fill="black"/>
<path d="M23.1606 67.7857C25.9036 65.0428 25.9036 60.5955 23.1606 57.8525C20.4176 55.1095 15.9703 55.1095 13.2274 57.8525C10.4844 60.5955 10.4844 65.0428 13.2274 67.7857C15.9703 70.5287 20.4176 70.5287 23.1606 67.7857Z" fill="black"/>
</g>
<g opacity="0.1">
<path d="M203.432 61.0194C203.515 60.3851 202.78 59.6877 202.78 59.0308C202.78 58.374 203.515 57.6765 203.432 57.0422C203.347 56.3931 202.456 55.9085 202.29 55.2884C202.122 54.6579 202.651 53.7933 202.405 53.1988C202.155 52.5974 201.168 52.3614 200.845 51.8029C200.52 51.2407 200.807 50.268 200.413 49.7555C200.018 49.2413 199.004 49.268 198.546 48.8103C198.088 48.3525 198.115 47.3385 197.601 46.9433C197.088 46.5495 196.115 46.8363 195.553 46.511C194.995 46.1879 194.759 45.2012 194.157 44.9519C193.563 44.7054 192.699 45.2347 192.068 45.0661C191.448 44.9004 190.964 44.0091 190.314 43.9245C189.68 43.8417 188.983 44.5771 188.326 44.5771C187.669 44.5771 186.971 43.8417 186.337 43.9245C185.688 44.0091 185.203 44.9004 184.583 45.0661C183.953 45.2347 183.088 44.7055 182.494 44.952C181.892 45.2014 181.656 46.1881 181.098 46.5112C180.536 46.8366 179.563 46.5498 179.05 46.9437C178.536 47.3389 178.563 48.3529 178.105 48.8107C177.647 49.2685 176.633 49.2418 176.238 49.756C175.844 50.2685 176.131 51.2411 175.806 51.8033C175.483 52.3617 174.496 52.5978 174.247 53.1991C174 53.7936 174.53 54.658 174.361 55.2885C174.195 55.9085 173.304 56.393 173.219 57.0422C173.137 57.6765 173.872 58.3739 173.872 59.0308C173.872 59.6877 173.137 60.3851 173.219 61.0194C173.304 61.6686 174.195 62.1532 174.361 62.7732C174.53 63.4038 174 64.2683 174.247 64.8628C174.496 65.4642 175.483 65.7003 175.806 66.2587C176.132 66.821 175.845 67.7936 176.239 68.3061C176.634 68.8203 177.648 68.7936 178.106 69.2514C178.563 69.7092 178.537 70.7232 179.051 71.1183C179.563 71.5121 180.536 71.2253 181.098 71.5506C181.657 71.8737 181.893 72.8604 182.494 73.1097C183.089 73.3562 183.953 72.827 184.583 72.9955C185.203 73.1612 185.688 74.0526 186.337 74.1372C186.971 74.2199 187.669 73.4846 188.326 73.4846C188.983 73.4846 189.68 74.2199 190.314 74.1372C190.964 74.0526 191.448 73.1612 192.068 72.9955C192.699 72.8269 193.563 73.3561 194.158 73.1096C194.759 72.8602 194.995 71.8735 195.554 71.5504C196.116 71.2251 197.089 71.5118 197.601 71.1179C198.115 70.7228 198.089 69.7088 198.546 69.2509C199.004 68.7931 200.018 68.8198 200.413 68.3056C200.807 67.7931 200.52 66.8205 200.846 66.2583C201.169 65.6999 202.155 65.4638 202.405 64.8625C202.651 64.2681 202.122 63.4036 202.29 62.7731C202.456 62.1532 203.348 61.6686 203.432 61.0194ZM188.326 70.7501C186.008 70.7501 183.742 70.0627 181.815 68.775C179.888 67.4873 178.386 65.657 177.499 63.5156C176.612 61.3741 176.38 59.0178 176.832 56.7445C177.284 54.4712 178.4 52.383 180.039 50.744C181.678 49.1051 183.766 47.9889 186.039 47.5367C188.313 47.0846 190.669 47.3166 192.811 48.2036C194.952 49.0907 196.782 50.5927 198.07 52.52C199.358 54.4472 200.045 56.713 200.045 59.0308C200.045 62.139 198.81 65.1198 196.613 67.3176C194.415 69.5154 191.434 70.7501 188.326 70.7501Z" fill="black"/>
<path d="M193.92 66.5549C198.075 63.4654 198.939 57.5924 195.849 53.4372C192.76 49.282 186.887 48.4181 182.732 51.5075C178.576 54.597 177.713 60.47 180.802 64.6252C183.892 68.7804 189.765 69.6444 193.92 66.5549Z" fill="black"/>
</g>
<g opacity="0.1">
<path d="M178.829 156.354C176.888 156.354 174.991 156.93 173.378 158.008C171.764 159.086 170.507 160.618 169.764 162.411C169.022 164.204 168.828 166.176 169.206 168.079C169.585 169.983 170.519 171.731 171.891 173.103C173.263 174.475 175.011 175.409 176.915 175.788C178.818 176.166 180.79 175.972 182.583 175.23C184.376 174.487 185.908 173.23 186.986 171.616C188.064 170.003 188.639 168.106 188.639 166.165C188.639 163.563 187.606 161.068 185.766 159.228C183.926 157.388 181.431 156.354 178.829 156.354ZM179.463 172.972V174.005H178.214V172.972C176.518 172.738 175.757 171.45 175.757 169.598V168.759H177.181V169.695C177.181 170.924 177.687 171.626 178.78 171.626C179.892 171.626 180.379 170.924 180.379 169.695C180.379 166.653 175.816 166.614 175.816 162.772C175.816 160.9 176.576 159.671 178.214 159.417V158.326H179.463V159.417C181.12 159.652 181.88 160.939 181.88 162.772V163.142H180.457V162.674C180.457 161.465 179.97 160.724 178.877 160.724C177.805 160.724 177.317 161.465 177.317 162.674C177.317 165.737 181.9 165.756 181.9 169.598C181.9 171.431 181.12 172.738 179.463 172.972Z" fill="black"/>
<path d="M178.829 150.111C175.653 150.111 172.55 151.053 169.909 152.817C167.269 154.581 165.212 157.088 163.996 160.022C162.781 162.955 162.463 166.183 163.083 169.298C163.702 172.412 165.231 175.272 167.477 177.518C169.722 179.763 172.582 181.292 175.697 181.911C178.811 182.531 182.039 182.213 184.972 180.998C187.906 179.783 190.413 177.725 192.177 175.085C193.941 172.445 194.883 169.341 194.883 166.166C194.883 161.908 193.192 157.824 190.181 154.814C187.17 151.803 183.087 150.111 178.829 150.111ZM178.829 178.206C176.447 178.206 174.119 177.5 172.139 176.177C170.159 174.854 168.616 172.974 167.705 170.773C166.793 168.573 166.555 166.152 167.019 163.817C167.484 161.481 168.631 159.335 170.315 157.652C171.999 155.968 174.144 154.821 176.48 154.356C178.815 153.892 181.236 154.13 183.437 155.041C185.637 155.953 187.517 157.496 188.84 159.476C190.163 161.456 190.869 163.784 190.869 166.166C190.869 169.359 189.601 172.422 187.343 174.68C185.085 176.938 182.022 178.206 178.829 178.206Z" fill="black"/>
</g>
<g opacity="0.1">
<path d="M140.92 170.271C139.55 170.271 138.21 170.678 137.07 171.439C135.931 172.201 135.042 173.283 134.518 174.549C133.993 175.816 133.856 177.209 134.123 178.553C134.391 179.898 135.051 181.133 136.02 182.102C136.989 183.071 138.224 183.731 139.568 183.998C140.913 184.266 142.306 184.129 143.572 183.604C144.839 183.079 145.921 182.191 146.682 181.052C147.444 179.912 147.85 178.572 147.85 177.201C147.85 175.364 147.12 173.601 145.821 172.301C144.521 171.002 142.758 170.271 140.92 170.271ZM141.368 182.009V182.739H140.487V182.009C139.288 181.844 138.751 180.935 138.751 179.626V179.034H139.756V179.695C139.756 180.563 140.114 181.059 140.886 181.059C141.671 181.059 142.016 180.563 142.016 179.695C142.016 177.546 138.792 177.519 138.792 174.804C138.792 173.482 139.329 172.614 140.487 172.435V171.664H141.368V172.435C142.539 172.6 143.076 173.51 143.076 174.804V175.066H142.071V174.736C142.071 173.881 141.726 173.358 140.955 173.358C140.197 173.358 139.853 173.881 139.853 174.736C139.853 176.899 143.09 176.912 143.09 179.626C143.09 180.921 142.539 181.844 141.368 182.009Z" fill="black"/>
<path d="M140.92 165.861C138.677 165.861 136.485 166.527 134.62 167.773C132.755 169.019 131.302 170.79 130.443 172.862C129.585 174.934 129.36 177.214 129.798 179.414C130.236 181.614 131.316 183.634 132.902 185.22C134.487 186.806 136.508 187.886 138.708 188.324C140.908 188.761 143.188 188.537 145.26 187.678C147.332 186.82 149.103 185.367 150.349 183.502C151.595 181.637 152.26 179.444 152.26 177.202C152.26 175.712 151.967 174.238 151.397 172.862C150.827 171.486 149.992 170.236 148.939 169.183C147.886 168.13 146.636 167.295 145.26 166.725C143.884 166.155 142.409 165.861 140.92 165.861ZM140.92 185.707C139.238 185.707 137.594 185.208 136.195 184.273C134.796 183.339 133.706 182.01 133.062 180.456C132.419 178.902 132.25 177.192 132.579 175.542C132.907 173.892 133.717 172.377 134.906 171.188C136.096 169.998 137.611 169.188 139.261 168.86C140.911 168.532 142.621 168.7 144.175 169.344C145.729 169.988 147.057 171.078 147.992 172.476C148.926 173.875 149.425 175.519 149.425 177.202C149.425 179.457 148.529 181.621 146.934 183.216C145.339 184.811 143.176 185.707 140.92 185.707Z" fill="black"/>
</g>
<g opacity="0.1">
<path d="M128.939 146.194C127.568 146.194 126.228 146.601 125.089 147.362C123.949 148.124 123.061 149.206 122.536 150.472C122.012 151.739 121.875 153.132 122.142 154.476C122.409 155.821 123.069 157.055 124.039 158.025C125.008 158.994 126.243 159.654 127.587 159.921C128.931 160.189 130.325 160.051 131.591 159.527C132.857 159.002 133.939 158.114 134.701 156.974C135.462 155.835 135.869 154.495 135.869 153.124C135.869 151.286 135.139 149.524 133.839 148.224C132.539 146.924 130.777 146.194 128.939 146.194ZM129.387 157.932V158.662H128.505V157.932C127.307 157.767 126.769 156.858 126.769 155.549V154.957H127.775V155.618C127.775 156.486 128.133 156.982 128.904 156.982C129.69 156.982 130.034 156.486 130.034 155.618C130.034 153.469 126.811 153.441 126.811 150.727C126.811 149.405 127.348 148.537 128.505 148.358V147.587H129.387V148.358C130.558 148.523 131.095 149.432 131.095 150.727V150.989H130.089V150.658C130.089 149.804 129.745 149.281 128.973 149.281C128.216 149.281 127.871 149.804 127.871 150.658C127.871 152.822 131.108 152.835 131.108 155.549C131.108 156.844 130.558 157.767 129.387 157.932Z" fill="black"/>
<path d="M128.939 141.784C126.696 141.784 124.503 142.449 122.639 143.695C120.774 144.941 119.32 146.712 118.462 148.785C117.604 150.857 117.379 153.137 117.817 155.337C118.254 157.536 119.334 159.557 120.92 161.143C122.506 162.729 124.527 163.809 126.726 164.246C128.926 164.684 131.206 164.459 133.278 163.601C135.351 162.743 137.122 161.289 138.368 159.424C139.614 157.56 140.279 155.367 140.279 153.124C140.279 151.635 139.985 150.16 139.416 148.785C138.846 147.409 138.01 146.159 136.957 145.106C135.904 144.053 134.654 143.217 133.278 142.647C131.903 142.078 130.428 141.784 128.939 141.784ZM128.939 161.629C127.257 161.629 125.612 161.131 124.214 160.196C122.815 159.261 121.725 157.933 121.081 156.379C120.437 154.825 120.269 153.115 120.597 151.465C120.925 149.815 121.735 148.3 122.925 147.11C124.114 145.921 125.63 145.111 127.279 144.783C128.929 144.454 130.639 144.623 132.193 145.267C133.748 145.91 135.076 147 136.01 148.399C136.945 149.798 137.444 151.442 137.444 153.124C137.444 154.241 137.224 155.347 136.796 156.379C136.369 157.411 135.742 158.348 134.953 159.138C134.163 159.928 133.225 160.555 132.193 160.982C131.162 161.409 130.056 161.629 128.939 161.629Z" fill="black"/>
</g>
<path opacity="0.1" d="M31.2727 1.85132C28.7486 1.85132 26.2812 2.59979 24.1825 4.00209C22.0838 5.40439 20.4481 7.39753 19.4822 9.72946C18.5163 12.0614 18.2635 14.6274 18.756 17.103C19.2484 19.5785 20.4638 21.8525 22.2486 23.6373C24.0334 25.4221 26.3074 26.6375 28.7829 27.1299C31.2585 27.6224 33.8245 27.3696 36.1564 26.4037C38.4884 25.4378 40.4815 23.8021 41.8838 21.7034C43.2861 19.6047 44.0346 17.1373 44.0346 14.6132C44.0308 11.2297 42.685 7.98589 40.2925 5.59338C37.9 3.20088 34.6562 1.85511 31.2727 1.85132ZM40.299 16.6915H35.1202C34.8674 16.6915 34.6191 16.6249 34.4002 16.4985C34.1813 16.3721 33.9995 16.1903 33.8731 15.9714C33.7467 15.7525 33.6801 15.5042 33.6801 15.2514C33.6801 14.9986 33.7467 14.7502 33.8731 14.5313L37.6199 8.04159H32.1561V20.4578H34.1825V21.5159H37.0042V23.0026H25.8939V21.5159H28.3629V20.4578H30.9463V8.04159H24.9256L28.6724 14.5313C28.7988 14.7502 28.8653 14.9986 28.8653 15.2514C28.8653 15.5042 28.7988 15.7525 28.6724 15.9714C28.546 16.1903 28.3642 16.3721 28.1453 16.4985C27.9263 16.6249 27.678 16.6915 27.4252 16.6915H22.2464C21.9936 16.6915 21.7453 16.6249 21.5263 16.4985C21.3074 16.3721 21.1256 16.1903 20.9992 15.9714C20.8728 15.7525 20.8063 15.5042 20.8063 15.2514C20.8062 14.9986 20.8728 14.7502 20.9992 14.5313L24.7461 8.04159H24.5945C24.5151 8.04159 24.4364 8.02594 24.363 7.99554C24.2896 7.96514 24.223 7.92058 24.1668 7.86441C24.1106 7.80824 24.0661 7.74156 24.0357 7.66817C24.0053 7.59477 23.9896 7.51611 23.9896 7.43668C23.9896 7.35724 24.0053 7.27858 24.0357 7.20519C24.0661 7.13179 24.1106 7.06511 24.1668 7.00894C24.223 6.95277 24.2896 6.90821 24.363 6.87781C24.4364 6.84741 24.5151 6.83176 24.5945 6.83176H30.9463V6.82873C30.9463 6.66829 31.01 6.51442 31.1235 6.40098C31.2369 6.28753 31.3908 6.2238 31.5512 6.2238C31.7116 6.2238 31.8655 6.28753 31.979 6.40098C32.0924 6.51442 32.1561 6.66829 32.1561 6.82873V6.83176H38.5079C38.6683 6.83176 38.8222 6.89549 38.9356 7.00894C39.0491 7.12238 39.1128 7.27624 39.1128 7.43668C39.1128 7.59711 39.0491 7.75097 38.9356 7.86441C38.8222 7.97786 38.6683 8.04159 38.5079 8.04159H37.7994L41.5462 14.5313C41.6726 14.7502 41.7392 14.9986 41.7392 15.2514C41.7392 15.5042 41.6726 15.7525 41.5462 15.9714C41.4198 16.1904 41.238 16.3722 41.0191 16.4985C40.8002 16.6249 40.5518 16.6915 40.299 16.6915Z" fill="white"/>
<path opacity="0.1" d="M31.2726 0C28.3823 -4.41003e-06 25.557 0.85705 23.1538 2.46278C20.7507 4.06851 18.8776 6.35081 17.7716 9.02105C16.6655 11.6913 16.3761 14.6295 16.94 17.4643C17.5038 20.299 18.8956 22.9028 20.9393 24.9465C22.983 26.9903 25.5869 28.382 28.4216 28.9459C31.2563 29.5098 34.1946 29.2204 36.8648 28.1143C39.5351 27.0083 41.8174 25.1353 43.4231 22.7321C45.0288 20.329 45.8859 17.5036 45.8859 14.6134C45.8859 12.6943 45.5079 10.7941 44.7735 9.02109C44.0391 7.24811 42.9627 5.63715 41.6058 4.28017C40.2488 2.92319 38.6378 1.84678 36.8649 1.11238C35.0919 0.377991 33.1916 2.92818e-06 31.2726 0ZM31.2725 27.8212C28.6602 27.8212 26.1066 27.0466 23.9346 25.5953C21.7626 24.144 20.0697 22.0812 19.07 19.6678C18.0704 17.2544 17.8088 14.5987 18.3184 12.0367C18.8281 9.47458 20.086 7.12116 21.9331 5.274C23.7803 3.42685 26.1337 2.16892 28.6958 1.65929C31.2579 1.14967 33.9135 1.41123 36.327 2.4109C38.7404 3.41057 40.8032 5.10346 42.2545 7.27548C43.7058 9.4475 44.4804 12.0011 44.4804 14.6134C44.4764 18.1151 43.0836 21.4723 40.6075 23.9484C38.1314 26.4245 34.7743 27.8173 31.2725 27.8212Z" fill="black"/>
<path opacity="0.1" d="M44.167 164.54H50.727L47.447 158.859L44.167 164.54Z" fill="black"/>
<path opacity="0.1" d="M41.0098 149.595C38.1196 149.595 35.2942 150.452 32.8911 152.058C30.4879 153.663 28.6149 155.946 27.5089 158.616C26.4028 161.286 26.1134 164.224 26.6773 167.059C27.2412 169.894 28.6329 172.498 30.6767 174.541C32.7204 176.585 35.3242 177.977 38.1589 178.541C40.9937 179.105 43.9319 178.815 46.6022 177.709C49.2724 176.603 51.5547 174.73 53.1604 172.327C54.7662 169.924 55.6232 167.098 55.6232 164.208C55.6232 162.289 55.2452 160.389 54.5108 158.616C53.7764 156.843 52.7 155.232 51.343 153.875C49.9861 152.518 48.3751 151.441 46.6021 150.707C44.8291 149.973 42.9289 149.595 41.0098 149.595ZM41.0098 177.416C38.3976 177.416 35.8439 176.641 33.6719 175.19C31.4999 173.739 29.807 171.676 28.8073 169.263C27.8077 166.849 27.5461 164.193 28.0557 161.631C28.5654 159.069 29.8233 156.716 31.6705 154.869C33.5176 153.022 35.871 151.764 38.4331 151.254C40.9952 150.744 43.6508 151.006 46.0643 152.006C48.4777 153.005 50.5405 154.698 51.9918 156.87C53.4431 159.042 54.2177 161.596 54.2177 164.208C54.2137 167.71 52.8209 171.067 50.3448 173.543C47.8687 176.019 44.5116 177.412 41.0098 177.416Z" fill="black"/>
<path d="M105.882 200C156.864 200 198.194 198.403 198.194 196.433C198.194 194.463 156.864 192.865 105.882 192.865C54.8989 192.865 13.5693 194.463 13.5693 196.433C13.5693 198.403 54.8989 200 105.882 200Z" fill="#263238"/>
<path d="M171.203 106.2C173.838 106.692 176.715 105.004 178.359 102.288C179.591 100.25 180.027 98.2351 180.53 95.9306C181.078 93.4044 200.663 2.35951 200.86 1.45703H101.673L81.4798 95.29L80.6579 99.0771C80.4871 99.8597 80.1876 100.609 79.7715 101.293L79.1712 102.288C78.5394 103.333 77.6336 104.185 76.5522 104.751C75.4707 105.318 74.2548 105.578 73.0362 105.503C71.8176 105.428 70.6428 105.02 69.6391 104.325C68.6355 103.63 67.8412 102.673 67.3424 101.559C66.5194 99.7177 65.1877 98.1496 63.5041 97.0391C61.8205 95.9286 59.8549 95.3218 57.8382 95.29C57.7778 95.286 57.7133 95.286 57.6489 95.286C57.5885 95.286 57.528 95.286 57.4676 95.29C55.1213 95.3336 52.8558 96.1542 51.0258 97.6233C49.1959 99.0924 47.9049 101.127 47.355 103.408L39.1562 137.412H138.344L145.87 106.2" fill="white"/>
<path d="M171.203 106.2C173.838 106.692 176.715 105.004 178.359 102.288C179.591 100.25 180.027 98.2351 180.53 95.9306C181.078 93.4044 200.663 2.35951 200.86 1.45703H101.673L81.4798 95.29L80.6579 99.0771C80.4871 99.8597 80.1876 100.609 79.7715 101.293L79.1712 102.288C78.5394 103.333 77.6336 104.185 76.5522 104.751C75.4707 105.318 74.2548 105.578 73.0362 105.503C71.8176 105.428 70.6428 105.02 69.6391 104.325C68.6355 103.63 67.8412 102.673 67.3424 101.559C66.5194 99.7177 65.1877 98.1496 63.5041 97.0391C61.8205 95.9286 59.8549 95.3218 57.8382 95.29C57.7778 95.286 57.7133 95.286 57.6489 95.286C57.5885 95.286 57.528 95.286 57.4676 95.29C55.1213 95.3336 52.8558 96.1542 51.0258 97.6233C49.1959 99.0924 47.9049 101.127 47.355 103.408L39.1562 137.412H138.344L145.87 106.2" stroke="#263238" stroke-width="0.445953" stroke-linecap="round" stroke-linejoin="round"/>
<path d="M104.229 22.4455H191.718" stroke="#263238" stroke-width="0.445953" stroke-miterlimit="10"/>
<path d="M168.445 32.1428H188.917" stroke="#263238" stroke-width="0.445953" stroke-miterlimit="10"/>
<path d="M136.337 32.1428H166.29" stroke="#263238" stroke-width="0.445953" stroke-miterlimit="10"/>
<path d="M116.296 32.1428H134.613" stroke="#263238" stroke-width="0.445953" stroke-miterlimit="10"/>
<path d="M101.427 32.1428H114.572" stroke="#263238" stroke-width="0.445953" stroke-miterlimit="10"/>
<path d="M165.859 37.0996H187.84" stroke="#263238" stroke-width="0.445953" stroke-miterlimit="10"/>
<path d="M116.08 37.0996H163.704" stroke="#263238" stroke-width="0.445953" stroke-miterlimit="10"/>
<path d="M100.35 37.0996H114.141" stroke="#263238" stroke-width="0.445953" stroke-miterlimit="10"/>
<path d="M161.334 42.0559H186.762" stroke="#263238" stroke-width="0.445953" stroke-miterlimit="10"/>
<path d="M123.191 42.0557H159.61" stroke="#263238" stroke-width="0.445953" stroke-miterlimit="10"/>
<path d="M99.2725 42.0557H121.468" stroke="#263238" stroke-width="0.445953" stroke-miterlimit="10"/>
<path d="M169.738 47.0115H185.685" stroke="#263238" stroke-width="0.445953" stroke-miterlimit="10"/>
<path d="M145.388 47.0115H167.583" stroke="#263238" stroke-width="0.445953" stroke-miterlimit="10"/>
<path d="M121.898 47.0117H143.232" stroke="#263238" stroke-width="0.445953" stroke-miterlimit="10"/>
<path d="M104.229 47.0115H119.959" stroke="#263238" stroke-width="0.445953" stroke-miterlimit="10"/>
<path d="M98.1943 47.0115H102.289" stroke="#263238" stroke-width="0.445953" stroke-miterlimit="10"/>
<path d="M180.943 51.9678H184.607" stroke="#263238" stroke-width="0.445953" stroke-miterlimit="10"/>
<path d="M144.525 51.9678H178.142" stroke="#263238" stroke-width="0.445953" stroke-miterlimit="10"/>
<path d="M118.882 51.9678H142.37" stroke="#263238" stroke-width="0.445953" stroke-miterlimit="10"/>
<path d="M97.1172 51.9678H116.512" stroke="#263238" stroke-width="0.445953" stroke-miterlimit="10"/>
<path d="M176.203 56.9248H183.53" stroke="#263238" stroke-width="0.445953" stroke-miterlimit="10"/>
<path d="M154.869 56.9246H174.263" stroke="#263238" stroke-width="0.445953" stroke-miterlimit="10"/>
<path d="M148.404 56.9246H152.714" stroke="#263238" stroke-width="0.445953" stroke-miterlimit="10"/>
<path d="M117.373 56.9248H147.327" stroke="#263238" stroke-width="0.445953" stroke-miterlimit="10"/>
<path d="M96.04 56.9248H115.65" stroke="#263238" stroke-width="0.445953" stroke-miterlimit="10"/>
<path d="M94.9619 61.8809H182.452" stroke="#263238" stroke-width="0.445953" stroke-miterlimit="10"/>
<path d="M176.85 66.8379H181.375" stroke="#263238" stroke-width="0.445953" stroke-miterlimit="10"/>
<path d="M157.024 66.8379H174.048" stroke="#263238" stroke-width="0.445953" stroke-miterlimit="10"/>
<path d="M128.579 66.8376H154.007" stroke="#263238" stroke-width="0.445953" stroke-miterlimit="10"/>
<path d="M122.33 66.8379H126.64" stroke="#263238" stroke-width="0.445953" stroke-miterlimit="10"/>
<path d="M102.505 66.8379H119.96" stroke="#263238" stroke-width="0.445953" stroke-miterlimit="10"/>
<path d="M93.8848 66.8376H99.9185" stroke="#263238" stroke-width="0.445953" stroke-miterlimit="10"/>
<path d="M158.317 71.7939H180.298" stroke="#263238" stroke-width="0.445953" stroke-miterlimit="10"/>
<path d="M135.044 71.7939H155.516" stroke="#263238" stroke-width="0.445953" stroke-miterlimit="10"/>
<path d="M117.158 71.7939H132.889" stroke="#263238" stroke-width="0.445953" stroke-miterlimit="10"/>
<path d="M92.8076 71.7939H115.003" stroke="#263238" stroke-width="0.445953" stroke-miterlimit="10"/>
<path d="M172.324 76.75H179.22" stroke="#263238" stroke-width="0.445953" stroke-miterlimit="10"/>
<path d="M149.481 76.75H169.953" stroke="#263238" stroke-width="0.445953" stroke-miterlimit="10"/>
<path d="M134.828 76.7498H147.973" stroke="#263238" stroke-width="0.445953" stroke-miterlimit="10"/>
<path d="M122.977 76.75H132.674" stroke="#263238" stroke-width="0.445953" stroke-miterlimit="10"/>
<path d="M111.771 76.7498H121.252" stroke="#263238" stroke-width="0.445953" stroke-miterlimit="10"/>
<path d="M97.5479 76.75H109.4" stroke="#263238" stroke-width="0.445953" stroke-miterlimit="10"/>
<path d="M91.7295 76.75H95.6083" stroke="#263238" stroke-width="0.445953" stroke-miterlimit="10"/>
<path d="M166.506 81.7061H178.142" stroke="#263238" stroke-width="0.445953" stroke-miterlimit="10"/>
<path d="M146.034 81.7061H163.92" stroke="#263238" stroke-width="0.445953" stroke-miterlimit="10"/>
<path d="M126.855 81.7061H143.448" stroke="#263238" stroke-width="0.445953" stroke-miterlimit="10"/>
<path d="M104.444 81.7061H124.27" stroke="#263238" stroke-width="0.445953" stroke-miterlimit="10"/>
<path d="M90.6523 81.7061H102.289" stroke="#263238" stroke-width="0.445953" stroke-miterlimit="10"/>
<path d="M165.859 86.662H177.065" stroke="#263238" stroke-width="0.445953" stroke-miterlimit="10"/>
<path d="M146.465 86.662H163.704" stroke="#263238" stroke-width="0.445953" stroke-miterlimit="10"/>
<path d="M126.424 86.6621H143.448" stroke="#263238" stroke-width="0.445953" stroke-miterlimit="10"/>
<path d="M112.633 86.662H124.485" stroke="#263238" stroke-width="0.445953" stroke-miterlimit="10"/>
<path d="M98.4102 86.662H110.478" stroke="#263238" stroke-width="0.445953" stroke-miterlimit="10"/>
<path d="M89.5752 86.6621H97.1174" stroke="#263238" stroke-width="0.445953" stroke-miterlimit="10"/>
<path d="M169.522 91.6182H175.987" stroke="#263238" stroke-width="0.445953" stroke-miterlimit="10"/>
<path d="M147.542 91.6182H167.367" stroke="#263238" stroke-width="0.445953" stroke-miterlimit="10"/>
<path d="M130.088 91.6182H144.957" stroke="#263238" stroke-width="0.445953" stroke-miterlimit="10"/>
<path d="M118.666 91.6182H127.717" stroke="#263238" stroke-width="0.445953" stroke-miterlimit="10"/>
<path d="M100.35 91.6182H115.434" stroke="#263238" stroke-width="0.445953" stroke-miterlimit="10"/>
<path d="M88.4971 91.6182H98.8407" stroke="#263238" stroke-width="0.445953" stroke-miterlimit="10"/>
<path d="M155.966 95.291V95.3233C153.745 95.5098 151.639 96.3914 149.947 97.843C148.256 99.2945 147.064 101.242 146.542 103.409L138.344 137.413H39.1562L47.355 103.409C47.9049 101.128 49.1959 99.0934 51.0259 97.6243C52.8558 96.1552 55.1213 95.3346 57.4676 95.291H155.966Z" fill="white" stroke="#263238" stroke-width="0.445953" stroke-linecap="round" stroke-linejoin="round"/>
<path d="M171.203 106.2H145.869L146.542 103.408C147.065 101.242 148.257 99.295 149.948 97.8437C151.639 96.3924 153.745 95.5103 155.966 95.3224C156.256 95.2982 156.546 95.2861 156.836 95.2861C160.857 95.2861 164.974 97.4819 166.529 101.559C167.629 104.44 169.354 105.854 171.203 106.2Z" fill="#263238" stroke="#263238" stroke-width="0.445953" stroke-linecap="round" stroke-linejoin="round"/>
<path d="M140.182 103.297C140.182 103.623 139.378 103.871 139.319 104.184C139.258 104.501 139.916 105.025 139.799 105.325C139.683 105.623 138.843 105.57 138.675 105.849C138.511 106.121 138.958 106.835 138.749 107.085C138.545 107.329 137.76 107.021 137.518 107.24C137.283 107.453 137.516 108.263 137.248 108.45C136.988 108.631 136.305 108.136 136.017 108.291C135.737 108.441 135.777 109.283 135.474 109.406C135.18 109.525 134.62 108.894 134.306 108.985C134.001 109.074 133.868 109.907 133.548 109.967C133.235 110.026 132.808 109.298 132.483 109.328C132.167 109.357 131.88 110.151 131.554 110.151C131.227 110.151 130.941 109.357 130.624 109.328C130.299 109.298 129.872 110.026 129.56 109.967C129.239 109.907 129.106 109.074 128.801 108.986C128.487 108.894 127.928 109.525 127.633 109.406C127.33 109.283 127.37 108.441 127.09 108.291C126.802 108.136 126.119 108.631 125.859 108.45C125.591 108.262 125.823 107.453 125.588 107.24C125.346 107.02 124.561 107.328 124.357 107.084C124.148 106.834 124.595 106.121 124.431 105.848C124.264 105.57 123.423 105.623 123.308 105.324C123.191 105.024 123.849 104.501 123.788 104.184C123.729 103.87 122.925 103.623 122.925 103.297C122.925 102.97 123.729 102.722 123.789 102.409C123.849 102.092 123.191 101.568 123.308 101.268C123.424 100.97 124.265 101.023 124.432 100.745C124.596 100.472 124.149 99.7583 124.358 99.508C124.562 99.2645 125.347 99.5719 125.589 99.3527C125.824 99.1401 125.591 98.3303 125.859 98.1434C126.119 97.962 126.802 98.4571 127.09 98.3024C127.37 98.1523 127.33 97.31 127.633 97.1874C127.927 97.0682 128.487 97.6987 128.801 97.6076C129.106 97.519 129.239 96.686 129.56 96.6258C129.872 96.5672 130.299 97.2946 130.624 97.2648C130.94 97.2358 131.227 96.4423 131.554 96.4423C131.88 96.4423 132.167 97.2358 132.483 97.2648C132.808 97.2946 133.235 96.5672 133.547 96.6258C133.868 96.6859 134.001 97.5189 134.306 97.6076C134.62 97.6987 135.18 97.0682 135.474 97.1873C135.777 97.31 135.737 98.1523 136.017 98.3024C136.305 98.4571 136.988 97.9621 137.248 98.1435C137.516 98.3306 137.284 99.1406 137.519 99.3534C137.761 99.5727 138.546 99.2655 138.75 99.5091C138.959 99.7593 138.512 100.473 138.676 100.745C138.843 101.024 139.684 100.971 139.799 101.269C139.916 101.569 139.258 102.092 139.319 102.409C139.378 102.723 140.182 102.97 140.182 103.297Z" fill="#42789E"/>
<path d="M131.554 108.436C135.171 108.436 138.103 106.135 138.103 103.297C138.103 100.459 135.171 98.1581 131.554 98.1581C127.936 98.1581 125.004 100.459 125.004 103.297C125.004 106.135 127.936 108.436 131.554 108.436Z" fill="white"/>
<path d="M131.554 107.457C134.482 107.457 136.856 105.594 136.856 103.297C136.856 100.999 134.482 99.1367 131.554 99.1367C128.626 99.1367 126.252 100.999 126.252 103.297C126.252 105.594 128.626 107.457 131.554 107.457Z" fill="#42789E"/>
<path d="M135.287 128.331H92.2188" stroke="#263238" stroke-width="0.445953" stroke-linecap="round" stroke-linejoin="round"/>
<path d="M78.5199 128.331H47.6572" stroke="#263238" stroke-width="0.445953" stroke-linecap="round" stroke-linejoin="round"/>
<path d="M101.562 127.419C101.562 127.419 109.692 118.418 112.007 109.588C114.323 100.758 108.626 105.543 106.347 115.342C104.068 125.141 104.068 127.647 106.347 125.824C108.174 124.254 109.751 122.415 111.024 120.371C111.345 119.862 111.614 119.392 111.816 118.988C112.727 117.165 109.765 118.304 109.081 121.95C108.398 125.596 112.5 120.355 113.639 118.532C114.778 116.709 117.057 115.798 115.234 120.583C113.411 125.368 110.677 124.457 113.183 121.267C115.69 118.076 118.424 111.468 118.652 115.114C118.88 118.76 117.969 122.862 116.146 124.001C114.323 125.141 119.564 118.76 121.159 119.216C122.754 119.672 123.438 121.495 121.842 122.862C120.247 124.229 120.247 119.672 132.325 120.127" stroke="#263238" stroke-width="0.445953" stroke-linecap="round" stroke-linejoin="round"/>
<path d="M130.346 114.845L137.028 120.212C137.102 120.272 137.153 120.355 137.173 120.448C137.194 120.54 137.181 120.637 137.139 120.722C137.096 120.807 137.026 120.875 136.939 120.914C136.852 120.954 136.755 120.962 136.663 120.938L128.197 118.739L130.346 114.845Z" fill="white" stroke="#263238" stroke-width="0.445953" stroke-linecap="round" stroke-linejoin="round"/>
<path d="M129.261 112.761L90.177 89.6201L85.8066 97.0498L126.273 118.971C126.375 119.039 126.482 119.097 126.595 119.145C127.938 119.706 129.624 118.732 130.36 116.969C131.096 115.206 130.604 113.322 129.261 112.761Z" fill="#8C8C8C" stroke="#263238" stroke-width="0.445953" stroke-linecap="round" stroke-linejoin="round"/>
<path d="M91.2087 94.3624C90.0685 97.098 87.4537 98.6089 85.3708 97.7386C85.1714 97.6531 84.9811 97.5478 84.8027 97.4244L44.7434 75.1002L41.476 73.2792L41.0771 73.0576L41.1778 72.8159L45.7708 61.817L45.9682 61.3496L46.496 61.6679L51.0728 64.4559L89.5044 87.8356C91.5874 88.7058 92.3529 91.6268 91.2087 94.3624Z" fill="white" stroke="#263238" stroke-width="0.445953" stroke-linecap="round" stroke-linejoin="round"/>
<path d="M89.1221 87.603L51.0728 64.4559L46.496 61.6679L45.9682 61.3496L45.7708 61.817L41.1778 72.8159L41.0771 73.0576L41.476 73.2792L44.7434 75.1002L83.8845 96.9126C85.9676 97.531 88.4494 95.9983 89.5636 93.3248C90.4551 91.1935 90.2186 88.9548 89.1221 87.603Z" fill="#8C8C8C" stroke="#263238" stroke-width="0.445953" stroke-linecap="round" stroke-linejoin="round"/>
<path d="M44.7437 75.0996C47.1167 75.2003 49.6589 73.351 50.8878 70.4099C51.7341 68.5275 51.8007 66.3866 51.0731 64.4552L46.4963 61.6672C46.2513 61.6995 46.0089 61.7493 45.7711 61.8163C43.8855 62.3481 42.0846 63.9919 41.1096 66.3246C40.1346 68.6614 40.2313 71.0989 41.1781 72.8152C41.268 72.9755 41.3676 73.1302 41.4763 73.2785" fill="white"/>
<path d="M44.7437 75.0996C47.1167 75.2003 49.6589 73.351 50.8878 70.4099C51.7341 68.5275 51.8007 66.3866 51.0731 64.4552L46.4963 61.6672C46.2513 61.6995 46.0089 61.7493 45.7711 61.8163C43.8855 62.3481 42.0846 63.9919 41.1096 66.3246C40.1346 68.6614 40.2313 71.0989 41.1781 72.8152C41.268 72.9755 41.3676 73.1302 41.4763 73.2785" stroke="#263238" stroke-width="0.445953" stroke-linecap="round" stroke-linejoin="round"/>
<path d="M48.3066 68.3623L78.0251 87.7036C78.2081 87.8227 78.3401 88.0058 78.3955 88.217C78.4508 88.4282 78.4255 88.6525 78.3245 88.8461C78.2693 88.9517 78.1932 89.0451 78.1007 89.1204C78.0083 89.1957 77.9015 89.2514 77.7869 89.2841C77.6722 89.3168 77.5521 89.3258 77.4339 89.3106C77.3157 89.2954 77.2017 89.2562 77.0991 89.1956L46.5312 71.124L48.3066 68.3623Z" fill="white" stroke="#263238" stroke-width="0.445953" stroke-linecap="round" stroke-linejoin="round"/>
<path d="M47.9843 69.0664C46.6337 72.3002 43.5415 74.0876 41.0776 73.0586C38.6137 72.0296 37.7112 68.5739 39.0618 65.34C40.4123 62.1062 43.5045 60.3188 45.9684 61.3478C48.4323 62.3768 49.3348 65.8325 47.9843 69.0664Z" fill="#8C8C8C" stroke="#263238" stroke-width="0.445953" stroke-linecap="round" stroke-linejoin="round"/>
<path d="M47.0225 68.6651C45.9631 71.2016 43.5377 72.6036 41.605 71.7965C39.6724 70.9894 33.0319 64.6237 34.0913 62.0871C35.1506 59.5505 43.5087 61.8037 45.4413 62.6108C47.3739 63.4179 48.0818 66.1285 47.0225 68.6651Z" fill="white" stroke="#263238" stroke-width="0.445953" stroke-linecap="round" stroke-linejoin="round"/>
<path d="M109.597 110.712L112.007 109.587C112.556 109.563 113.097 109.733 113.533 110.069C114.256 110.631 115.621 111.515 115.621 111.515C115.621 111.515 118.352 111.675 118.432 112.077C118.512 112.479 116.826 112.96 116.585 112.96H114.818C114.818 112.96 117.308 114.246 117.549 114.406C117.789 114.567 121.243 115.611 120.761 115.932C120.279 116.253 117.067 116.173 116.344 116.334C115.626 116.444 114.901 116.498 114.175 116.494L111.445 114.005L109.517 111.916C109.517 111.916 108.875 111.194 109.597 110.712Z" fill="white" stroke="#263238" stroke-width="0.445953" stroke-linecap="round" stroke-linejoin="round"/>
<path d="M49.0409 81.8793C49.0409 81.8793 48.8803 79.7108 48.8803 78.6668C48.8803 77.6227 48.318 75.6148 48.0771 75.4542C47.8361 75.2936 45.3464 74.3298 44.6236 73.6873C43.9007 73.0447 43.0173 73.9282 43.3385 74.4904C43.6598 75.0526 45.507 76.0967 45.507 76.0967L45.0252 76.8196L43.2582 75.2936C43.2582 75.2936 41.411 72.4022 40.9291 72.6432C40.4472 72.8841 40.6079 73.2857 40.9291 73.8479C41.2504 74.4101 41.0897 78.0243 41.9732 78.7471C42.8567 79.4699 45.507 80.3534 45.507 80.3534L45.748 82.3612C45.748 82.3612 48.2377 82.5219 48.559 82.6022C48.8803 82.6825 49.0409 81.8793 49.0409 81.8793Z" fill="white" stroke="#263238" stroke-width="0.445953" stroke-linecap="round" stroke-linejoin="round"/>
<path d="M43.7402 84.9311L44.0615 82.7627C44.0615 82.7627 43.9812 82.0398 45.8284 81.7186C46.8971 81.5198 47.9975 81.5749 49.041 81.8792C49.1551 81.9241 49.2537 82.0011 49.325 82.1009C49.3962 82.2006 49.4371 82.3189 49.4426 82.4414C49.4283 83.2232 49.3477 84.0024 49.2016 84.7705C49.2016 84.7705 46.3103 83.6461 43.7402 84.9311Z" fill="white" stroke="#263238" stroke-width="0.445953" stroke-linecap="round" stroke-linejoin="round"/>
<path d="M75.9551 191.529V197.303C75.9551 197.303 77.298 197.975 81.1926 197.975C84.6856 197.898 88.1388 197.216 91.3992 195.96C93.2793 195.155 93.9508 193.409 93.2793 193.14C92.6078 192.872 89.2504 192.737 88.5789 192.2C87.9075 191.663 85.0872 189.917 85.0872 189.917C85.0872 189.917 78.3724 191.931 75.9551 191.529Z" fill="#5AABE4" stroke="#263238" stroke-width="0.445953" stroke-linecap="round" stroke-linejoin="round"/>
<path d="M93.5259 193.672C90.708 194.995 87.7023 195.873 84.6155 196.275C79.9761 196.874 77.1193 196.361 75.9551 196.057V197.304C75.9551 197.304 77.298 197.975 81.1927 197.975C84.6856 197.898 88.1388 197.216 91.3992 195.961C92.7466 195.383 93.4695 194.325 93.5259 193.672Z" fill="white" stroke="#263238" stroke-width="0.445953" stroke-linecap="round" stroke-linejoin="round"/>
<path d="M77.9696 136.063L78.641 137.944C78.641 137.944 81.4612 143.315 83.4757 147.21C85.4902 151.105 87.6389 159.431 88.3104 160.237C88.9819 161.043 88.8476 162.117 88.4447 163.326C88.0418 164.534 84.8187 185.619 84.8187 186.156C84.8187 186.693 84.5501 186.693 84.953 187.365C85.3558 188.036 85.4902 190.185 85.4902 190.185C84.6066 191.04 83.4813 191.603 82.267 191.796C80.1183 192.199 75.9551 192.199 75.9551 192.199C75.9551 192.199 75.4179 189.648 75.5522 189.245C75.6865 188.842 76.0894 186.29 76.0894 186.29C76.0894 186.29 77.4324 179.71 77.1638 176.352C76.8952 172.995 77.5667 165.474 77.8352 164.669C78.0228 163.786 78.1129 162.885 78.1038 161.983L77.298 160.505V159.431C77.298 159.431 70.8519 152.85 68.3002 150.299C65.7485 147.747 63.1969 144.658 63.1969 144.658C63.1969 144.658 60.2424 157.819 59.4366 160.64C58.6308 163.46 58.228 164.669 57.6908 165.474C57.1536 166.28 51.6474 173.532 49.633 176.487C47.6185 179.441 44.5297 184.679 44.5297 184.679C44.5216 185.442 44.5664 186.205 44.664 186.962C44.7983 187.499 43.321 189.513 43.321 189.513L42.7839 190.051C42.7839 190.051 39.5607 186.827 38.3521 186.559C37.1434 186.29 34.5918 186.693 34.5918 186.693C34.5918 186.693 36.2033 182.261 36.6062 181.321C37.0091 180.381 40.7694 170.846 41.8438 168.966C42.9182 167.086 43.7239 163.326 45.6041 161.848C47.4842 160.371 49.633 158.625 49.633 158.625L49.3644 143.584L49.0958 139.421C48.8341 138.366 48.6989 137.284 48.6929 136.198V133.512C48.6929 133.512 60.9139 136.332 66.9572 136.063C73.0006 135.795 76.6266 134.183 76.6266 134.183L77.9696 136.063Z" fill="#263238" stroke="#263238" stroke-width="0.445953" stroke-linecap="round" stroke-linejoin="round"/>
<path d="M81.3266 94.0868C81.3266 94.0868 74.3393 91.0349 70.6448 91.0349C66.9504 91.0349 64.9425 91.1152 61.0071 91.2758C57.0717 91.4364 54.7426 92.6411 54.7426 92.6411L48.9599 94.5687L49.4418 84.0475C48.2658 83.7234 47.0363 83.6415 45.8277 83.8065C44.8155 84.0016 43.8892 84.5068 43.1773 85.2522C43.1773 85.2522 41.0088 99.5482 41.0891 100.833C41.1694 102.118 42.856 102.359 42.856 102.359L55.9473 102.118L54.9835 116.736L45.1852 133.762C45.1852 133.762 45.2655 136.413 53.2969 139.063C61.3284 141.713 71.2071 140.83 74.259 140.027C77.3109 139.224 82.1942 135.612 82.5958 135.05C82.9973 134.488 82.6117 131.594 82.6117 130.389C82.6117 129.184 80.6039 117.78 80.9251 117.217C81.2463 116.655 83.0133 109.106 83.0133 109.106C83.0133 109.106 99.3171 119.707 100.281 119.546C101.245 119.386 111.043 114.567 111.284 114.406C111.525 114.246 112.167 113.362 111.204 111.917C110.845 111.415 110.376 111.002 109.833 110.71C109.29 110.417 108.688 110.253 108.071 110.23C107.59 110.23 101.004 110.792 101.004 110.792C101.004 110.792 92.7313 103.484 92.4904 103.082C92.2495 102.68 90.9644 99.3072 90.4022 98.4238C89.84 97.5403 81.3266 94.0868 81.3266 94.0868Z" fill="#5AABE4" stroke="#263238" stroke-width="0.445953" stroke-linecap="round" stroke-linejoin="round"/>
<path d="M101.004 110.792C101.004 110.792 103.641 112.295 104.167 113.216L101.004 110.792Z" fill="#5AABE4"/>
<path d="M101.004 110.792C101.004 110.792 103.641 112.295 104.167 113.216" stroke="#263238" stroke-width="0.445953" stroke-linecap="round" stroke-linejoin="round"/>
<path d="M90.4027 98.4248C90.4027 98.4248 87.9918 98.6196 85.4932 101.25L90.4027 98.4248Z" fill="#5AABE4"/>
<path d="M90.4027 98.4248C90.4027 98.4248 87.9918 98.6196 85.4932 101.25" stroke="#263238" stroke-width="0.445953" stroke-linecap="round" stroke-linejoin="round"/>
<path d="M84.9668 99.5391C84.2386 99.9457 83.6119 100.512 83.1336 101.195C82.6553 101.878 82.3379 102.661 82.2051 103.484" fill="#5AABE4"/>
<path d="M84.9668 99.5391C84.2386 99.9457 83.6119 100.512 83.1336 101.195C82.6553 101.878 82.3379 102.661 82.2051 103.484" stroke="#263238" stroke-width="0.445953" stroke-linecap="round" stroke-linejoin="round"/>
<path d="M55.9478 102.118L55.707 96.0947L55.9478 102.118Z" stroke="#263238" stroke-width="0.445953" stroke-linecap="round" stroke-linejoin="round"/>
<path d="M79.2096 111.688L83.0131 109.105L76.8291 111.033" stroke="#263238" stroke-width="0.445953" stroke-linecap="round" stroke-linejoin="round"/>
<path d="M76.5078 113.522L77.8206 112.631" stroke="#263238" stroke-width="0.445953" stroke-linecap="round" stroke-linejoin="round"/>
<path d="M76.1311 94.999C74.6463 95.5304 73.2755 96.3382 72.0913 97.3797C68.9591 100.191 67.2725 99.9498 67.2725 99.9498" stroke="#263238" stroke-width="0.445953" stroke-linecap="round" stroke-linejoin="round"/>
<path d="M79.2387 94.248C78.7619 94.2977 78.289 94.3796 77.8232 94.4931" stroke="#263238" stroke-width="0.445953" stroke-linecap="round" stroke-linejoin="round"/>
<path d="M71.6094 96.2549C71.6094 96.2549 69.0393 98.6643 66.3086 99.7887" stroke="#263238" stroke-width="0.445953" stroke-linecap="round" stroke-linejoin="round"/>
<path d="M43.3255 96.0215C43.0527 96.3332 42.8882 96.7248 42.8564 97.1378" stroke="#263238" stroke-width="0.445953" stroke-linecap="round" stroke-linejoin="round"/>
<path d="M48.9599 94.5689L47.8355 94.6492C47.8355 94.6492 46.3899 94.0067 45.667 94.087C45.1653 94.2537 44.7111 94.5387 44.3428 94.9179" stroke="#263238" stroke-width="0.445953" stroke-linecap="round" stroke-linejoin="round"/>
<path d="M44.0616 94.248C44.0616 94.248 42.6159 94.8102 42.375 96.0953" stroke="#263238" stroke-width="0.445953" stroke-linecap="round" stroke-linejoin="round"/>
<path d="M80.9253 117.217C80.9253 117.217 79.7897 124.93 79.2794 127.311C78.7692 129.692 78.0889 135.56 78.0889 135.56C78.9394 135.235 79.8237 135.007 80.7251 134.88C82.0857 134.71 82.5959 135.05 82.5959 135.05C82.5959 135.05 83.6164 132.584 82.5959 128.332C81.5755 124.08 80.9253 117.217 80.9253 117.217Z" fill="#5AABE4" stroke="#263238" stroke-width="0.445953" stroke-linecap="round" stroke-linejoin="round"/>
<path d="M42.7844 190.051C42.7844 190.051 43.3215 192.603 43.8587 192.871C44.3959 193.14 46.9475 193.677 47.2161 194.349C47.4847 195.02 44.7988 196.229 43.0529 196.497C41.3071 196.766 38.2183 196.095 37.8154 195.826C37.4125 195.557 36.4724 194.214 35.2638 193.811C34.0551 193.409 32.5778 192.871 32.8464 191.26C33.115 189.648 34.5923 186.694 34.5923 186.694C36.3937 186.14 38.3262 186.187 40.0984 186.828C43.0529 187.902 42.7844 190.051 42.7844 190.051Z" fill="#5AABE4" stroke="#263238" stroke-width="0.445953" stroke-linecap="round" stroke-linejoin="round"/>
<path d="M43.0529 196.498C44.7988 196.229 47.4847 195.02 47.2161 194.349C47.1881 194.288 47.1491 194.233 47.1011 194.186C45.794 194.631 44.1876 194.877 42.7142 194.059C40.9011 193.051 40.2968 190.836 37.8793 190.03C36.4724 189.561 34.5921 189.638 33.2624 189.784C33.0829 190.264 32.9438 190.757 32.8464 191.26C32.5778 192.872 34.0551 193.409 35.2638 193.812C36.4724 194.215 37.4125 195.558 37.8154 195.826C38.2183 196.095 41.3071 196.766 43.0529 196.498Z" fill="white" stroke="#263238" stroke-width="0.445953" stroke-linecap="round" stroke-linejoin="round"/>
<path d="M42.2471 195.558C40.7699 194.886 39.4269 193.141 37.2782 191.798C35.3128 190.569 33.2407 191.921 32.9004 192.162C33.2077 193.095 34.3163 193.496 35.2637 193.812C36.4724 194.215 37.4124 195.558 37.8153 195.827C38.2182 196.095 41.307 196.767 43.0529 196.498C43.4086 196.44 43.7602 196.36 44.1058 196.258C43.4734 196.06 42.8529 195.826 42.2471 195.558Z" fill="#263238" stroke="#263238" stroke-width="0.445953" stroke-linecap="round" stroke-linejoin="round"/>
<path d="M82.6925 91.9187L80.2831 93.6053C80.2831 93.6053 77.1508 91.5172 74.9823 91.1156C72.8138 90.714 71.6895 90.6337 71.6895 90.6337L73.376 87.6621C74.6095 86.7736 75.5582 85.5459 76.1067 84.1282C76.8295 81.9597 77.5524 81.0763 79.1587 81.8794C80.765 82.6826 81.4075 85.8951 81.4075 87.903C81.4075 89.9109 82.6925 91.9187 82.6925 91.9187Z" fill="white" stroke="#263238" stroke-width="0.445953" stroke-linecap="round" stroke-linejoin="round"/>
<path d="M84.0573 77.1406C84.0573 77.1406 85.4227 79.1485 85.5833 79.8713C85.7439 80.5941 85.0211 82.0398 85.0211 82.0398C85.0211 82.0398 86.6274 84.3689 86.7077 84.9311C86.788 85.4933 85.7439 86.5374 85.7439 86.5374C85.7439 86.5374 85.9849 88.8665 86.3061 89.4287C86.6274 89.9909 86.9487 90.7941 86.5471 91.5169C86.1455 92.2397 85.5833 92.7216 83.8967 92.9625C82.2101 93.2035 80.8448 92.4004 80.5235 90.7137C80.2023 89.0272 80.2023 85.413 79.9613 84.9311C79.7204 84.4492 78.596 83.3248 78.0338 84.2083C77.4716 85.0918 77.8731 85.9752 78.2747 86.7783C78.5208 87.2629 78.9145 87.6567 79.3991 87.9028C79.3991 87.9028 78.4353 88.3846 77.6322 88.7862C76.5647 89.2478 75.3656 89.3049 74.259 88.9468C73.868 88.7957 73.5107 88.569 73.2075 88.2796C72.9043 87.9902 72.6611 87.6438 72.492 87.2602C72.4117 87.0193 71.6086 85.0114 71.3677 84.6099C71.1267 84.2083 69.4401 81.7988 69.3598 78.9879C69.2795 76.1768 72.6527 72.9642 76.9897 72.0808C81.3266 71.1973 83.3345 73.1249 84.2983 73.2052C85.2621 73.2855 84.2983 72.402 85.1014 72.9642C85.9046 73.5265 86.0652 76.6587 84.0573 77.1406Z" fill="white" stroke="#263238" stroke-width="0.445953" stroke-linecap="round" stroke-linejoin="round"/>
<path d="M85.744 86.5374C85.744 86.5374 85.8324 86.4485 85.9546 86.3107C85.6296 86.3532 84.6533 86.4853 84.0573 86.6177C83.3345 86.7784 83.0133 88.9469 82.3707 88.3846C81.7282 87.8224 81.4069 83.0839 81.2464 82.843C81.0857 82.602 81.8085 81.7989 81.8085 81.7989C81.8085 81.7989 82.933 80.2729 82.933 79.6304C82.933 78.9879 81.8085 78.265 82.2101 78.1044C82.6117 77.9438 84.0573 77.1406 84.0573 77.1406C86.0652 76.6587 85.9046 73.5265 85.1014 72.9643C84.2983 72.4021 85.2621 73.2855 84.2983 73.2052C83.3345 73.1249 81.3267 71.1974 76.9897 72.0808C72.6527 72.9643 69.2795 76.1769 69.3598 78.9879C69.4401 81.7989 71.1267 84.2083 71.3677 84.6099C71.6086 85.0115 72.4117 87.0193 72.492 87.2603C72.6611 87.6438 72.9043 87.9902 73.2075 88.2796C73.5107 88.569 73.868 88.7958 74.259 88.9469C75.3655 89.305 76.5646 89.2479 77.6322 88.7862C78.4353 88.3846 79.3991 87.9027 79.3991 87.9027C78.9145 87.6567 78.5208 87.2629 78.2747 86.7784C77.8731 85.9752 77.4716 85.0917 78.0338 84.2083C78.596 83.3248 79.7204 84.4492 79.9613 84.9311C80.2023 85.413 80.2023 89.0272 80.5235 90.7138C80.8447 92.4004 82.2101 93.2035 83.8967 92.9626C85.5833 92.7216 86.1455 92.2397 86.5471 91.5169C86.9487 90.7941 86.6274 89.991 86.3061 89.4288C85.9849 88.8665 85.744 86.5374 85.744 86.5374Z" fill="#263238" stroke="#263238" stroke-width="0.445953" stroke-linecap="round" stroke-linejoin="round"/>
<path d="M85.3429 80.5936C85.1262 80.592 84.9133 80.6515 84.7287 80.7651C84.5441 80.8787 84.3951 81.0419 84.2988 81.2361" stroke="#263238" stroke-width="0.445953" stroke-linecap="round" stroke-linejoin="round"/>
<path d="M84.7002 83.3246C84.8776 83.3246 85.0214 82.929 85.0214 82.4411C85.0214 81.9532 84.8776 81.5576 84.7002 81.5576C84.5227 81.5576 84.3789 81.9532 84.3789 82.4411C84.3789 82.929 84.5227 83.3246 84.7002 83.3246Z" fill="#263238"/>
<path d="M85.9051 88.5452C85.9051 88.5452 84.5398 89.0271 83.9775 88.0634" stroke="white" stroke-width="0.445953" stroke-linecap="round" stroke-linejoin="round"/>
<path d="M70.6451 91.0357C74.3396 91.0357 81.327 94.0877 81.327 94.0877C81.327 94.0877 81.4255 94.1277 81.5944 94.1969C81.5275 93.8383 81.3812 93.4991 81.1663 93.2042C80.9253 93.0436 79.6403 91.1963 77.2309 90.2325C75.6502 89.5787 73.9616 89.2246 72.2514 89.1885C71.6861 89.1885 70.0653 90.6793 69.6836 91.0379C69.9934 91.0366 70.3103 91.0357 70.6451 91.0357Z" fill="#5AABE4" stroke="#263238" stroke-width="0.445953" stroke-linecap="round" stroke-linejoin="round"/>
</g>
<defs>
<clipPath id="clip0_79_3483">
<rect width="214.311" height="200" fill="white"/>
</clipPath>
</defs>
</svg>
