<svg width="218" height="207" viewBox="0 0 218 207" fill="none" xmlns="http://www.w3.org/2000/svg">
<g clip-path="url(#clip0_79_3724)">
<path d="M205.582 138.917C196.255 157.724 179.714 177.222 159.588 180.969C129.178 186.635 122.271 211.927 70.3945 202.597C62.7959 201.268 55.3818 199.042 48.3074 195.966C44.825 194.439 41.4515 192.674 38.2106 190.685C9.51958 173.088 -2.42281 141.168 0.404091 109.808C4.11588 68.561 32.8154 52.4825 51.3002 43.2914C69.785 34.1004 96.1277 -7.53527 147.202 1.19714C155.025 2.50294 162.654 4.78797 169.907 7.99839C186.496 15.4202 202.545 29.0911 210.543 47.02C211.143 48.3668 211.706 49.7366 212.231 51.1293C222.506 78.3435 218.299 113.277 205.582 138.917Z" fill="#D5E1F7"/>
<path d="M207.576 196.637H213.628" stroke="#263238" stroke-width="0.428865" stroke-linecap="round" stroke-linejoin="round"/>
<path d="M0.605469 196.637H203.139" stroke="#263238" stroke-width="0.428865" stroke-linecap="round" stroke-linejoin="round"/>
<path d="M27.1488 96.3533C35.5924 96.3533 42.4373 89.5084 42.4373 81.0649C42.4373 72.6213 35.5924 65.7764 27.1488 65.7764C18.7052 65.7764 11.8604 72.6213 11.8604 81.0649C11.8604 89.5084 18.7052 96.3533 27.1488 96.3533Z" stroke="#263238" stroke-width="0.428865" stroke-linecap="round" stroke-linejoin="round"/>
<path d="M30.2224 94.2355C37.4961 92.5381 42.0165 85.2655 40.319 77.9919C38.6216 70.7182 31.3491 66.1978 24.0754 67.8952C16.8017 69.5927 12.2813 76.8652 13.9788 84.1389C15.6762 91.4125 22.9488 95.933 30.2224 94.2355Z" stroke="#263238" stroke-width="0.428865" stroke-linecap="round" stroke-linejoin="round"/>
<path d="M27.1491 82.3558C27.8625 82.3558 28.4408 81.7775 28.4408 81.0641C28.4408 80.3507 27.8625 79.7724 27.1491 79.7724C26.4357 79.7724 25.8574 80.3507 25.8574 81.0641C25.8574 81.7775 26.4357 82.3558 27.1491 82.3558Z" fill="#263238" stroke="#263238" stroke-width="0.428865" stroke-linecap="round" stroke-linejoin="round"/>
<path d="M31.8554 83.366L27.1483 81.0644L19.3008 89.6431" stroke="#263238" stroke-width="0.428865" stroke-linecap="round" stroke-linejoin="round"/>
<path d="M164.696 23.3691H55.6519C54.1355 23.3691 52.9062 24.5984 52.9062 26.1148V190.214C52.9062 191.73 54.1355 192.96 55.6519 192.96H164.696C166.213 192.96 167.442 191.73 167.442 190.214V26.1148C167.442 24.5984 166.213 23.3691 164.696 23.3691Z" fill="#263238" stroke="#263238" stroke-width="0.428865" stroke-linecap="round" stroke-linejoin="round"/>
<path d="M161.622 27.1973H58.7266V186.43H161.622V27.1973Z" fill="white" stroke="#263238" stroke-width="0.428865" stroke-linecap="round" stroke-linejoin="round"/>
<path d="M124.543 68.5039H132.533" stroke="#263238" stroke-width="0.428865" stroke-miterlimit="10"/>
<path d="M69.1289 68.5039H118.356" stroke="#263238" stroke-width="0.428865" stroke-miterlimit="10"/>
<path d="M112.687 74.6904H132.532" stroke="#263238" stroke-width="0.428865" stroke-miterlimit="10"/>
<path d="M82.2734 74.6904H107.274" stroke="#263238" stroke-width="0.428865" stroke-miterlimit="10"/>
<path d="M69.1299 74.6904H77.6352" stroke="#263238" stroke-width="0.428865" stroke-miterlimit="10"/>
<path d="M93.8721 80.8758H132.532" stroke="#263238" stroke-width="0.428865" stroke-miterlimit="10"/>
<path d="M69.1299 80.876H85.367" stroke="#263238" stroke-width="0.428865" stroke-miterlimit="10"/>
<path d="M150.123 80.6947C153.724 79.839 155.949 76.2264 155.093 72.6257C154.238 69.0251 150.625 66.7999 147.024 67.6556C143.424 68.5114 141.199 72.124 142.054 75.7246C142.91 79.3253 146.523 81.5505 150.123 80.6947Z" stroke="#263238" stroke-width="0.428865" stroke-miterlimit="10"/>
<path d="M77.1198 96.082H69.1299" stroke="#263238" stroke-width="0.428865" stroke-miterlimit="10"/>
<path d="M132.532 96.082H83.3047" stroke="#263238" stroke-width="0.428865" stroke-miterlimit="10"/>
<path d="M88.9757 102.268H69.1299" stroke="#263238" stroke-width="0.428865" stroke-miterlimit="10"/>
<path d="M119.388 102.268H94.3877" stroke="#263238" stroke-width="0.428865" stroke-miterlimit="10"/>
<path d="M132.533 102.268H124.027" stroke="#263238" stroke-width="0.428865" stroke-miterlimit="10"/>
<path d="M107.789 108.454H69.1289" stroke="#263238" stroke-width="0.428865" stroke-miterlimit="10"/>
<path d="M132.532 108.454H116.295" stroke="#263238" stroke-width="0.428865" stroke-miterlimit="10"/>
<path d="M150.123 108.272C153.724 107.416 155.949 103.804 155.093 100.203C154.238 96.6022 150.625 94.377 147.024 95.2328C143.424 96.0885 141.199 99.7011 142.054 103.302C142.91 106.902 146.523 109.128 150.123 108.272Z" stroke="#263238" stroke-width="0.428865" stroke-miterlimit="10"/>
<path d="M124.543 123.66H132.533" stroke="#263238" stroke-width="0.428865" stroke-miterlimit="10"/>
<path d="M69.1299 123.66H118.357" stroke="#263238" stroke-width="0.428865" stroke-miterlimit="10"/>
<path d="M112.687 129.846H132.532" stroke="#263238" stroke-width="0.428865" stroke-miterlimit="10"/>
<path d="M82.2734 129.846H107.274" stroke="#263238" stroke-width="0.428865" stroke-miterlimit="10"/>
<path d="M69.1299 129.846H77.6352" stroke="#263238" stroke-width="0.428865" stroke-miterlimit="10"/>
<path d="M93.8721 136.031H132.532" stroke="#263238" stroke-width="0.428865" stroke-miterlimit="10"/>
<path d="M69.1299 136.031H85.367" stroke="#263238" stroke-width="0.428865" stroke-miterlimit="10"/>
<path d="M153.312 134.068C155.929 131.451 155.929 127.208 153.312 124.592C150.695 121.975 146.452 121.975 143.835 124.592C141.218 127.208 141.218 131.451 143.835 134.068C146.452 136.685 150.695 136.685 153.312 134.068Z" stroke="#263238" stroke-width="0.428865" stroke-miterlimit="10"/>
<path d="M118.837 10.0131C118.722 10.0131 118.608 9.99053 118.502 9.9466C118.396 9.90267 118.3 9.83829 118.219 9.75712C118.138 9.67595 118.073 9.5796 118.029 9.47355C117.985 9.3675 117.963 9.25383 117.963 9.13905V4.21655C117.963 3.97189 117.915 3.72963 117.821 3.50359C117.727 3.27756 117.59 3.07218 117.417 2.89918C117.244 2.72618 117.039 2.58895 116.813 2.49532C116.587 2.4017 116.344 2.35351 116.1 2.35352H108.166C107.921 2.35351 107.679 2.4017 107.453 2.49533C107.227 2.58895 107.021 2.72618 106.848 2.89918C106.675 3.07218 106.538 3.27756 106.445 3.50359C106.351 3.72963 106.303 3.97189 106.303 4.21655V9.13905C106.303 9.25383 106.28 9.36749 106.236 9.47354C106.192 9.57958 106.128 9.67594 106.047 9.75711C105.966 9.83827 105.869 9.90266 105.763 9.94659C105.657 9.99052 105.544 10.0131 105.429 10.0131C105.314 10.0131 105.2 10.0357 105.094 10.0797C104.988 10.1236 104.892 10.188 104.811 10.2691C104.73 10.3503 104.665 10.4467 104.621 10.5527C104.577 10.6587 104.555 10.7724 104.555 10.8872V24.2216H119.711V10.8872C119.711 10.6554 119.619 10.4331 119.455 10.2691C119.291 10.1052 119.069 10.0131 118.837 10.0131ZM112.133 9.5543C111.649 9.55429 111.177 9.41092 110.775 9.14231C110.373 8.8737 110.059 8.49191 109.874 8.04524C109.689 7.59856 109.641 7.10705 109.735 6.63286C109.83 6.15867 110.062 5.7231 110.404 5.38123C110.746 5.03936 111.182 4.80655 111.656 4.71223C112.13 4.61791 112.622 4.66633 113.068 4.85135C113.515 5.03637 113.897 5.3497 114.165 5.7517C114.434 6.1537 114.577 6.62632 114.577 7.1098C114.577 7.43082 114.514 7.7487 114.391 8.04528C114.268 8.34187 114.088 8.61135 113.861 8.83835C113.634 9.06534 113.365 9.2454 113.068 9.36824C112.772 9.49108 112.454 9.55431 112.133 9.5543Z" fill="#263238" stroke="#263238" stroke-width="0.428865" stroke-linecap="round" stroke-linejoin="round"/>
<path d="M92.3715 19.9844H131.894C132.93 19.9844 133.923 20.3959 134.656 21.1283C135.388 21.8608 135.8 22.8542 135.8 23.89V28.3818H88.4658V23.89C88.4658 22.8542 88.8773 21.8608 89.6098 21.1283C90.3422 20.3959 91.3356 19.9844 92.3715 19.9844Z" fill="white" stroke="#263238" stroke-width="0.428865" stroke-linecap="round" stroke-linejoin="round"/>
<path d="M89.6387 21.4364H134.628C134.211 20.9789 133.704 20.6135 133.138 20.3635C132.573 20.1134 131.961 19.9843 131.343 19.9844H92.9237C92.3052 19.9843 91.6936 20.1134 91.1279 20.3635C90.5622 20.6135 90.0549 20.979 89.6387 21.4364Z" fill="#263238" stroke="#263238" stroke-width="0.428865" stroke-linecap="round" stroke-linejoin="round"/>
<path d="M135.8 28.3427H88.4658V31.1029H135.8V28.3427Z" fill="white" stroke="#263238" stroke-width="0.428865" stroke-linecap="round" stroke-linejoin="round"/>
<path d="M146.02 100.641L147.841 103.879L154.722 97.2002" stroke="#42789E" stroke-width="2.57319" stroke-miterlimit="10" stroke-linecap="round"/>
<path d="M146.02 72.7718L147.841 76.0097L154.722 69.3311" stroke="#42789E" stroke-width="2.57319" stroke-miterlimit="10" stroke-linecap="round"/>
<path d="M124.543 41.2412H132.533" stroke="#263238" stroke-width="0.428865" stroke-miterlimit="10"/>
<path d="M69.1299 41.2412H118.357" stroke="#263238" stroke-width="0.428865" stroke-miterlimit="10"/>
<path d="M112.687 47.4277H132.532" stroke="#263238" stroke-width="0.428865" stroke-miterlimit="10"/>
<path d="M82.2734 47.4277H107.274" stroke="#263238" stroke-width="0.428865" stroke-miterlimit="10"/>
<path d="M69.1289 47.4277H77.6342" stroke="#263238" stroke-width="0.428865" stroke-miterlimit="10"/>
<path d="M93.8721 53.6133H132.532" stroke="#263238" stroke-width="0.428865" stroke-miterlimit="10"/>
<path d="M69.1289 53.6133H85.366" stroke="#263238" stroke-width="0.428865" stroke-miterlimit="10"/>
<path d="M153.312 51.6505C155.929 49.0336 155.929 44.7906 153.312 42.1737C150.695 39.5567 146.452 39.5567 143.835 42.1737C141.218 44.7906 141.218 49.0336 143.835 51.6505C146.452 54.2675 150.695 54.2675 153.312 51.6505Z" stroke="#263238" stroke-width="0.428865" stroke-miterlimit="10"/>
<path d="M146.02 45.5086L147.841 48.7465L154.722 42.0684" stroke="#42789E" stroke-width="2.57319" stroke-miterlimit="10" stroke-linecap="round"/>
<path d="M145.056 126.938L146.877 130.176L153.758 123.498" stroke="#42789E" stroke-width="2.57319" stroke-miterlimit="10" stroke-linecap="round"/>
<path d="M181.882 84.2644C181.882 84.2644 184.323 86.3301 184.136 88.1453C183.948 89.9606 181.507 94.405 180.943 95.7195C180.38 97.0341 181.694 100.164 181.694 100.164L173.557 102.918C173.656 102.443 173.656 101.953 173.557 101.478C173.369 101.04 173.056 99.8509 173.056 99.8509C173.056 99.8509 171.804 100.289 171.429 100.414C171.053 100.539 169.738 99.9135 169.676 99.3501C169.613 98.7868 169.613 98.4112 169.551 97.5974C169.514 96.7557 169.409 95.9184 169.238 95.0935C169.113 94.8432 167.861 94.0294 167.923 93.5912C167.986 93.153 169.426 91.4629 169.551 90.8996C169.676 90.3362 169.363 89.0843 169.488 88.3958C169.613 87.7072 170.803 85.3285 170.803 85.3285C170.803 85.3285 170.051 84.7025 172.117 83.0124C174.183 81.3223 179.378 80.8216 181.882 84.2644Z" fill="white" stroke="#263238" stroke-width="0.428865" stroke-linecap="round" stroke-linejoin="round"/>
<path d="M181.882 84.2644C179.378 80.8216 174.183 81.3224 172.117 83.0124C170.052 84.7026 170.803 85.3285 170.803 85.3285L172.681 86.7682C172.681 86.7682 170.928 88.7713 171.178 89.0217C171.429 89.2721 172.806 91.0248 172.806 91.0248L172.685 91.6083L172.437 90.6605C172.437 90.6605 171.659 93.7739 171.513 94.5522C171.367 95.3305 171.367 95.6224 171.026 95.7197C170.686 95.817 169.238 95.0936 169.238 95.0936C169.238 95.0936 169.227 96.9359 169.178 97.7142C169.129 98.4925 169.081 99.1249 169.032 99.806C168.983 100.487 170.005 101.606 171.221 101.363C172.437 101.119 173.091 100.48 173.056 99.8509C173.021 99.2222 173.459 97.0331 173.264 96.5954C173.07 96.1575 172.702 93.9845 173.056 93.0279C173.056 93.0279 173.87 91.2752 174.746 91.2752C175.623 91.2752 175.748 93.6539 175.497 94.2172C175.247 94.7806 175.122 95.0936 175.122 95.0936C175.122 95.0936 175.122 95.4691 177.563 96.2829C179.395 96.8937 180.417 96.5524 180.812 96.3441C180.821 96.13 180.865 95.9189 180.943 95.7195C181.507 94.405 183.948 89.9607 184.136 88.1453C184.324 86.3301 181.882 84.2644 181.882 84.2644Z" fill="#263238" stroke="#263238" stroke-width="0.428865" stroke-linecap="round" stroke-linejoin="round"/>
<path d="M175.122 95.0936C175.122 95.0936 174.559 95.97 174.058 96.1577C173.557 96.3455 173.244 95.657 173.244 95.657" stroke="#263238" stroke-width="0.428865" stroke-linecap="round" stroke-linejoin="round"/>
<path d="M169.739 91.0872C169.739 91.5366 169.851 91.9009 169.99 91.9009C170.128 91.9009 170.24 91.5366 170.24 91.0872C170.24 90.6377 170.128 90.2734 169.99 90.2734C169.851 90.2734 169.739 90.6377 169.739 91.0872Z" fill="#263238"/>
<path d="M170.49 90.086C170.49 90.086 170.615 89.2723 169.613 89.6479" stroke="#263238" stroke-width="0.428865" stroke-linecap="round" stroke-linejoin="round"/>
<path d="M169.894 96.9022C170.242 96.8124 170.564 96.6407 170.832 96.4014" stroke="white" stroke-width="0.428865" stroke-linecap="round" stroke-linejoin="round"/>
<path d="M146.972 112.913H161.14L164.427 124.016H150.259L146.972 112.913Z" fill="white" stroke="#263238" stroke-width="0.428865" stroke-linecap="round" stroke-linejoin="round"/>
<path d="M147.979 113.554H160.512L163.42 123.376H150.886L147.979 113.554Z" fill="white" stroke="#263238" stroke-width="0.428865" stroke-linecap="round" stroke-linejoin="round"/>
<path d="M150.362 124.884H167.652V124.132H150.362V124.884Z" fill="white" stroke="#263238" stroke-width="0.428865" stroke-linecap="round" stroke-linejoin="round"/>
<path d="M173.123 195.929C173.123 195.929 171.597 198.064 170.567 198.626C169.537 199.188 167.01 199.843 167.01 200.498C167.01 201.153 167.197 201.247 168.32 201.622C169.444 201.996 171.503 201.996 172.626 201.996C173.532 201.965 174.439 201.996 175.341 202.09C176.457 202.254 177.583 202.348 178.711 202.37C179.647 202.37 179.602 199.882 179.602 199.882L173.123 195.929Z" fill="white" stroke="#263238" stroke-width="0.428865" stroke-linecap="round" stroke-linejoin="round"/>
<path d="M188.185 142.883C188.185 142.883 185.97 160.35 183.883 166.17C181.797 171.99 182.675 173.747 181.248 179.677C179.82 185.606 179.601 199.552 179.601 199.881C179.601 200.211 178.942 199.881 176.636 198.673C175.299 197.993 174.106 197.061 173.122 195.928C173.188 195.226 173.298 194.53 173.452 193.842C173.671 192.963 174.11 190.657 174.11 190.657C174.11 190.657 173.232 183.19 174.22 171.221C175.208 159.252 175.648 145.06 175.648 145.06C175.648 145.06 183.683 143.981 188.185 142.883Z" fill="#263238" stroke="#263238" stroke-width="0.428865" stroke-linecap="round" stroke-linejoin="round"/>
<path d="M177.128 199.715C177.128 199.715 175.549 201.36 174.562 201.886C173.575 202.412 170.484 203.531 170.418 203.991C170.352 204.452 170.681 205.373 170.878 205.439C172.636 205.776 174.418 205.974 176.207 206.031C178.707 206.096 181.601 205.767 182.325 205.767C183.048 205.767 184.759 206.425 184.825 204.452C184.89 202.478 183.838 199.649 183.838 199.649C183.838 199.649 180.351 200.702 177.128 199.715Z" fill="white" stroke="#263238" stroke-width="0.428865" stroke-linecap="round" stroke-linejoin="round"/>
<path d="M182.26 149.427C182.26 149.427 181.46 160.725 181.061 164.124C180.661 167.523 181.46 174.72 182.36 179.719C183.26 184.717 183.56 195.014 183.56 195.014C183.721 195.117 183.84 195.275 183.895 195.458C183.95 195.642 183.938 195.839 183.86 196.014C183.631 196.502 183.431 197.003 183.26 197.513C183.26 197.513 184.36 197.913 184.26 198.613C184.16 199.313 183.86 200.613 183.86 200.613C182.963 200.705 182.061 200.738 181.161 200.712C179.884 200.711 178.611 200.577 177.362 200.313L176.562 199.913C176.562 199.913 176.362 198.313 176.362 197.413C176.362 196.514 177.362 195.614 177.262 195.114C177.162 194.614 176.662 191.815 176.262 189.516C175.862 187.217 176.162 185.817 175.462 183.418C174.763 181.018 170.864 166.723 170.864 166.723C170.864 166.723 169.064 150.127 168.964 147.828C168.864 145.528 168.864 144.529 168.864 144.529C168.864 144.529 171.963 142.029 172.663 142.029C173.363 142.029 182.26 149.427 182.26 149.427Z" fill="#263238" stroke="#263238" stroke-width="0.428865" stroke-linecap="round" stroke-linejoin="round"/>
<path d="M168.568 142.818C168.568 142.818 168.226 145.333 168.568 145.847C168.911 146.362 171.883 147.162 175.598 147.562C179.312 147.962 184.056 147.562 185.656 146.99C187.256 146.419 188.285 145.904 188.513 145.504C188.742 145.104 188.571 142.99 188.571 142.99C188.571 142.99 173.769 143.847 168.568 142.818Z" fill="#5AABE4" stroke="#263238" stroke-width="0.428865" stroke-linecap="round" stroke-linejoin="round"/>
<path d="M183.009 101.666C183.009 101.666 188.268 105.18 189.245 110.763C190.116 115.74 188.705 133.278 188.705 134.217C188.705 135.156 189.428 142.762 189.428 142.762C190.171 144.362 184.081 145.822 180.741 146.133C177.787 146.408 171.272 145.752 169.394 144.824C168.8 144.53 168.23 144.213 168.216 143.55C168.149 140.486 167.993 132.303 168.196 131.086C168.446 129.584 168.174 120.821 168.174 117.816C168.174 114.812 167.047 110.242 168.049 108.302C169.05 106.361 171.617 105.047 171.617 105.047C174.894 102.606 178.931 101.408 183.009 101.666Z" fill="#5AABE4" stroke="#263238" stroke-width="0.428865" stroke-linecap="round" stroke-linejoin="round"/>
<path d="M183.058 119.423C182.676 120.188 182.223 120.917 181.705 121.598" stroke="#263238" stroke-width="0.428865" stroke-linecap="round" stroke-linejoin="round"/>
<path d="M186.635 111.936C186.635 111.936 185.43 114.68 184.151 117.282" stroke="#263238" stroke-width="0.428865" stroke-linecap="round" stroke-linejoin="round"/>
<path d="M184.17 120.612L181.508 124.162" stroke="#263238" stroke-width="0.428865" stroke-linecap="round" stroke-linejoin="round"/>
<path d="M183.072 99.1001L184.262 102.105C184.262 102.105 181.758 102.23 179.442 102.543C177.126 102.856 171.617 105.047 171.617 105.047C171.617 105.047 172.181 102.793 172.619 102.355C174.043 100.947 175.85 99.9891 177.814 99.6008C179.535 99.1918 181.305 99.0233 183.072 99.1001Z" fill="#5AABE4" stroke="#263238" stroke-width="0.428865" stroke-linecap="round" stroke-linejoin="round"/>
<path d="M174.013 127.602C174.013 127.602 173.613 132.331 173.092 132.562C172.572 132.793 159.672 128.296 158.747 127.833C158.241 127.578 157.691 127.421 157.127 127.37C156.954 127.312 155.393 127.312 154.814 127.023C154.327 126.692 153.88 126.303 153.484 125.867C153.311 125.751 151.923 125.693 151.518 125.404C151.113 125.115 150.593 124.884 150.94 124.71C151.623 124.495 152.318 124.322 153.022 124.19C153.022 124.19 153.079 123.38 153.773 123.265C154.467 123.149 154.236 123.438 155.913 122.455C157.59 121.472 157.417 122.281 158.862 123.322C160.308 124.363 161.002 125.52 161.175 125.578C161.349 125.635 166.611 127.602 166.611 127.602H174.013Z" fill="white" stroke="#263238" stroke-width="0.428865" stroke-linecap="round" stroke-linejoin="round"/>
<path d="M153.021 124.19L155.855 123.843" stroke="#263238" stroke-width="0.428865" stroke-linecap="round" stroke-linejoin="round"/>
<path d="M162.51 126.038C162.51 126.038 161.712 125.351 161.175 125.577C160.638 125.804 159.859 126.818 159.781 128.065C159.703 129.313 161.73 129.469 161.73 129.469L162.51 126.038Z" fill="#5AABE4" stroke="#263238" stroke-width="0.428865" stroke-linecap="round" stroke-linejoin="round"/>
<path d="M173.165 105.612C172.122 105.612 169.374 106.37 168.521 107.318C167.668 108.266 167.573 111.014 167.858 114.71C168.141 118.397 169.589 125.324 169.596 125.357C169.58 125.279 169.418 125.723 169.373 125.804C169.183 126.142 169.666 126.199 169.217 126.272C168.823 126.327 168.425 126.357 168.028 126.36C167.366 126.247 166.703 126.135 166.041 126.024C164.714 125.793 163.373 125.651 162.027 125.599C161.605 125.599 160.494 128.995 161.127 129.734C161.76 130.473 174.315 135.35 175.16 135.139C176.004 134.928 177.617 123.832 177.593 123.78C177.839 120.738 178.134 117.169 178.187 116.795" fill="#5AABE4"/>
<path d="M173.165 105.612C172.122 105.612 169.374 106.37 168.521 107.318C167.668 108.266 167.573 111.014 167.858 114.71C168.141 118.397 169.589 125.324 169.596 125.357C169.58 125.279 169.418 125.723 169.373 125.804C169.183 126.142 169.666 126.199 169.217 126.272C168.823 126.327 168.425 126.357 168.028 126.36C167.366 126.247 166.703 126.135 166.041 126.024C164.714 125.793 163.373 125.651 162.027 125.599C161.605 125.599 160.494 128.995 161.127 129.734C161.76 130.473 174.315 135.35 175.16 135.139C176.004 134.928 177.617 123.832 177.593 123.78C177.839 120.738 178.134 117.169 178.187 116.795" stroke="#263238" stroke-width="0.428865" stroke-linecap="round" stroke-linejoin="round"/>
<path d="M169.217 126.271C170.043 127.138 170.929 127.946 171.868 128.689" stroke="#263238" stroke-width="0.428865" stroke-linecap="round" stroke-linejoin="round"/>
<path d="M170.387 128.455C170.947 128.981 171.576 129.427 172.258 129.781" stroke="#263238" stroke-width="0.428865" stroke-linecap="round" stroke-linejoin="round"/>
<path d="M123.549 97.7758C123.29 96.2242 122.256 95.1898 121.997 94.2417C121.776 93.5265 121.487 92.8338 121.135 92.1729C120.257 93.9757 119.58 95.8693 119.115 97.8199L118.887 97.2846L114.604 100.643L114.353 108.117L121.298 108.444C121.298 108.444 121.013 107.208 120.917 106.289C120.842 105.381 120.895 104.467 121.075 103.574C121.075 103.574 123.037 103.618 123.209 102.928C123.382 102.239 123.808 99.3274 123.549 97.7758Z" fill="white" stroke="#263238" stroke-width="0.428865" stroke-linecap="round" stroke-linejoin="round"/>
<path d="M122.432 95.0264C122.693 95.1248 122.964 95.1927 123.241 95.2287C123.494 95.2287 123.949 95.2792 123.797 95.8862C123.739 96.2109 123.558 96.5007 123.292 96.6955L122.432 95.0264Z" fill="white" stroke="#263238" stroke-width="0.428865" stroke-linecap="round" stroke-linejoin="round"/>
<path d="M120.369 181.393C120.369 181.393 119.42 197.533 119.42 197.789C119.42 198.045 118.226 202.053 118.397 202.65C118.567 203.246 119.931 203.417 120.869 203.502C121.807 203.587 123.768 203.843 124.536 203.843C125.878 203.825 127.218 203.711 128.544 203.502C129.055 203.332 129.737 202.82 129.14 202.394C128.544 201.967 127.094 201.797 125.389 199.836C124.58 198.976 123.865 198.033 123.257 197.022L126.849 181.563L120.369 181.393Z" fill="white" stroke="#263238" stroke-width="0.428865" stroke-linecap="round" stroke-linejoin="round"/>
<path d="M96.4081 178.408C96.4081 178.408 89.7658 194.935 89.2542 195.618C88.7426 196.3 85.2955 200.657 85.2102 201.51C85.1249 202.363 89.537 202.444 90.3044 201.932C91.0718 201.42 91.9828 196.982 92.4944 196.044C93.006 195.106 104.338 179.602 104.338 179.602L96.4081 178.408Z" fill="white" stroke="#263238" stroke-width="0.428865" stroke-linecap="round" stroke-linejoin="round"/>
<path d="M107.595 130.351L107.468 133.126C107.468 133.126 104.013 140.588 100.644 149.854C96.9775 159.942 92.21 177.388 92.21 177.388C92.21 177.388 95.3626 180.288 103.938 181.675C112.513 183.063 117.848 183.65 122.512 183.509C128.149 183.338 135.337 181.802 135.337 181.802C135.337 181.802 131.302 157.085 128.023 145.862C124.745 134.639 123.965 133.523 123.965 133.523L122.848 127.267L107.595 130.351Z" fill="#8F8F8F" stroke="#263238" stroke-width="0.428865" stroke-linecap="round" stroke-linejoin="round"/>
<path d="M112.948 149.449L112.009 182.559" stroke="#263238" stroke-width="0.428865" stroke-linecap="round" stroke-linejoin="round"/>
<path d="M113.017 146.998L112.98 148.3" stroke="#263238" stroke-width="0.428865" stroke-linecap="round" stroke-linejoin="round"/>
<path d="M120.178 133.773C120.705 133.662 121.221 133.532 121.719 133.378" stroke="#263238" stroke-width="0.428865" stroke-linecap="round" stroke-linejoin="round"/>
<path d="M108.982 134.009C112.058 134.38 115.166 134.406 118.248 134.087" stroke="#263238" stroke-width="0.428865" stroke-linecap="round" stroke-linejoin="round"/>
<path d="M139.017 97.7368C138.814 96.8206 138.67 95.8924 138.585 94.9577C138.523 93.8462 137.473 92.364 137.597 91.7464C137.621 91.6378 137.673 91.5373 137.747 91.4541C137.821 91.3709 137.915 91.3078 138.019 91.2707C138.124 91.2337 138.237 91.2239 138.347 91.2423C138.456 91.2607 138.56 91.3067 138.647 91.3759C138.919 91.6016 139.149 91.8733 139.326 92.1787C139.326 92.1787 140.191 89.5232 140.191 88.3498C140.191 87.1764 140.932 87.3 141.241 88.1028C141.549 88.9056 141.117 91.9935 141.117 91.9935C141.704 92.1455 142.281 92.3311 142.846 92.5492C143.402 92.7963 144.452 93.2904 144.267 94.8342C144.081 96.3781 143.896 97.2427 143.526 97.2427C143.155 97.2427 142.846 96.7487 142.846 96.7487C142.846 96.7487 142.846 98.4161 142.29 98.9102C141.796 99.2436 141.219 99.4357 140.623 99.4659C140.623 99.4659 140.747 98.2308 139.017 97.7368Z" fill="white" stroke="#263238" stroke-width="0.428865" stroke-linecap="round" stroke-linejoin="round"/>
<path d="M142.846 96.7492C142.846 96.7492 143.216 95.3288 143.216 95.1436" stroke="#263238" stroke-width="0.428865" stroke-linecap="round" stroke-linejoin="round"/>
<path d="M139.327 92.1787L138.956 93.9079" stroke="#263238" stroke-width="0.428865" stroke-linecap="round" stroke-linejoin="round"/>
<path d="M137.481 99.4651L138.645 97.4962C138.645 97.4962 139.092 96.8697 140.166 97.2277L140.198 97.2385C140.668 97.4012 141.058 97.736 141.29 98.1753C141.522 98.6145 141.578 99.1255 141.448 99.6048L141.151 100.718C141.151 100.718 138.824 99.3756 137.481 99.4651Z" fill="#5AABE4" stroke="#263238" stroke-width="0.428865" stroke-linecap="round" stroke-linejoin="round"/>
<path d="M88.9275 138.937C88.9275 138.937 89.2085 140.412 89.349 141.466C89.4895 142.519 90.192 144.627 90.6837 144.908C91.1755 145.189 91.8077 145.54 91.1052 145.751C90.4027 145.962 89.9813 146.032 89.349 145.54C88.9572 145.232 88.6035 144.878 88.2953 144.486C88.2953 144.486 87.8036 146.664 87.4523 147.718C87.0655 148.671 86.5954 149.587 86.0473 150.457C86.0374 150.613 85.991 150.764 85.9118 150.899C85.8326 151.033 85.7229 151.147 85.5916 151.231C85.1701 151.442 84.8697 150.603 84.8697 150.603C84.8697 150.603 84.3047 151.921 83.9399 150.528C83.6386 148.904 83.4508 147.261 83.3779 145.61C83.4482 144.908 86.289 138.397 86.289 138.397L88.9275 138.937Z" fill="white" stroke="#263238" stroke-width="0.428865" stroke-linecap="round" stroke-linejoin="round"/>
<path d="M84.9361 146.665C84.7289 147.012 84.582 147.392 84.502 147.788C84.502 148.069 84.8697 150.604 84.8697 150.604" stroke="#263238" stroke-width="0.428865" stroke-linecap="round" stroke-linejoin="round"/>
<path d="M86.0469 150.457L85.6855 147.997L86.3283 146.383" stroke="#263238" stroke-width="0.428865" stroke-linecap="round" stroke-linejoin="round"/>
<path d="M86.5391 149.614C86.5391 149.614 86.5677 148.291 86.6587 147.684C86.7497 147.077 86.903 147.187 87.101 146.453" stroke="#263238" stroke-width="0.428865" stroke-linecap="round" stroke-linejoin="round"/>
<path d="M87.2413 143.151C87.1744 143.575 86.9781 143.968 86.6793 144.275C86.2128 144.704 85.7201 145.102 85.2041 145.47" stroke="#263238" stroke-width="0.428865" stroke-linecap="round" stroke-linejoin="round"/>
<path d="M106.068 109.041C106.068 109.041 100.34 111.815 99.9823 112.531C99.6243 113.247 92.4645 126.045 91.4799 127.298C90.4955 128.551 87.4526 130.162 87.0945 131.415C86.7366 132.668 87.0051 136.069 87.0051 136.069L86.2891 138.396C86.2891 138.396 86.3786 139.202 87.6315 139.47L88.8845 139.739L91.0325 137.68C91.0325 137.68 95.6863 136.517 97.5658 134.279C99.4453 132.042 104.01 121.571 104.01 121.571L103.294 128.641C106.676 129.085 110.095 129.175 113.496 128.909C119.045 128.462 125.131 127.567 125.131 127.567L124.326 119.333C124.326 119.333 137.571 117.185 138.287 116.559C139.003 115.932 139.63 114.232 139.719 113.605C139.809 112.979 142.046 100.986 142.046 100.986C141.733 100.539 141.335 100.159 140.874 99.8671C140.413 99.5753 139.899 99.3776 139.361 99.2855C137.482 98.9275 135.603 99.912 135.513 100.449C135.424 100.986 131.575 108.772 131.575 108.772C131.575 108.772 131.307 108.593 130.322 109.041C129.338 109.488 127.604 108.788 127.604 108.788C127.604 108.788 124.147 107.788 122.178 107.967C120.209 108.146 118.329 108.414 118.329 108.414C118.329 108.414 114.839 106.803 112.244 107.519C109.648 108.235 106.068 109.041 106.068 109.041Z" fill="#5AABE4" stroke="#263238" stroke-width="0.428865" stroke-linecap="round" stroke-linejoin="round"/>
<path d="M118.419 120.139L124.326 119.334L120.388 121.393" stroke="#263238" stroke-width="0.428865" stroke-linecap="round" stroke-linejoin="round"/>
<path d="M104.099 117.543L104.009 121.57L102.667 119.87" stroke="#263238" stroke-width="0.428865" stroke-linecap="round" stroke-linejoin="round"/>
<path d="M87.8105 136.428C87.8105 136.428 88.079 137.323 90.227 137.323" stroke="#263238" stroke-width="0.428865" stroke-linecap="round" stroke-linejoin="round"/>
<path d="M110.921 101.852C113.86 104.119 116.332 102.75 117.392 101.69C118.682 100.4 118.671 98.7098 119.51 97.0994C119.622 96.5087 121.567 94.4534 121.718 93.9652C122.062 92.8446 121.395 90.88 121.395 90.88C121.395 90.88 123.291 91.1386 122.429 89.2422C121.567 87.3458 120.791 86.6562 118.981 86.4838C118.437 86.4476 117.893 86.5468 117.396 86.7724C116.9 86.998 116.467 87.3431 116.137 87.7768C116.137 87.7768 113.982 86.7424 112.516 87.5182C111.051 88.294 108.926 87.5339 107.194 92.7733C106.946 93.3685 106.768 93.9907 106.665 94.6273C106.59 96.1476 107.46 97.2355 108.325 98.4876C109.658 100.416 109.074 100.427 110.921 101.852Z" fill="#263238" stroke="#263238" stroke-width="0.428865" stroke-linecap="round" stroke-linejoin="round"/>
<path d="M114.437 99.3844C114.437 99.8162 114.309 100.238 114.069 100.597C113.829 100.956 113.488 101.236 113.089 101.401C112.69 101.567 112.251 101.61 111.828 101.526C111.404 101.441 111.015 101.234 110.71 100.928C110.404 100.623 110.197 100.234 110.112 99.8103C110.028 99.3868 110.071 98.9479 110.237 98.5489C110.402 98.15 110.682 97.809 111.041 97.5691C111.4 97.3292 111.822 97.2012 112.254 97.2012C112.54 97.2012 112.824 97.2576 113.089 97.3674C113.354 97.4771 113.595 97.6379 113.797 97.8406C114 98.0434 114.161 98.284 114.271 98.5489C114.38 98.8138 114.437 99.0977 114.437 99.3844Z" fill="white" stroke="#263238" stroke-width="0.428865" stroke-linecap="round" stroke-linejoin="round"/>
<path d="M108.271 103.414C108.287 104.771 108.286 106.1 107.061 107.019C105.717 108.027 100.511 111.896 103.366 115.843C106.221 119.789 106.627 118.697 106.375 120.041C106.123 121.384 100.581 125.079 101.589 128.354C102.597 131.629 106.711 133.476 106.123 134.736C105.536 135.995 107.383 142.209 114.521 138.934C121.658 135.659 121.163 130.02 118.299 123.652C117.638 122.181 117.948 120.298 120.635 117.276C123.322 114.253 121.298 108.445 118.467 105.514C116.797 103.784 116.116 102.407 116.2 102.071C116.284 101.735 113.597 97.7887 111.33 98.9643C109.922 99.6941 108.603 101.09 108.318 102.731C108.282 102.957 108.266 103.186 108.271 103.414Z" fill="#263238" stroke="#263238" stroke-width="0.428865" stroke-linecap="round" stroke-linejoin="round"/>
<path d="M119.51 97.0993C119.51 97.0993 118.627 95.8633 118.009 97.1876C117.782 97.7215 117.732 98.3142 117.867 98.8784C118.003 99.4426 118.315 99.9485 118.759 100.322C119.377 100.807 119.819 99.0416 119.819 99.0416" fill="white"/>
<path d="M119.51 97.0993C119.51 97.0993 118.627 95.8633 118.009 97.1876C117.782 97.7215 117.732 98.3142 117.867 98.8784C118.003 99.4426 118.315 99.9485 118.759 100.322C119.377 100.807 119.819 99.0416 119.819 99.0416" stroke="#263238" stroke-width="0.428865" stroke-linecap="round" stroke-linejoin="round"/>
<path d="M128.543 203.502C129.055 203.332 129.737 202.82 129.14 202.394C128.543 201.968 127.094 201.797 125.389 199.836L125.298 201.362C123.091 201.266 120.894 201 118.727 200.569C118.518 201.243 118.407 201.944 118.396 202.65C118.567 203.247 119.931 203.417 120.869 203.502C121.807 203.588 123.768 203.844 124.536 203.844C125.878 203.826 127.217 203.712 128.543 203.502Z" fill="#5AABE4" stroke="#263238" stroke-width="0.428865" stroke-linecap="round" stroke-linejoin="round"/>
<path d="M90.3045 201.932C90.6216 201.721 90.963 200.836 91.2908 199.808C89.6901 199.874 88.0893 199.677 86.5527 199.224C85.8334 200.242 85.2447 201.164 85.2102 201.51C85.125 202.362 89.537 202.444 90.3045 201.932Z" fill="#5AABE4" stroke="#263238" stroke-width="0.428865" stroke-linecap="round" stroke-linejoin="round"/>
<path d="M31.0569 160.194H27.2676V166.92H31.0569V160.194Z" fill="#263238" stroke="#263238" stroke-width="0.428865" stroke-linecap="round" stroke-linejoin="round"/>
<path d="M26.493 133.365H31.2476C33.1201 133.365 34.916 134.109 36.2401 135.433C37.5642 136.757 38.308 138.553 38.308 140.426V155.18C38.308 157.053 37.5642 158.849 36.2401 160.173C34.916 161.497 33.1202 162.241 31.2476 162.241H26.493C24.6205 162.241 22.8246 161.497 21.5006 160.173C20.1765 158.849 19.4326 157.053 19.4326 155.18V140.426C19.4326 138.553 20.1765 136.757 21.5006 135.433C22.8246 134.109 24.6205 133.365 26.493 133.365Z" fill="#949494" stroke="#263238" stroke-width="0.428865" stroke-linecap="round" stroke-linejoin="round"/>
<path d="M23.2124 202.168C23.2124 201.851 23.1184 201.541 22.9423 201.278C22.7662 201.014 22.5159 200.809 22.223 200.687C21.9301 200.566 21.6079 200.534 21.297 200.596C20.9861 200.658 20.7005 200.811 20.4763 201.035C20.2521 201.259 20.0995 201.545 20.0376 201.856C19.9758 202.166 20.0075 202.489 20.1288 202.782C20.2501 203.074 20.4556 203.325 20.7192 203.501C20.9827 203.677 21.2926 203.771 21.6096 203.771C22.0347 203.771 22.4424 203.602 22.743 203.302C23.0435 203.001 23.2124 202.593 23.2124 202.168Z" fill="#263238" stroke="#263238" stroke-width="0.428865" stroke-linecap="round" stroke-linejoin="round"/>
<path d="M54.5288 202.168C54.5288 201.851 54.4348 201.541 54.2587 201.278C54.0826 201.014 53.8323 200.809 53.5394 200.687C53.2466 200.566 52.9243 200.534 52.6134 200.596C52.3025 200.658 52.0169 200.811 51.7927 201.035C51.5685 201.259 51.4159 201.545 51.354 201.856C51.2922 202.166 51.3239 202.489 51.4452 202.782C51.5666 203.074 51.772 203.325 52.0356 203.501C52.2991 203.677 52.609 203.771 52.926 203.771C53.3511 203.771 53.7588 203.602 54.0593 203.302C54.3599 203.001 54.5288 202.593 54.5288 202.168Z" fill="#263238" stroke="#263238" stroke-width="0.428865" stroke-linecap="round" stroke-linejoin="round"/>
<path d="M38.0463 202.168C38.0463 201.283 37.7128 200.565 37.3015 200.565C36.8901 200.565 36.5566 201.283 36.5566 202.168C36.5566 203.053 36.8901 203.771 37.3015 203.771C37.7128 203.771 38.0463 203.053 38.0463 202.168Z" fill="#263238" stroke="#263238" stroke-width="0.428865" stroke-linecap="round" stroke-linejoin="round"/>
<path d="M38.7606 193.469V170.491H35.6144V193.563L20.0869 199.704V201.248H22.3434V199.942L37.3063 196.854L52.2687 199.942V201.248H54.5252V199.704L38.7606 193.469Z" fill="#263238" stroke="#263238" stroke-width="0.428865" stroke-linecap="round" stroke-linejoin="round"/>
<path d="M36.5141 201.244H38.0882L38.4256 193.785H36.1768L36.5141 201.244Z" fill="#263238" stroke="#263238" stroke-width="0.428865" stroke-linecap="round" stroke-linejoin="round"/>
<path d="M41.1828 169.616H33.1826V174.366H41.1828V169.616Z" fill="#263238" stroke="#263238" stroke-width="0.428865" stroke-linecap="round" stroke-linejoin="round"/>
<path d="M48.5129 165.24H25.1029C23.6282 165.24 22.4326 166.436 22.4326 167.911V168.695C22.4326 170.17 23.6282 171.365 25.1029 171.365H48.5129C49.9877 171.365 51.1832 170.17 51.1832 168.695V167.911C51.1832 166.436 49.9877 165.24 48.5129 165.24Z" fill="#949494" stroke="#263238" stroke-width="0.428865" stroke-linecap="round" stroke-linejoin="round"/>
<path d="M71.2052 179.444L73.5928 182.982L76.4225 182.805C76.4225 182.805 80.5706 182.857 81.2781 182.68C81.9855 182.503 82.2508 183.122 81.8971 183.83C81.5433 184.537 78.4627 186.745 76.871 187.718C75.1118 188.727 73.2766 189.597 71.3821 190.321C70.9399 190.41 70.4094 189.525 69.4366 186.784C68.7069 184.87 67.7886 183.034 66.6953 181.301L71.2052 179.444Z" fill="white" stroke="#263238" stroke-width="0.428865" stroke-linecap="round" stroke-linejoin="round"/>
<path d="M81.8979 183.83C82.2517 183.122 81.9864 182.503 81.2789 182.68C80.5715 182.857 76.4234 182.804 76.4234 182.804L73.5937 182.981C73.6093 183.796 73.7587 184.603 74.0358 185.369C74.0358 185.369 70.0565 186.342 69.4375 186.784C70.4102 189.525 70.9408 190.409 71.3829 190.321C73.2775 189.597 75.1127 188.727 76.8718 187.717C78.4636 186.745 81.5442 184.537 81.8979 183.83Z" fill="white" stroke="#263238" stroke-width="0.428865" stroke-linecap="round" stroke-linejoin="round"/>
<path d="M81.7747 182.717C80.8027 183.691 79.7231 184.552 78.5567 185.283C75.983 186.868 73.2789 188.231 70.4736 189.357C70.849 190.104 71.1303 190.371 71.3824 190.321C73.277 189.597 75.1122 188.727 76.8713 187.717C78.4631 186.745 81.5438 184.537 81.8974 183.83C82.1481 183.328 82.0828 182.877 81.7747 182.717Z" fill="#5AABE4" stroke="#263238" stroke-width="0.428865" stroke-linecap="round" stroke-linejoin="round"/>
<path d="M65.0138 151.379C65.346 150.64 67.9883 160.305 70.1069 169.528C71.5359 175.748 72.7888 179.479 72.7888 179.479C71.7726 180.358 70.6806 181.145 69.5257 181.832C68.2876 182.451 66.1653 183.246 66.1653 183.246C66.1653 183.246 63.0038 176.372 61.2353 172.924C59.4667 169.475 58.9713 167.168 57.5564 164.603C56.1416 162.039 55.7829 157.421 55.7829 157.421C55.7829 157.421 54.8986 153 58.2589 151.85C61.6192 150.7 64.0411 150.141 65.0138 151.379Z" fill="#5AABE4" stroke="#263238" stroke-width="0.428865" stroke-linecap="round" stroke-linejoin="round"/>
<path d="M55.6643 188.579C55.6643 188.579 55.0535 192.37 54.6412 193.753C54.2289 195.136 53.0892 197.652 53.4477 198.278C53.8063 198.904 55.6925 199.545 56.6556 199.624C57.6186 199.703 58.8498 201.278 60.642 201.929C62.4342 202.58 64.7981 202.402 64.7437 201.932C64.6893 201.461 59.4421 195.677 59.1847 194.276C58.9273 192.875 59.8493 188.477 59.8493 188.477L55.6643 188.579Z" fill="white" stroke="#263238" stroke-width="0.428865" stroke-linecap="round" stroke-linejoin="round"/>
<path d="M58.5297 195.21L58.385 195.609C56.9995 195.452 55.63 195.176 54.2916 194.785C53.8037 196.141 53.1671 197.788 53.4478 198.278C53.8063 198.904 55.6926 199.544 56.6556 199.624C57.6187 199.703 58.8499 201.278 60.6421 201.929C62.4342 202.58 64.7982 202.402 64.7438 201.931C64.6894 201.461 59.4422 195.677 59.1848 194.276C58.9192 194.552 58.6982 194.867 58.5297 195.21Z" fill="white" stroke="#263238" stroke-width="0.428865" stroke-linecap="round" stroke-linejoin="round"/>
<path d="M60.5328 200.988C59.1171 200.293 57.8353 199.106 55.949 198.466C54.7201 198.049 53.8673 197.711 53.4203 197.525C53.3504 197.773 53.3599 198.036 53.4474 198.278C53.8059 198.905 55.6922 199.545 56.6552 199.624C57.6183 199.704 58.8495 201.278 60.6417 201.929C62.3505 202.55 64.5738 202.416 64.7304 201.995C63.5503 201.82 61.5069 201.466 60.5328 200.988Z" fill="#5AABE4" stroke="#263238" stroke-width="0.428865" stroke-linecap="round" stroke-linejoin="round"/>
<path d="M54.7269 160.094C54.7269 160.094 61.7128 160.89 62.2434 164.427C62.774 167.964 61.536 189.983 61.536 189.983C60.501 190.028 59.464 189.969 58.441 189.806C57.0261 189.541 54.6385 189.01 54.6385 189.01C54.6385 189.01 54.2848 181.494 53.8426 178.487C53.4004 175.481 53.0467 166.726 53.0467 166.726C53.0467 166.726 41.374 165.753 40.3129 165.046C39.2518 164.338 54.7269 160.094 54.7269 160.094Z" fill="#5AABE4" stroke="#263238" stroke-width="0.428865" stroke-linecap="round" stroke-linejoin="round"/>
<path d="M63.9183 157.598C63.9183 157.598 46.6795 164.426 42.7002 165.753C39.1078 166.89 35.2566 166.921 31.6465 165.841C28.9052 164.957 27.5604 161.437 27.5604 161.437C27.5604 161.437 26.8713 160.624 27.225 159.828C27.5788 159.032 33.2382 153.992 36.687 153.107C40.1357 152.223 46.3736 152.61 46.3736 152.61C46.3736 152.61 61.4422 148.755 63.2992 149.02C65.1562 149.285 66.632 155.894 66.8973 156.778" fill="#5AABE4"/>
<path d="M63.9183 157.598C63.9183 157.598 46.6795 164.426 42.7002 165.753C39.1078 166.89 35.2566 166.921 31.6465 165.841C28.9052 164.957 27.5604 161.437 27.5604 161.437C27.5604 161.437 26.8713 160.624 27.225 159.828C27.5788 159.032 33.2382 153.992 36.687 153.107C40.1357 152.223 46.3736 152.61 46.3736 152.61C46.3736 152.61 61.4422 148.755 63.2992 149.02C65.1562 149.285 66.632 155.894 66.8973 156.778" stroke="#263238" stroke-width="0.428865" stroke-linecap="round" stroke-linejoin="round"/>
<path d="M31.5586 162.128C31.5586 162.128 32.7966 157.264 36.0685 155.23" stroke="#263238" stroke-width="0.428865" stroke-linecap="round" stroke-linejoin="round"/>
<path d="M30.8506 158.856C30.8506 158.856 32.177 156.822 33.9456 156.38" stroke="#263238" stroke-width="0.428865" stroke-linecap="round" stroke-linejoin="round"/>
<path d="M44.6622 126.218C44.6622 126.218 45.8844 127.543 47.3103 131.006C48.7363 134.469 51.0495 144.952 51.0495 144.952C50.3841 145.226 49.6789 145.391 48.9611 145.44C48.0445 145.44 46.8252 145.564 46.3159 144.952C45.8067 144.341 44.3566 139.561 44.3566 139.561C44.3566 139.561 43.6436 133.756 43.4399 130.802C43.2362 127.848 42.3195 127.237 43.2362 126.32C44.1529 125.404 44.6622 126.218 44.6622 126.218Z" fill="white" stroke="#263238" stroke-width="0.428865" stroke-linecap="round" stroke-linejoin="round"/>
<path d="M41.1666 124.133C41.1666 124.133 43.7934 124.771 44.6617 126.218C45.53 127.665 45.1432 130.975 45.1432 130.975C45.1432 130.975 47.4587 137.704 47.0245 139.296C46.5904 140.888 44.8538 143.203 44.8538 143.203C44.8538 143.203 44.9985 148.413 45.4327 149.426C45.812 150.467 46.1261 151.53 46.3733 152.61C46.3733 152.61 45.1432 153.478 41.0911 154.057C37.0391 154.636 33.7106 154.925 32.3358 156.011C30.961 157.096 27.9219 161.221 27.5601 161.438C27.1983 161.655 26.9066 160.844 26.6171 160.266C26.3277 159.687 26.398 157.944 27.0493 155.34C27.7005 152.735 28.0432 145.171 27.1357 140.388C26.1521 135.205 25.6061 134.456 26.185 131.055C26.7639 127.654 34.7991 122.469 35.9569 122.252C37.1146 122.035 41.1666 124.133 41.1666 124.133Z" fill="white" stroke="#263238" stroke-width="0.428865" stroke-linecap="round" stroke-linejoin="round"/>
<path d="M28.375 157.087C28.375 157.087 30.5858 154.523 31.6469 154.081C32.7081 153.639 40.1361 153.639 40.1361 153.639" stroke="white" stroke-width="0.428865" stroke-linecap="round" stroke-linejoin="round"/>
<path d="M29.9668 153.815C30.6599 153.421 31.4037 153.123 32.1775 152.931C33.3548 152.838 34.5374 152.838 35.7147 152.931" stroke="white" stroke-width="0.428865" stroke-linecap="round" stroke-linejoin="round"/>
<path d="M33.8574 144.972C36.2654 144.032 38.4604 142.618 40.3128 140.815" stroke="#263238" stroke-width="0.428865" stroke-linecap="round" stroke-linejoin="round"/>
<path d="M41.2836 105.984C41.2836 105.984 42.2604 108.068 42.586 108.719C42.9116 109.371 42.7814 110.478 43.0419 111.389C43.3024 112.301 44.8002 112.887 44.8002 113.408C44.6962 113.959 44.4979 114.488 44.2141 114.971C44.2141 114.971 43.8885 119.009 43.3675 119.465C42.8465 119.92 40.6975 120.051 40.6975 120.051L40.5159 123.916L41.746 124.64C41.746 124.64 41.963 128.909 41.746 130.428C41.5289 131.948 40.8519 132.267 38.9209 131.119C36.7771 129.845 34.0036 126.449 33.7142 125.725C33.4247 125.001 34.3155 122.46 33.013 118.292C31.7105 114.125 34.576 110.347 36.4645 108.589C38.353 106.831 39.2647 105.659 41.2836 105.984Z" fill="white" stroke="#263238" stroke-width="0.428865" stroke-linecap="round" stroke-linejoin="round"/>
<path d="M41.284 105.984C41.2188 104.812 41.0886 104.356 38.679 104.096C36.2695 103.835 31.1248 103.64 29.106 107.222C27.0872 110.804 27.0872 118.618 27.0872 118.618C27.0872 118.618 21.8478 121.89 21.486 124.495C21.1242 127.1 22.8608 129.56 25.6104 130.429C25.6625 130.445 25.7175 130.458 25.7716 130.471C26.0155 129.261 26.5291 128.12 27.2742 127.135C28.8386 125.258 30.1944 125.466 32.1762 124.945C34.1893 124.415 35.4203 124.288 35.7134 122.026C35.9584 120.117 35.9702 118.186 35.7485 116.274C35.6834 115.492 36.53 114.32 36.53 114.32C36.53 114.32 38.5488 114.841 39.8512 111.324C41.1537 107.808 41.3491 107.157 41.284 105.984Z" fill="#263238" stroke="#263238" stroke-width="0.428865" stroke-linecap="round" stroke-linejoin="round"/>
<path d="M37.3765 115.297C37.3765 115.297 36.7254 112.301 35.0321 113.473C33.339 114.645 35.8787 117.967 36.2695 118.032C36.6392 118.016 36.9983 117.903 37.3115 117.706" fill="white"/>
<path d="M37.3765 115.297C37.3765 115.297 36.7254 112.301 35.0321 113.473C33.339 114.645 35.8787 117.967 36.2695 118.032C36.6392 118.016 36.9983 117.903 37.3115 117.706" stroke="#263238" stroke-width="0.428865" stroke-linecap="round" stroke-linejoin="round"/>
<path d="M40.6976 120.051L38.6787 119.79L40.5797 120.124L40.6976 120.051Z" fill="#263238" stroke="#263238" stroke-width="0.428865" stroke-linecap="round" stroke-linejoin="round"/>
<path d="M42.8402 112.136C42.9252 112.577 42.8366 112.966 42.6424 113.003C42.4481 113.04 42.2217 112.713 42.1368 112.271C42.0518 111.83 42.1404 111.442 42.3346 111.404C42.5289 111.367 42.7552 111.694 42.8402 112.136Z" fill="#263238"/>
<path d="M32.4709 132.87L31.793 132.025" stroke="#263238" stroke-width="0.428865" stroke-linecap="round" stroke-linejoin="round"/>
<path d="M30.0485 124.848C30.0485 124.848 27.524 124.761 25.6089 127.459C23.6938 130.158 24.3902 133.553 24.9125 134.946C25.4348 136.339 29.6132 144.521 30.2226 145.566C30.8319 146.61 33.0081 148.09 33.5304 148.264C34.0527 148.438 35.7937 138.863 35.6196 137.992C35.4456 137.122 31.4412 131.029 31.4412 131.029" fill="white"/>
<path d="M30.0485 124.848C30.0485 124.848 27.524 124.761 25.6089 127.459C23.6938 130.158 24.3902 133.553 24.9125 134.946C25.4348 136.339 29.6132 144.521 30.2226 145.566C30.8319 146.61 33.0081 148.09 33.5304 148.264C34.0527 148.438 35.7937 138.863 35.6196 137.992C35.4456 137.122 31.4412 131.029 31.4412 131.029" stroke="#263238" stroke-width="0.428865" stroke-linecap="round" stroke-linejoin="round"/>
<path d="M31.7929 147.812C31.0364 147.718 30.2734 147.685 29.5115 147.713C28.87 147.803 29.0156 147.911 29.3628 148.258C29.71 148.606 30.4538 148.457 30.4538 148.457L31.7929 147.812Z" stroke="#263238" stroke-width="0.428865" stroke-linecap="round" stroke-linejoin="round"/>
<path d="M50.1287 142.705C50.8159 143.343 52.3376 147.516 49.3923 148.105C46.447 148.694 38.691 147.908 38.3965 148.203C38.1019 148.497 35.6475 150.412 35.1075 150.804C34.5484 151.142 33.9563 151.422 33.3404 151.639C33.3404 151.639 32.2113 152.523 31.9168 152.326C31.6223 152.13 32.2113 151.639 32.2113 151.639C31.7159 151.941 31.1892 152.187 30.6405 152.375C30.2478 152.424 30.2969 151.835 30.2969 151.835C30.1151 151.927 29.9096 151.962 29.7078 151.934C29.6687 151.789 29.6661 151.637 29.7004 151.491C29.7347 151.346 29.8047 151.211 29.9042 151.099C30.2478 150.706 31.9168 149.086 31.9168 149.086C31.5225 149.205 31.1435 149.37 30.7877 149.577C30.6895 149.725 30.1005 150.117 29.7569 150.412C29.4133 150.706 29.1187 150.657 29.0205 150.412C28.9224 150.166 29.4549 149.339 30.0215 148.772C30.5882 148.205 33.516 147.072 34.0826 147.072C34.6493 147.072 39.4658 145.561 39.4658 145.561C39.4658 145.561 48.3124 142.509 48.5578 142.41" fill="white"/>
<path d="M50.1287 142.705C50.8159 143.343 52.3376 147.516 49.3923 148.105C46.447 148.694 38.691 147.908 38.3965 148.203C38.1019 148.497 35.6475 150.412 35.1075 150.804C34.5484 151.142 33.9563 151.422 33.3404 151.639C33.3404 151.639 32.2113 152.523 31.9168 152.326C31.6223 152.13 32.2113 151.639 32.2113 151.639C31.7159 151.941 31.1892 152.187 30.6405 152.375C30.2478 152.424 30.2969 151.835 30.2969 151.835C30.1151 151.927 29.9096 151.962 29.7078 151.934C29.6687 151.789 29.6661 151.637 29.7004 151.491C29.7347 151.346 29.8047 151.211 29.9042 151.099C30.2478 150.706 31.9168 149.086 31.9168 149.086C31.5225 149.205 31.1435 149.37 30.7877 149.577C30.6895 149.725 30.1005 150.117 29.7569 150.412C29.4133 150.706 29.1187 150.657 29.0205 150.412C28.9224 150.166 29.4549 149.339 30.0215 148.772C30.5882 148.205 33.516 147.072 34.0826 147.072C34.6493 147.072 39.4658 145.561 39.4658 145.561C39.4658 145.561 48.3124 142.509 48.5578 142.41" stroke="#263238" stroke-width="0.428865" stroke-linecap="round" stroke-linejoin="round"/>
<path d="M42.4874 144.534C42.4874 144.534 43.5316 146.066 42.209 148.084" stroke="#263238" stroke-width="0.428865" stroke-linecap="round" stroke-linejoin="round"/>
<path d="M30.2969 151.835L32.1405 150.292L33.1324 149.498" stroke="#263238" stroke-width="0.428865" stroke-linecap="round" stroke-linejoin="round"/>
<path d="M32.2109 151.638C32.2109 151.638 33.6774 150.44 33.8261 150.391" stroke="#263238" stroke-width="0.428865" stroke-linecap="round" stroke-linejoin="round"/>
<path d="M30.2227 141.648C30.3052 143.435 29.7702 146.014 32.3859 147.661C33.6433 148.452 35.5082 149.2 36.4696 147.134C37.431 145.067 38.0905 126.527 38.0905 126.527L39.19 126.228C40.2896 125.928 40.8956 124.116 40.8956 124.116C40.7598 124.269 40.6843 124.466 40.6831 124.671C40.682 124.875 40.7552 125.073 40.8893 125.228C41.3891 125.728 43.3882 123.629 43.4882 123.029C43.5881 122.429 42.1887 120.53 42.1887 120.53C42.3747 120.42 42.5223 120.256 42.6117 120.059C42.7011 119.862 42.7279 119.643 42.6885 119.431C42.5886 118.631 39.8209 119.412 39.8209 119.412L38.1904 121.53C38.1904 121.53 35.7915 124.628 35.5916 125.428C35.4256 126.092 33.1407 133.296 31.8256 136.496" fill="white"/>
<path d="M30.2227 141.648C30.3052 143.435 29.7702 146.014 32.3859 147.661C33.6433 148.452 35.5082 149.2 36.4696 147.134C37.431 145.067 38.0905 126.527 38.0905 126.527L39.19 126.228C40.2896 125.928 40.8956 124.116 40.8956 124.116C40.7598 124.269 40.6843 124.466 40.6831 124.671C40.682 124.875 40.7552 125.073 40.8893 125.228C41.3891 125.728 43.3882 123.629 43.4882 123.029C43.5881 122.429 42.1887 120.53 42.1887 120.53C42.3747 120.42 42.5223 120.256 42.6117 120.059C42.7011 119.862 42.7279 119.643 42.6885 119.431C42.5886 118.631 39.8209 119.412 39.8209 119.412L38.1904 121.53C38.1904 121.53 35.7915 124.628 35.5916 125.428C35.4256 126.092 33.1407 133.296 31.8256 136.496" stroke="#263238" stroke-width="0.428865" stroke-linecap="round" stroke-linejoin="round"/>
<path d="M33.9248 130.821L37.5446 132.214" stroke="#263238" stroke-width="0.428865" stroke-linecap="round" stroke-linejoin="round"/>
</g>
<defs>
<clipPath id="clip0_79_3724">
<rect width="218" height="206.264" fill="white"/>
</clipPath>
</defs>
</svg>
