<svg width="226" height="225" viewBox="0 0 226 225" fill="none" xmlns="http://www.w3.org/2000/svg">
<g clip-path="url(#clip0_79_3629)">
<path d="M1.33437 124.948C-1.19967 113.241 -0.104774 101.039 4.47307 89.97C10.7368 74.485 24.1929 63.4827 39.2702 57.0624C61.1811 47.7323 82.6905 47.5549 100.5 29.2726C105.994 23.6336 110.605 17.1749 116.215 11.6524C132.765 -4.63777 156.988 -2.65988 175.076 10.2563C212.81 37.201 226.382 90.566 224.283 134.685C223.341 154.484 213.889 172.911 198.928 185.901C165.09 215.281 107.635 210.339 68.7716 195.004C39.7902 183.567 8.13971 156.888 1.33437 124.948Z" fill="#D5E1F7"/>
<path d="M173.472 30.6582H171.574" stroke="#263238" stroke-width="0.542258" stroke-linejoin="round"/>
<path d="M167.783 30.6581H48.3809" stroke="#263238" stroke-width="0.542258" stroke-linejoin="round" stroke-dasharray="3.79 3.79"/>
<path d="M46.4858 30.6581H44.5879" stroke="#263238" stroke-width="0.542258" stroke-linejoin="round"/>
<path d="M174.784 185.142V183.245" stroke="#263238" stroke-width="0.542258" stroke-linejoin="round"/>
<path d="M174.784 179.414V35.7836" stroke="#263238" stroke-width="0.542258" stroke-linejoin="round" stroke-dasharray="3.83 3.83"/>
<path d="M174.784 33.8682V31.9703" stroke="#263238" stroke-width="0.542258" stroke-linejoin="round"/>
<path d="M176.099 29.3438H173.472V31.971H176.099V29.3438Z" stroke="#263238" stroke-width="0.542258" stroke-linejoin="round"/>
<path d="M196.747 38.5175L177.657 30.498L185.676 49.5882L187.892 43.1294L192.155 47.3916L194.551 44.9959L190.288 40.7332L196.747 38.5175Z" stroke="#263238" stroke-width="0.542258" stroke-linecap="round" stroke-linejoin="round"/>
<path d="M159.954 206.761H141.115C140.444 206.74 139.8 206.489 139.291 206.051C138.782 205.613 138.438 205.014 138.317 204.353L136.219 191.198C136.158 190.901 136.165 190.594 136.239 190.3C136.314 190.006 136.454 189.733 136.65 189.501C136.845 189.269 137.091 189.085 137.368 188.962C137.645 188.839 137.946 188.78 138.249 188.79H157.089C157.76 188.811 158.404 189.061 158.913 189.5C159.422 189.938 159.766 190.537 159.887 191.198L161.985 204.353C162.046 204.65 162.039 204.957 161.964 205.251C161.89 205.545 161.75 205.818 161.554 206.05C161.359 206.281 161.113 206.466 160.836 206.589C160.559 206.712 160.258 206.771 159.954 206.761Z" stroke="#263238" stroke-width="0.542258" stroke-linecap="round" stroke-linejoin="round"/>
<path d="M159.954 206.761C160.594 206.761 161.208 206.506 161.661 206.054C162.114 205.601 162.368 204.987 162.368 204.346V189.514C162.367 188.905 162.135 188.319 161.719 187.874C161.303 187.43 160.734 187.159 160.126 187.117L159.54 185.609C159.486 185.471 159.392 185.352 159.269 185.269C159.147 185.185 159.002 185.14 158.854 185.14H152.694C152.546 185.14 152.401 185.185 152.279 185.269C152.157 185.352 152.063 185.471 152.009 185.609L151.429 187.1H141.115C140.61 187.1 140.118 187.258 139.707 187.552C139.297 187.846 138.989 188.262 138.827 188.74" stroke="#263238" stroke-width="0.542258" stroke-linecap="round" stroke-linejoin="round"/>
<path d="M89.099 206.761H70.2598C69.5884 206.74 68.9445 206.49 68.4353 206.051C67.9261 205.613 67.5825 205.014 67.4616 204.353L65.3636 191.198C65.3023 190.901 65.3093 190.594 65.3839 190.3C65.4585 190.006 65.5988 189.733 65.7943 189.501C65.9897 189.27 66.2352 189.085 66.5123 188.962C66.7894 188.839 67.0908 188.78 67.3938 188.79H86.2331C86.9045 188.811 87.5484 189.062 88.0576 189.5C88.5668 189.938 88.9104 190.537 89.0313 191.198L91.1293 204.353C91.1905 204.65 91.1836 204.957 91.109 205.251C91.0344 205.545 90.894 205.818 90.6986 206.05C90.5031 206.282 90.2576 206.466 89.9805 206.589C89.7035 206.712 89.4021 206.771 89.099 206.761Z" stroke="#263238" stroke-width="0.542258" stroke-linecap="round" stroke-linejoin="round"/>
<path d="M89.0993 206.761C89.7396 206.761 90.3537 206.506 90.8064 206.054C91.2592 205.601 91.5135 204.987 91.5136 204.346V189.514C91.5125 188.905 91.2805 188.319 90.8645 187.874C90.4485 187.43 89.8793 187.159 89.2717 187.117L88.6852 185.609C88.6315 185.471 88.5373 185.352 88.415 185.269C88.2927 185.185 88.148 185.14 87.9998 185.14H81.8398C81.6916 185.14 81.5469 185.185 81.4246 185.269C81.3023 185.352 81.2082 185.471 81.1545 185.609L80.5746 187.1H70.2601C69.7552 187.1 69.2631 187.258 68.8528 187.552C68.4425 187.846 68.1347 188.262 67.9727 188.74" stroke="#263238" stroke-width="0.542258" stroke-linecap="round" stroke-linejoin="round"/>
<path d="M124.527 206.761H105.688C105.016 206.74 104.372 206.49 103.863 206.051C103.354 205.613 103.01 205.014 102.889 204.353L100.791 191.198C100.73 190.901 100.737 190.594 100.812 190.3C100.886 190.006 101.027 189.733 101.222 189.501C101.417 189.27 101.663 189.085 101.94 188.962C102.217 188.839 102.519 188.78 102.822 188.79H121.661C122.332 188.811 122.976 189.062 123.485 189.5C123.994 189.938 124.338 190.537 124.459 191.198L126.557 204.353C126.618 204.65 126.611 204.957 126.537 205.251C126.462 205.545 126.322 205.818 126.126 206.05C125.931 206.282 125.685 206.466 125.408 206.589C125.131 206.712 124.83 206.771 124.527 206.761Z" stroke="#263238" stroke-width="0.542258" stroke-linecap="round" stroke-linejoin="round"/>
<path d="M124.526 206.761C125.166 206.761 125.78 206.506 126.233 206.054C126.686 205.601 126.94 204.987 126.94 204.346V189.514C126.939 188.905 126.707 188.319 126.291 187.874C125.875 187.43 125.306 187.159 124.698 187.117L124.112 185.609C124.058 185.471 123.964 185.352 123.842 185.269C123.719 185.185 123.575 185.14 123.427 185.14H117.267C117.118 185.14 116.974 185.185 116.851 185.269C116.729 185.352 116.635 185.471 116.581 185.609L116.001 187.1H105.687C105.182 187.1 104.69 187.258 104.28 187.552C103.869 187.846 103.561 188.262 103.399 188.74" stroke="#263238" stroke-width="0.542258" stroke-linecap="round" stroke-linejoin="round"/>
<path d="M134.886 59.991L139.992 53.6817C140.567 52.9707 140.976 52.1399 141.188 51.2503C141.4 50.3607 141.411 49.4348 141.218 48.5407L136.374 26.0615C136.194 25.2246 135.732 24.4747 135.066 23.9369C134.4 23.399 133.569 23.1057 132.713 23.1057H123.325C122.657 23.1057 121.994 23.2151 121.362 23.4295L30.5498 60.6168L53.564 180.128C56.7926 184.977 147.591 153.603 147.591 153.603C149.038 153.12 150.252 152.112 150.994 150.778C151.735 149.445 151.951 147.882 151.598 146.398L133.023 68.1843C132.686 66.767 132.679 65.2915 133.002 63.8711C133.325 62.4507 133.97 61.1233 134.886 59.991Z" fill="#263238" stroke="#263238" stroke-width="0.542258" stroke-linecap="round" stroke-linejoin="round"/>
<path opacity="0.3" d="M121.603 25.761L150.349 148.95C150.349 148.95 53.1608 185.153 57.7406 173.952C57.7406 173.952 34.6115 63.8999 36.5621 63.4928C38.5128 63.0857 121.603 25.761 121.603 25.761Z" fill="black" fill-opacity="0.7"/>
<path d="M145.598 146.756L61.7829 173.365L41.2644 66.4408L40.0967 60.3577L114.768 24.2281C115.139 24.0662 115.541 23.987 115.946 23.9962C116.35 24.0054 116.748 24.1027 117.111 24.2813C117.475 24.4599 117.795 24.7155 118.049 25.0304C118.303 25.3452 118.486 25.7117 118.584 26.1044L120.127 32.1417L148.158 141.998C148.431 142.968 148.317 144.006 147.839 144.894C147.362 145.782 146.558 146.449 145.598 146.756Z" fill="white"/>
<mask id="mask0_79_3629" style="mask-type:luminance" maskUnits="userSpaceOnUse" x="40" y="23" width="109" height="151">
<path d="M145.598 146.756L61.7829 173.365L41.2644 66.4408L40.0967 60.3577L114.768 24.2281C115.139 24.0662 115.541 23.987 115.946 23.9962C116.35 24.0054 116.748 24.1027 117.111 24.2813C117.475 24.4599 117.795 24.7155 118.049 25.0304C118.303 25.3452 118.486 25.7117 118.584 26.1044L120.127 32.1417L148.158 141.998C148.431 142.968 148.317 144.006 147.839 144.894C147.362 145.782 146.558 146.449 145.598 146.756Z" fill="white"/>
</mask>
<g mask="url(#mask0_79_3629)">
<path d="M120.127 32.1417L41.8633 67.9658L40.0967 60.3577L114.768 24.2281C115.139 24.0662 115.541 23.987 115.946 23.9962C116.35 24.0054 116.748 24.1027 117.111 24.2813C117.475 24.4599 117.795 24.7155 118.049 25.0304C118.303 25.3452 118.486 25.7117 118.584 26.1044L120.127 32.1417Z" fill="#263238"/>
<path d="M116.206 29.4913C116.225 29.7298 116.195 29.9696 116.116 30.1955C116.037 30.4214 115.912 30.6285 115.749 30.8034C115.586 30.9783 115.388 31.1173 115.168 31.2114C114.948 31.3055 114.711 31.3527 114.472 31.35C113.974 31.2762 113.522 31.0206 113.202 30.6326C112.881 30.2446 112.716 29.7517 112.738 29.2491C112.719 29.0106 112.749 28.7708 112.828 28.5449C112.907 28.319 113.032 28.1119 113.195 27.937C113.358 27.7621 113.556 27.6232 113.776 27.529C113.996 27.4349 114.233 27.3877 114.472 27.3904C114.97 27.4642 115.422 27.7199 115.743 28.1079C116.063 28.4959 116.228 28.9887 116.206 29.4913Z" fill="#263238" stroke="#263238" stroke-width="0.542258" stroke-linecap="round" stroke-linejoin="round"/>
<path d="M111.734 31.7044C111.752 31.9257 111.723 32.1483 111.65 32.3579C111.577 32.5676 111.461 32.7598 111.31 32.9221C111.158 33.0845 110.975 33.2134 110.771 33.3008C110.566 33.3882 110.346 33.432 110.124 33.4295C109.662 33.3609 109.242 33.1237 108.945 32.7635C108.648 32.4034 108.495 31.9459 108.515 31.4794C108.497 31.2581 108.526 31.0355 108.599 30.8258C108.672 30.6162 108.787 30.424 108.939 30.2617C109.09 30.0993 109.274 29.9703 109.478 29.883C109.682 29.7956 109.902 29.7518 110.124 29.7543C110.586 29.8228 111.006 30.0601 111.304 30.4202C111.601 30.7804 111.754 31.2378 111.734 31.7044Z" fill="#263238" stroke="#263238" stroke-width="0.542258" stroke-linecap="round" stroke-linejoin="round"/>
<path d="M107.511 33.6177C107.528 33.8247 107.501 34.0329 107.433 34.229C107.364 34.4252 107.256 34.6049 107.114 34.7568C106.973 34.9086 106.801 35.0293 106.61 35.111C106.419 35.1927 106.213 35.2337 106.005 35.2314C105.573 35.1673 105.18 34.9454 104.902 34.6085C104.624 34.2716 104.481 33.8437 104.5 33.4073C104.483 33.2003 104.51 32.9921 104.578 32.7959C104.646 32.5998 104.755 32.42 104.897 32.2682C105.038 32.1163 105.21 31.9957 105.401 31.9139C105.592 31.8322 105.798 31.7912 106.005 31.7936C106.438 31.8577 106.831 32.0796 107.109 32.4165C107.387 32.7534 107.53 33.1813 107.511 33.6177Z" fill="#263238" stroke="#263238" stroke-width="0.542258" stroke-linecap="round" stroke-linejoin="round"/>
<path opacity="0.3" d="M145.598 146.756L61.7829 173.365L41.2644 66.4408L40.0967 60.3577L114.768 24.2281C115.139 24.0662 115.541 23.987 115.946 23.9962C116.35 24.0054 116.748 24.1027 117.111 24.2813C117.475 24.4599 117.795 24.7155 118.049 25.0304C118.303 25.3452 118.486 25.7117 118.584 26.1044L120.127 32.1417L148.158 141.998C148.431 142.968 148.317 144.006 147.839 144.894C147.362 145.782 146.558 146.449 145.598 146.756Z" fill="black" fill-opacity="0.7"/>
</g>
<path d="M145.598 146.756L61.7829 173.365L41.2644 66.4408L40.0967 60.3577L114.768 24.2281C115.139 24.0662 115.541 23.987 115.946 23.9962C116.35 24.0054 116.748 24.1027 117.111 24.2813C117.475 24.4599 117.795 24.7155 118.049 25.0304C118.303 25.3452 118.486 25.7117 118.584 26.1044L120.127 32.1417L148.158 141.998C148.431 142.968 148.317 144.006 147.839 144.894C147.362 145.782 146.558 146.449 145.598 146.756Z" stroke="#263238" stroke-width="0.542258" stroke-linecap="round" stroke-linejoin="round"/>
<path d="M140.638 141.486L57.9549 173.952L37.7135 68.4605L36.5615 62.459L110.225 21.1121C110.57 20.918 110.955 20.8058 111.35 20.7843C111.745 20.7628 112.14 20.8326 112.504 20.9882C112.868 21.1438 113.191 21.3812 113.449 21.6818C113.706 21.9824 113.891 22.3383 113.989 22.7218L115.511 28.6513L143.163 136.549C143.417 137.538 143.3 138.586 142.835 139.495C142.37 140.404 141.589 141.112 140.638 141.486Z" fill="white" stroke="#263238" stroke-width="0.542258" stroke-linecap="round" stroke-linejoin="round"/>
<path d="M115.511 28.6513L38.3043 69.9437L36.5615 62.459L110.225 21.1121C110.57 20.918 110.955 20.8058 111.35 20.7843C111.745 20.7628 112.14 20.8326 112.504 20.9882C112.868 21.1438 113.191 21.3812 113.449 21.6818C113.706 21.9824 113.891 22.3383 113.989 22.7218L115.511 28.6513Z" fill="#263238"/>
<path d="M111.644 26.2756C111.595 26.6033 111.454 26.9103 111.237 27.1601C111.019 27.4099 110.735 27.5919 110.417 27.6846C110.099 27.7772 109.761 27.7765 109.443 27.6827C109.125 27.5888 108.841 27.4056 108.625 27.155C108.408 26.9044 108.268 26.5968 108.221 26.2689C108.175 25.941 108.223 25.6065 108.361 25.3054C108.499 25.0042 108.72 24.7489 108.999 24.5699C109.277 24.3909 109.602 24.2958 109.933 24.2958C110.421 24.334 110.875 24.5634 111.195 24.9341C111.516 25.3048 111.677 25.7868 111.644 26.2756Z" fill="#263238" stroke="#263238" stroke-width="0.542258" stroke-linecap="round" stroke-linejoin="round"/>
<path d="M107.231 28.8007C107.187 29.1049 107.056 29.3898 106.854 29.6217C106.652 29.8535 106.388 30.0225 106.093 30.1085C105.797 30.1944 105.484 30.1938 105.189 30.1067C104.894 30.0196 104.631 29.8496 104.43 29.6169C104.229 29.3843 104.099 29.0988 104.055 28.7945C104.012 28.4901 104.057 28.1797 104.185 27.9002C104.312 27.6206 104.518 27.3837 104.777 27.2175C105.035 27.0514 105.336 26.9631 105.644 26.9631C106.097 26.9986 106.518 27.2115 106.815 27.5555C107.113 27.8996 107.262 28.347 107.231 28.8007Z" fill="#263238" stroke="#263238" stroke-width="0.542258" stroke-linecap="round" stroke-linejoin="round"/>
<path d="M103.065 31.0092C103.024 31.2937 102.901 31.5603 102.712 31.7772C102.523 31.994 102.276 32.1521 102 32.2325C101.724 32.3129 101.43 32.3123 101.155 32.2308C100.879 32.1493 100.632 31.9903 100.444 31.7727C100.256 31.5551 100.135 31.288 100.094 31.0033C100.054 30.7186 100.096 30.4283 100.215 30.1668C100.335 29.9052 100.527 29.6836 100.769 29.5282C101.011 29.3729 101.293 29.2902 101.58 29.2903C102.004 29.3235 102.398 29.5226 102.676 29.8445C102.954 30.1663 103.094 30.5849 103.065 31.0092Z" fill="#263238" stroke="#263238" stroke-width="0.542258" stroke-linecap="round" stroke-linejoin="round"/>
<path opacity="0.3" d="M114.64 31.3187L138.988 126.652C139.036 126.842 139.016 127.042 138.93 127.217C138.845 127.393 138.7 127.533 138.522 127.612L136.301 128.595C136.193 128.643 136.075 128.667 135.957 128.665C135.838 128.663 135.722 128.634 135.615 128.582C135.509 128.53 135.415 128.456 135.34 128.364C135.266 128.272 135.212 128.164 135.183 128.049L111.486 33.2612C111.426 33.0234 111.446 32.7728 111.543 32.5477C111.64 32.3226 111.808 32.1355 112.022 32.0152L113.854 30.983C113.926 30.9425 114.007 30.9191 114.089 30.9146C114.172 30.9101 114.254 30.9246 114.33 30.9571C114.406 30.9895 114.473 31.039 114.527 31.1017C114.581 31.1644 114.619 31.2387 114.64 31.3187Z" fill="black" fill-opacity="0.7"/>
<path d="M112.549 34.0741L113.894 33.3313C114.023 33.2602 114.166 33.2197 114.313 33.2128C114.459 33.206 114.606 33.2329 114.741 33.2916C114.875 33.3503 114.995 33.4392 115.089 33.5514C115.184 33.6636 115.252 33.7961 115.288 33.9386L117.775 43.9249C117.836 44.1682 117.813 44.4247 117.711 44.6537C117.609 44.8826 117.434 45.0709 117.212 45.1884L115.572 46.0593C115.479 46.1087 115.376 46.1362 115.271 46.1399C115.165 46.1435 115.061 46.1231 114.964 46.0803C114.868 46.0375 114.783 45.9733 114.715 45.8927C114.648 45.8121 114.599 45.7171 114.574 45.6149L112.002 35.3297C111.942 35.0895 111.963 34.8361 112.062 34.609C112.161 34.3819 112.332 34.1939 112.549 34.0741Z" fill="#BFBFBF" stroke="#263238" stroke-width="0.542258" stroke-linecap="round" stroke-linejoin="round"/>
<path opacity="0.4" d="M124.706 140.814L71.4482 162.745" stroke="black" stroke-width="1.08452" stroke-linecap="round" stroke-linejoin="round"/>
<path opacity="0.4" d="M131.906 134.128L64.248 162.745" stroke="black" stroke-width="1.08452" stroke-linecap="round" stroke-linejoin="round"/>
<path opacity="0.3" d="M125.259 105.347L119.802 82.1321L105.004 89.1999L110.413 112.337L125.259 105.347Z" fill="black" fill-opacity="0.7"/>
<path opacity="0.3" d="M98.9736 63.4075L104.113 85.3901L118.885 78.2366L113.59 55.7107L98.9736 63.4075Z" fill="black" fill-opacity="0.7"/>
<path opacity="0.3" d="M113.122 53.7196L108.796 35.3137L94.1943 42.9617L98.521 61.4684L113.122 53.7196Z" fill="black" fill-opacity="0.7"/>
<path opacity="0.3" d="M110.95 114.631L115.928 135.922L130.905 129.363L125.873 107.955L110.95 114.631Z" fill="black" fill-opacity="0.7"/>
<path d="M30.5498 60.617L53.564 180.128C60.93 171.715 113.547 133.178 113.547 133.178C115.549 131.725 117.082 129.717 117.954 127.402C118.827 125.087 119.001 122.567 118.456 120.153L94.0842 15.691C93.8787 14.7818 93.4397 13.9419 92.8106 13.2542C92.1814 12.5665 91.3838 12.0547 90.4964 11.7693C89.6091 11.484 88.6627 11.4349 87.7506 11.627C86.8385 11.8191 85.9922 12.2456 85.2953 12.8646C85.2953 12.8646 36.3651 43.6061 30.5498 60.617Z" fill="#263238" stroke="#263238" stroke-width="0.542258" stroke-linecap="round" stroke-linejoin="round"/>
<g opacity="0.7">
<path d="M114.278 123.883C113.932 123.883 113.597 123.766 113.325 123.552C113.053 123.339 112.861 123.04 112.78 122.704C112.365 120.995 111.957 119.284 111.557 117.571C111.465 117.173 111.535 116.754 111.75 116.407C111.966 116.06 112.311 115.813 112.709 115.72C113.107 115.627 113.526 115.696 113.873 115.911C114.22 116.126 114.468 116.471 114.562 116.869C114.96 118.573 115.365 120.275 115.778 121.976C115.833 122.203 115.835 122.439 115.786 122.667C115.736 122.896 115.635 123.11 115.491 123.293C115.346 123.477 115.162 123.625 114.952 123.727C114.742 123.83 114.512 123.883 114.278 123.883Z" fill="white"/>
</g>
<g opacity="0.7">
<path d="M111.128 110.153C110.779 110.153 110.44 110.034 110.167 109.816C109.894 109.597 109.703 109.293 109.625 108.952L88.5167 16.2831C88.511 16.2525 88.4975 16.2239 88.4774 16.2002C88.4573 16.1765 88.4314 16.1584 88.4022 16.1477C88.3747 16.1351 88.3443 16.1301 88.3142 16.1333C88.2841 16.1365 88.2554 16.1477 88.2312 16.1658C82.8121 19.7734 64.4708 32.0726 55.9723 38.8713C50.5603 43.3816 45.5977 48.561 39.9053 55.6449C39.6491 55.9638 39.2766 56.1679 38.8699 56.2122C38.4632 56.2565 38.0555 56.1375 37.7366 55.8812C37.4176 55.6249 37.2135 55.2525 37.1692 54.8457C37.1249 54.439 37.244 54.0313 37.5003 53.7124C43.3259 46.462 48.4211 41.1478 54.021 36.4812C62.4062 29.7727 79.5419 18.2437 86.5211 13.5975C86.9625 13.3037 87.4687 13.1215 87.9961 13.0667C88.5235 13.012 89.0564 13.0862 89.5488 13.283C90.0411 13.4798 90.4783 13.7933 90.8226 14.1965C91.167 14.5998 91.4081 15.0806 91.5254 15.5978L112.634 108.267C112.679 108.465 112.685 108.669 112.651 108.869C112.617 109.069 112.544 109.26 112.436 109.431C112.328 109.603 112.187 109.751 112.022 109.869C111.857 109.986 111.67 110.069 111.472 110.114C111.359 110.14 111.244 110.153 111.128 110.153Z" fill="white"/>
</g>
<path d="M49.6253 224.215C48.9001 217.663 47.9176 208.561 47.0658 199.89C45.8272 187.232 44.8635 175.513 45.3879 174.031C46.0918 172.183 46.4159 170.213 46.3408 168.237C48.9189 167.951 50.0731 164.43 50.0731 164.43L48.6886 152.058C48.6886 152.058 49.5518 128.37 48.49 121.642C47.4227 114.909 43.1098 110.402 43.0204 108.609C42.9315 106.821 46.3876 98.9468 47.5236 96.6933C48.6596 94.4398 48.0063 81.7604 46.1715 77.7967C45.7765 76.8445 45.0379 76.0758 44.1023 75.6431C42.1711 74.7816 39.9685 75.75 39.9685 75.75C39.6782 81.3582 38.0572 86.8167 35.2395 91.6743L35.2401 91.6792C33.4612 94.7677 31.8174 96.7658 31.52 98.3962C30.8862 101.89 23.1784 110.904 21.7226 115.567C20.2717 120.23 19.7952 136.086 17.5115 142.33C16.4354 145.273 12.5602 154.64 11.5405 183.213C10.9737 197.001 9.24241 210.718 6.36523 224.215H49.6253Z" fill="white"/>
<path opacity="0.4" d="M47.5233 96.6931C46.3873 98.9466 42.9312 106.821 43.02 108.609C43.1095 110.401 47.4224 114.908 48.4897 121.641C49.5515 128.37 48.6883 152.058 48.6883 152.058L50.0728 164.43C50.0728 164.43 48.9186 167.951 46.3405 168.237C46.4156 170.212 46.0914 172.183 45.3876 174.031C44.8632 175.513 45.8268 187.232 47.0655 199.89C45.7727 194.427 44.7101 190.205 44.7101 190.205C44.7101 190.205 44.1405 196.933 43.4156 202.238C42.6908 207.542 40.9333 215.097 40.9333 215.097C40.9333 215.097 37.0568 178.554 37.9548 172.45C38.8472 166.343 41.0782 167.343 39.3591 164.422C37.6455 161.506 27.2115 158.971 28.2311 156.772C29.2313 154.615 37.4053 158.477 37.7424 158.636C37.4665 158.415 32.9365 154.786 32.9704 153.106C33.0076 151.376 40.2425 155.81 40.2425 155.81C42.1766 154.616 43.9357 153.16 45.4694 151.482C47.6809 148.946 44.3991 124.669 43.7814 122.92C43.1637 121.171 39.2854 121.418 38.1517 119.959C37.0178 118.499 40.0971 117.847 39.5063 115.62C38.9154 113.393 37.3244 113.59 37.3244 113.59C37.3244 113.59 39.8714 109.868 39.6424 106.62C39.4175 103.367 43.6358 99.4572 43.3314 97.114C42.1461 87.9889 36.7141 94.2757 35.2398 91.679L35.2391 91.6741C38.0569 86.8165 39.6779 81.3579 39.9682 75.7497C39.9682 75.7497 42.1708 74.7814 44.102 75.6429C45.0376 76.0756 45.7762 76.8443 46.1712 77.7965C48.006 81.7601 48.6593 94.4396 47.5233 96.6931Z" fill="#263238"/>
<path d="M8.11914 215.097C9.97423 204.558 11.1168 193.905 11.5391 183.212C12.5597 154.641 16.4364 145.273 17.5127 142.331C19.7971 136.088 20.2719 120.231 21.7246 115.568C23.1773 110.904 30.888 101.888 31.5173 98.3957C32.1466 94.9035 39.0246 89.6844 39.9669 75.748C39.9669 75.748 44.3332 73.8313 46.1692 77.7964C48.0052 81.7614 48.6598 94.4399 47.5229 96.6943C46.386 98.9488 42.9299 106.819 43.0194 108.61C43.109 110.401 47.424 114.909 48.4876 121.64C49.551 128.371 48.6862 152.059 48.6862 152.059L50.0708 164.429C50.0708 164.429 48.9207 167.953 46.3409 168.237C46.417 170.212 46.093 172.182 45.3883 174.029C44.5729 176.326 47.3317 203.204 49.1668 220.049" stroke="#263238" stroke-width="0.542258" stroke-linecap="round" stroke-linejoin="round"/>
<path d="M43.0198 108.61C43.0198 108.61 41.6585 112.4 39.0215 112.393" stroke="#263238" stroke-width="0.542258" stroke-linecap="round" stroke-linejoin="round"/>
<path d="M42.1421 110.307C42.1421 110.307 42.9446 114.914 40.0967 117.848" stroke="#263238" stroke-width="0.542258" stroke-linecap="round" stroke-linejoin="round"/>
<path d="M32.4922 96.1323C32.4922 96.1323 35.6911 95.5016 37.6952 96.7088" stroke="#263238" stroke-width="0.542258" stroke-linecap="round" stroke-linejoin="round"/>
<path d="M30.2686 157.564C30.2686 157.564 40.664 160.828 42.3077 162.481C43.9513 164.134 46.3416 168.237 46.3416 168.237" stroke="#263238" stroke-width="0.542258" stroke-linecap="round" stroke-linejoin="round"/>
<path d="M38.3867 155.964C39.9115 157.682 43.3293 159.644 44.948 161.17C46.5666 162.696 47.3687 166.096 47.3687 166.096" stroke="#263238" stroke-width="0.542258" stroke-linecap="round" stroke-linejoin="round"/>
<path d="M45.2139 155.164C45.2139 155.164 47.6145 153.971 48.85 150.212" stroke="#263238" stroke-width="0.542258" stroke-linecap="round" stroke-linejoin="round"/>
<path d="M42.4089 169.012C40.131 170.158 40.0699 183.217 41.2718 198.003" stroke="#263238" stroke-width="0.542258" stroke-linecap="round" stroke-linejoin="round"/>
<path d="M43.6006 171.715C43.622 173.16 45.5593 184.179 46.4527 193.439" stroke="#263238" stroke-width="0.542258" stroke-linecap="round" stroke-linejoin="round"/>
<path d="M135.693 82.8349C135.693 82.8349 131.444 90.5975 131.485 92.3544C131.525 94.1113 139.604 106.304 139.834 107.685C140.064 109.065 145.905 111.739 148.04 113.15C150.176 114.561 152.876 104.307 152.528 96.9217C152.179 89.5362 135.693 82.8349 135.693 82.8349Z" fill="white"/>
<mask id="mask1_79_3629" style="mask-type:luminance" maskUnits="userSpaceOnUse" x="131" y="82" width="22" height="32">
<path d="M135.693 82.834C135.693 82.834 131.444 90.5967 131.485 92.3535C131.525 94.1104 139.604 106.303 139.834 107.684C140.064 109.065 145.905 111.738 148.04 113.149C150.176 114.56 152.876 104.306 152.528 96.9208C152.179 89.5353 135.693 82.834 135.693 82.834Z" fill="white"/>
</mask>
<g mask="url(#mask1_79_3629)">
<path opacity="0.5" d="M135.693 82.834C135.693 82.834 131.444 90.5967 131.485 92.3535C131.525 94.1104 139.604 106.303 139.834 107.684C140.064 109.065 145.905 111.738 148.04 113.149C150.176 114.56 152.876 104.306 152.528 96.9208C152.179 89.5353 135.693 82.834 135.693 82.834Z" fill="#5AABE4"/>
</g>
<path d="M135.693 82.8349C135.693 82.8349 131.444 90.5975 131.485 92.3544C131.525 94.1113 139.604 106.304 139.834 107.685C140.064 109.065 145.905 111.739 148.04 113.15C150.176 114.561 152.876 104.307 152.528 96.9217C152.179 89.5362 135.693 82.8349 135.693 82.8349Z" stroke="#263238" stroke-width="0.542258" stroke-linecap="round" stroke-linejoin="round"/>
<path d="M138.602 97.2653C138.602 97.2653 142.776 95.3657 147.317 100.428" stroke="#263238" stroke-width="0.542258" stroke-linecap="round" stroke-linejoin="round"/>
<path d="M224.751 169.475L199.252 198.258C199.252 198.258 195.059 193.037 189.815 186.658C182.361 177.593 172.782 166.191 170.073 164.113C166.766 161.573 145.262 146.868 139.321 139.589C138.468 138.543 137.728 137.62 137.073 136.776V136.771C133.148 131.721 132.371 129.553 130.42 122.5C128.149 114.259 125.648 109.708 125.012 106.66C124.993 106.57 124.974 106.476 124.955 106.377C124.3 102.994 123.15 92.8169 121.657 90.2302C120.116 87.5634 126.232 86.2724 128.564 87.7566C130.896 89.236 136.71 96.4495 136.343 102.659C136.343 102.659 140.913 113.925 143.245 113.619C143.245 113.619 142.944 102.334 141.394 99.578C140.674 98.32 140.265 96.9081 140.202 95.4601C140.179 95.1112 140.19 94.7609 140.235 94.4141C140.235 94.4141 133.045 86.6588 130.934 81.4384C128.819 76.2179 124.677 68.1799 123.881 60.3586C123.881 60.3586 122.953 54.7377 126.359 52.1887C127.659 51.2134 128.856 50.9401 130.067 52.6222C130.71 53.6073 131.218 54.6736 131.579 55.7931C136.682 70.1965 142.986 75.7137 142.986 75.7137C145.451 76.3566 147.861 77.1915 150.195 78.2109C150.708 78.4645 151.201 78.7558 151.67 79.0826H151.679V79.0872C153.017 79.9872 154.648 81.2923 156.325 82.5691C158.747 84.4067 161.267 86.1876 163.161 86.6023C169.758 88.0346 172.929 91.3846 172.929 91.3846C172.929 91.3846 177.31 90.4516 179.628 94.5319C181.876 98.4802 183.115 99.2671 183.115 99.2671C183.148 99.2671 184.769 99.2812 186.097 102.184C188.439 107.3 195.478 134.566 195.822 135.669C198.654 144.687 207.073 154.365 216.699 162.845L216.7 162.847L216.701 162.849L216.702 162.85L216.704 162.85C219.328 165.159 222.038 167.378 224.751 169.475Z" fill="white"/>
<path opacity="0.4" d="M151.68 79.0875C151.676 79.0872 151.673 79.0854 151.67 79.0826H151.68V79.0875Z" fill="#5AABE4"/>
<path opacity="0.4" d="M158.77 90.1405C158.77 90.1405 151.147 88.7647 149.644 85.3064C148.145 81.848 141.761 74.465 140.235 73.9844C139.807 73.8414 139.348 73.8208 138.909 73.9248C138.47 74.0289 138.069 74.2535 137.752 74.5733C137.752 74.5733 135.108 70.3941 133.12 66.7898C131.231 63.3644 121.892 53.0884 130.067 52.622C130.71 53.6071 131.218 54.6734 131.579 55.7929C136.682 70.1963 142.986 75.7135 142.986 75.7135C145.451 76.3563 147.861 77.1913 150.195 78.2107C150.707 78.4643 151.2 78.7556 151.67 79.0824C151.472 79.0352 148.423 78.2767 149.026 79.8362C149.644 81.4523 154.614 85.9519 157.225 87.926C159.835 89.9049 158.77 90.1405 158.77 90.1405Z" fill="#5AABE4"/>
<path opacity="0.4" d="M216.699 162.845C212.388 160.485 205.876 156.588 203.699 153.526C200.345 148.805 197.857 146.444 195.624 143.707C193.386 140.974 189.159 138.741 190.154 139.113C191.148 139.485 195.624 141.026 195.624 141.026C193.106 137.632 191.096 133.889 189.659 129.916C187.049 122.957 182.299 98.4847 178.77 95.7661C175.241 93.0475 178.77 119.781 178.77 119.781C176.517 114.548 174.834 109.087 173.752 103.493C172.136 94.7107 170.662 90.3996 168.753 89.2122C166.845 88.0296 163.189 90.5268 162.195 89.2122C161.201 87.9024 162.322 87.4171 156.324 82.5689C158.746 84.4064 161.267 86.1874 163.161 86.602C169.757 88.0344 172.928 91.3843 172.928 91.3843C172.928 91.3843 177.31 90.4514 179.628 94.5316C181.875 98.48 183.114 99.2668 183.114 99.2668C183.147 99.2668 184.768 99.281 186.097 102.183C188.438 107.3 195.478 134.566 195.822 135.669C198.653 144.687 207.073 154.364 216.699 162.845Z" fill="#5AABE4"/>
<path opacity="0.4" d="M145.761 118.801C145.483 120.45 143.429 115.625 143.245 116.37C143.062 117.119 142.506 119.564 142.473 118.801C142.444 118.038 138.091 115.625 137.342 112.021C136.597 108.416 136.103 106.876 135.73 105.971C135.358 105.062 134.694 106.574 134.651 104.388C134.614 102.433 128.314 100.369 124.955 106.376C124.3 102.993 123.15 92.8164 121.657 90.2297C120.116 87.5629 126.232 86.2719 128.564 87.7561C130.896 89.2355 136.71 96.449 136.343 102.659C136.343 102.659 140.913 113.924 143.245 113.618C143.245 113.618 142.944 102.334 141.394 99.5775C140.674 98.3195 140.265 96.9076 140.202 95.4596L142.473 95.7658C143.085 97.1133 141.889 99.0263 142.473 99.9969C143.062 100.963 146.732 108.035 145.516 111.691C144.301 115.343 146.039 117.152 145.761 118.801Z" fill="#5AABE4"/>
<path opacity="0.4" d="M189.815 186.658C182.361 177.592 172.782 166.19 170.073 164.113C166.766 161.573 145.262 146.868 139.321 139.589C138.468 138.543 137.728 137.619 137.073 136.776C140.236 140.638 144.101 142.671 145.792 143.585C148.774 145.196 157.412 146.589 163.439 153.13C166.368 156.308 168.038 158.619 171.642 162.595C175.242 166.572 180.462 166.822 183.567 172.292C185.127 175.034 187.714 181.211 189.815 186.658Z" fill="#5AABE4"/>
<path d="M199.252 198.259C199.252 198.259 174.687 167.657 170.074 164.114C166.767 161.574 145.262 146.87 139.32 139.589C133.377 132.309 132.695 130.738 130.422 122.498C128.148 114.259 125.65 109.708 125.01 106.658C124.37 103.608 123.193 92.8938 121.655 90.2292C120.117 87.5646 126.233 86.2742 128.563 87.7544C130.894 89.2345 136.709 96.4516 136.343 102.66C136.343 102.66 140.914 113.925 143.245 113.617C143.245 113.617 142.942 102.334 141.392 99.5778C140.474 98.0211 140.07 96.2149 140.236 94.4155C140.236 94.4155 133.044 86.6586 130.932 81.4371C128.819 76.2156 124.675 68.1795 123.88 60.3594C123.88 60.3594 122.951 54.7395 126.359 52.1869C128.194 50.8126 129.822 50.8318 131.579 55.7925C136.683 70.196 142.986 75.7144 142.986 75.7144C145.451 76.3562 147.861 77.1901 150.195 78.2087C153.23 79.6354 159.418 85.7865 163.163 86.601C169.757 88.0352 172.928 91.3867 172.928 91.3867C172.928 91.3867 177.312 90.4523 179.629 94.5304C181.874 98.4813 183.113 99.2686 183.113 99.2686C183.113 99.2686 184.753 99.2551 186.095 102.182C188.441 107.3 195.477 134.564 195.824 135.67C199.429 147.145 212.086 159.694 224.753 169.477" stroke="#263238" stroke-width="0.542258" stroke-linecap="round" stroke-linejoin="round"/>
<path d="M142.986 75.7146C142.986 75.7146 149.227 84.3571 153.597 86.0129" stroke="#263238" stroke-width="0.542258" stroke-linecap="round" stroke-linejoin="round"/>
<path d="M153.257 87.9281C157.467 89.2763 160.183 90.0788 160.957 93.2509C161.732 96.4229 163.984 103.598 165.068 106.42C166.152 109.242 168.754 116.371 168.754 116.371" stroke="#263238" stroke-width="0.542258" stroke-linecap="round" stroke-linejoin="round"/>
<path d="M143.245 113.618C143.245 113.618 146.109 117.344 145.405 120.995" stroke="#263238" stroke-width="0.542258" stroke-linecap="round" stroke-linejoin="round"/>
<path d="M142.03 113.016C142.03 113.016 141.905 117.068 142.923 119.78" stroke="#263238" stroke-width="0.542258" stroke-linecap="round" stroke-linejoin="round"/>
<path d="M140.236 94.4156C140.236 94.4156 142.535 95.6549 143.083 97.115" stroke="#263238" stroke-width="0.542258" stroke-linecap="round" stroke-linejoin="round"/>
<path d="M141.907 100.941C142.476 102.173 143.193 103.331 144.043 104.389C145.153 105.609 145.676 109.573 145.676 109.573" stroke="#263238" stroke-width="0.542258" stroke-linecap="round" stroke-linejoin="round"/>
<path d="M125.01 106.658C125.01 106.658 127.488 103.868 130.048 103.491" stroke="#263238" stroke-width="0.542258" stroke-linecap="round" stroke-linejoin="round"/>
<path d="M136.741 75.1701C136.741 75.1701 139.622 73.0107 141.809 74.5011" stroke="#263238" stroke-width="0.542258" stroke-linecap="round" stroke-linejoin="round"/>
<path d="M184.728 106.292C185.304 107.871 188.253 122.12 188.995 124.147" stroke="#263238" stroke-width="0.542258" stroke-linecap="round" stroke-linejoin="round"/>
<path d="M164.556 89.9611C164.556 89.9611 167.264 88.0189 170.662 90.3989C174.06 92.779 174.064 93.93 176.155 93.3704C176.785 93.2269 177.442 93.2592 178.054 93.4637C178.667 93.6683 179.212 94.0372 179.629 94.5302" stroke="#263238" stroke-width="0.542258" stroke-linecap="round" stroke-linejoin="round"/>
<path d="M175.487 99.9949C176.028 103.194 178.329 118.827 179.44 122.75" stroke="#263238" stroke-width="0.542258" stroke-linecap="round" stroke-linejoin="round"/>
</g>
<defs>
<clipPath id="clip0_79_3629">
<rect width="225.024" height="224.215" fill="white"/>
</clipPath>
</defs>
</svg>
