<svg class="svg" width="843" height="515" viewBox="0 0 843 515" fill="none" xmlns="http://www.w3.org/2000/svg">
	<path d="
		M 0.999997 30.0009
		L 0.999997 92.0009
		C 0.999997 106.36 
		12.6406 118.001 
		27 118.001
		L 123 118.001
		M 240 381.5
		L 31 382
		M 360 118.001
		L 396 118.001
		C 410.359 118.001 
		422 106.36 
		422 92.001
		L 422 30.0009
		M 451 1.00027
		L 611 1.00027
		M 755.5 1.00007
		L 811 1.00007
		M 842 30
		L 842 350
		M 842 410
		L 842 487.501
		C 842 501.86 
		830.359 513.501 
		816 513.501
		L 780 513.501
		M 559.5 513.501
		L 447.781 513.501
		C 433.41 513.501 
		421.764 501.841 
		421.781 487.469
		L 421.875 410
		M 391 381
		L 327.5 381.25" stroke="#E8491F" stroke-width="2" stroke-dasharray="4 4" />
</svg>